<svg xmlns="http://www.w3.org/2000/svg" viewBox="0 0 245.81 228.64"><defs><style>.cls-1{fill:#e5e3df;}.cls-2{fill:#edb159;}.cls-3{fill:#f0e3ca;}.cls-4{fill:#fff;}.cls-5{fill:#360d0a;}.cls-6{fill:#350d0a;}.cls-7{fill:#370f0b;}.cls-8{fill:#3b130e;}</style></defs><g id="圖層_2" data-name="圖層 2"><g id="圖層_1-2" data-name="圖層 1"><path class="cls-1" d="M137.89,72.67c1,3.5,1,3.4,5,3.53,3.41.11,6.78-.39,10.18-.52,9-.35,17.95.31,26.91.61a254.68,254.68,0,0,1,34.05,3.3c8.53,1.44,17,3.06,24.8,6.9,4.63,2.26,7.25,5.56,6.94,11.16-.54,9.85-.87,19.72-1.18,29.59-.23,7.11-.35,14.26-1,21.35-1.06,12.51-.85,25.15-3.93,37.45A31.15,31.15,0,0,1,232.59,199c-8.05,9.26-18.89,13.51-30.14,17-11.41,3.53-23.2,5.39-35,7-8.93,1.2-17.9,2.07-26.85,3.08-8.3.94-16.62,1.6-25,2.1a315.72,315.72,0,0,1-31.67.24c-13.29-.52-26.58-1.84-39.4-5.84-8.87-2.77-17.27-6.33-23.85-13.33-3.81-4.06-5.74-8.83-6.79-14.12C12,185.42,10,175.79,8.21,166.12S4.8,146.93,3.32,137.29q-1.77-11.5-3.25-23c-.44-3.47,1.13-6.42,3.46-9,4.23-4.69,9.65-7.64,15.34-10,14.79-6.1,30.29-9.56,46-12.17,9.3-1.55,18.65-2.65,28-3.87,2.83-.37,5.73-.2,8.49-1.12,1,.08,1,1,1.25,1.63A65,65,0,0,0,110,96.31a2.46,2.46,0,0,1,.51,2.11c-1.19,1.36-2.92,1.06-4.41,1.26-11.86,1.62-23.59,3.93-35.25,6.57q-13.5,3-26.64,7.4a81.74,81.74,0,0,0-14.1,6.24,2.78,2.78,0,0,1-1.7.21c-6.16-1.34-12.36-2.52-18.25-4.88-2.56-1-4.76-2.4-5.18-5.5,0,3.13,1.83,4.84,4.5,6a90.72,90.72,0,0,0,14.76,4.41c1,.23,2.7-.13,2.6,1.83-4.5,3.44-3.91,8.33-3.58,13,.46,6.63.72,13.27,1.37,19.89,1,10.24,1.25,20.6,4.69,30.48a23.38,23.38,0,0,0,13.51,14.49,68.49,68.49,0,0,0,22.57,4.93c4.56.29,9.12.83,13.7.53,7.13-.47,14.27-.8,21.39-1.33,6.88-.5,13.76-1,20.63-1.58,15.75-1.33,31.43-3.21,47-6a279.85,279.85,0,0,0,37.34-9,47.37,47.37,0,0,0,8.82-4.08c3.74-2.12,5.46-5.73,6.61-9.62a67.24,67.24,0,0,0,2.54-17.24c.35-13.21-.8-26.42-.44-39.65.07-2.58-2-4.11-2.9-6.22.24-1.65,1.74-1.6,2.82-2,5.26-1.85,10.5-3.7,15.23-6.76a12.17,12.17,0,0,0,4.12-4.23,3.68,3.68,0,0,0,.18-4c0,3.75-2.21,5.9-5.11,7.6a74.85,74.85,0,0,1-18.12,7.52,3,3,0,0,1-2,0,60.08,60.08,0,0,0-13.51-5.68c-2.69-.84-5.37-1.64-7.69-3.41-1.53-1.17-3.51-1.46-5.4-1.77a171.68,171.68,0,0,0-17.83-1.64c-5.65-.34-11.29-.63-16.92-.41-6,.24-11.94.31-17.9.83-1.28.11-2.7.42-3.53-1.08a2,2,0,0,1,.13-1.46c2.66-4.72,2.37-9.9,2.49-15C137.14,77,136.37,74.68,137.89,72.67Z"/><path class="cls-2" d="M136.7,72.67c-.16,5.19.19,10.37-.46,15.57-.34,2.75-1.77,4.92-2.68,7.36a6,6,0,0,1-.85,2.28,97.43,97.43,0,0,1-9.23,11.91c-.67.77-1.46,2.33-3,.88a5.47,5.47,0,0,1-.63-3.14c.32-10.35-1.21-20.55-2.38-31.31a38.8,38.8,0,0,0,.19,6.61c.37,7.55,1.15,15.08,1.17,22.64a10.94,10.94,0,0,1-.22,3c-.37,1-1.08,1-1.65.32-2.82-3.39-6-6.56-7.84-10.64a75,75,0,0,1-9-20c-.36-2.54-.79-5.08-1.06-7.63C98,60,100.26,49.83,102.87,39.78c3.11-12,6.6-23.82,9-36,.26-1.28,0-2.7.9-3.82C120.34,6.41,135,49.29,136.7,72.67Z"/><path class="cls-3" d="M220.22,110.16c2.86,2.76,3.78,6.06,3.59,10a136.76,136.76,0,0,0,0,18.22c.47,5.74.37,11.45.32,17.17a105.31,105.31,0,0,1-1.79,15.49c-1.39,8.78-6.78,13.71-14.74,16.42a243.56,243.56,0,0,1-39.29,9.54c-8.24,1.34-16.46,2.74-24.72,3.88-5.4.75-10.85,1.1-16.28,1.6q-10.62,1-21.23,1.94c-2.56.23-5.14.36-7.68.45-8.62.31-17.22,1.57-25.85,1.07-9.75-.56-19.45-1.33-28.75-4.9-9.14-3.51-14.16-10.21-16.45-19.4-1.82-7.33-2.33-14.83-3.07-22.32-.8-8.06-1.05-16.16-1.85-24.23a36.18,36.18,0,0,1,.14-8.19,6.36,6.36,0,0,1,4.28-5.35c1.06-.91,2.23-.44,3.34-.22a262.56,262.56,0,0,0,33.14,4.38,414.91,414.91,0,0,0,43.9,1A476.42,476.42,0,0,0,188,117.39c9.77-2,19.52-4.22,29.13-7C218.12,110.11,219.13,109.43,220.22,110.16Z"/><path class="cls-3" d="M122.3,111.21a79.16,79.16,0,0,0,10.91-13.38l1.54-2.23c.88,1,2,.59,3.06.5a210.88,210.88,0,0,1,29.3-.84c7.65.39,15.36.44,22.94,1.86,3,.57,6.07,1,8.34,3.41.51.52,1.2.48,1.81.7,6,2.19,12.38,3.3,17.54,7.4-.51,1.19-1.67,1.27-2.69,1.54a466.3,466.3,0,0,1-67.83,12.59c-7.34.79-14.7,1.47-22.08,1.95a3.29,3.29,0,0,1-2.59-.59A20.37,20.37,0,0,1,122.3,111.21Z"/><path class="cls-3" d="M110.35,98.12c3.18,3.53,5.6,7.68,9,11,1.52.9,1.12,2.43,1.17,3.77.16,3.85.11,7.73,1.39,11.45-2,1.4-4.32.86-6.45.94-10.29.38-20.58,1-30.87.55-15-.57-30-1.22-44.89-3.48-2.38-.36-4.73-.86-7.1-1.31-1-.19-2.19-.27-2.73-1.44,3.3-2.78,7.32-4.15,11.26-5.61a256.64,256.64,0,0,1,37.11-10.18c10.34-2.14,20.71-4.26,31.26-5.25C109.8,98.57,110.07,98.29,110.35,98.12Z"/><path class="cls-4" d="M29.88,119.63a90.83,90.83,0,0,0,13.35,2.45c8.61.94,17.24,1.67,25.87,2.48.24,0,.49,0,.74,0,11.36.32,22.73,1,34.07.37,4.94-.27,10,.29,14.83-.83,1.06-.25,2,1,3.07.07a.57.57,0,0,1,.87-.16c5.52-.41,11.06-.6,16.56-1.29,4.84-.6,9.71-1,14.55-1.58q12.78-1.67,25.47-3.88c12.56-2.22,24.94-5.22,37.32-8.22a8.68,8.68,0,0,0,1.16-.45c7.11-2,14-4.42,20.27-8.53,2.29-1.51,4.3-3.22,3.31-6.45a1,1,0,0,1,.59-1.24c.73-.3,1.05.26,1.31.79,1,1.93.43,3.67-.67,5.36-2.44,3.76-6.4,5.43-10.2,7.19a78.7,78.7,0,0,1-12.12,4.41,411.4,411.4,0,0,1-42.74,10c-9.67,1.81-19.41,3.21-29.16,4.35-8,.94-16,1.61-24,2.18a402.2,402.2,0,0,1-40.78.82c-9.33-.28-18.67-.78-28-1.73-9.64-1-19.16-2.58-28.7-4.17-4.66-1.64-9.65-2.12-14.25-4-1.46-.59-2.86-1.34-4.36-1.78-3.23-.93-3.53-3.8-4.42-6.3-.15-.42.06-.63.39-.76.65-.25,1.35,0,1.42.59.63,4.94,4.88,5.35,8.33,6.49A100,100,0,0,0,29.88,119.63Z"/><path class="cls-4" d="M109.33,217.06c-9-.44-18-.89-27-1.94A285.27,285.27,0,0,1,45,208.5c-7.47-1.91-15-3.89-21.82-7.57-1.3-.69-2.74-1.25-3.46-2.7-.33-.65-.52-1.32.15-1.8s1.11.08,1.47.7c.93,1.61,2.63,2.17,4.19,2.88,9.18,4.21,19,6.35,28.78,8.51,7.27,1.6,14.67,2.37,22,3.55,14.68,2.35,29.45,2.1,44.21,1.9,7.85-.11,15.67-1,23.49-1.85A245.21,245.21,0,0,0,182.29,205c14.87-4.07,29.82-8.08,43.61-15.27a43.78,43.78,0,0,0,9.95-7,6.07,6.07,0,0,1,.92-.84c.77-.46,1.79-1.31,2.46-.55.86,1-.56,1.49-1.09,2.06-6,6.38-13.82,10-21.82,13.07a292.52,292.52,0,0,1-38.9,12.25,309.52,309.52,0,0,1-32.17,5.91,241.53,241.53,0,0,1-26.73,2C115.47,216.65,112.41,217,109.33,217.06Z"/><path class="cls-4" d="M236.72,127.68c-.27-5.74.85-12,.5-18.34-.07-1.4.37-2.6,1.95-2.63s2,1.12,2.05,2.55c.12,8.55-.83,17.08-.54,25.64,0,1.55-.76,3-2.39,3s-1.58-1.6-1.58-2.87C236.72,132.74,236.72,130.49,236.72,127.68Z"/><path class="cls-4" d="M240.22,151.54c.45,2.59-.65,5.67-.5,8.82.06,1.19-.17,2.2-1.67,2.2s-2.18-.82-2.34-2.3c-.21-2,.51-3.93.51-5.92,0-2.73,0-5.47,0-8.21,0-1.3.43-2.46,1.88-2.4a2.12,2.12,0,0,1,2.13,2.51C240.15,147.81,240.22,149.39,240.22,151.54Z"/><path class="cls-5" d="M122.68,124.05l-.87.16c-1.69,0-1.33-1.38-1.42-2.33-.38-4.24-.7-8.49-1-12.73.07-9-.75-17.93-1.3-26.88q-.19-3.36-.29-6.73c0-.54,0-1.31.75-1.34s.82.68.89,1.27c.64,5.94,1.4,11.88,1.88,17.84s.69,11.93,1,17.9A103.87,103.87,0,0,0,122.68,124.05Z"/><path class="cls-6" d="M154.34,136.3c-1.75,0-3.5,0-5.25,0a10.85,10.85,0,0,0-10.48,6.28c-1.58,3-3.21,6-4.82,9a17.81,17.81,0,0,1-3,4.25c-3.5,3.46-7.72,3.15-10.57-.92a23.09,23.09,0,0,1-2.83-5c-3.79-10.12-11.7-13.47-21.75-13.89-13.06-.56-26.13,0-39.18-.51-6.3-.24-12.64-.54-18.82-2a10.38,10.38,0,0,1-5.1-2.47c-.47-.45-1-1-.34-1.69s1,.07,1.42.42c2.66,2.25,6,2.29,9.18,2.7a182.9,182.9,0,0,0,23.41,1.15c10.89,0,21.8-.65,32.68.37,6.36.59,12.29,2.22,16.47,7.59,1.7,2.18,2.74,4.74,4,7.15a26.1,26.1,0,0,0,3.29,5.28c1.82,2,3.84,2.09,5.83.22s3.16-4.45,4.5-6.84c1-1.81,2-3.66,2.87-5.52,2.79-5.71,7.33-8.27,13.67-8.09,4.63.14,9.3.48,13.88-.79a51.88,51.88,0,0,0,7.72-2.8,43.7,43.7,0,0,1,17.93-3.73,82.57,82.57,0,0,0,16.57-1.86,24,24,0,0,0,9.23-4.19c.76-.55,1.68-1.69,2.51-.48s-.65,1.65-1.35,2.18a28.5,28.5,0,0,1-14.54,5.39c-6.77.76-13.56,1.29-20.34,2-3.61.37-6.83,2-10.11,3.42C165.69,135.28,160.23,136.84,154.34,136.3Z"/><path class="cls-7" d="M156.72,109.6a21.24,21.24,0,0,0-6.91.87c-.73.23-1.66.42-1.91-.52s.73-1.12,1.42-1.35c7-2.25,14-1.55,20.86.38a8,8,0,0,1,1.92,1.12.87.87,0,0,1,.35,1.28.91.91,0,0,1-1.28.32C166.56,109.59,161.53,110.35,156.72,109.6Z"/><path class="cls-8" d="M95.63,114.81c.47,0,1.33.13,1.46,1s-.82.72-1.36,1c-1.12.5-2.17,1.14-3.28,1.67-.54.26-1.13.33-1.5-.31a1,1,0,0,1,.3-1.31A6.12,6.12,0,0,1,95.63,114.81Z"/></g></g></svg>