<svg xmlns="http://www.w3.org/2000/svg" viewBox="0 0 245.81 226.51"><defs><style>.cls-1{fill:#e5e3df;}.cls-2{fill:#edb159;}.cls-3{fill:#f0e3ca;}.cls-4{fill:#fff;}.cls-5{fill:#360d0a;}.cls-6{fill:#350d0a;}.cls-7{fill:#370f0b;}.cls-8{fill:#3b130e;}</style></defs><g id="圖層_2" data-name="圖層 2"><g id="圖層_1-2" data-name="圖層 1"><path class="cls-1" d="M137.89,70.54c1,3.49,1,3.39,5,3.52,3.41.12,6.78-.39,10.18-.52,9-.35,17.95.31,26.91.62a256.32,256.32,0,0,1,34.05,3.29c8.53,1.45,17,3.06,24.8,6.9,4.63,2.27,7.25,5.56,6.94,11.16-.54,9.85-.87,19.72-1.18,29.59-.23,7.12-.35,14.26-1,21.36-1.06,12.5-.85,25.15-3.93,37.45a31.12,31.12,0,0,1-7.14,12.93c-8.05,9.26-18.89,13.52-30.14,17-11.41,3.52-23.2,5.38-35,7-8.93,1.2-17.9,2.07-26.85,3.08-8.3.94-16.62,1.61-25,2.11-10.57.64-21.14.65-31.67.24-13.29-.52-26.58-1.85-39.4-5.85-8.87-2.76-17.27-6.32-23.85-13.33C16.9,203,15,198.22,13.92,192.93,12,183.28,10,173.66,8.21,164S4.8,144.79,3.32,135.16Q1.55,123.64.07,112.1c-.44-3.47,1.13-6.42,3.46-9,4.23-4.69,9.65-7.63,15.34-10C33.66,87,49.16,83.57,64.89,81c9.3-1.54,18.65-2.65,28-3.87,2.83-.37,5.73-.2,8.49-1.11,1,.07,1,1,1.25,1.62A65,65,0,0,0,110,94.18a2.45,2.45,0,0,1,.51,2.11c-1.19,1.35-2.92,1.06-4.41,1.26-11.86,1.61-23.59,3.93-35.25,6.56-9,2-17.88,4.49-26.64,7.41a81,81,0,0,0-14.1,6.24,2.77,2.77,0,0,1-1.7.2c-6.16-1.33-12.36-2.51-18.25-4.88-2.56-1-4.76-2.4-5.18-5.49,0,3.12,1.83,4.84,4.5,6A89.74,89.74,0,0,0,24.24,118c1,.24,2.7-.13,2.6,1.83-4.5,3.44-3.91,8.34-3.58,13,.46,6.62.72,13.27,1.37,19.88,1,10.25,1.25,20.6,4.69,30.48a23.42,23.42,0,0,0,13.51,14.5,68.48,68.48,0,0,0,22.57,4.92c4.56.29,9.12.84,13.7.53,7.13-.46,14.27-.8,21.39-1.32,6.88-.51,13.76-1,20.63-1.59,15.75-1.33,31.43-3.2,47-6a278.31,278.31,0,0,0,37.34-9,48,48,0,0,0,8.82-4.07c3.74-2.13,5.46-5.73,6.61-9.63a67.23,67.23,0,0,0,2.54-17.23c.35-13.22-.8-26.43-.44-39.65.07-2.59-2-4.11-2.9-6.23.24-1.65,1.74-1.59,2.82-2,5.26-1.86,10.5-3.7,15.23-6.76a12.26,12.26,0,0,0,4.12-4.23,3.7,3.7,0,0,0,.18-4c0,3.75-2.21,5.9-5.11,7.61a75.25,75.25,0,0,1-18.12,7.52,3.09,3.09,0,0,1-2,0A60.11,60.11,0,0,0,203.74,101c-2.69-.84-5.37-1.64-7.69-3.41-1.53-1.16-3.51-1.45-5.4-1.77a169,169,0,0,0-17.83-1.63,164.92,164.92,0,0,0-16.92-.41c-6,.23-11.94.3-17.9.82-1.28.11-2.7.42-3.53-1.08a2,2,0,0,1,.13-1.46c2.66-4.72,2.37-9.9,2.49-15C137.14,74.86,136.37,72.54,137.89,70.54Z"/><path class="cls-2" d="M133.74,66.39c.88,5.11,2.26,10.12,2.67,15.34.22,2.77-.75,5.18-1.15,7.75a5.83,5.83,0,0,1-.37,2.4,96.84,96.84,0,0,1-6.65,13.52c-.51.9-1,2.58-2.72,1.46a5.37,5.37,0,0,1-1.25-3C122.5,93.71,119,84,115.65,73.72a37.73,37.73,0,0,0,1.52,6.44c1.87,7.32,4.15,14.53,5.68,21.94a10.17,10.17,0,0,1,.38,3c-.15,1.09-.85,1.21-1.55.65-3.44-2.76-7.15-5.23-9.82-8.85a75.31,75.31,0,0,1-12.81-17.8c-.86-2.42-1.79-4.82-2.57-7.26C93.3,61.71,93.46,51.33,94,41c.64-12.34,1.67-24.66,1.59-37,0-1.31-.58-2.65.12-3.93C104.4,4.76,127.41,43.81,133.74,66.39Z"/><path class="cls-3" d="M220.22,108c2.86,2.76,3.78,6.06,3.59,10.06a136.61,136.61,0,0,0,0,18.21c.47,5.74.37,11.46.32,17.18,0,5.2-1,10.33-1.79,15.48-1.39,8.78-6.78,13.72-14.74,16.42a244.64,244.64,0,0,1-39.29,9.55c-8.24,1.33-16.46,2.73-24.72,3.88-5.4.74-10.85,1.09-16.28,1.6q-10.62,1-21.23,1.93c-2.56.23-5.14.37-7.68.46-8.62.3-17.22,1.57-25.85,1.07-9.75-.57-19.45-1.34-28.75-4.91-9.14-3.51-14.16-10.21-16.45-19.4-1.82-7.33-2.33-14.82-3.07-22.31-.8-8.07-1.05-16.17-1.85-24.23a36.17,36.17,0,0,1,.14-8.19,6.35,6.35,0,0,1,4.28-5.35c1.06-.91,2.23-.45,3.34-.22a264.38,264.38,0,0,0,33.14,4.37,412.25,412.25,0,0,0,43.9,1A477.43,477.43,0,0,0,188,115.26c9.77-2,19.52-4.23,29.13-7C218.12,108,219.13,107.29,220.22,108Z"/><path class="cls-3" d="M122.3,109.07A79.09,79.09,0,0,0,133.21,95.7l1.54-2.24c.88,1,2,.59,3.06.5a212.44,212.44,0,0,1,29.3-.84c7.65.4,15.36.45,22.94,1.87,3,.57,6.07,1,8.34,3.4.51.53,1.2.49,1.81.71,6,2.18,12.38,3.29,17.54,7.39-.51,1.19-1.67,1.28-2.69,1.54a465,465,0,0,1-67.83,12.59c-7.34.79-14.7,1.48-22.08,1.95a3.25,3.25,0,0,1-2.59-.59A20.37,20.37,0,0,1,122.3,109.07Z"/><path class="cls-3" d="M110.35,96c3.18,3.53,5.6,7.67,9,11,1.52.9,1.12,2.43,1.17,3.77.16,3.86.11,7.73,1.39,11.45-2,1.41-4.32.86-6.45.94-10.29.38-20.58,1-30.87.56-15-.58-30-1.23-44.89-3.49-2.38-.36-4.73-.85-7.1-1.3-1-.2-2.19-.27-2.73-1.45,3.3-2.78,7.32-4.15,11.26-5.61a255.33,255.33,0,0,1,37.11-10.17c10.34-2.15,20.71-4.27,31.26-5.25C109.8,96.43,110.07,96.15,110.35,96Z"/><path class="cls-4" d="M29.88,117.49A89.56,89.56,0,0,0,43.23,120c8.61.94,17.24,1.66,25.87,2.47.24,0,.49,0,.74,0,11.36.32,22.73,1,34.07.37,4.94-.28,10,.29,14.83-.84,1.06-.24,2,1,3.07.08a.58.58,0,0,1,.87-.17c5.52-.4,11.06-.6,16.56-1.29,4.84-.6,9.71-.94,14.55-1.57,8.52-1.11,17-2.39,25.47-3.89C191.82,113,204.2,110,216.58,107a8.74,8.74,0,0,0,1.16-.46c7.11-2,14-4.41,20.27-8.52,2.29-1.52,4.3-3.22,3.31-6.46a1,1,0,0,1,.59-1.23c.73-.31,1.05.26,1.31.78,1,1.93.43,3.68-.67,5.36-2.44,3.76-6.4,5.43-10.2,7.2a78.66,78.66,0,0,1-12.12,4.4,406.34,406.34,0,0,1-42.74,10c-9.67,1.81-19.41,3.21-29.16,4.36-8,.93-16,1.61-24,2.17a405.13,405.13,0,0,1-40.78.83c-9.33-.29-18.67-.79-28-1.73-9.64-1-19.16-2.59-28.7-4.17-4.66-1.65-9.65-2.12-14.25-4a45.31,45.31,0,0,0-4.36-1.78c-3.23-.94-3.53-3.8-4.42-6.31-.15-.41.06-.63.39-.75.65-.26,1.35,0,1.42.58.63,5,4.88,5.35,8.33,6.49A97.82,97.82,0,0,0,29.88,117.49Z"/><path class="cls-4" d="M109.33,214.93c-9-.44-18-.89-27-1.94A285.29,285.29,0,0,1,45,206.36c-7.47-1.9-15-3.88-21.82-7.56-1.3-.7-2.74-1.26-3.46-2.71-.33-.65-.52-1.32.15-1.8s1.11.08,1.47.71c.93,1.61,2.63,2.16,4.19,2.87,9.18,4.21,19,6.35,28.78,8.51,7.27,1.6,14.67,2.38,22,3.55,14.68,2.35,29.45,2.1,44.21,1.9,7.85-.11,15.67-1,23.49-1.85a244,244,0,0,0,38.24-7.17c14.87-4.06,29.82-8.07,43.61-15.26a43.82,43.82,0,0,0,9.95-7,6,6,0,0,1,.92-.83c.77-.47,1.79-1.32,2.46-.56.86,1-.56,1.5-1.09,2.06-6,6.38-13.82,10-21.82,13.07a291.11,291.11,0,0,1-38.9,12.26,306.87,306.87,0,0,1-32.17,5.9,241.54,241.54,0,0,1-26.73,2C115.47,214.52,112.41,214.89,109.33,214.93Z"/><path class="cls-4" d="M236.72,125.54c-.27-5.74.85-12,.5-18.33-.07-1.4.37-2.61,1.95-2.64s2,1.12,2.05,2.55c.12,8.55-.83,17.08-.54,25.64,0,1.55-.76,3-2.39,3s-1.58-1.6-1.58-2.88C236.72,130.61,236.72,128.36,236.72,125.54Z"/><path class="cls-4" d="M240.22,149.4c.45,2.59-.65,5.67-.5,8.82.06,1.19-.17,2.21-1.67,2.21s-2.18-.83-2.34-2.31c-.21-2,.51-3.93.51-5.91,0-2.74,0-5.47,0-8.21,0-1.3.43-2.46,1.88-2.4a2.11,2.11,0,0,1,2.13,2.5C240.15,145.67,240.22,147.25,240.22,149.4Z"/><path class="cls-5" d="M122.68,121.91l-.87.17c-1.69,0-1.33-1.39-1.42-2.34-.38-4.24-.7-8.49-1-12.73.07-9-.75-17.93-1.3-26.88q-.19-3.36-.29-6.72c0-.54,0-1.32.75-1.34s.82.67.89,1.26c.64,6,1.4,11.88,1.88,17.84s.69,11.93,1,17.9A103.81,103.81,0,0,0,122.68,121.91Z"/><path class="cls-6" d="M154.34,134.16c-1.75,0-3.5,0-5.25,0a10.84,10.84,0,0,0-10.48,6.29c-1.58,3-3.21,6-4.82,9a17.67,17.67,0,0,1-3,4.26c-3.5,3.46-7.72,3.14-10.57-.93a23.09,23.09,0,0,1-2.83-5c-3.79-10.12-11.7-13.47-21.75-13.89-13.06-.55-26.13,0-39.18-.51-6.3-.24-12.64-.53-18.82-2a10.55,10.55,0,0,1-5.1-2.47c-.47-.46-1-1-.34-1.69s1,.06,1.42.41c2.66,2.26,6,2.29,9.18,2.71a181.09,181.09,0,0,0,23.41,1.14c10.89,0,21.8-.65,32.68.37,6.36.6,12.29,2.23,16.47,7.59a46.55,46.55,0,0,1,4,7.16,26.31,26.31,0,0,0,3.29,5.27c1.82,2,3.84,2.09,5.83.23s3.16-4.46,4.5-6.84c1-1.82,2-3.66,2.87-5.53,2.79-5.7,7.33-8.27,13.67-8.08,4.63.13,9.3.47,13.88-.79a51.92,51.92,0,0,0,7.72-2.81,43.85,43.85,0,0,1,17.93-3.72,83.3,83.3,0,0,0,16.57-1.86,24.06,24.06,0,0,0,9.23-4.2c.76-.55,1.68-1.68,2.51-.48s-.65,1.65-1.35,2.19a28.4,28.4,0,0,1-14.54,5.38c-6.77.76-13.56,1.29-20.34,2-3.61.37-6.83,2-10.11,3.42C165.69,133.14,160.23,134.7,154.34,134.16Z"/><path class="cls-7" d="M156.72,107.46a21.52,21.52,0,0,0-6.91.88c-.73.23-1.66.41-1.91-.53s.73-1.12,1.42-1.34c7-2.25,14-1.56,20.86.38A7.35,7.35,0,0,1,172.1,108a.87.87,0,0,1,.35,1.28.91.91,0,0,1-1.28.32C166.56,107.45,161.53,108.21,156.72,107.46Z"/><path class="cls-8" d="M95.63,112.67c.47,0,1.33.13,1.46,1s-.82.72-1.36,1c-1.12.5-2.17,1.13-3.28,1.67-.54.26-1.13.33-1.5-.32-.29-.5-.07-.92.3-1.31A6.2,6.2,0,0,1,95.63,112.67Z"/></g></g></svg>