<svg xmlns="http://www.w3.org/2000/svg" viewBox="0 0 245.81 226.69"><defs><style>.cls-1{fill:#e5e3df;}.cls-2{fill:#edb159;}.cls-3{fill:#f0e3ca;}.cls-4{fill:#fff;}.cls-5{fill:#360d0a;}.cls-6{fill:#350d0a;}.cls-7{fill:#370f0b;}.cls-8{fill:#3b130e;}</style></defs><g id="圖層_2" data-name="圖層 2"><g id="圖層_1-2" data-name="圖層 1"><path class="cls-1" d="M137.89,70.72c1,3.5,1,3.39,5,3.53,3.41.11,6.78-.39,10.18-.52,9-.35,17.95.3,26.91.61a256.32,256.32,0,0,1,34.05,3.29c8.53,1.45,17,3.06,24.8,6.9,4.63,2.27,7.25,5.56,6.94,11.17-.54,9.85-.87,19.72-1.18,29.58-.23,7.12-.35,14.26-1,21.36-1.06,12.5-.85,25.15-3.93,37.45A31.15,31.15,0,0,1,232.59,197c-8.05,9.26-18.89,13.51-30.14,17-11.41,3.53-23.2,5.39-35,7-8.93,1.21-17.9,2.07-26.85,3.09-8.3.93-16.62,1.6-25,2.1-10.57.64-21.14.65-31.67.24-13.29-.52-26.58-1.85-39.4-5.84-8.87-2.77-17.27-6.33-23.85-13.33-3.81-4.06-5.74-8.84-6.79-14.12-1.92-9.65-3.95-19.28-5.71-29S4.8,145,3.32,135.34q-1.77-11.5-3.25-23c-.44-3.48,1.13-6.42,3.46-9,4.23-4.69,9.65-7.64,15.34-10,14.79-6.1,30.29-9.56,46-12.17,9.3-1.55,18.65-2.65,28-3.87,2.83-.38,5.73-.2,8.49-1.12,1,.08,1,1,1.25,1.63A65,65,0,0,0,110,94.36a2.46,2.46,0,0,1,.51,2.11c-1.19,1.35-2.92,1.06-4.41,1.26-11.86,1.62-23.59,3.93-35.25,6.57q-13.5,3-26.64,7.4a81.74,81.74,0,0,0-14.1,6.24,2.78,2.78,0,0,1-1.7.21c-6.16-1.34-12.36-2.52-18.25-4.89-2.56-1-4.76-2.39-5.18-5.49,0,3.12,1.83,4.84,4.5,6a90.75,90.75,0,0,0,14.76,4.42c1,.23,2.7-.13,2.6,1.83-4.5,3.44-3.91,8.33-3.58,13,.46,6.63.72,13.27,1.37,19.88,1,10.25,1.25,20.61,4.69,30.48a23.37,23.37,0,0,0,13.51,14.5,68.49,68.49,0,0,0,22.57,4.93c4.56.28,9.12.83,13.7.53,7.13-.47,14.27-.81,21.39-1.33,6.88-.5,13.76-1,20.63-1.58,15.75-1.34,31.43-3.21,47-6a276.79,276.79,0,0,0,37.34-9,47.33,47.33,0,0,0,8.82-4.07c3.74-2.12,5.46-5.73,6.61-9.63a67.1,67.1,0,0,0,2.54-17.23c.35-13.22-.8-26.43-.44-39.65.07-2.59-2-4.11-2.9-6.22.24-1.65,1.74-1.6,2.82-2,5.26-1.86,10.5-3.7,15.23-6.76a12.17,12.17,0,0,0,4.12-4.23,3.69,3.69,0,0,0,.18-4c0,3.76-2.21,5.9-5.11,7.61a74.85,74.85,0,0,1-18.12,7.52,3.09,3.09,0,0,1-2,0,60.08,60.08,0,0,0-13.51-5.68,24,24,0,0,1-7.69-3.41c-1.53-1.17-3.51-1.46-5.4-1.78a174.45,174.45,0,0,0-17.83-1.63c-5.65-.34-11.29-.63-16.92-.41-6,.23-11.94.31-17.9.82-1.28.11-2.7.43-3.53-1.07a2,2,0,0,1,.13-1.46c2.66-4.72,2.37-9.91,2.49-15.05C137.14,75,136.37,72.72,137.89,70.72Z"/><path class="cls-2" d="M140.7,75.66c-1,5.09-1.56,10.26-3.07,15.27-.8,2.66-2.57,4.55-3.88,6.8a5.94,5.94,0,0,1-1.22,2.1,96.56,96.56,0,0,1-11.1,10.2c-.79.65-1.83,2-3.06.36a5.43,5.43,0,0,1-.1-3.19c2-10.15,2.26-20.47,2.92-31.27a37.16,37.16,0,0,0-.92,6.56c-.92,7.5-1.41,15.05-2.66,22.5a10.37,10.37,0,0,1-.72,2.9c-.53,1-1.23.81-1.68,0-2.21-3.82-4.77-7.46-5.94-11.8a75,75,0,0,1-5.48-21.24c.07-2.56.07-5.14.23-7.7.69-10.54,4.6-20.16,8.86-29.63C118,26.29,123.39,15.18,127.8,3.62c.46-1.22.42-2.67,1.53-3.62C135.71,7.59,143,52.33,140.7,75.66Z"/><path class="cls-3" d="M220.22,108.21c2.86,2.76,3.78,6.06,3.59,10.05a136.6,136.6,0,0,0,0,18.21c.47,5.74.37,11.46.32,17.18a105.31,105.31,0,0,1-1.79,15.49c-1.39,8.78-6.78,13.71-14.74,16.41a243.59,243.59,0,0,1-39.29,9.55c-8.24,1.33-16.46,2.74-24.72,3.88-5.4.75-10.85,1.09-16.28,1.6q-10.62,1-21.23,1.94c-2.56.22-5.14.36-7.68.45-8.62.31-17.22,1.57-25.85,1.07-9.75-.56-19.45-1.34-28.75-4.9-9.14-3.51-14.16-10.21-16.45-19.4-1.82-7.34-2.33-14.83-3.07-22.32-.8-8.07-1.05-16.17-1.85-24.23a36.17,36.17,0,0,1,.14-8.19,6.35,6.35,0,0,1,4.28-5.35c1.06-.91,2.23-.44,3.34-.22a264.4,264.4,0,0,0,33.14,4.38,414.91,414.91,0,0,0,43.9,1A477.44,477.44,0,0,0,188,115.44c9.77-2,19.52-4.22,29.13-7C218.12,108.15,219.13,107.48,220.22,108.21Z"/><path class="cls-3" d="M122.3,109.26a79.16,79.16,0,0,0,10.91-13.38c.51-.75,1-1.49,1.54-2.23.88.95,2,.58,3.06.5a209.35,209.35,0,0,1,29.3-.84c7.65.39,15.36.44,22.94,1.86,3,.57,6.07,1,8.34,3.4.51.53,1.2.49,1.81.71,6,2.19,12.38,3.29,17.54,7.4-.51,1.18-1.67,1.27-2.69,1.54a466.28,466.28,0,0,1-67.83,12.58c-7.34.8-14.7,1.48-22.08,2a3.28,3.28,0,0,1-2.59-.58A20.37,20.37,0,0,1,122.3,109.26Z"/><path class="cls-3" d="M110.35,96.17c3.18,3.53,5.6,7.68,9,11,1.52.9,1.12,2.44,1.17,3.78.16,3.85.11,7.73,1.39,11.44-2,1.41-4.32.86-6.45.94-10.29.39-20.58,1-30.87.56-15-.58-30-1.22-44.89-3.48-2.38-.36-4.73-.86-7.1-1.31-1-.19-2.19-.27-2.73-1.44,3.3-2.78,7.32-4.15,11.26-5.61a255.36,255.36,0,0,1,37.11-10.18c10.34-2.14,20.71-4.26,31.26-5.25C109.8,96.61,110.07,96.33,110.35,96.17Z"/><path class="cls-4" d="M29.88,117.68a90.83,90.83,0,0,0,13.35,2.45c8.61.94,17.24,1.66,25.87,2.48.24,0,.49,0,.74,0,11.36.32,22.73,1,34.07.37,4.94-.27,10,.29,14.83-.84,1.06-.24,2,1,3.07.08a.58.58,0,0,1,.87-.17c5.52-.4,11.06-.59,16.56-1.28,4.84-.61,9.71-1,14.55-1.58,8.52-1.11,17-2.39,25.47-3.89,12.56-2.21,24.94-5.21,37.32-8.21a8.68,8.68,0,0,0,1.16-.45c7.11-2,14-4.42,20.27-8.53,2.29-1.51,4.3-3.22,3.31-6.45a1,1,0,0,1,.59-1.24c.73-.3,1.05.26,1.31.78,1,1.94.43,3.68-.67,5.37-2.44,3.76-6.4,5.43-10.2,7.19a78.7,78.7,0,0,1-12.12,4.41,411.4,411.4,0,0,1-42.74,10c-9.67,1.81-19.41,3.21-29.16,4.35-8,.94-16,1.61-24,2.18a405.13,405.13,0,0,1-40.78.82c-9.33-.28-18.67-.78-28-1.73-9.64-1-19.16-2.58-28.7-4.17-4.66-1.64-9.65-2.12-14.25-4-1.46-.59-2.86-1.34-4.36-1.78-3.23-.93-3.53-3.8-4.42-6.31-.15-.41.06-.62.39-.75.65-.25,1.35,0,1.42.59.63,4.94,4.88,5.35,8.33,6.48A98.9,98.9,0,0,0,29.88,117.68Z"/><path class="cls-4" d="M109.33,215.11c-9-.44-18-.89-27-1.94A283.63,283.63,0,0,1,45,206.54c-7.47-1.9-15-3.88-21.82-7.56-1.3-.69-2.74-1.25-3.46-2.71-.33-.64-.52-1.31.15-1.79s1.11.08,1.47.7c.93,1.61,2.63,2.16,4.19,2.88,9.18,4.21,19,6.35,28.78,8.51,7.27,1.6,14.67,2.37,22,3.55,14.68,2.34,29.45,2.1,44.21,1.89,7.85-.1,15.67-1,23.49-1.84A245.21,245.21,0,0,0,182.29,203c14.87-4.07,29.82-8.08,43.61-15.27a43.78,43.78,0,0,0,9.95-7,5.59,5.59,0,0,1,.92-.84c.77-.46,1.79-1.32,2.46-.56.86,1-.56,1.5-1.09,2.06-6,6.39-13.82,10-21.82,13.08a292.52,292.52,0,0,1-38.9,12.25,306.87,306.87,0,0,1-32.17,5.9,239.15,239.15,0,0,1-26.73,2C115.47,214.7,112.41,215.08,109.33,215.11Z"/><path class="cls-4" d="M236.72,125.72c-.27-5.74.85-12,.5-18.33-.07-1.4.37-2.6,1.95-2.63s2,1.12,2.05,2.54c.12,8.56-.83,17.09-.54,25.65,0,1.55-.76,3-2.39,3s-1.58-1.6-1.58-2.88C236.72,130.79,236.72,128.54,236.72,125.72Z"/><path class="cls-4" d="M240.22,149.58c.45,2.59-.65,5.68-.5,8.82.06,1.19-.17,2.21-1.67,2.21s-2.18-.82-2.34-2.3c-.21-2,.51-3.93.51-5.92,0-2.73,0-5.47,0-8.21,0-1.3.43-2.46,1.88-2.4a2.12,2.12,0,0,1,2.13,2.5C240.15,145.85,240.22,147.43,240.22,149.58Z"/><path class="cls-5" d="M122.68,122.09l-.87.17c-1.69,0-1.33-1.38-1.42-2.33-.38-4.24-.7-8.49-1-12.74.07-9-.75-17.92-1.3-26.88-.13-2.23-.23-4.48-.29-6.72,0-.54,0-1.31.75-1.34s.82.68.89,1.27c.64,5.94,1.4,11.88,1.88,17.83s.69,11.94,1,17.9A103.81,103.81,0,0,0,122.68,122.09Z"/><path class="cls-6" d="M154.34,134.35c-1.75,0-3.5,0-5.25,0a10.87,10.87,0,0,0-10.48,6.29c-1.58,3-3.21,6-4.82,9a17.81,17.81,0,0,1-3,4.25c-3.5,3.46-7.72,3.15-10.57-.93a22.62,22.62,0,0,1-2.83-5c-3.79-10.11-11.7-13.46-21.75-13.89-13.06-.55-26.13,0-39.18-.5-6.3-.24-12.64-.54-18.82-2a10.47,10.47,0,0,1-5.1-2.47c-.47-.45-1-1-.34-1.69s1,.07,1.42.42c2.66,2.25,6,2.28,9.18,2.7a181.09,181.09,0,0,0,23.41,1.14c10.89,0,21.8-.65,32.68.37,6.36.6,12.29,2.23,16.47,7.6,1.7,2.18,2.74,4.74,4,7.15a26.38,26.38,0,0,0,3.29,5.28c1.82,2,3.84,2.09,5.83.22s3.16-4.46,4.5-6.84c1-1.81,2-3.66,2.87-5.53,2.79-5.7,7.33-8.26,13.67-8.08,4.63.14,9.3.47,13.88-.79a50.82,50.82,0,0,0,7.72-2.81,43.85,43.85,0,0,1,17.93-3.72,82.57,82.57,0,0,0,16.57-1.86,24.19,24.19,0,0,0,9.23-4.19c.76-.55,1.68-1.69,2.51-.48s-.65,1.65-1.35,2.18a28.5,28.5,0,0,1-14.54,5.39c-6.77.75-13.56,1.29-20.34,2-3.61.36-6.83,2-10.11,3.41C165.69,133.32,160.23,134.89,154.34,134.35Z"/><path class="cls-7" d="M156.72,107.64a21.52,21.52,0,0,0-6.91.88c-.73.23-1.66.41-1.91-.53s.73-1.12,1.42-1.34c7-2.25,14-1.55,20.86.38a7.64,7.64,0,0,1,1.92,1.12.87.87,0,0,1,.35,1.28.91.91,0,0,1-1.28.32C166.56,107.63,161.53,108.4,156.72,107.64Z"/><path class="cls-8" d="M95.63,112.85c.47.06,1.33.14,1.46,1s-.82.72-1.36,1c-1.12.5-2.17,1.14-3.28,1.67-.54.26-1.13.33-1.5-.31a1,1,0,0,1,.3-1.32A6.2,6.2,0,0,1,95.63,112.85Z"/></g></g></svg>