<svg xmlns="http://www.w3.org/2000/svg" viewBox="0 0 173.42 231.57"><defs><style>.cls-1{fill:#f5ae3e;}.cls-2{fill:#f0e3ca;}.cls-3{fill:#f5ad3e;}.cls-4{fill:#7d382d;}.cls-5{fill:#824338;}.cls-6{fill:#f4d49d;}.cls-7{fill:#ee742a;}.cls-8{fill:#853d2c;}.cls-9{fill:#a06c5d;}.cls-10{fill:#7a382e;}.cls-11{fill:#7c3a30;}.cls-12{fill:#fdfcf9;}.cls-13{fill:#fbf9f3;}.cls-14{fill:#fdfdfb;}.cls-15{fill:#fcfbf7;}.cls-16{fill:#f9f6ee;}.cls-17{fill:#fcfbf6;}.cls-18{fill:#996354;}.cls-19{fill:#7f3e34;}.cls-20{fill:#834439;}.cls-21{fill:#834339;}.cls-22{fill:#faf8f3;}.cls-23{fill:#8a4d41;}.cls-24{fill:#894c40;}.cls-25{fill:#8c5044;}.cls-26{fill:#86483c;}.cls-27{fill:#79362d;}.cls-28{fill:#f8f4e9;}.cls-29{fill:#7e3d33;}.cls-30{fill:#884a3f;}.cls-31{fill:#7b392f;}.cls-32{fill:#8f5548;}.cls-33{fill:#965f51;}.cls-34{fill:#faf8f1;}.cls-35{fill:#fdfcfa;}.cls-36{fill:#79372d;}.cls-37{fill:#7b3a30;}.cls-38{fill:#fdfdfa;}.cls-39{fill:#fdfcf8;}.cls-40{fill:#7f3f34;}.cls-41{fill:#803b2e;}.cls-42{fill:#84463b;}.cls-43{fill:#78352c;}.cls-44{fill:#fcfbf8;}.cls-45{fill:#faf8f2;}.cls-46{fill:#78362c;}.cls-47{fill:#986054;}.cls-48{fill:#8c5043;}.cls-49{fill:#9a6455;}.cls-50{fill:#ef742a;}</style></defs><g id="圖層_2" data-name="圖層 2"><g id="圖層_1-2" data-name="圖層 1"><path class="cls-1" d="M91,42.86c-1.42-10.68,1.81-20.73,4.06-30.92C95.94,8,96.76,4,97.6,0h.16c.89,4,1.9,7.88,2.65,11.85,1.58,8.38,1.25,16.8.35,25.23-.16,1.56-.26,3.13-.39,4.69,0,2-.07,3.89-2,5.13-1,.63-1.93,1.28-3.13.51A3.64,3.64,0,0,1,95,45.33a3.84,3.84,0,0,1,.26-1.71A9.13,9.13,0,0,0,97.66,37c0-6.13.43-12.27-.37-18.39a25.17,25.17,0,0,1,.34-5.47c0-.93-.58-.59-.25-.64.11,0,.28.19.26.33-.34,4.3-1.28,8.51-2,12.75A68.83,68.83,0,0,0,94.15,39.2a8.93,8.93,0,0,0,.72,3.62,14.69,14.69,0,0,1-.13,4.34c-1.09,1.09-1.92.42-2.62-.46A4.24,4.24,0,0,1,91,42.86Z"/><path class="cls-2" d="M3,224.16c.25-11.55-.45-23.08-.67-34.61-.13-6.8.16-13.63-.43-20.4s.08-13.63-.49-20.4c-.61-7.06,0-14.12-.49-21.15S-.15,113.39,0,106.26a14.63,14.63,0,0,1,2.46-8.45c2.49-3.48,6.49-4,9.67-1.12a25.79,25.79,0,0,1,6.92,11c.87,2.51,1.82,5,2.9,7.41a5.56,5.56,0,0,0,5.92,3.61c1.17,1.68.49-1,1.17-.49,3.23.06,5.14-2.44,7.55-3.93a28.7,28.7,0,0,0,2.61-1.92,4.67,4.67,0,0,1,5.77-.36c1.86,1.15,3.33.84,4.83-.78.94-1,1.77-2.94,3.49-2.31s2,2.79,2.09,4.47c.18,2.72.38,5.45.49,8.17.34,9,.23,17.92.63,26.87.5,11.43.72,22.86,1.09,34.29.15,4.89.13,9.78.36,14.66.36,7.55.58,15.09.51,22.64-.05,5.56-.79,6.7-6.07,8.66-2.63,1-5.28,1.9-7.92,2.84H14a17.67,17.67,0,0,1-7.48-2.24C4.53,228.12,3,226.68,3,224.16Z"/><path class="cls-2" d="M91,42.86c1,1.55.67,4.15,3.37,4.44a1.08,1.08,0,0,1,.45.17c.24.12.46,0,.69-.06,3.52-.24,4.13-3,4.86-5.64.36,1.6,1.67,1,2.63,1.07,4.3.2,8.61.38,12.29,3a8.05,8.05,0,0,1,3.58,5.11c-.58,1.14-1.78,1.43-2.77,2a3.83,3.83,0,0,0-2.31,3.25,23.14,23.14,0,0,0,.12,6.22,28.91,28.91,0,0,1-.81,9.08c-.28.92-.44,2.15-1.73,2.06s-1.34-1.33-1.56-2.26c-.32-1.28-.32-2.61-.56-3.91-.14-1.56,0-3.12-.07-4.67-.27-1.11-.44-2.24-.66-3.36-.12-.31-.33.2-.06,0,.34,1.1.4,2.26.7,3.36.11,1.77-.2,3.57.23,5.33a16.68,16.68,0,0,0,.64,4.14c.23.72.55,1.48,1.44,1.48s1.22-.73,1.45-1.47a25.62,25.62,0,0,0,.78-11c0-1.45,0-2.9,0-4.35a4.51,4.51,0,0,1,3.12-4.24,3.41,3.41,0,0,0,2-1.64,20.44,20.44,0,0,1,1.52,9.14c-.93,26.94-.73,53.89-.3,80.82.37,24.12,0,48.23.41,72.33a7.86,7.86,0,0,1-3.06,6.69,28.89,28.89,0,0,1-14.94,6.28c-9.77,1.21-18.24-2-25.93-7.75a5.36,5.36,0,0,1-2.15-4.26c-.68-9.58-1.15-19.17-1.56-28.78-.28-6.7-.61-13.4-.88-20.1-.39-9.37-.73-18.73-1.15-28.09-.22-4.81-.12-9.62-.38-14.42-.69-12.61-.65-25.23-1.12-37.83C69,76.38,69,67.83,69.09,59.29c0-2.79-.62-6.06,1.88-8.44,2.23,2.11,4.94,2.64,7.89,2.51a7.51,7.51,0,0,1,4,.76A7,7,0,0,0,79,53.36a14.55,14.55,0,0,1-4.92-.6c-1.47-.46-2.78-1.17-2.55-3.08C77.27,45.36,84,43.77,91,42.86Z"/><path class="cls-2" d="M152.39,140.75c2.71-2.06,3-5.45,4.47-8.18s2.83-5.86,5.67-7.69c3.81-2.43,8.13-.84,9.62,3.42a18.49,18.49,0,0,1,.84,10.51,12.45,12.45,0,0,0-.11,2.74V213.2c0,4.35-.94,5.61-5.14,7.08-4.74,1.66-9.68,2-14.63,2.48a56.9,56.9,0,0,1-24.19-3c-2.44-.82-3.57-2.12-3.56-4.88.09-24.8.06-49.6.07-74.4a11.93,11.93,0,0,1,.1-2.24c.74-3.8,1.77-4.19,4.8-1.78,1,.83,2,1.48,3.36.78,2.75-1.43,5.17-.94,7.63.87,1,.74,2.14,1.73,3.64,1.56a56,56,0,0,1,3.86,4.42c.07,2.17.56,4.33.25,6.52.38-2.19-.34-4.37-.08-6.56C150.05,142.89,150.89,141.47,152.39,140.75Z"/><path class="cls-1" d="M27.92,114.25c-2.34.2-2.88-1.57-3.44-3.22-1.58-4.63-.89-9.31-.3-14,1.11-8.89,4-17.4,5.57-26.19.12-.65.21-1.3.32-2,.2-.34.3-.84.89-.51,1,5.2,2.57,10.27,3.18,15.58.74,6.43.1,12.77-.39,19.13-.18,2.32-.49,4.62-.81,6.92s-1.47,3.85-3.86,4.28c-1-1.2-.49-2.58-.45-3.89,1.91-2.54,2.06-5.57,2.09-8.52.05-4.8.31-9.61-.35-14.41a21.62,21.62,0,0,1,.2-6.74c-.69,5.89-2.29,12.37-3.19,19a55.44,55.44,0,0,0-.12,7.94c0,1.05.78,1.8,1.13,2.73C28.37,111.67,28.94,113.06,27.92,114.25Z"/><path class="cls-3" d="M152.39,140.75c-.72,1.22-1.07,2.82-2.92,2.91-1-1.18-.43-2.57-.5-3.87,1.19-3.06.8-6.22.45-9.34-.77-6.88-2.67-13.58-3.16-19.52a43.39,43.39,0,0,1,.39,5.71c.15,6-.44,12,.42,17.93a13.1,13.1,0,0,0,1.7,5.17c0,1.32.54,2.7-.42,3.91-2.07-.52-2.87-2.12-3.39-4-1-5.9-1.52-11.86-2-17.81a77,77,0,0,1,2-21.76c.26-1.22.39-2.46.61-4,2,11.7,5.85,22.79,7.09,34.42A41.22,41.22,0,0,1,152.39,140.75Z"/><path class="cls-4" d="M27.92,114.25c0-1.31,0-2.62,0-3.94-.92-2.21-.7-4.53-.53-6.82.05-.75.36-1.6,1.24-1.63s1,1,1.06,1.63c.1,2.29.52,4.62-.6,6.8,0,1.33,0,2.66,0,4s0,2.66,0,4-.17,2.52-.25,3.77c-1.09-1-.67-2.2-.92-3.28C27.91,117.26,27.91,115.75,27.92,114.25Z"/><path class="cls-5" d="M71.48,49.68c.76,3,3.28,2.88,5.56,3.06s4.74,0,6.78,1.57c-3.11-.84-6.33-.23-9.43-.93A4.31,4.31,0,0,1,71,50.85C71,50.42,70.94,49.91,71.48,49.68Z"/><path class="cls-6" d="M31,68.37l-.89.51A3.69,3.69,0,0,1,31,66.47Z"/><path class="cls-7" d="M94.4,42.88c-1.57-1.69-1-3.8-.93-5.71.28-8.6,2.47-16.88,4.13-25.25a186.87,186.87,0,0,1,.75,26c-.06,2.2-.4,4.68-2.84,5.94-1.07-2.15.34-4.26.1-6.4a4.54,4.54,0,0,1,.26-1.4C94.8,38.05,96.31,40.83,94.4,42.88Z"/><path class="cls-8" d="M94.4,42.88c.61-3.2,1-6.45,1.49-9.69.56,3.59-.18,7.13-.38,10.68-.07.53-.14,1.05-.2,1.58-.55.68.59,1.93-.79,2.33l-.15-.48Z"/><path class="cls-9" d="M94.52,47.78c.86-.58.09-1.7.79-2.33.06.65.13,1.3.2,2-.1.38-.11,1-.32,1.1C94.75,48.67,94.47,48.29,94.52,47.78Z"/><path class="cls-10" d="M9.47,113.69c-.22-1.41,2.1-2.18,1-3.82-.21-.53.05-.62.5-.53,1.55,3.75,3,7.55,4.7,11.25,1.1,2.41,2.33,4.71,5.72,4.75,1.86,0,2,2.08,2.09,3.5.19,3.31.19,6.64.15,10a52.4,52.4,0,0,0,.46,9.2c.13.72.21,1.7,1,1.83,1,.16,1.27-.86,1.55-1.62,1.23-3.31,1.48-6.8,1.79-10.27.28-3.06.44-6.13.61-9.2a12.36,12.36,0,0,1,1.54-5.44,1,1,0,0,1,.95-.94c4-1.78,7.79-4.13,12.45-3.59,1.48.17,2.41-.88,3.33-1.87,1.8-2,2.82-4.43,4.46-6.83-.34,5.11-5,9.72-9.54,9.79-3.78.06-7,1.81-10.08,3.76-1.82,1.16-2,3.33-2.09,5.36a130,130,0,0,1-1.54,16.6,10.37,10.37,0,0,1-1.65,4.64c-1.19,1.55-2.64,1.38-3.45-.41a11.41,11.41,0,0,1-.8-4.62c-.09-5.15-.07-10.3-.12-15.45,0-2-.35-3.47-3-3.57-1.93-.08-3.14-1.82-3.93-3.49-1.23-2.62-2.24-5.35-3.4-8-.3-.69-.3-1.93-1.34-1.8-.73.08-.74,1.17-.95,1.88C9,114.69,9.3,114.16,9.47,113.69Z"/><path class="cls-11" d="M9.47,113.69l.42,1.06c-.59,5.06.4,10.11.13,15.17-.1,2-.18,4-1.34,5.73-.43.64-.93,1.25-1.8,1.12s-1.15-.83-1.41-1.57A12.09,12.09,0,0,1,5,130.77c.17-5.43,1-10.86.35-16.34,1.11,2.71.94,5.56,1,8.37,0,3.4-.18,6.8-.14,10.21,0,.88,0,2.35,1.15,2.4.85.05,1.12-1.28,1.32-2.17.73-3.12.27-6.29.39-9.44C9.11,120.43,8.41,117,9.47,113.69Z"/><path class="cls-12" d="M5.46,200c-.58-9-1.16-17.41-.87-25.89,1,0,.89.58.91,1,.18,5.62.33,11.24.54,16.85.06,1.73.36,3.44.43,5.17A2.71,2.71,0,0,1,5.46,200Z"/><path class="cls-13" d="M52.77,113.88c1.18,7.14.54,13.84.33,20.54C52.14,127.76,51.36,121.09,52.77,113.88Z"/><path class="cls-14" d="M8.21,101.21c3.38,1.49,3.55,1.83,7.9,16.32a3.88,3.88,0,0,1-1.68-2.24c-.65-2.22-1.34-4.43-2-6.63C11.52,105.91,10.69,103.12,8.21,101.21Z"/><path class="cls-15" d="M31.52,122.36l-.95.94c-1.29.18-2,1.79-4.12,1.23,2.85-1.25,4.21-3.75,7-5.23C33.19,120.88,31.77,121.28,31.52,122.36Z"/><path class="cls-13" d="M6.14,211.91c-.72-2.26-1.62-4.51,0-7.67.31,3,.55,5.3.79,7.6Z"/><path class="cls-16" d="M53.24,138.09a11.05,11.05,0,0,1,.45,6.56C52.17,141.8,52.08,140,53.24,138.09Z"/><path class="cls-17" d="M16.74,107.24c1.59,1,2,2.55,2.19,4.65C17.16,110.52,17,108.87,16.74,107.24Z"/><path class="cls-18" d="M10.93,109.34l-.5.53a7,7,0,0,1-1.2-3.33C10.58,107.29,10.58,108.42,10.93,109.34Z"/><path class="cls-13" d="M76.88,112.65c.9,10.73.14,21.51.58,32.26C75.83,134.19,76.74,123.41,76.88,112.65Z"/><path class="cls-19" d="M89.82,74.37c.51,1.07.47,2.95,1.91,2.86,1.72-.11,1.39-2.09,1.49-3.25.42-5,.61-10.1,1.3-15.12q.8-.06.51.69c-.36,5.25-.67,10.51-1.1,15.76-.11,1.28-.38,2.91-2,3S89.59,77,89.4,75.44C89.26,75,88.91,74.42,89.82,74.37Z"/><path class="cls-20" d="M114,61.15c1,3.87.25,7.64-.8,11.37-.24.87-.76,1.77-1.83,1.73s-1.48-1-1.74-1.84A12.16,12.16,0,0,1,109,68.3c.28-.32,0-.9.51-1.13.27,1.45.5,2.91.82,4.35.15.69.13,1.7,1.12,1.67.77,0,.83-.92,1-1.53,1.08-3,.95-6.2,1-9.35C113.8,62,113.51,61.38,114,61.15Z"/><path class="cls-17" d="M71.36,73.74c-1.53-7-1.19-16.21.86-19C70.86,61.14,71.79,67.25,71.36,73.74Z"/><path class="cls-21" d="M95,59.55l-.51-.69c.09-1.41.13-3.33,1.8-3.31s1.59,2,1.76,3.38c.26,2.14.55,4.27.85,6.41.09.6.25,1.29,1,.5.15-.24.31-.24.47,0,0,.82-.33,1.53-1.25,1.48s-1-.86-1.1-1.46c-.35-2.1-.54-4.23-.87-6.34-.16-1,0-2.17-.94-3C95,57.18,95.8,58.7,95,59.55Z"/><path class="cls-22" d="M84.46,48.61c.2-1.67,2.68-3.77,4.23-3.6.27,0,.48.08.46.38s.08.76-.45,1c-.94.43-2.11.24-2.93,1,.42,1.18,1.94.61,2.35,1.71-1.12.74-2-.44-3.05-.26C84.75,49.07,84.55,49,84.46,48.61Z"/><path class="cls-23" d="M104.38,46.62a2.65,2.65,0,0,1,3.16.56,1.3,1.3,0,0,1,.21,1.81A3.51,3.51,0,0,1,104,50.37c1-1,2.89-.69,2.86-2.22C106.8,47,105.1,47.6,104.38,46.62Z"/><path class="cls-15" d="M91,63.42c-.85-2.35-.58-4.94-2-7.11C91.25,57.85,91.75,59.61,91,63.42Z"/><path class="cls-24" d="M84.46,48.61l.6.21c1.42,2,3.8,1.17,5.78,1.91C87.79,52,85,51,84.46,48.61Z"/><path class="cls-25" d="M113.54,55.39c.61-2.88,3.51-3,5.33-4.46v0c.13,1.2-.85,1.54-1.63,1.86A5,5,0,0,0,114,56.42C113.55,56.19,113.77,55.7,113.54,55.39Z"/><path class="cls-26" d="M89.82,74.37l-.42,1.07a11.07,11.07,0,0,1-.85-4.65c.42-.79-.17-1.74.42-2.5C89.25,70.32,89.54,72.34,89.82,74.37Z"/><path class="cls-15" d="M110.54,59.44a34.12,34.12,0,0,0-2.43-5C110.38,56,110.87,57.11,110.54,59.44Z"/><path class="cls-27" d="M89,68.29c-.21.82.24,1.75-.42,2.5V61.61C89.22,64.1,89,66.21,89,68.29Z"/><path class="cls-28" d="M77,152.24c1.09,1.08,1.73,2.27.68,3.75Z"/><path class="cls-29" d="M113.54,55.39l.43,1c0,1.58,0,3.15.07,4.73l-.51,1.16A22.3,22.3,0,0,1,113.54,55.39Z"/><path class="cls-16" d="M90.81,69.54a4.08,4.08,0,0,1,.45,3.21C90.32,71.93,90.36,71.06,90.81,69.54Z"/><path class="cls-27" d="M109.53,67.17,109,68.3l-.21-5.93a.34.34,0,0,1,.52,0C109.39,64,109.46,65.56,109.53,67.17Z"/><path class="cls-30" d="M100.45,65.84H100c.21-1.43.41-2.87.61-4.3A5.9,5.9,0,0,1,100.45,65.84Z"/><path class="cls-31" d="M109.33,62.34l-.52,0c-.56-1.06-.35-2.18-.48-4A8.14,8.14,0,0,1,109.33,62.34Z"/><path class="cls-32" d="M106.74,54.53c1.19.7,1.3,1.93,1.59,3.08C107.24,56.88,107.1,55.66,106.74,54.53Z"/><path class="cls-33" d="M87.79,59.47c-1-.5-1.24-1.15-.74-2.5Z"/><path class="cls-17" d="M102.89,47.42c-.49-1-1-1.57-.55-2.49C103.14,45.5,103.51,46.06,102.89,47.42Z"/><path class="cls-34" d="M98.83,55.52c.92.11,1.11.64,1,1.35,0,.11-.29.27-.36.23C98.74,56.78,98.83,56.16,98.83,55.52Z"/><path class="cls-34" d="M110.46,66.76c.08-.29.06-.74.54-.62s.42.47.38.8-.06.74-.54.62S110.45,67.1,110.46,66.76Z"/><path class="cls-35" d="M109.1,46.28c1,.49,1.65.79,1.63,1.73C109.92,47.82,109.52,47.31,109.1,46.28Z"/><path class="cls-36" d="M148,156.21c-.79-4.26-4.68-4.78-7.71-6.24-1-.48-.81.75-.89,1.29a132.62,132.62,0,0,0-.95,18.37,38.74,38.74,0,0,1-.48,8.19c-.28,1.31-.41,2.86-2.2,2.78-1.62-.06-2.12-1.48-2.32-2.82a17.64,17.64,0,0,1,.11-6.44c1.57-7.18.81-14.37.36-21.56a2.9,2.9,0,0,0-.86-1.71,20,20,0,0,1-3-4.85.53.53,0,0,1,.35-.47c1.28,1.71,2.12,3.76,4,5,.71.46.63,1.33.67,2.06.47,7.38,1.11,14.76-.35,22.1a13.34,13.34,0,0,0,0,5.93c.14.56.32,1.27,1,1.31.9.06,1-.83,1-1.43.24-2.89.47-5.79.56-8.7.18-5.73-.31-11.47.51-17.18.5-3.45,1-3.76,4.18-2.35,1.43.64,2.88,1.24,4.33,1.86a1.39,1.39,0,0,1,1.41,1.45c.23.74.47,1.49.7,2.24C148.54,155.52,149,156.14,148,156.21Z"/><path class="cls-37" d="M148,156.21l.45-1.16c1.12,3.85.89,7.86,1.4,11.78a63.77,63.77,0,0,0,1.78,10.27c.22.74.41,1.9,1.36,1.84s.83-1.25.95-2c.72-4.55-.21-9.09-.1-13.65,0-1.82,0-3.65.07-5.47s.43-3.53,3-3.68c1.77-.1,2.19-2.06,3-3.36.47-.05.74.07.5.6-.68,2-1.62,3.8-4.1,4.09-1.47.17-1.48,1.41-1.48,2.47,0,4.39.12,8.78.13,13.18,0,2.4,0,4.8-.2,7.19a2,2,0,0,1-1.46,2.11c-1.21.23-1.77-.74-2.15-1.66-1.59-3.81-1.81-7.89-2.28-11.91C148.51,163.31,148.31,159.76,148,156.21Z"/><path class="cls-38" d="M128.15,164.38V143.86c1.12,7.12.74,13.82.71,20.51Z"/><path class="cls-39" d="M159.48,146.75c2.22-5.69,1.14-12.63,6.52-17.13C161.39,134.41,163.15,141.6,159.48,146.75Z"/><path class="cls-40" d="M169.33,155.77c0,2.64,1.08,5.24.31,7.91-.22.78-.3,1.8-1.33,1.89s-1.39-.84-1.75-1.55a14.46,14.46,0,0,1-1.09-6.31c.39-.48-.11-1.23.51-1.64.67,1.55.18,3.24.53,4.82.25,1.17.29,2.45,1.63,3.4,1.17-2.31.55-4.68.67-6.95C168.78,156.75,168.14,156,169.33,155.77Z"/><path class="cls-41" d="M148.35,143.65c0-1.3,0-2.6,0-3.9-1-2.2-.57-4.56-.78-6.85-.06-.68.13-1.42.9-1.56.94-.17,1.08.73,1.07,1.3-.05,2.37.87,4.75-.08,7.1,0,1.31,0,2.62.05,3.92-.23,2.6.3,5.24-.48,7.84Q148.66,147.58,148.35,143.65Z"/><path class="cls-42" d="M160.46,151.37l-.5-.6,4-12.46c.44-.07.7,0,.46.52a2.52,2.52,0,0,0,.47,2.36c.26.55,0,.61-.48.55-1.53,0-1.1,1.42-1.39,2.17C162.1,146.36,161.83,149.06,160.46,151.37Z"/><path class="cls-43" d="M166,156.07c-.15.55,0,1.21-.51,1.64q-.08-6.69-.13-13.39c-.27-.52,0-.59.43-.53A98.67,98.67,0,0,1,166,156.07Z"/><path class="cls-44" d="M147.76,152.81l-1.41-1.45-1.44-2.31c2.48,1.45,3.67,3.61,6.33,4.81C149.24,154.51,148.79,152.89,147.76,152.81Z"/><path class="cls-45" d="M128.52,168.24c.71,2.16.31,4.08.34,6.14C127.69,173,127.57,170.87,128.52,168.24Z"/><path class="cls-46" d="M168.49,154.17v-10.1l.45,0v8.13C169,152.9,169.67,153.74,168.49,154.17Z"/><path class="cls-15" d="M157.35,140.53a4,4,0,0,1,1.26-3.89A6.46,6.46,0,0,1,157.35,140.53Z"/><path class="cls-47" d="M168.49,154.17c.56-.57.23-1.34.45-2a7.31,7.31,0,0,1,.39,3.59c-.58.39-.35,1-.52,1.57A5.46,5.46,0,0,1,168.49,154.17Z"/><path class="cls-48" d="M165.77,143.79l-.43.53-.9-2.58.48-.55A3.73,3.73,0,0,1,165.77,143.79Z"/><path class="cls-49" d="M164.45,138.83l-.46-.52a3.93,3.93,0,0,1,1.34-2.51A5.83,5.83,0,0,1,164.45,138.83Z"/><path class="cls-43" d="M130.42,142.75l-.35.47-1.15-1.93C130.2,141.29,130.23,142.09,130.42,142.75Z"/><path class="cls-50" d="M29.07,110.29v-8.05l-.74,0c-.7,2.65,0,5.43-.43,8.1-2.46-2-1.65-4.93-1.49-7.23a153.13,153.13,0,0,1,4-23.65,5.87,5.87,0,0,1,.52-1c0,8.58,1.1,16.74.45,24.9C31.19,105.7,31.73,108.63,29.07,110.29Z"/><path class="cls-7" d="M149.42,139.74l-.68-8h-.43v8.05c-2.36-2-2.18-5-2.28-7.6-.3-7.77-.1-15.55.08-23.34,1.66,9.13,4.4,18.08,4.3,27.49C150.4,137.54,150.5,138.81,149.42,139.74Z"/></g></g></svg>