<svg xmlns="http://www.w3.org/2000/svg" viewBox="0 0 173.42 231.38"><defs><style>.cls-1{fill:#f5ae3e;}.cls-2{fill:#f0e3ca;}.cls-3{fill:#f5ad3e;}.cls-4{fill:#7d382d;}.cls-5{fill:#824338;}.cls-6{fill:#f4d49d;}.cls-7{fill:#ee742a;}.cls-8{fill:#853d2c;}.cls-9{fill:#a06c5d;}.cls-10{fill:#7a382e;}.cls-11{fill:#7c3a30;}.cls-12{fill:#fdfcf9;}.cls-13{fill:#fbf9f3;}.cls-14{fill:#fdfdfb;}.cls-15{fill:#fcfbf7;}.cls-16{fill:#f9f6ee;}.cls-17{fill:#fcfbf6;}.cls-18{fill:#996354;}.cls-19{fill:#7f3e34;}.cls-20{fill:#834439;}.cls-21{fill:#834339;}.cls-22{fill:#faf8f3;}.cls-23{fill:#8a4d41;}.cls-24{fill:#894c40;}.cls-25{fill:#8c5044;}.cls-26{fill:#86483c;}.cls-27{fill:#79362d;}.cls-28{fill:#f8f4e9;}.cls-29{fill:#7e3d33;}.cls-30{fill:#884a3f;}.cls-31{fill:#7b392f;}.cls-32{fill:#8f5548;}.cls-33{fill:#965f51;}.cls-34{fill:#faf8f1;}.cls-35{fill:#fdfcfa;}.cls-36{fill:#79372d;}.cls-37{fill:#7b3a30;}.cls-38{fill:#fdfdfa;}.cls-39{fill:#fdfcf8;}.cls-40{fill:#7f3f34;}.cls-41{fill:#803b2e;}.cls-42{fill:#84463b;}.cls-43{fill:#78352c;}.cls-44{fill:#fcfbf8;}.cls-45{fill:#faf8f2;}.cls-46{fill:#78362c;}.cls-47{fill:#986054;}.cls-48{fill:#8c5043;}.cls-49{fill:#9a6455;}.cls-50{fill:#ef742a;}</style></defs><g id="圖層_2" data-name="圖層 2"><g id="圖層_1-2" data-name="圖層 1"><path class="cls-1" d="M91.17,43.31c-3.67-10.12-2.66-20.64-2.64-31.07,0-4.07,0-8.14-.07-12.21l.16,0c1.71,3.67,3.54,7.29,5.12,11,3.33,7.85,4.81,16.15,5.73,24.57.17,1.56.41,3.11.62,4.67.47,1.92.77,3.81-.81,5.43-.81.82-1.61,1.66-2.94,1.16a3.5,3.5,0,0,1-.78-2,3.84,3.84,0,0,1-.12-1.72,9.09,9.09,0,0,0,1-6.95c-1.36-6-2.2-12.08-4.29-17.89a25.13,25.13,0,0,1-.84-5.42c-.22-.9-.69-.45-.38-.57.11-.05.31.13.33.26.58,4.28.56,8.6.73,12.9a68.21,68.21,0,0,0,1.49,13.58A8.85,8.85,0,0,0,95,42.45a15.06,15.06,0,0,1,.79,4.26c-.83,1.31-1.78.83-2.66.11A4.24,4.24,0,0,1,91.17,43.31Z"/><path class="cls-2" d="M3,224c.25-11.55-.45-23.08-.67-34.62-.13-6.79.16-13.63-.43-20.39s.08-13.63-.49-20.4c-.61-7.06,0-14.12-.49-21.15S-.15,113.2,0,106.07a14.61,14.61,0,0,1,2.46-8.45C5,94.13,9,93.63,12.16,96.5a25.79,25.79,0,0,1,6.92,11c.87,2.5,1.82,5,2.9,7.41a5.56,5.56,0,0,0,5.92,3.61c1.17,1.68.49-1,1.17-.49,3.23,0,5.14-2.44,7.55-3.94a28.59,28.59,0,0,0,2.61-1.91,4.65,4.65,0,0,1,5.77-.36c1.86,1.14,3.33.83,4.83-.79.94-1,1.77-2.94,3.49-2.31s2,2.8,2.09,4.47c.18,2.72.38,5.45.49,8.17.34,9,.23,17.93.63,26.87.5,11.43.72,22.87,1.09,34.3.15,4.89.13,9.78.36,14.66.36,7.54.58,15.09.51,22.64-.05,5.55-.79,6.7-6.07,8.66-2.63,1-5.28,1.89-7.92,2.84H14a17.67,17.67,0,0,1-7.48-2.24C4.53,227.93,3,226.49,3,224Z"/><path class="cls-2" d="M91,42.66c1,1.56.67,4.16,3.37,4.44a1,1,0,0,1,.45.18c.24.11.46,0,.69-.07,3.52-.23,4.13-3,4.86-5.63.36,1.6,1.67,1,2.63,1.07,4.3.2,8.61.38,12.29,3a8.06,8.06,0,0,1,3.58,5.1c-.58,1.14-1.78,1.44-2.77,2A3.82,3.82,0,0,0,113.79,56a23.14,23.14,0,0,0,.12,6.22,28.85,28.85,0,0,1-.81,9.07c-.28.93-.44,2.16-1.73,2.07S110,72,109.81,71.05c-.32-1.28-.32-2.62-.56-3.91-.14-1.56,0-3.12-.07-4.67-.27-1.11-.44-2.24-.66-3.36-.12-.31-.33.19-.06,0,.34,1.1.4,2.25.7,3.36.11,1.77-.2,3.56.23,5.32A16.69,16.69,0,0,0,110,72c.23.72.55,1.48,1.44,1.48s1.22-.73,1.45-1.48a25.61,25.61,0,0,0,.78-11c0-1.44,0-2.89,0-4.34a4.51,4.51,0,0,1,3.12-4.24,3.41,3.41,0,0,0,2-1.64,20.39,20.39,0,0,1,1.52,9.14c-.93,26.94-.73,53.89-.3,80.82.37,24.11,0,48.22.41,72.33a7.86,7.86,0,0,1-3.06,6.69A28.88,28.88,0,0,1,102.49,226c-9.77,1.22-18.24-2-25.93-7.74A5.36,5.36,0,0,1,74.41,214c-.68-9.59-1.15-19.18-1.56-28.78-.28-6.7-.61-13.4-.88-20.11-.39-9.36-.73-18.73-1.15-28.08-.22-4.82-.12-9.63-.38-14.43-.69-12.6-.65-25.22-1.12-37.82C69,76.19,69,67.64,69.09,59.09c0-2.79-.62-6.05,1.88-8.43,2.23,2.11,4.94,2.64,7.89,2.51a7.42,7.42,0,0,1,4,.76A7.1,7.1,0,0,0,79,53.16a14.07,14.07,0,0,1-4.92-.6c-1.47-.45-2.78-1.16-2.55-3.07C77.27,45.17,84,43.58,91,42.66Z"/><path class="cls-2" d="M152.39,140.56c2.71-2.06,3-5.45,4.47-8.18s2.83-5.87,5.67-7.69c3.81-2.44,8.13-.84,9.62,3.42a18.48,18.48,0,0,1,.84,10.51,12.39,12.39,0,0,0-.11,2.73V213c0,4.34-.94,5.6-5.14,7.08-4.74,1.66-9.68,2-14.63,2.47a56.89,56.89,0,0,1-24.19-3c-2.44-.82-3.57-2.12-3.56-4.88.09-24.8.06-49.6.07-74.4a11.93,11.93,0,0,1,.1-2.24c.74-3.8,1.77-4.19,4.8-1.78,1,.83,2,1.48,3.36.78,2.75-1.44,5.17-.94,7.63.87,1,.73,2.14,1.72,3.64,1.56a57.72,57.72,0,0,1,3.86,4.41c.07,2.18.56,4.34.25,6.53.38-2.19-.34-4.38-.08-6.56C150.05,142.69,150.89,141.28,152.39,140.56Z"/><path class="cls-1" d="M27.9,114.12c-2.31-.36-2.43-2.2-2.59-3.94-.45-4.86,1.31-9.26,3-13.68,3.16-8.38,8-16,11.54-24.16.26-.6.51-1.22.76-1.83.27-.29.49-.75,1-.29-.2,5.29.09,10.59-.55,15.89-.79,6.42-2.89,12.44-4.85,18.51-.71,2.21-1.55,4.38-2.4,6.54A4.51,4.51,0,0,1,29,114.41c-.7-1.4.12-2.61.48-3.88,2.45-2,3.3-4.93,4-7.8,1.16-4.65,2.54-9.27,3-14.09a21.79,21.79,0,0,1,1.78-6.51c-2,5.57-5.13,11.49-7.54,17.71a55.83,55.83,0,0,0-2,7.68c-.24,1,.34,1.94.46,2.92C29,111.72,29.17,113.2,27.9,114.12Z"/><path class="cls-3" d="M151.2,141c-1,1-1.84,2.39-3.64,1.94-.64-1.42.33-2.58.64-3.84,2-2.59,2.55-5.73,3.12-8.82,1.25-6.81,1.35-13.78,2.6-19.6a43.44,43.44,0,0,1-1.28,5.57c-1.57,5.77-3.86,11.34-4.76,17.3A13.12,13.12,0,0,0,148,139c-.35,1.27-.26,2.74-1.53,3.62-1.84-1.09-2.14-2.86-2.11-4.77.76-5.94,2-11.8,3.28-17.63a76.78,76.78,0,0,1,8.21-20.25c.6-1.08,1.07-2.24,1.72-3.6-1.41,11.79-1,23.51-3.13,35A42,42,0,0,1,151.2,141Z"/><path class="cls-4" d="M27.9,114.12l.9-3.83c-.38-2.38.38-4.57,1.08-6.77.23-.71.73-1.46,1.59-1.29s.78,1.19.65,1.84c-.44,2.24-.58,4.6-2.17,6.47L29,114.41c-.31,1.3-.63,2.59-.94,3.88s-.75,2.41-1.13,3.61c-.82-1.2-.13-2.29-.12-3.4C27.19,117,27.54,115.58,27.9,114.12Z"/><path class="cls-5" d="M71.48,49.49c.76,3,3.28,2.88,5.56,3.06s4.74,0,6.78,1.57c-3.11-.84-6.33-.23-9.43-.93A4.31,4.31,0,0,1,71,50.66C71,50.23,70.94,49.72,71.48,49.49Z"/><path class="cls-6" d="M31,68.18l-.89.51A3.73,3.73,0,0,1,31,66.27Z"/><path class="cls-7" d="M94.49,42.61c-1.89-1.32-1.77-3.5-2.12-5.38-1.57-8.46-1.2-17-1.36-25.55A189,189,0,0,1,97.3,36.93c.41,2.16.6,4.66-1.51,6.41-1.51-1.87-.58-4.24-1.27-6.28a4.67,4.67,0,0,1,0-1.42C93.86,37.81,95.93,40.2,94.49,42.61Z"/><path class="cls-8" d="M94.49,42.61c-.08-3.26-.43-6.5-.6-9.79,1.31,3.39,1.34,7,1.9,10.52,0,.53.09,1,.14,1.58-.39.79,1,1.76-.26,2.45l-.26-.44C95.1,45.49,94.8,44.05,94.49,42.61Z"/><path class="cls-9" d="M94.52,47.59c.86-.58.09-1.7.79-2.34.06.66.13,1.31.2,2-.1.39-.11,1-.32,1.11C94.75,48.48,94.47,48.1,94.52,47.59Z"/><path class="cls-10" d="M9.47,113.49c-.22-1.4,2.1-2.18,1-3.82-.21-.53.05-.61.5-.52,1.55,3.75,3,7.55,4.7,11.25,1.1,2.41,2.33,4.71,5.72,4.75,1.86,0,2,2.07,2.09,3.49.19,3.32.19,6.65.15,10a52.24,52.24,0,0,0,.46,9.19c.13.72.21,1.7,1,1.83,1,.17,1.27-.85,1.55-1.61,1.23-3.31,1.48-6.8,1.79-10.27.28-3.06.44-6.13.61-9.2a12.36,12.36,0,0,1,1.54-5.44,1,1,0,0,1,.95-1c4-1.78,7.79-4.12,12.45-3.58,1.48.17,2.41-.88,3.33-1.88,1.8-2,2.82-4.43,4.46-6.82-.34,5.11-5,9.71-9.54,9.78-3.78.06-7,1.82-10.08,3.77-1.82,1.15-2,3.33-2.09,5.36a129.84,129.84,0,0,1-1.54,16.59A10.36,10.36,0,0,1,26.86,150c-1.19,1.55-2.64,1.38-3.45-.41a11.45,11.45,0,0,1-.8-4.63c-.09-5.14-.07-10.29-.12-15.44,0-2-.35-3.47-3-3.58-1.93-.07-3.14-1.81-3.93-3.48-1.23-2.62-2.24-5.35-3.4-8-.3-.7-.3-1.93-1.34-1.81-.73.09-.74,1.18-.95,1.89C9,114.5,9.3,114,9.47,113.49Z"/><path class="cls-11" d="M9.47,113.49l.42,1.07c-.59,5.06.4,10.11.13,15.17-.1,2-.18,4-1.34,5.73-.43.64-.93,1.24-1.8,1.11s-1.15-.83-1.41-1.56A12.09,12.09,0,0,1,5,130.58c.17-5.44,1-10.86.35-16.34,1.11,2.71.94,5.56,1,8.37,0,3.4-.18,6.8-.14,10.2,0,.89,0,2.35,1.15,2.41.85,0,1.12-1.28,1.32-2.18.73-3.12.27-6.29.39-9.43C9.11,120.24,8.41,116.82,9.47,113.49Z"/><path class="cls-12" d="M5.46,199.77c-.58-9-1.16-17.42-.87-25.89,1,0,.89.57.91,1,.18,5.62.33,11.23.54,16.85.06,1.73.36,3.44.43,5.17A2.71,2.71,0,0,1,5.46,199.77Z"/><path class="cls-13" d="M52.77,113.69c1.18,7.14.54,13.84.33,20.54C52.14,127.56,51.36,120.89,52.77,113.69Z"/><path class="cls-14" d="M8.21,101c3.38,1.48,3.55,1.83,7.9,16.31a3.86,3.86,0,0,1-1.68-2.23c-.65-2.22-1.34-4.43-2-6.63C11.52,105.72,10.69,102.93,8.21,101Z"/><path class="cls-15" d="M31.52,122.16c-.31.32-.63.63-.95,1-1.29.18-2,1.79-4.12,1.23,2.85-1.26,4.21-3.75,7-5.23C33.19,120.69,31.77,121.08,31.52,122.16Z"/><path class="cls-16" d="M53.24,137.9a11,11,0,0,1,.45,6.55C52.17,141.61,52.08,139.82,53.24,137.9Z"/><path class="cls-17" d="M16.74,107c1.59,1,2,2.55,2.19,4.66C17.16,110.33,17,108.67,16.74,107Z"/><path class="cls-18" d="M10.93,109.15l-.5.52a7,7,0,0,1-1.2-3.32C10.58,107.1,10.58,108.22,10.93,109.15Z"/><path class="cls-13" d="M76.88,112.45c.9,10.74.14,21.51.58,32.26C75.83,134,76.74,123.22,76.88,112.45Z"/><path class="cls-19" d="M89.82,74.17c.51,1.08.47,3,1.91,2.86,1.72-.1,1.39-2.09,1.49-3.24.42-5,.61-10.1,1.3-15.12.53,0,.7.19.51.68-.36,5.26-.67,10.52-1.1,15.77-.11,1.28-.38,2.91-2,3s-2.31-1.31-2.5-2.83C89.26,74.78,88.91,74.23,89.82,74.17Z"/><path class="cls-20" d="M114,61c1,3.88.25,7.65-.8,11.38-.24.87-.76,1.77-1.83,1.73s-1.48-1-1.74-1.84a12.2,12.2,0,0,1-.65-4.11c.28-.33,0-.91.51-1.13.27,1.45.5,2.91.82,4.35.15.69.13,1.69,1.12,1.66.77,0,.83-.92,1-1.52,1.08-3,.95-6.21,1-9.35C113.8,61.77,113.51,61.19,114,61Z"/><path class="cls-17" d="M71.36,73.54c-1.53-7-1.19-16.21.86-19C70.86,61,71.79,67.06,71.36,73.54Z"/><path class="cls-21" d="M95,59.35l-.51-.68c.09-1.42.13-3.34,1.8-3.31s1.59,2,1.76,3.37c.26,2.14.55,4.28.85,6.41.09.61.25,1.3,1,.51.15-.24.31-.24.47,0,0,.83-.33,1.53-1.25,1.49s-1-.87-1.1-1.46c-.35-2.11-.54-4.24-.87-6.34-.16-1,0-2.17-.94-3C95,57,95.8,58.51,95,59.35Z"/><path class="cls-22" d="M84.46,48.41c.2-1.66,2.68-3.76,4.23-3.59.27,0,.48.07.46.38s.08.76-.45,1c-.94.42-2.11.23-2.93,1,.42,1.18,1.94.61,2.35,1.71-1.12.73-2-.44-3.05-.26C84.75,48.88,84.55,48.81,84.46,48.41Z"/><path class="cls-23" d="M104.38,46.43a2.65,2.65,0,0,1,3.16.56,1.3,1.3,0,0,1,.21,1.81A3.54,3.54,0,0,1,104,50.18c1-1,2.89-.69,2.86-2.22C106.8,46.77,105.1,47.41,104.38,46.43Z"/><path class="cls-15" d="M91,63.23c-.85-2.35-.58-4.94-2-7.12C91.25,57.66,91.75,59.42,91,63.23Z"/><path class="cls-24" d="M84.46,48.41l.6.22c1.42,1.95,3.8,1.17,5.78,1.91C87.79,51.81,85,50.82,84.46,48.41Z"/><path class="cls-25" d="M113.54,55.2c.61-2.88,3.51-3,5.33-4.47h0c.13,1.2-.85,1.54-1.63,1.86A5,5,0,0,0,114,56.23C113.55,56,113.77,55.5,113.54,55.2Z"/><path class="cls-26" d="M89.82,74.17l-.42,1.08a11.12,11.12,0,0,1-.85-4.66c.42-.78-.17-1.74.42-2.49C89.25,70.12,89.54,72.15,89.82,74.17Z"/><path class="cls-15" d="M110.54,59.25a34.12,34.12,0,0,0-2.43-5C110.38,55.84,110.87,56.92,110.54,59.25Z"/><path class="cls-27" d="M89,68.1c-.21.82.24,1.75-.42,2.49V61.42C89.22,63.91,89,66,89,68.1Z"/><path class="cls-28" d="M77,152c1.09,1.09,1.73,2.28.68,3.76Z"/><path class="cls-29" d="M113.54,55.2l.43,1c0,1.57,0,3.15.07,4.72l-.51,1.17A22.3,22.3,0,0,1,113.54,55.2Z"/><path class="cls-16" d="M90.81,69.35a4.06,4.06,0,0,1,.45,3.2C90.32,71.74,90.36,70.86,90.81,69.35Z"/><path class="cls-27" d="M109.53,67,109,68.11l-.21-5.93a.34.34,0,0,1,.52,0C109.39,63.76,109.46,65.37,109.53,67Z"/><path class="cls-30" d="M100.45,65.64H100c.21-1.44.41-2.87.61-4.3A5.88,5.88,0,0,1,100.45,65.64Z"/><path class="cls-31" d="M109.33,62.15l-.52,0c-.56-1.06-.35-2.18-.48-4A8.14,8.14,0,0,1,109.33,62.15Z"/><path class="cls-32" d="M106.74,54.34c1.19.7,1.3,1.92,1.59,3.08C107.24,56.69,107.1,55.47,106.74,54.34Z"/><path class="cls-33" d="M87.79,59.27c-1-.49-1.24-1.14-.74-2.49Z"/><path class="cls-17" d="M102.89,47.23c-.49-1-1-1.58-.55-2.49C103.14,45.3,103.51,45.87,102.89,47.23Z"/><path class="cls-34" d="M98.83,55.33c.92.11,1.11.64,1,1.35,0,.1-.29.26-.36.23C98.74,56.59,98.83,56,98.83,55.33Z"/><path class="cls-34" d="M110.46,66.57c.08-.29.06-.74.54-.62s.42.46.38.79-.06.75-.54.63S110.45,66.91,110.46,66.57Z"/><path class="cls-35" d="M109.1,46.09c1,.49,1.65.79,1.63,1.73C109.92,47.63,109.52,47.12,109.1,46.09Z"/><path class="cls-36" d="M148,156c-.79-4.26-4.68-4.78-7.71-6.24-1-.48-.81.74-.89,1.28a132.77,132.77,0,0,0-.95,18.38,38.78,38.78,0,0,1-.48,8.19c-.28,1.31-.41,2.85-2.2,2.78-1.62-.07-2.12-1.48-2.32-2.82a17.7,17.7,0,0,1,.11-6.45c1.57-7.17.81-14.36.36-21.56a3,3,0,0,0-.86-1.71,20,20,0,0,1-3-4.84.53.53,0,0,1,.35-.48c1.28,1.71,2.12,3.77,4,5,.71.47.63,1.34.67,2.07.47,7.37,1.11,14.75-.35,22.1a13.34,13.34,0,0,0,0,5.93c.14.56.32,1.27,1,1.31.9.05,1-.83,1-1.43.24-2.89.47-5.8.56-8.7.18-5.73-.31-11.48.51-17.19.5-3.44,1-3.75,4.18-2.35,1.43.65,2.88,1.25,4.33,1.87a1.38,1.38,0,0,1,1.41,1.44c.23.75.47,1.5.7,2.24C148.54,155.33,149,155.94,148,156Z"/><path class="cls-37" d="M148,156l.45-1.17c1.12,3.85.89,7.87,1.4,11.79a63.46,63.46,0,0,0,1.78,10.26c.22.74.41,1.91,1.36,1.85s.83-1.25.95-2c.72-4.55-.21-9.1-.1-13.65,0-1.82,0-3.65.07-5.47s.43-3.53,3-3.68c1.77-.11,2.19-2.07,3-3.37.47,0,.74.08.5.61-.68,2-1.62,3.8-4.1,4.08-1.47.17-1.48,1.41-1.48,2.48,0,4.39.12,8.78.13,13.17,0,2.4,0,4.81-.2,7.2a2,2,0,0,1-1.46,2.1c-1.21.24-1.77-.73-2.15-1.66-1.59-3.8-1.81-7.88-2.28-11.9C148.51,163.12,148.31,159.56,148,156Z"/><path class="cls-38" d="M128.15,164.19V143.66c1.12,7.12.74,13.82.71,20.52Z"/><path class="cls-39" d="M159.48,146.55c2.22-5.69,1.14-12.63,6.52-17.12C161.39,134.21,163.15,141.41,159.48,146.55Z"/><path class="cls-40" d="M169.33,155.58c0,2.64,1.08,5.24.31,7.91-.22.77-.3,1.79-1.33,1.89s-1.39-.84-1.75-1.56a14.42,14.42,0,0,1-1.09-6.3c.39-.48-.11-1.24.51-1.64.67,1.55.18,3.23.53,4.82.25,1.16.29,2.44,1.63,3.4,1.17-2.31.55-4.68.67-6.95C168.78,156.56,168.14,155.76,169.33,155.58Z"/><path class="cls-41" d="M148.35,143.46c0-1.3,0-2.6,0-3.9-1-2.2-.57-4.56-.78-6.85-.06-.68.13-1.43.9-1.56.94-.17,1.08.73,1.07,1.3-.05,2.37.87,4.75-.08,7.1,0,1.31,0,2.61.05,3.92-.23,2.6.3,5.23-.48,7.84C148.77,148.69,148.56,146.08,148.35,143.46Z"/><path class="cls-42" d="M160.46,151.18l-.5-.61q2-6.23,4-12.45c.44-.08.7,0,.46.52a2.52,2.52,0,0,0,.47,2.36c.26.55,0,.61-.48.54-1.53,0-1.1,1.43-1.39,2.17C162.1,146.17,161.83,148.86,160.46,151.18Z"/><path class="cls-43" d="M166,155.88c-.15.55,0,1.2-.51,1.64q-.08-6.71-.13-13.4c-.27-.51,0-.58.43-.52A98.67,98.67,0,0,1,166,155.88Z"/><path class="cls-44" d="M147.76,152.61l-1.41-1.44-1.44-2.31c2.48,1.45,3.67,3.6,6.33,4.81C149.24,154.32,148.79,152.69,147.76,152.61Z"/><path class="cls-45" d="M128.52,168.05c.71,2.16.31,4.08.34,6.14C127.69,172.76,127.57,170.68,128.52,168.05Z"/><path class="cls-46" d="M168.49,154V143.87h.45V152C169,152.7,169.67,153.55,168.49,154Z"/><path class="cls-15" d="M157.35,140.34a4,4,0,0,1,1.26-3.89A6.48,6.48,0,0,1,157.35,140.34Z"/><path class="cls-47" d="M168.49,154c.56-.57.23-1.35.45-2a7.35,7.35,0,0,1,.39,3.6c-.58.39-.35,1-.52,1.57A5.47,5.47,0,0,1,168.49,154Z"/><path class="cls-48" d="M165.77,143.6l-.43.52-.9-2.58.48-.54A3.72,3.72,0,0,1,165.77,143.6Z"/><path class="cls-49" d="M164.45,138.64l-.46-.52a4,4,0,0,1,1.34-2.52A5.84,5.84,0,0,1,164.45,138.64Z"/><path class="cls-43" d="M130.42,142.55l-.35.48-1.15-1.93C130.2,141.1,130.23,141.9,130.42,142.55Z"/><path class="cls-50" d="M30,110.54l1.88-7.83-.71-.2c-1.31,2.41-1.31,5.27-2.32,7.78-1.93-2.51-.45-5.19.24-7.39a154,154,0,0,1,9.42-22.06,6.49,6.49,0,0,1,.73-.8c-2,8.33-2.84,16.52-5.38,24.3C33.08,106.57,32.92,109.55,30,110.54Z"/><path class="cls-7" d="M148.64,139.15l1.67-7.9-.42-.13-2.32,7.72c-1.67-2.64-.63-5.46,0-7.94,1.95-7.52,4.37-14.92,6.8-22.33-1,9.23-1,18.59-3.81,27.56C150.21,137.32,150,138.57,148.64,139.15Z"/></g></g></svg>