<svg xmlns="http://www.w3.org/2000/svg" viewBox="0 0 684.57 465.05"><defs><style>.cls-1{fill:#3c675e;}.cls-2{fill:#3d685e;}.cls-3{fill:#3d685f;}.cls-4{fill:#e2eae9;}.cls-5{fill:#a6b9b3;}.cls-6{fill:#fff;}.cls-7{fill:#feffff;}.cls-8{fill:#e2e9e8;}.cls-9{fill:#e1e8e7;}.cls-10{fill:#c1d0cc;}.cls-11{fill:#597e76;}.cls-12{fill:#bdcdc9;}.cls-13{fill:#587d74;}.cls-14{fill:#5d8178;}.cls-15{fill:#436c64;}.cls-16{fill:#bcccc8;}.cls-17{fill:#b2c6c2;}.cls-18{fill:#406a61;}.cls-19{fill:#5d8078;}.cls-20{fill:#6e8e87;}.cls-21{fill:#668781;}.cls-22{fill:#8da7a2;}.cls-23{fill:#5f827a;}.cls-24{fill:#abc0bb;}.cls-25{fill:#a7bcb8;}.cls-26{fill:#436d64;}.cls-27{fill:#c3d2d0;}.cls-28{fill:#a0b6b1;}.cls-29{fill:#8ea8a2;}.cls-30{fill:#63867e;}.cls-31{fill:#9cb4af;}.cls-32{fill:#a1b7b2;}.cls-33{fill:#7b9992;}.cls-34{fill:#698b84;}.cls-35{fill:#829e98;}.cls-36{fill:#e3eae9;}.cls-37{fill:#e1e9e8;}.cls-38{fill:#e0e8e7;}.cls-39{fill:#e1e9e7;}.cls-40{fill:#dde5e4;}.cls-41{fill:#dfe7e6;}.cls-42{fill:#ccd8d5;}.cls-43{fill:#dee6e5;}.cls-44{fill:#d8e2e0;}.cls-45{fill:#d4dedc;}.cls-46{fill:#d2ddda;}.cls-47{fill:#dce4e3;}.cls-48{fill:#cfdbd8;}.cls-49{fill:#cbd8d5;}.cls-50{fill:#dce5e3;}.cls-51{fill:#92aca7;}.cls-52{fill:#c9d6d3;}.cls-53{fill:#aec2be;}.cls-54{fill:#c4d3d0;}.cls-55{fill:#b9cbc8;}.cls-56{fill:#c5d4d1;}.cls-57{fill:#c8d6d2;}.cls-58{fill:#89a49e;}.cls-59{fill:#7d9a94;}.cls-60{fill:#adc1bc;}.cls-61{fill:#90a9a3;}.cls-62{fill:#9ab1ab;}.cls-63{fill:#94ada7;}.cls-64{fill:#bbcbc8;}.cls-65{fill:#bed0cc;}.cls-66{fill:#a5bab5;}.cls-67{fill:#becfcb;}.cls-68{fill:#5c8078;}.cls-69{fill:#a4bab5;}.cls-70{fill:#698a83;}.cls-71{fill:#c0d1ce;}.cls-72{fill:#84a09b;}.cls-73{fill:#8aa59f;}.cls-74{fill:#9fb6b1;}.cls-75{fill:#a8bdb9;}.cls-76{fill:#fdfefe;}.cls-77{fill:#b2c5c1;}.cls-78{fill:#e2e9e9;}.cls-79{fill:#88a39d;}.cls-80{fill:#abc0bc;}.cls-81{fill:#b5c8c4;}.cls-82{fill:#bccdc9;}.cls-83{fill:#a3b9b4;}.cls-84{fill:#b8c9c5;}.cls-85{fill:#adc1bd;}.cls-86{fill:#e0e8e6;}.cls-87{fill:#fefefe;}.cls-88{fill:#aabfbb;}</style></defs><g id="圖層_2" data-name="圖層 2"><g id="圖層_1-2" data-name="圖層 1"><path class="cls-1" d="M250,12a9.65,9.65,0,0,0,2.38,8c7.93,9.85,15.69,19.83,21.37,31.23a22,22,0,0,1,2.78,9c.18,4.57-3,6.53-7.06,4.37a19,19,0,0,1-5.72-5.14c-6.61-8.15-11.89-17-14.21-27.47-.58,4.69-1.49,9.28-.42,14.08,2.27,10.13,7.38,18.8,13.35,27.07a16.55,16.55,0,0,0,6.05,5.08c2.29,1.21,4.4,3.5,6.69,5.19a189.21,189.21,0,0,1,29.24,26.31,12.85,12.85,0,0,1,3.14,5.87,3.93,3.93,0,0,1-1.28,4,3.75,3.75,0,0,1-4,.53,17.8,17.8,0,0,1-6.06-4.29c-2.5-2.43-4.94-4.94-7.4-7.41-.27,0-.46-.54-.65-.36s0,.6.13.89c2.78,4.91,5.21,10,8,14.94,2,3.52,3.14,7.55,6,10.56s5.6,6.14,8.26,9.34c5.78,6.95,9.54,15.17,14.35,22.74a9.06,9.06,0,0,1,.76,9.05c-.81,1.7-1.71,2-3.15.52A102.11,102.11,0,0,1,307,156.08c-1.47-2.51-2.78-5.11-4.17-7.66a1.88,1.88,0,0,1-1-1.15c-.73.43.06,1-.14,1.47a1.79,1.79,0,0,0,.08,1c1.23,5.86,1.55,11.85,2.63,17.74,1,5.31,2,10.61,3.19,15.88.14.61.05,1.42,1.08,1.35.64.47.43,1.08.25,1.68a11.6,11.6,0,0,1-1.55,5.45c-.31.59-.62,1.31-1.39,1.26-1-.07-1-.93-1.19-1.66-2.05-7.79-3.67-15.67-4.94-23.63a266.16,266.16,0,0,1-3-30.47,7.17,7.17,0,0,0-1.5-4.24c-.32,4.32-.62,8.65-1,13-.82,10.36-2.4,20.61-4,30.86-.47,3-1.45,5.86-4.28,7.57-2.3,1.38-3,1.08-3.44-1.54-1.76-10.55-.37-20.86,2.45-31.05a154.72,154.72,0,0,1,7.8-21.51,5.28,5.28,0,0,0-.14-5.07,200.45,200.45,0,0,0-13.25-22.55c-.45-.66-.71-1.52-1.6-1.81-1-.53-1.38-1.81-2.53-2.18a8.92,8.92,0,0,1-1.64-3c2.52,11.11,4.11,21.9,7.42,32.32,1.06-3.23.23-6.48.44-9.7a1.32,1.32,0,0,1,.87-.71,36.82,36.82,0,0,1,.89,12.59,6.21,6.21,0,0,1-1.58,3.6,3.81,3.81,0,0,1-3.31,1.43c-1.53-.19-1.2-1.68-1.4-2.6-3.1-14.54-6.17-29.08-9.12-43.65A14.18,14.18,0,0,0,265,83c-7.66-9.68-14.7-19.74-18.77-31.78-.26,1.69-.58,3.38-.77,5.09-.89,7.92-1.67,15.86-2.65,23.78-.27,2.11.41,3.91,1,5.81.45,1.51.83,3,1.24,4.56a4.14,4.14,0,0,0,.3,2.57c.06.67.53,1.3.18,2l.5,2.44c1.21,1.17,1.18,2.82,1.63,4.29.75,2.42,1.61,4.81,2.38,7.23.29,1,.66,2.06,1,3.09s.72,1.68,1,2.56c.41.67.2,1.62,1,2.14a.4.4,0,0,1,.43.18q2.32,7.48,4.66,14.95c.22.71.69,1.49-.3,1.92s-1.45-.43-1.85-1.15a126.27,126.27,0,0,1-7.27-15,121.07,121.07,0,0,1-6.76-22.59c-.71-.69-.59.24-.85.43L237.66,125a12,12,0,0,1-.21,1.48c-1.31,5.3.31,9.56,3.59,13.94a103.16,103.16,0,0,1,15.09,27.42c1.13,3.2,2.15,6.48,1.34,10a5.34,5.34,0,0,1-1.88,3.14c-2,1.57-3.28,1.35-4.63-.82a165.41,165.41,0,0,1-14-28.33c-.17-.47-.38-.92-.82-2-.1,1.15-.17,1.72-.18,2.3a186.35,186.35,0,0,0,.92,25.66,3.94,3.94,0,0,0,1.76,2.8A157.18,157.18,0,0,1,262,203.7a25.53,25.53,0,0,1,3.46,5.47,9.51,9.51,0,0,1,.94,4.84c-.37,4.2-2,5-5.44,2.68a85.18,85.18,0,0,1-20.74-20.16c-.59,1,0,1.79.16,2.58a22.38,22.38,0,0,0,.53,2.43c2,7.45,3.6,15,7.45,21.87a8.47,8.47,0,0,0,4.9,4.11,76.8,76.8,0,0,1,31.74,20c.17.18.36.35.52.54.53.62,1.34,1.21.81,2.14-.63,1.11-1.5.29-2.19.05A164.37,164.37,0,0,1,258,238.53c-1.59-.88-3.16-1.79-4.74-2.67-1.43,2,.49,3,1.09,4.29A122.36,122.36,0,0,1,265.3,280.6c.09.87.47,2-.69,2.38s-1.49-.76-1.92-1.56a102,102,0,0,1-12-41.56c-.16-2.29.51-4.89-1.6-7-2.51,8.32-5.15,16.41-8.19,24.38-2.73,7.14-5.67,14.19-8.92,21.11-1,2.12-2,2.31-3.7.63a7.18,7.18,0,0,1-1.89-5.74c.25-7.08,2.58-13.69,4.83-20.28a78.26,78.26,0,0,1,14.13-24.77,3,3,0,0,0,.55-3.55c-4-9.4-8.48-18.61-10.75-28.65-.64-2.83-1.2-5.67-1.8-8.51a4,4,0,0,1-.77-1.47,5.13,5.13,0,0,1-.16-.65,6,6,0,0,1,0-2c-1.53-3.17-.15-6.63-1-9.89a25.37,25.37,0,0,1-.28-4,105.1,105.1,0,0,0-7.3,10.75,151.58,151.58,0,0,0-17.31,40.92c-.65,2.5.65,4.28,1.8,6.35a100,100,0,0,1,5.38,11.77,122.61,122.61,0,0,1,8.76,41c0,.83.57,2-.71,2.3s-1.36-1-1.66-1.81a341.24,341.24,0,0,1-14.2-49c-.19-.89-.41-1.77-.72-3.05a68.9,68.9,0,0,0-2.06,11.56,147,147,0,0,0-.86,29.36c.14,1.87,1.22,3.19,1.76,4.8,4.74,14.1,9.81,28.07,17.31,41,1,1.8,2.17,3.55,3.26,5.31.16.25.38.46,1,1.23a205.67,205.67,0,0,0-8.37-24.1c-2.8-6.76-6.06-13.3-9.46-19.77-.41-.78-1.58-1.75-.22-2.54s1.62.64,2.06,1.44a219.13,219.13,0,0,1,19.8,49.89c.2.78,1,1.84-.26,2.38-1.13.48-1.58-.63-2.1-1.32-7.29-9.71-12.6-20.51-17.24-31.66a2,2,0,0,1-.72-1.16c-.06.15.07.23.07.35.19.62-.17,1.28.17,1.87,1.06,7.32,2.14,14.63,3.18,21.94,1.41,9.88,2.32,19.8,3.05,30,1.87-1.11,2.38.14,3,1.57,3.71,9,8.09,17.67,12.38,26.39a25.16,25.16,0,0,0,3.9,6.07c.79.85,1.69,2.06,2.89,1.52,1.44-.65.78-2.22.59-3.37a21.64,21.64,0,0,0-1.2-3.79c-3.74-9.83-9.43-18.47-16.08-26.53-.37-.45-.75-.89-1.1-1.36a1.16,1.16,0,0,1,.21-1.75c.65-.55,1.11-.09,1.48.35,7,8.26,14.13,16.44,17.6,27a19.66,19.66,0,0,1,.76,10.81c-.39,1.67-1.07,1.82-2.44,1.1a16.84,16.84,0,0,1-6.67-6.56,247.45,247.45,0,0,1-13.45-27,4.07,4.07,0,0,0-1.37-2.27,46.94,46.94,0,0,0,.52,10.91c1.34,10,2.29,20,1.81,30.08-.28,5.8-.45,11.64-2,17.3-.57,2.09-.94,4.84-3.86,4.79s-3.62-2.67-4.1-5a64.65,64.65,0,0,1,3.2-37.92c.3-.76.53-1.83,1.64-1.41,1.28.48.6,1.5.29,2.3a70.81,70.81,0,0,0-4.47,26.37,56.2,56.2,0,0,0,.45,6.21c.21,1.83,1.27,3.31,3.12,3.37s2-1.84,2.29-3.3c2.14-12.41,1.86-24.86.2-37.26-.44-3.34-.66-6.74-1.34-10.1-1.19.07-1.15,1.13-1.48,1.77-3,6.1-6.16,12.17-10.39,17.58a20.48,20.48,0,0,1-5.17,5c-1.63,1-3.37,1.61-5.14.41a5.42,5.42,0,0,1-2.53-5.58,18.09,18.09,0,0,1,2.39-6.25,56.4,56.4,0,0,1,20.19-21,2.75,2.75,0,0,0,1.61-3c-1.42-17.15-3.49-34.22-6.46-51.17a3.46,3.46,0,0,0-.29-.68c-1,.51-.42,1.25-.32,1.86,1.26,8.15,2.24,16.31,1.76,24.58a59.45,59.45,0,0,1-1.09,7.65c-.14.72-.22,1.59-1.22,1.59-.78,0-1.06-.67-1.3-1.32a86.34,86.34,0,0,1-5-20.79,83.62,83.62,0,0,1,1.92-27.21c.47-2.14-.26-4.55-.49-6.82-1.76-16.94-.36-33.66,3.11-50.29a173.11,173.11,0,0,1,5.6-19.07c.26-.78,1.27-1.78.34-2.37-.73-.47-1.33.74-1.89,1.29a140.23,140.23,0,0,1-30,22.64c-.65.37-1.31.72-2,1.07s-1.37.85-2,0,0-1.36.5-1.95a106.74,106.74,0,0,1,10.68-10.48,185.19,185.19,0,0,1,15.3-11.6,18.7,18.7,0,0,1,7.19-3.33,3.29,3.29,0,0,0,1.86-1.11,32.85,32.85,0,0,0,6.32-8.51,140.4,140.4,0,0,1,14.25-23.39,5.63,5.63,0,0,0,1.14-3.67,209.24,209.24,0,0,1,.93-27.65c.07-.58.06-1.16.09-1.83-1.08.64-1.05,1.75-1.35,2.64-4.74,13.78-11,26.91-17.7,39.81a19.39,19.39,0,0,1-5.07,6.42c-1.66,1.31-3.51,2-5.56.92s-2.39-2.81-2.39-4.84c0-5.1,2.25-9.5,4.36-13.9a6.16,6.16,0,0,0,.19-5.36A91,91,0,0,1,199.35,138c-.28-.47-.55-.47-.81,0a144.25,144.25,0,0,1-7.68,23.66,11.91,11.91,0,0,1-4.61,5.75c-1.54,1-2.37.46-2.68-1.1a16,16,0,0,1,.66-8.6c2.77-7.79,6.13-15.34,11.2-21.88,3.25-4.2,2.65-9,3.76-14.24A114.71,114.71,0,0,0,188.83,133c-4.71,5.71-9.08,11.69-13.27,17.79a5.11,5.11,0,0,0-.87,3.72c.63,6.11,1.31,12.25.31,18.39a10.06,10.06,0,0,1-.29,1.47c-.48,1.48-.75,3.36-2.72,3.42-2.14.07-2.89-1.76-3.4-3.45-1-3.2-.81-6.52-.74-10.44-2.31,4.37-4.33,8.23-6.38,12.07a13.85,13.85,0,0,1-4.34,5.39c-.77.51-1.65,1.4-2.67.62s-.32-1.66-.09-2.52a70.5,70.5,0,0,1,10.76-22.61c.43-.61.83-1.23,1.23-1.85,0,0,0-.15-.09-.59-3.05,2-6,3.94-8.94,5.76s-5.37,4.62-9.29,4.37c-.07,1.47.7,2.63.94,3.91.14.71.56,1.57-.42,1.94s-1.29-.42-1.69-1.08a117.29,117.29,0,0,1-8.3-17,121.31,121.31,0,0,1-5.43-18.11,5,5,0,0,1,0-2.71c1.95-1,2.24.61,2.71,1.78,3.48,8.71,7.93,17,11,26.25a40,40,0,0,1,13.74-8.8,25.66,25.66,0,0,1,6.74-1.8,15.22,15.22,0,0,0,10.92-6.65c1.41-1.93,2.9-3.8,4.37-5.91a5.14,5.14,0,0,0-3,1c-3.82,2.05-7.85,3.63-11.82,5.34a9.32,9.32,0,0,1-5.86.63,2.62,2.62,0,0,1-2.26-2.06,2.52,2.52,0,0,1,1.19-2.57,30.22,30.22,0,0,1,17-6.4c5-.2,9.34-1.83,12.59-5.88a37.54,37.54,0,0,1,7.86-8c.94-.64.91-1.72,1-2.7.75-5.18,1.4-10.37,2.3-15.64-3.69,7.32-7.43,14.5-12.43,20.93a17.4,17.4,0,0,1-4.42,4.35c-1.69,1-3.51,1.74-5.36.4s-1.89-3.38-1.38-5.42a13.32,13.32,0,0,1,2.07-4.25c5.93-8.58,12.49-16.61,20.67-23.18a7,7,0,0,0,2.72-4.78c1.43-9.45,3.15-18.86,5-28.19-4.3,8.37-9,16.62-15,24a16.87,16.87,0,0,1-5.94,4.85c-3.42,1.58-6.22,0-6.87-3.87.14-2.64,1.59-4.7,3.14-6.66a3,3,0,0,0,.35-3.64A165.93,165.93,0,0,1,168.8,23.92a80.86,80.86,0,0,1-5.75,9.32A8.51,8.51,0,0,0,161.7,38c-.31,6.1-1.8,12-2.8,18a12.57,12.57,0,0,0,2.76,10.84c.64,1.3,1.19,2.64,1.91,3.9a59.89,59.89,0,0,1,4.08,25.16,8.26,8.26,0,0,1-.08,1c-.17,1.05-.61,2-1.7,2.24-1.3.28-1.69-.84-2.06-1.75a83.17,83.17,0,0,1-3.37-11.22,145.29,145.29,0,0,1-4-21.3c0-.15,0-.31,0-.48-.07.13,0,.27-.07.42-2.18,8.31-5.2,16.34-8.1,24.4a16.51,16.51,0,0,0-.57,4.57c-.33,4.61,1.94,8.46,3,12.64,2.25,8.55,4.11,17.14,3.89,26.06,0,2-.45,4-.65,5.95a1.77,1.77,0,0,1-1.26,1.7,1.8,1.8,0,0,1-2-1.11A18.43,18.43,0,0,1,149,134.3c-3-11-5.31-22.09-5.29-34a36.26,36.26,0,0,1-2.52,7.8c-2.55,6.86-5.07,13.74-7.37,20.69a6.12,6.12,0,0,1-1.33,2.64A147.17,147.17,0,0,0,126,158.22c-.54,3.45-.82,6.93-1.4,10.37-.64,3.85,1,7.17,2.27,10.55a64.38,64.38,0,0,0,13.26,21c.09-2.87-1.95-9.07-4.35-13.54a55.14,55.14,0,0,0-7.27-10.4c-.55-.62-1.64-1.31-.59-2.27s1.62.16,2.18.79a50.41,50.41,0,0,1,13,27.79c.1.79.62,1.73-.44,2.2s-1.51-.42-2.1-1a66.74,66.74,0,0,1-16.23-24.71,2,2,0,0,0-.64,1.79c0,7,.11,13.95.61,20.92a4.31,4.31,0,0,0,2.39,3.84c1.77.88,2.72,2.36,3.85,3.75a56.32,56.32,0,0,0,20.73,16,16.4,16.4,0,0,0,9.24,1.71,55.42,55.42,0,0,0-8.46-9.75,59,59,0,0,0-17.19-10.87c-.39-.16-.76-.34-1.13-.52-.7-.33-1.06-.88-.73-1.61s1.08-.5,1.7-.25a63.08,63.08,0,0,1,11.69,6.1,60.52,60.52,0,0,1,16.17,16.09c1.25,1.8.63,2.55-1.16,2.89a17.2,17.2,0,0,1-9.3-1.06,62.53,62.53,0,0,1-11-5.8c-.4-.25-.77-.71-1.54-.2L147.4,232c.52.65,1,1.3,1.52,2a1.15,1.15,0,0,1,.21,1.37,1.21,1.21,0,0,1-1.54.43A9.78,9.78,0,0,1,146,235a48.66,48.66,0,0,1-19.53-17.7c-.84,0-.87.07-.53,1.55,1.62,11.89,4.84,23.39,8.22,34.88a38.55,38.55,0,0,0,7.11,13c3.29,4.19,6.49,8.45,9.83,12.59,2.28,2.84,4.68,5.61,8.83,6.95a68.84,68.84,0,0,0-12-17.05,75.87,75.87,0,0,0-7.55-6.9c-.72-.56-2-1.19-1.06-2.33s1.62.05,2.31.58a71.56,71.56,0,0,1,20.74,25.52c.31.64,1,1.31.39,2.07s-1.5.43-2.31.29a13.08,13.08,0,0,1-7-4c-4.16-4.22-7.64-9-11.32-13.63a5.15,5.15,0,0,0-2.16-1.84c1.61,3.87,3.16,7.76,4.85,11.59A338.66,338.66,0,0,0,160,310.9a16.39,16.39,0,0,1,.86,1.52c.33.77,1.3,1.66.11,2.37s-1.55-.48-2-1.22c-.88-1.48-1.71-3-2.72-4.38a10.72,10.72,0,0,0,1,4.73c5.19,13.79,9.87,27.73,9.82,42.73,0,.87.46,2.1-.72,2.36-1.36.31-1.45-1.12-1.76-2-5.34-14.64-8.19-26.92-11-46.06-.67,2.84-1.35,5.69-2,8.54-1.61,7-3.58,14-5.72,20.89,0,.16-.13.31-.18.47-.22.81-.42,1.82-1.48,1.65s-.85-1.22-.74-2c.56-4.45,1.09-8.91,1.67-13.36q1.66-12.48,3.36-24.95c0-.33,0-.66.08-1,.11-.8.39-1.56,1.36-1.41s.74,1,.67,1.61c-.41,3.38-.86,6.76-1.3,10.14l-1.29,10.13c-.1.94-.2,1.87-.22,2.81,0,.68-.47,1.21-.57,1.86.15-.63-22.17,14.47-22.19,13.78,0-.85,22.86-17.29,23.44-18q1.6-7,3.2-14.08c.33-1.47.43-3.24,3.36-1.39-5.63-10.41-10.28-20.31-14.55-30.38a1.58,1.58,0,0,1-.69-1.44c-.49-.61-.38-1.47-.9-2.07a5.81,5.81,0,0,1-.31-.61,1.48,1.48,0,0,0,.23.59c.57.58.42,1.47.93,2.06a14.74,14.74,0,0,0,.28,2,110.28,110.28,0,0,1,2,21.3,90.93,90.93,0,0,1-.92,11.17c-.11.7.1,1.71-1,1.71s-1.13-1-1.21-1.84c-.46-4.63-1-9.25-1.36-13.89-.74-9.94-1.42-19.89-1.59-29.87,0-1.81-.94-3.29-1.71-5.12a209.42,209.42,0,0,0-8,44c1-1.18,1.24-2.36,1.79-5.26,1.36-7.26,2.82-14.51,4.28-21.75.15-.76.14-1.93,1.3-1.78,1.32.16,1,1.34.84,2.19-1.78,9-3.22,18.16-5.5,27.1a11.72,11.72,0,0,1-1.15,3A2.41,2.41,0,0,1,125,309c-1.37-.37-1-1.59-.9-2.52a191.31,191.31,0,0,1,7.66-45.34,15.43,15.43,0,0,0-.19-10.05A196.8,196.8,0,0,1,125,224.55c-.11-.57-.09-1.17-.66-1.59-1.11,1.11-.15,2.38-.22,3.54a302.42,302.42,0,0,1-4.58,39.59c-.14.75-.16,1.6-1.17,1.63s-1.13-.79-1.33-1.53c-1.88-6.68-1.11-13.36.18-20,1.84-9.37,3.79-18.72,5.72-28.07a14.57,14.57,0,0,0,.08-4.93,192.81,192.81,0,0,1-1.59-37.51c-1.35,1.95-2.37,3.4-3.36,4.86-.17.25-.55.67-.19.85,2.29,1.17.59,2.59.16,3.74a196.09,196.09,0,0,1-9.16,20.46c-1.08,2.1-2.28,4.13-4.86,4.66-2.06.42-2.82-.44-2.09-2.42A135.41,135.41,0,0,1,121,173a3.89,3.89,0,0,0,1.06-2.13,165.92,165.92,0,0,1,4.85-28.95,13.52,13.52,0,0,0,.18-1.93c-1.59.62-2.2,1.94-3,3-4.55,5.52-9.19,11-14.79,15.49a13.12,13.12,0,0,1-4,2.55c-2.49.83-3.87-.15-3.91-2.77a8.57,8.57,0,0,1,1.78-5.1c4.35-6.28,10-11.35,15.6-16.42a77.21,77.21,0,0,1,10.87-7.94,3.94,3.94,0,0,0,2-2.09c3.21-9.17,6.51-18.31,9.78-27.46a5.58,5.58,0,0,0,0-1c-1.26.51-3-.07-2.64,2.3.11.71-.78,1-1.32,1.36a255.13,255.13,0,0,1-27.27,15.58c-.79.39-1.75,1.11-2.37-.08-.51-1,.48-1.45,1.13-1.92q9.4-6.8,19.33-12.82a4.9,4.9,0,0,0,1.9-1.78c-3.51.63-7,1.29-10.53,1.87-4.34.72-8.65,1.69-13.08,1.81a7.94,7.94,0,0,1-5.76-1.94c-1.75-1.56-1.7-2.12.36-3.2a67.42,67.42,0,0,1,33.33-8,44.37,44.37,0,0,1,7.46.46c1,.19,1.9.26,2.38-1.07,3.18-8.91,6.64-17.73,9.34-26.82,0-.05-.08-.13-.24-.41-3.06,1.55-6.14,3.12-9.23,4.66-5.43,2.7-10.85,5.43-16.31,8.07-2.2,1.07-4.53,1.72-7,.85-.84-.3-1.86-.48-2-1.61s.73-1.43,1.35-2A58.64,58.64,0,0,1,153,59.63a2.67,2.67,0,0,0,2.8-2.39,145.6,145.6,0,0,0,3.55-19.85c.06-.62.44-1.48-.22-1.85-.9-.51-1.28.52-1.76,1A193.79,193.79,0,0,1,139,52.6c-3.33,2.52-7,4.14-11.33,3.57-2.14-.27-2.35-1.33-2-3.07a14.42,14.42,0,0,1,5.94-8.65q12.92-9.6,26-19a3.12,3.12,0,0,0,1.53-3.48c-.53-3.52-.87-7.07-2.07-10.46a31,31,0,0,0-2.22-7.1c-.23-.58-.86-1.36-.1-1.75s1.34.33,1.7,1c1.37,2.68,2.08,5.59,3.13,8.38,1.57,2,1.53,4.51,2.06,6.82.42,1.8.88,1.81,2.43,1,4.51-2.46,4.86-6.47,4.49-10.86,0-2.44-1.06-4.66-1.6-7-.17-.72-.61-1.53.41-1.88s1.42.4,1.67,1.28a54.16,54.16,0,0,1,2.06,9.68,8.1,8.1,0,0,1,.5,3.92c-.64,3.61.63,6.65,2.64,9.52a120.69,120.69,0,0,1,19,42.06c3.75-4.55,7.48-8.76,11.22-13a9.54,9.54,0,0,1,1.31-1.51c4.78-3.49,6.66-8.48,7.41-14.1.39-2.87,1.2-5.66,1.86-8.88-4.14,4.27-8.66,7.51-13,10.92a12.72,12.72,0,0,1-5.54,2.73,3.81,3.81,0,0,1-3.85-1.23,3.6,3.6,0,0,1-.25-4,16.25,16.25,0,0,1,4.77-5.7c5.9-4.75,11.92-9.35,19.12-12,.94-.35.92-1,1.11-1.74.55-2,.32-4.17,1.5-6,.46-2.76.91-5.52,1.39-8.27.16-.9.39-2,1.61-1.68s.48,1.37.39,2.11a51.55,51.55,0,0,0-.78,7.84,1.57,1.57,0,0,1,.24,1.42c-.23,1.66-.76,3.47,2,3.51.37,0,.7.42,1,.72,4.12,4.21,8.67,8,12,12.93,1,1.39,1.6,1.81,2.54,0,1-2,2.2-3.92,3.42-5.79,2.2-3.35,3.74-6.83,3.2-11a2.09,2.09,0,0,1,.57-1.84,71.17,71.17,0,0,0,.55-9.46c.05-1,0-2.3,1.21-2.39,1.1-.09.78,1.24,1,2C250.38,5.38,249.54,8.76,250,12Z"/><path class="cls-1" d="M51.22,160.48a124,124,0,0,1,21.69,41.14,8.53,8.53,0,0,1,.28.95c.1.77.89,1.54,0,2.3s-1.74.13-2.54-.18a20.66,20.66,0,0,1-9-7.27,141.15,141.15,0,0,1-8.6-14c-.41-.71-.9-1.37-1.36-2-1.68-1.24-2.35-3.17-3.29-4.9-1.58-2.89-3.17-5.78-4.9-8.81a197.67,197.67,0,0,0,4.19,51.11,4.46,4.46,0,0,0,1.79,2.88c.66.47,1.42.89,1.63,1.79,7.51,5.49,15.3,10.59,22.53,16.48a49.73,49.73,0,0,1,4.16,3.93,8.33,8.33,0,0,1,2.13,3.9c.38,1.61.91,3.59-.33,4.77s-2.72-.47-3.92-1.11a77.46,77.46,0,0,1-21.92-17.47c-.65-.74-1.38-1.43-2.07-2.15-.61-.07-.81-.78-1.36-.91.42,1.65,1.06,3.26.89,5,1.62,4.93,3.45,9.8,5.15,14.67,2.15,6.13,4.66,12.05,7.37,17.88a201.88,201.88,0,0,0,18.06,31c.38.54.72,1.11,1.07,1.67.67-1.49,1.26-2.7,2.76-.53.57.82,1.79-.19,2.86.2a61.35,61.35,0,0,1,16.54,8.57,28.93,28.93,0,0,1,6.52,6.12c1.3,1.82,2.41,3.76,1.13,6-1.41,2.46-3.81,3.17-6.45,2.8-4.88-.7-8.84-3.22-12.4-6.49-2.06-1.9-3.53-4.31-5.93-6.88a191.37,191.37,0,0,1,4,18.94,166.43,166.43,0,0,1,1.73,24.12c0,.74.1,1.58-.86,1.84-1.14.31-1.37-.65-1.72-1.38-3.43-7.2-5.21-14.88-6.33-22.71a191.59,191.59,0,0,1-1.55-21.14c0-.91-.49-2.09.8-2.61.7-.28.34-.53.09-.86a214.24,214.24,0,0,1-17.24-26.54c0,4.61-.09,8.61,0,12.61.27,9.39.64,18.77,1,28.16.1,2.74.16,5.48.36,8.22.16,2.27-1,2.33-2.62,1.72a7.64,7.64,0,0,1-4.31-4.91,148.73,148.73,0,0,1-7.11-26.42A145,145,0,0,1,54,254c.4-2.6-1.17-4.91-2.17-7.25-1.11-.69-1.28-1.92-1.6-3-1.58-5.34-3.14-10.68-4.59-16.07-1.74-6.51-2.62-13.15-3.8-19.76-.29-1.63,0-3.23-.29-4.49.49,3.19-1.26,6.51-.94,10.09.14,1.58-1.14,2.88-1.45,4.46-2.38,11.91-5.45,23.67-8.39,35.46-.73,2.92-.73,5.93-1.61,8.81a3.18,3.18,0,0,0,1.08,3.18c2.63,2.14,3.5,5.22,4.77,8.07,3.47,7.74,7.07,15.42,9.46,23.6a52.64,52.64,0,0,1,1.91,17.77c-.17,3.25-2,4.17-4.65,2.34a16.24,16.24,0,0,1-5.91-7.27,117.49,117.49,0,0,1-8.12-28.22,6.25,6.25,0,0,1,0-1.73c0-.19.1-.41-.06-.6a1.64,1.64,0,0,1,0,.7,30.84,30.84,0,0,1-1.81,6.24,39.85,39.85,0,0,0-2.46,15.17c0,2.91.17,5.84,0,8.74A11.09,11.09,0,0,0,26,318.26c1.82,2.28,3.47,4.68,5.3,6.95A7.07,7.07,0,0,1,33,328a1,1,0,0,1-.45,1c-1.15.27-1.58-.67-2.18-1.32a105.28,105.28,0,0,1-6.83-8.25,1.47,1.47,0,0,0,.24,1.49c6.61,10.61,13.44,21,22.72,29.6a33,33,0,0,0,4.85,3.9,4.5,4.5,0,0,0,.43.23c.65.22,1.3,1.12,1.94.4.47-.52-.17-1.23-.47-1.79a13.59,13.59,0,0,0-1.84-2.62c-2.5-3.22-5.41-6.08-8.09-9.14-.7-.8-1.67-1.41-1.86-2.58a1.25,1.25,0,0,1,.25-.66c2.59.71,4.14,2.85,6,4.54,1.4,1.28,3.3,2.3,3.63,4.49,2.46,3.11,4.83,6.27,5.86,10.19.2.75.73,1.55-.06,2.3s-1.58.14-2.32,0c-1-.23-2-.61-3.06-.93a3.89,3.89,0,0,1-2.78-.88,46.83,46.83,0,0,1-11.56-9.76A118.27,118.27,0,0,1,24,328.8a212.17,212.17,0,0,0,7.37,39.32c.69,2.4,1.62,4.72,2.19,7.16A4.15,4.15,0,0,0,36.19,378c4.13,2,8.35,3.72,12.52,5.61.89.41,1.92.64,2.38,1.67,5.58,3,11,6.12,15.41,10.8a51.33,51.33,0,0,1,11.38,19.1c.27.79.69,1.66-.1,2.3s-1.41.06-2.11-.2a90.79,90.79,0,0,1-24-13.5c-1.74,0-2.29-1.74-3.62-2.38,1.06,3.08,2.95,5.89,3.25,9.24,3,8.5,6.09,17,9.1,25.5,1,2.89,1.88,5.82,1.38,9a5.06,5.06,0,0,1-1.08,2.47c-1.37,1.73-2.25,1.73-3.38-.11-1.91-3.1-3.75-6.24-5.62-9.37-4.45-9-8.75-18.15-11.66-27.83-1-3.48-2-7-2.94-10.49-.41-.66-.82-1.32-.63-1.82.48,1-.41,2.41.17,3.77,1.06,14.74,1.91,29.49,2.41,44.26.19,5.84-.36,11.63-3.06,17-.52,1-.94,2.11-2.49,2-1.21-.05-1.71-.35-1.86-1.67a239.27,239.27,0,0,1,1.41-64.81,17.6,17.6,0,0,0,.55-4.68c-.23-2.1.85-3,2.48-3.16,1.87-.14,1.38,1.75,1.62,2.8,3,13.4,7.19,26.4,13.57,38.62,1.9,1.51,2.43,3.9,3.7,5.81.94,1.44,1.75,3,2.86,4.81a11.59,11.59,0,0,0-.27-5.22c-1.19-4.58-2.64-9.07-4.21-13.53a46.06,46.06,0,0,1-1.58-6c-1.84-6.4-4.87-12.33-7.24-18.52a28.27,28.27,0,0,0-6.09-9.5c-.23-.24-.43-.73-.64-.73-3.58,0-3.24-3.2-4-5.24a237.16,237.16,0,0,1-9.67-34.21c-.66-1-.55-2.2-.88-3.28.11-.79-.52-1.56-.25-2.08a22.84,22.84,0,0,0,.48,3.43c.34,2.51-.41,5,.18,7.54a308.36,308.36,0,0,1-1.45,35.05c-.15,1.42.33,3.54-1.29,3.95s-2.25-1.66-3-2.85a20.41,20.41,0,0,1-3.12-10.87c-.29-9.06.46-18.08,1-27.11.6-9.69,1.54-19.35,2.33-29,.09-1.05-.09-2.31,1.59-2.23,1.09.54.69,1.55.77,2.4a13.47,13.47,0,0,0,0,4.61,14.66,14.66,0,0,1,0-4.72,25.74,25.74,0,0,0-.18-3.93c-.12-2.76-1-5.76-.66-8.16.43-3.25.2-6.48.61-9.68a7.52,7.52,0,0,0,.16-3.4c0-.65-.41-.17-.64-.05-3.05,6.82-5.85,13.76-9.52,20.27-1.68,3-3.74,5.74-7.28,6.81-2.69.81-3.24.31-2.87-2.52,1.06-8.06,4.48-15.27,8.29-22.28,6.34-11.7,12.53-23.48,16.48-36.21,2.72-8.79,4.59-17.84,6.79-26.78,1.48-6.05,2.86-12.12,4.28-18.18a4,4,0,0,0,.08-2.65c-1,.81-3.19.8-1.39,3,.37.46-.25,1.08-.55,1.57A176.1,176.1,0,0,1,9.86,254c-.51.54-1,1.22-1.89.9s-.73-1.2-.74-1.93a18.24,18.24,0,0,1,3.5-10.47c4.48-6.65,9.89-12.52,15.42-18.28,3-3.12,6.11-6.13,9.27-9.08A7.37,7.37,0,0,0,38,210.57c.63-4.78,1.15-9.59,2.18-14.29,1.87-8.49,0-17,.39-25.47a219.38,219.38,0,0,1,5-40c.09-.41.12-.83.18-1.24.1-.26.2-.6,0-.78s-.33.19-.5.28A141.91,141.91,0,0,1,17.13,166c-1.47,1.39-2.37,1.12-3.3-.46a8.36,8.36,0,0,1-.4-7.22,31.88,31.88,0,0,1,4.7-8.46c9.11-12.53,18.67-24.68,30.18-35.14,2.32-2.11,2.72-4.81,3.46-7.49.13-4.92,3-8.83,4.79-13.14A193.88,193.88,0,0,1,67,72.55c-4.59,4.18-9.15,8.26-13.82,12.22A3.67,3.67,0,0,1,51,86C46,90.2,41,94.44,36,98.65a19.59,19.59,0,0,1-5.67,3.56c-3.32,1.24-5.48-.51-4.92-4,.36-2.21,1.68-3.94,3.05-5.63A120.14,120.14,0,0,1,51.75,70.23c2-2.5,4.94-3.6,7.58-5.09a86.58,86.58,0,0,1,14.3-6.43A6,6,0,0,0,77,56.25C82.41,47.47,89.11,39.67,96,32a4.57,4.57,0,0,0,.85-1.19,293.19,293.19,0,0,1-28.26,9.74c-4.75,1.29-9.48,2.41-14.46,1.77a6.29,6.29,0,0,1-3-1.17c-.42-.25-.85-.49-1.26-.77-3.77-2.6-3.63-6,.34-8.28l1.5-.83c1.09-1.52,2.84-1.59,4.43-1.92,17.29-3.6,34.66-6.76,52.08-9.67,1.62-2,2-4.65,3.19-6.9.61-1.18,1.17-2.34,2.86-2.54-.56,3.5-2.66,6.24-3.83,9.35a7.25,7.25,0,0,0-1.59,6.16c2.13,13.29,4.35,26.57,5.3,40,.23,3.3.43,6.65-.6,9.9-.72,2.29-2,4.15-4.6,4.31s-4-1.73-4.85-3.94c-1.14-3-1.31-6.14-1.68-9.28a94.12,94.12,0,0,1,3.66-38.93c.13-.44.52-.88.17-1.51a4.48,4.48,0,0,0-2.9,1.52A239.61,239.61,0,0,0,86.84,47.19a4.42,4.42,0,0,0-1,2.72c-.48,19.45-2.18,38.84-3,58.27-.16,3.74.08,7.49-.55,11.21a16.44,16.44,0,0,1-2.54,6.69c-.38.57-.74,1.18-1.55,1s-.78-.81-.89-1.37a141.53,141.53,0,0,1-2.86-36.44A136.68,136.68,0,0,1,79.19,60a3.16,3.16,0,0,0-2.64,1.71,214.84,214.84,0,0,0-20.39,40.17,4,4,0,0,0,.39,3.29A164.72,164.72,0,0,1,68,142.5c.78,4.46,1,8.93-1.09,13.18-.35.71-.53,1.73-1.58,1.7s-1.2-1-1.55-1.76a114.34,114.34,0,0,1-11-40.92,8.62,8.62,0,0,0-.18-.88c-1.12.68-1,1.81-1.29,2.76-.11,4.38-1.82,8.41-2.74,12.6-1.55,7.07-3,14.15-3.8,21.34a3.16,3.16,0,0,0,1.2,3.2C48.12,155.6,50.3,157.58,51.22,160.48Z"/><path class="cls-2" d="M450.22,12.38Q461.05,25.1,471.9,37.81c2.33,2.73,4.61,5.49,5.85,8.92.67,1.83,1.14,3.77-.48,5.35s-3.68,1.17-5.56.3c-5.2-2.39-8.91-6.61-12.85-10.55a78.47,78.47,0,0,1-16.51-24.16,5.9,5.9,0,0,0-.5-.83,2.34,2.34,0,0,0-.46,0c-.22,6.69-.37,13.38-.68,20.06a51.3,51.3,0,0,0,1,11.14c.16.93.07,2.13,1.8,2,1-.09.89,1.26,1,2,.63,2.92,1.16,5.87,1.69,8.81,1,5.38,4.33,9.36,7.71,13.36a48.24,48.24,0,0,0-2.51-10,130.26,130.26,0,0,0-8.18-19.79c-.34-.66-.69-1.33-1-2a1.1,1.1,0,0,1,.37-1.53c.78-.45,1.25,0,1.59.66.65,1.25,1.31,2.51,1.92,3.78a137.56,137.56,0,0,1,10.9,31.47c.22,1,1.3,2.43-.17,3.13s-1.83-1.07-2.68-1.73c-1.74-1.36-2.64-3.56-5-5.11a216.06,216.06,0,0,0,6.86,21.43c.47,1.25,1.4,1,2.26,1a119.36,119.36,0,0,1,40.93,7.79,5,5,0,0,1,2.2,1.07c-5,3.52-7.68,3.79-16.23,2.41a171.45,171.45,0,0,1-27.13-6.46c.83,2,1.44,3.64,2.19,5.23,1.95,4.13,3.46,8.59,6.06,12.27A65.75,65.75,0,0,1,475,135.52a76.38,76.38,0,0,1,3.28,29.78c-.07.85-.06,1.78-1,2s-1.33-.75-1.67-1.45a118.38,118.38,0,0,1-10.91-36.1c-.22-.23-.09-1.08-.8-.45-1.36,9.37-2.68,18.74-3.21,28.21-.05.81-.47,1.66,1,1.44.42-.06,1,.53,1.43.9A66.85,66.85,0,0,1,484,194c.22.83.8,1.92-.22,2.49s-1.6-.56-2.23-1.14a95.33,95.33,0,0,1-20.14-26.45c-.25-.47-.3-1.13-1.23-1.38,0,4.61-.26,9.16.11,13.65.18,2.27,1.54,4.44,2.29,6.67,2.78,8.26,5.6,16.51,8.22,24.82.49,1.56,1.46,2.62,2.66,2.48,2.24-.26,3.15,1.2,4.38,2.41a101.47,101.47,0,0,1,21.73,32.85c.13.3.25.61.38.92.25.62.54,1.26-.06,1.84-.77.74-1.37.05-2-.31-6.54-4-11.51-9.48-15.69-15.8-2.13-3.24-3.93-6.67-6-10.49-.13,2.36.88,4,.92,5.82.22,10.22,3.63,19.86,5.34,29.82.54,3.13.76,6.3-1.24,9.12-1.38,1.95-2.21,1.94-3.43-.14A39,39,0,0,1,472.69,247c.06-.58.06-1.17.08-1.75.35-.79,0-1.64.22-2.44a4.12,4.12,0,0,0,.57-2c.49-.68.61-1.53,1.11-2.2a6.38,6.38,0,0,0-.9,1.9c-.51.63-.2,1.56-.79,2.16a1.67,1.67,0,0,1-.68,1.48c-1.53,3.21-2.82,6.56-5.18,9.31-1.43,1.68-3,3.36-5.5,2.44s-2.87-3-3-5.29c-.28-6.7,1.49-13,4.15-19a82,82,0,0,1,6.46-11.77,4.36,4.36,0,0,0,.39-4.37c-1.93-5.38-3.67-10.82-5.49-16.25a2.52,2.52,0,0,1-.65-1.82c-.17.44.09.78.11,1.15,0,.55-.35,1.12,0,1.66.33,6.07.73,12.14-1.82,17.93a21.49,21.49,0,0,1-3.88,6.05c-.54.59-1,1.51-2,1.21s-.79-1.21-1-1.9c-2.6-10-3.12-20.27.42-30,2.93-8,2.84-16,2.73-24.71-2.35,4.52-4.31,8.79-6.88,12.71q-4.18,6.35-8.5,12.61a9.63,9.63,0,0,1-4.3,3.67c-1.81.73-2.8.24-3.27-1.69a12.52,12.52,0,0,1,1.07-8.48,69.71,69.71,0,0,1,19.67-24.81c.06-.05.13-.14.2-.14,3.34-.25,2.75-2.91,2.89-4.94a276,276,0,0,1,5-37,5,5,0,0,0-.18-3.19c-1.76-3.63-3.57-7.24-5.36-10.86l-.75,0c0,3.93.1,7.86,0,11.79a94.07,94.07,0,0,1-2.54,20.73,15.66,15.66,0,0,1-2.14,5c-.78,1.14-1.76,2.1-3.28,1.85a3.78,3.78,0,0,1-3.09-2.58c-.94-2.52-.7-5.13-.37-7.65,1.71-13.1,3.76-26.14,7.44-38.86a3.41,3.41,0,0,0-.12-2.19,246.56,246.56,0,0,1-9.05-29.76,6.37,6.37,0,0,0-.5-1.14c-1.36.37-.39,1.31-.48,2a201.69,201.69,0,0,1-.92,38.06c-.56,4.45-1.35,8.87-2.09,13.29-.13.74-.11,1.85-1.25,1.88-.95,0-1-.92-1.3-1.59-2.32-5.69-2.42-11.67-2.22-17.66.25-7.64.61-15.28.92-22.91q.66-15.69,1.3-31.37c0-.63,0-1.26,0-2.32a5.48,5.48,0,0,0-1.3,3.24,136.58,136.58,0,0,1-7,23.6c-1.2,3-2.92,5.56-5.94,7.1-2,1-2.94.31-3.39-1.63a10,10,0,0,1,.7-6.1c3.27-8,6.85-15.87,11.82-23,1.58-2.27,2.41-5.07,4.74-6.83.7-.53.49-1.35.52-2.09l.6-16.69c0-.88,1-1.95-.52-2.5-3.34,8.89-7.26,17.49-12.87,25.22a19.18,19.18,0,0,1-8.67,6.88c-2.32.9-2.82.49-2.7-1.9.44-8.81,5.11-15.64,10.41-22.14A100.39,100.39,0,0,1,436.5,14.21c.72-.64,1.69-1.15,1.65-2.35q1-3.81,2-7.64c.14-.55.14-1.21.89-1.3s.61.64.92,1Q446.08,8.14,450.22,12.38Z"/><path class="cls-2" d="M378.85,131.76c-1.91,9.87-4.18,19.65-7,29.31-.32,1.12-.78,2.13,1.06,2.36.51.06,1.1.78,1.36,1.34,5,10.85,9.7,21.83,11.28,33.85.56,4.2.78,8.43,1.12,12.65.17,2.12-.76,2.58-2.74,2.09a11,11,0,0,1-7.06-5.89,79.19,79.19,0,0,1-8.62-27.41c-.17-1.31-.35-2.61-.58-4.23-1.1,2.51-1,4.73-1.1,7.1-.2,4.22.49,8.26.85,12.35a69.16,69.16,0,0,1-6.79,36.28c-.36.75-.46,2.06-1.62,1.92s-1.12-1.32-1.4-2.17c-2.53-7.66-1.59-15.29.38-22.85,1.19-4.58,2.67-9.08,4-13.62a2.66,2.66,0,0,0,.18-2c-1,.32-1.13,1.33-1.53,2.06-6.45,11.68-13.51,22.93-23,32.48-.66.67-1.21,2-2.39,1.19s-.22-2,.21-2.84a284.77,284.77,0,0,1,22.8-38c.32-1.26,1.28-2.11,2-3.13a23.25,23.25,0,0,0,2-2.48c-1.5,1.45-2.41,3.76-4.5,5-4.71,5.17-9.58,10.17-15.6,13.87-1.48.91-3,1.71-4.59,2.5-.55.28-1.15.78-1.83.19s-.41-1.2-.29-1.85c1.12-6.23,4.16-11.51,8.15-16.31,6.73-8.08,15.32-14,23.61-20.26a5.71,5.71,0,0,0,2.3-3.08,380.54,380.54,0,0,0,9.17-40.81,10.9,10.9,0,0,0,0-1.52c-1.92.45-2.69,1.95-3.55,3.35a201.91,201.91,0,0,1-26.61,34.51c-.58.6-1.06,1.83-2.14,1.28s-.5-1.74-.25-2.67c3.39-12.78,11.52-22.25,21.21-30.71,3.46-3,7.89-5.11,9.84-9.68.09-.22.35-.57.46-.54,2.87.57,2.22-1.8,2.4-3.1a221.55,221.55,0,0,0,2.14-29.56V81.13a110.22,110.22,0,0,1-8.06,11.78A84.21,84.21,0,0,1,350,113.14c-.7.4-1.43,1-2.27.35s-.16-1.55.12-2.26a70.78,70.78,0,0,1,32.18-36.47,3.5,3.5,0,0,0,2.17-3.83,235,235,0,0,0-3.55-29.68c-.08-.4-.24-.78-.44-1.43-1.7,1.56-3.08,2.92-3.55,5.23a78.12,78.12,0,0,1-20.63,39.16c-.6.63-1.12,1.75-2.18,1.3-1.26-.54-.63-1.79-.49-2.68,1.71-10.55,6.32-19.89,12.35-28.58a53.39,53.39,0,0,1,5.87-7.74c3.19-3.15,4-6.92,4.13-11.06,0-1.08.08-2.16.16-3.24,0-.49,0-1.28.28-1.42,2.89-1.46,1.2-3.66.83-5.48a135,135,0,0,0-3.14-14C371.64,9,370.74,7,370.19,4.84c-.17-.65-1-1.51,0-1.92s1.6.52,1.88,1.42c.79,2.5,1.53,5,2.3,7.52,1.18,5.52,2.34,11.05,3.58,16.55.18.78.06,1.89,1.37,2.09,5.2.77,9.19,3.86,12.83,7.26,6.93,6.46,14.56,12.18,20.8,19.38a37.91,37.91,0,0,1,4.5,6.58c.75,1.37,1.28,2.75.05,4.15A3.94,3.94,0,0,1,413.18,69a21,21,0,0,1-8-4.5c-7.78-6.52-14.85-13.82-22.4-20.6-.41-.37-.67-1-1.67-.87a250.17,250.17,0,0,1,3.09,29.27c2-.79,3.69-1.45,5.37-2.14.74-.31,1.49-.62,1.87.37s-.41,1.35-1.09,1.65c-1.28.58-2.59,1.09-4.06,1.69a4.48,4.48,0,0,1,1.75,1.3c6.8,9.57,13.42,19.25,18,30.13a33.67,33.67,0,0,1,1.54,5.25c.38,1.6.31,3.26-1.19,4.29s-3,.65-4.5-.11a13.88,13.88,0,0,1-4.51-3.87c-6-7.65-10.67-16-12.86-25.63-.49,9.59-1.35,19.11-2.43,28.58,1,.39,2-.86,2.64.27s-.4,1.43-1,2c-.81.86.09,1.55.4,2.22,4.62,10,9.43,20,13.36,30.33a17.24,17.24,0,0,1,1.35,7.29,4.12,4.12,0,0,1-2.53,4,4.58,4.58,0,0,1-4.71-.67,15.14,15.14,0,0,1-4.19-5.21,72.1,72.1,0,0,1-7.73-22.78C378.79,130.27,379.23,131.76,378.85,131.76Z"/><path class="cls-2" d="M577.11,11.84c-3.93,5.62-2.15,11.44-.82,17.36a221.54,221.54,0,0,1,4.74,39c.11,2.56-.67,3-3.14,2.16s-3.49-2.72-4.29-4.88c-1.62-4.33-1.83-8.93-2.4-13.45a123.33,123.33,0,0,1-.5-22.16c.31-1.46.28-1.55-.51-1.46A152.1,152.1,0,0,0,564,55c1.06-.44,1.23-1.92,2.27-1.42s.61,1.62.46,2.46c-1.1,6.37,1.28,12.08,3.27,17.89,3.14,9.2,6.2,18.44,6.3,28.32,0,.87.51,2-.64,2.41-1.38.47-1.58-.9-2-1.72a82.19,82.19,0,0,1-9.48-38.08c0-2-.83-3.82-1.42-6.51-1,3.27-1.74,5.85-2.55,8.4-3.1,9.81-7.76,18.56-16.63,24.45-.47.32-1,.6-.83,1.35,1.59,5.32,1.32,10.86,1.76,16.29.62,7.7.83,15.44,1.09,23.16.12,3.8-.42,7.5-3.17,10.47-.55.6-1.1,1.42-2,1.12s-.72-1.21-.81-1.94a175.3,175.3,0,0,1-.13-40.05c.3-2.7.62-5.41.94-8.28a4.85,4.85,0,0,0-4,3.36c-4.17,10.51-8.66,20.87-14.66,30.51a29.83,29.83,0,0,1-6,7.29c-1.34,1.12-2.88,1.9-4.59,1.13s-2.4-2.4-2.5-4.29a16.93,16.93,0,0,1,1-6.35c4.11-12.11,11-22.13,21.84-29.18.55-.36,1.16-.63,1.71-1s1.57.77,1.43-.54c-.11-1-1.1-.53-1.65-.45a49.68,49.68,0,0,1-35.56-8.37c-1.64-1.1-1.61-2-.29-3.35,3.83-3.77,8.54-4.59,13.6-4,8.9,1,16.71,4.77,24.24,9.31.87.53,1.61,1.51,2.88,1a.78.78,0,0,1,1,.5c.43,3.24,2,1.38,3.14.66,9.45-6.2,14.2-15.53,17.14-26,0-.12-.11-.27-.26-.62a32,32,0,0,1-10,8.61,29.79,29.79,0,0,1-16.37,3.46c-.79-.05-1.84.13-2.12-.89-.34-1.23.84-1.47,1.58-1.89A200.71,200.71,0,0,0,559.6,53.36c.95-.77,1.84-1.43,1.43-2.85-.08-.3-.08-.84.09-.95,3.14-2,2.41-5.52,3.22-8.36,1.35-4.7,2.37-9.5,4-14.14.19-.53.53-1,0-1.81a63.72,63.72,0,0,1-9.56,6.23c-5.08,2.54-10.25,4.78-16,5a10.56,10.56,0,0,1-6.42-1.57c-1.59-1-1.82-1.93-.28-3.25a67.63,67.63,0,0,1,32.84-15.8c2.17-.38,3.88-.86,3.85-3.47,1.53-3.3,2.95-6.69,5.74-9.18.71-.63,1.47-2.09,2.63-1s0,1.86-.7,2.71A18.79,18.79,0,0,0,577.11,11.84Z"/><path class="cls-2" d="M678.05,40.36c-5,.13-10,.35-14.95.36-4,0-8-.26-12-.38a1.68,1.68,0,0,1-1.76-1c-.64-1.35-1.5-.7-2.5-.06,7.5,4.91,12.77,11.54,17,19.09,1.26,2.29,2.11,4.73,1.2,7.4-.73,2.12-1.84,2.32-3.31.59a131.23,131.23,0,0,1-16.6-25.12,4.15,4.15,0,0,0-3.36-2.47,120.89,120.89,0,0,1-16.18-4c-.27,1.12.48,1.53.9,2.06a91.15,91.15,0,0,1,10.23,16.5c1.48,3,2.53,6.19,1.76,9.62s-2,3.71-4.47,1.36a19.13,19.13,0,0,1-4.22-6.7c-3.28-7.64-6.28-15.39-9.09-23.2a4.11,4.11,0,0,0-2.35-2.66,37.46,37.46,0,0,1-8.7-5.3c-.7-.58-1.41-1.26-2.37-.32s-.07,1.54.28,2.19c2.9,5.41,6.33,10.56,8.47,16.36,1.72,4.65,2.44,9.34.42,14.08-.42,1-.74,2.45-2.12,2.52s-1.65-1.28-2.22-2.14c-3-4.55-3.76-9.89-5-15-1.58-6.8-3.48-13.64-3.61-20.57-.09-4.52-3.92-6.41-4.43-10.23l-.59.18c0,1.91-.09,3.82,0,5.72a66.6,66.6,0,0,1-1.44,19.56,44.24,44.24,0,0,1-1.71,4.93c-.2.53-.46,1.11-1.15,1.19s-1.17-.52-1.48-1.11c-1.9-3.56-1.69-7.39-1.39-11.22a117,117,0,0,1,3.37-20.1c1.46-2.52.48-5.4,1.23-8,.21-.7-.36-1.94.88-2a2.42,2.42,0,0,1,2.44,1.75c.93,2.74,1.45,5.61,2.81,8.2,1.33,1.24,1.57,3.06,2.42,4.56.63,1.12,1.09,1.24,1.94.18a13.12,13.12,0,0,1,6.18-4.73A102.61,102.61,0,0,1,628.9,4c.67-.26,1.51-1.17,2.2-.17s-.22,1.69-.85,2.29c-2,1.93-4.13,3.81-6.2,5.7-.55,1.33-1.76,2-2.88,2.64a68.2,68.2,0,0,1-10.3,5.49c-3,1.18-2.93,1.26-.69,3.42,2.48,2.4,5.52,3.93,8.48,5.61,1.32.75,2.22.35,3.2-.77a84.5,84.5,0,0,1,15.08-14,14.19,14.19,0,0,1,3.24-1.77c1.69-.62,3.06-1.85,4.85-2.31,1.57-.4,2.74-.19,3.56,1.26.86,2.48-.93,3.94-2.32,5.35a69.29,69.29,0,0,1-10.48,8.42c-3.27,2.26-6.66,4.34-10.35,6.55A82.45,82.45,0,0,0,641,35.63a2.59,2.59,0,0,0,2.68-1.44A76.19,76.19,0,0,1,658.29,19a31.87,31.87,0,0,1,8.76-5.17c2-.8,4-.68,5.46,1.09s1.4,3.64.41,5.59a16.49,16.49,0,0,1-4.63,5.16c-4.56,3.61-9.09,7.28-14.7,9.91,0,0,.5.44.33.15,0-.08,0-.14.09-.16a91.28,91.28,0,0,1,22-1.78,7.11,7.11,0,0,1,2.53,1c1.6.43,3.21.84,4.8,1.29.55.16,1.13.4,1.22,1.1s-.49,1.15-1.07,1.5C681.81,39.65,679.86,39.8,678.05,40.36Z"/><path class="cls-2" d="M521.73,12.36c1.66,5,3.93,9.87,5.16,15.06a49,49,0,0,1,.76,14.14c-.12,2.08-1.22,2.11-2.68,1.17a10,10,0,0,1-3.81-5.12,73.71,73.71,0,0,1-3.47-12.45,5.38,5.38,0,0,0-.91-2.41c.17,3.55.25,6.79.52,10s.6,6.43,1.19,9.59,1.58,6.44,2.36,9.67c1,4.36,2.1,8.72,3.09,13.09.82,3.61.21,5.37-1.89,5.87-2.32.56-4.13-.91-5-4.38A63,63,0,0,1,515.64,55c0-.88-.08-1.75-.15-3.23-1,1.59-1.75,2.67-2.48,3.73a6.48,6.48,0,0,1-3.49,2.69,3,3,0,0,1-3.89-2.7A7.36,7.36,0,0,1,507,50.76c1.78-2.71,3.68-5.34,5.49-8A14.93,14.93,0,0,0,515.35,32a164.75,164.75,0,0,1-.94-16.75c-1.77,3-3.46,6.13-5.32,9.11-2.38,3.81-4.89,7.53-7.36,11.28a8,8,0,0,1-2.7,2.54c-.68.4-1.41,1.07-2.28.44s-.35-1.5-.09-2.25a124.25,124.25,0,0,1,9.12-20.73,3.48,3.48,0,0,0,.57-1.84c-.82.46-1.63.94-2.46,1.38-4.76,2.56-9.49,5.16-14.29,7.64a17.25,17.25,0,0,1-7.14,2c-1.81.08-2.39-.62-1.26-2.21,2.27-3.2,5.22-5.79,7.78-8.74l1.31-1.48c2.93-2.56,5.62-5.4,8.84-7.63,2.41-1.66,4.87-3.19,8-3,1.5.11,2.77.22,2.59,2.37a15.66,15.66,0,0,0,.76,4c1.82-1.48,3-3.41,4.74-4.81,1.47-1.18,2.11-.76,2.74.62Q519.87,8.16,521.73,12.36Z"/><path class="cls-3" d="M327.8,16.33a206.1,206.1,0,0,1-33.62,28.49c-.55.38-1.11.73-1.65,1.12s-1.24.76-1.83.29c-.76-.6-.31-1.33.06-2a108.95,108.95,0,0,1,27.55-31.87,83.22,83.22,0,0,1,14.54-8.42c.68-.28,1.39-.86,2.09-.36s.27,1.38.15,2.08c-.25,1.55-.54,3.09-.81,4.63-2.14,9-4,18-6.46,26.86-4.12,15.16-8.75,30.16-15.38,44.45-.39.85-.51,2.26-1.75,2.13s-1.25-1.61-1.46-2.59a31.2,31.2,0,0,1,.92-15.53,312.76,312.76,0,0,1,18.22-48.72C328.58,16.3,328.36,16.15,327.8,16.33Z"/><path class="cls-3" d="M337.87,12.37c-1.1,5.38-1.46,10.86-2,16.31-2.06,19.86-2.92,39.8-3.29,59.76-.19,10.46.49,20.92,1.05,31.37.39,7.41-.1,14.8-.33,22.19,0,1.64-.93,2-2.29,1.69-2.7-.6-3.67-2.7-4.13-5.07-1-5-.64-10.12-.62-15.18a79,79,0,0,1,3-22.92c1.51-4.9,1.25-9.81,1.34-14.72q.28-17.72,1.37-35.4c.71-11.78,1.83-23.53,3.26-35.25.11-.91.13-1.83.19-2.74.43-2.59.88-5.19,1.29-7.79.15-.9.15-2.14,1.36-1.93s.76,1.47.67,2.31C338.5,7.46,338.17,9.91,337.87,12.37Z"/><path class="cls-3" d="M5.14,213.64c-1.94-.2-1.86-1.34-1.23-2.8q3-7,6.7-13.64a159.5,159.5,0,0,1,29.05-37.86c.65-.62,1.33-1.9,2.41-.75.91,1-.16,1.7-.82,2.23-4.11,3.35-6.52,7.74-8.53,12.58-4.79,11.55-11.54,22.07-18,32.71a23.92,23.92,0,0,1-4.34,5.13A10,10,0,0,1,5.14,213.64Z"/><path class="cls-3" d="M347.38,12.36c.83,7.51,1.68,15,1.34,22.58a126.17,126.17,0,0,1-3.88,26.28c-.18.73-.24,1.59-1.21,1.63s-1-1-1.18-1.63a105.48,105.48,0,0,1-2.12-16.51,217.15,217.15,0,0,1,.38-28.86c.09-1.16,0-2.33.05-3.49.27-2.71.52-5.42.83-8.12.07-.72.1-1.66,1.15-1.57s1,1.09.95,1.92c-.15,2.22-.29,4.44-.44,6.66.84,7-.41,14-.23,21s.19,13.73.79,20.58a3.33,3.33,0,0,0,0,.83,3.35,3.35,0,0,1,0-.71,146,146,0,0,0,1.75-28.32c-.08-2.75-.41-5.46-.74-8.18a10.21,10.21,0,0,1,.53-5.56C346.75,10.43,347.12,11.32,347.38,12.36Z"/><path class="cls-4" d="M343.38,53.8C341.45,39.87,342.24,25.91,343,12a2.8,2.8,0,0,1,.25-.7c1.21,2.85,1.39-.4,2.13-.35-.65,2.85.32,5.62.58,8.41a118.42,118.42,0,0,1-1.72,34.49A.51.51,0,0,1,343.38,53.8Z"/><path class="cls-5" d="M48.12,121.81l.62-1.38a1.35,1.35,0,0,1-.1,1.88Z"/><path class="cls-6" d="M54,216.16c-2.2-1.09-3.8-2.4-4.34-5.18a217.08,217.08,0,0,1-4-53.12C49,163.6,52,168.74,54.6,174.08q0,19.63-.07,39.27C54.52,214.29,54.91,215.36,54,216.16Z"/><path class="cls-3" d="M231.89,185.63v.51a33.36,33.36,0,0,1-.43,3.6,219.13,219.13,0,0,1-8,46.25c-.52,1.89-1.57,1.93-3,1.33-2.53-1.08-3.3-3.35-3.64-5.81-.76-5.46.36-10.76,1.67-16a185.78,185.78,0,0,1,10.59-30c.34-.76.41-1.91,1.74-1.73C232,184,231.38,185.12,231.89,185.63Z"/><path class="cls-7" d="M54.07,153.2c-2.49-2.35-3.94-5.72-7.2-7.33-.45-.23-.21-.75-.16-1.14a199.3,199.3,0,0,1,7.44-35.43c.64.71.38,1.59.38,2.39q0,19.57,0,39.16C54.53,151.64,54.81,152.53,54.07,153.2Z"/><path class="cls-8" d="M281,118.73a51.36,51.36,0,0,1,.36,9.68c0,.65,0,1.52-.77,1.65s-1-.74-1.24-1.32c-1.74-4.08-2.2-8.48-3.13-12.77-1.46-6.72-2.84-13.45-4.24-20.19a13,13,0,0,1-.09-1.56c1.53,1.61,2.11,3.45,3.11,5,2.23,2.83,2.8,6.37,4.12,9.59.15.37.23.78.35,1.17a3.56,3.56,0,0,0,.92,1.77v.89a17.74,17.74,0,0,0,.71,4.27A4.86,4.86,0,0,1,281,118.73Z"/><path class="cls-9" d="M307.41,185.22l-.31,1.61a194.93,194.93,0,0,1-6.68-37.1c.12-.24.26-.25.41,0,1.25,1.28,1.25,3,1.49,4.58,0,1.18.62,2.24.53,3.43.44,1,1.15,1.88,1,3.06a18.72,18.72,0,0,0,.47,2.89c.61.34.53.94.55,1.5a32.36,32.36,0,0,0,1,5,9.22,9.22,0,0,1,1,4.61c.45,1.13,0,2.43.68,3.52.09.82,0,1.64,0,2.45a10.14,10.14,0,0,1,.24,2.9A2.34,2.34,0,0,1,307.41,185.22Z"/><path class="cls-10" d="M248.47,109.74a78.23,78.23,0,0,1-3.5-12l.43,0c1.55.64.72,2.63,2,3.45a1,1,0,0,1,0,.42c0,1.3.65,2.43.93,3.66.11,1.32,1,2.47.92,3.84C249.13,109.52,248.93,109.81,248.47,109.74Z"/><path class="cls-11" d="M279.31,110.34,275,99.22c2-.58,1.07,1.6,1.92,2.11.95,2.83,1.91,5.65,2.86,8.48A.86.86,0,0,1,279.31,110.34Z"/><path class="cls-12" d="M357.79,187.17l5.52-6.95.55.4-5.52,7.11Z"/><path class="cls-13" d="M249,109.1l-1-3.88a.94.94,0,0,1,.43-.51,32.43,32.43,0,0,1,1.93,6C248.51,111.35,249.35,109.7,249,109.1Z"/><path class="cls-14" d="M247.36,101.23c-1.8-.5-.88-2.55-2-3.45.3-.58.66-1.1,1-.07S247.05,100.05,247.36,101.23Z"/><path class="cls-1" d="M280.79,116.89c-.37-1.39-1.15-2.75-.42-4.25a9.91,9.91,0,0,1,.87,3.64C281.13,116.51,281.1,116.81,280.79,116.89Z"/><path class="cls-15" d="M243.8,93.29a1.73,1.73,0,0,1,.19-2.55,6.93,6.93,0,0,1,.94,3,.58.58,0,0,1-.5.16C244.09,93.84,244.36,93.16,243.8,93.29Z"/><path class="cls-16" d="M249,109.1c.57.43.17,1.71,1.37,1.6l.06.72a1.75,1.75,0,0,1-.13.93c-.18.27-.4.48-.77.38-.35-1-.7-2-1-3Z"/><path class="cls-17" d="M305.83,170.14c-.59-1.61-1.49-3.15-1-5A11.47,11.47,0,0,1,305.83,170.14Z"/><path class="cls-18" d="M248.42,104.71l-.43.51c-.19-1.19-1.3-2.23-.58-3.57A8.56,8.56,0,0,1,248.42,104.71Z"/><path class="cls-19" d="M250,112.14l.46-.72c.89,1.13,1,2.55,1.39,3.86a.92.92,0,0,1-.63.24.82.82,0,0,1-.49-.44C250.58,114.06,249.91,113.19,250,112.14Z"/><path class="cls-20" d="M231.47,189.74c0-1.22-.45-2.49.43-3.6a1.48,1.48,0,0,1,.44,1.63C231.57,188.21,232.06,189.22,231.47,189.74Z"/><path class="cls-21" d="M307.41,185.22c0-.51,0-1,0-1.53.22-.29.34-.79.89-.48,0,1.2.31,2.43-.37,3.55C307.72,186.26,308,185.6,307.41,185.22Z"/><path class="cls-22" d="M308.29,183.21l-.89.48v-3c.16-.19.31-.19.45,0A3.62,3.62,0,0,1,308.29,183.21Z"/><path class="cls-23" d="M302.85,157.72c-.44-1.11-1-2.19-.53-3.43C302.67,155.41,303.46,156.46,302.85,157.72Z"/><path class="cls-24" d="M307.42,178.19c-1.08-1-.38-2.29-.56-3.44.75,1.05.56,2.35.9,3.51Z"/><path class="cls-25" d="M287.31,109.31a4.54,4.54,0,0,1-1.37-2.51,4.87,4.87,0,0,1,1.89,2Z"/><path class="cls-26" d="M244.51,93.78h.42c.25.59.52,1.17.74,1.77.11.31.09.72-.38.56-.23-.07-.34-.5-.5-.76C244.74,94.81,244,94.41,244.51,93.78Z"/><path class="cls-27" d="M300.83,149.71l-.41,0,0-1c.07-.63-.24-1.49.9-1.44.17.49.34,1,.5,1.46Z"/><path class="cls-28" d="M443.63,65.91c-.59-.7-.35-1.55-.39-2.34,0-.15.25-.31.39-.46l.48.81C443.48,64.47,443.89,65.27,443.63,65.91Z"/><path class="cls-29" d="M463.82,129.34c0-.49-.37-1.37.48-1.21.65.12.4,1.05.32,1.66Z"/><path class="cls-30" d="M304.3,163.67a3.18,3.18,0,0,1-.47-2.89A4.59,4.59,0,0,1,304.3,163.67Z"/><path class="cls-31" d="M244.51,93.78c.09.52.19,1,.28,1.56l-.31,0a3.33,3.33,0,0,1-.68-2C244.55,92.73,244.3,93.57,244.51,93.78Z"/><path class="cls-32" d="M378.85,131.76c-.06-.65-.15-1.51.58-1.62.52-.09.3.71.29,1.14Z"/><path class="cls-33" d="M240,95.83c0-.58-.42-1.41.36-1.59.46-.11.59.63.49,1.15Z"/><path class="cls-18" d="M279.31,110.34l.44-.53c.2.65.41,1.29.61,1.94C279.15,111.92,279.44,111,279.31,110.34Z"/><path class="cls-20" d="M231.89,185.63c-.34-.61-.68-1.22-1-1.83l.53-.12C232.16,184.18,231.81,185,231.89,185.63Z"/><path class="cls-34" d="M307.42,178.19l.34.07.09,2.42-.45,0C307.41,179.83,307.42,179,307.42,178.19Z"/><path class="cls-15" d="M251.34,115.26l.46,0c.17.66.35,1.32.52,2H252A1.34,1.34,0,0,1,251.34,115.26Z"/><path class="cls-1" d="M280.79,116.89l.45-.61c.07.61.14,1.22.2,1.83-.15.21-.31.41-.47.62Z"/><path class="cls-35" d="M197.54,138.32c-.1-.51,0-1.16.5-1.14.7,0,.3.71.31,1.12Z"/><path class="cls-36" d="M211.71,54.24c1.65,7.83,3.35,15.27,6.69,22.21,2.49,5.16,5.57,9.85,10.61,12.9,1,.62,1,1.12.23,1.9q-5.85,6.14-11.67,12.3c-.72.76-1.12.69-1.65-.19A101.16,101.16,0,0,0,206,89.61a2.36,2.36,0,0,1-.54-2.07c1.77-10.64,3.55-21.28,5.74-31.85C211.32,55.31,211.48,55,211.71,54.24Z"/><path class="cls-36" d="M203.57,98.56c.67.36.69,1,.79,1.53a26.9,26.9,0,0,0,2.1,6.9c1.69,3.47,2.77,6.6.68,10.6-1.74,3.29.59,5.14,4.71,4.46,1.27-.21,2.34-1.33,4-.31,2.3,1.45,2.89,2.73,1.83,5.46-1.58,4-1.53,8.21,1.65,11.68.71.77.35,1.11-.07,1.59a119.57,119.57,0,0,0-8.33,11.11c-.66,0-.77-.42-.9-.76a91.32,91.32,0,0,0-9.32-17,7.23,7.23,0,0,1-1.17-4.68C200.32,118.87,202,108.74,203.57,98.56Z"/><path class="cls-36" d="M244,36.41c-.8,12.54-2.4,25-3.78,37.46-.1.83-.22,1.65-.29,2.48-.48,6.11-.55,6.23-6.11,9.9-.38-2.74-.67-5.44-1.16-8.09a45.33,45.33,0,0,0-4.1-12.25,2.55,2.55,0,0,1,.22-3.15,80.56,80.56,0,0,0,8.4-13.25,2.48,2.48,0,0,1,2.24-1.61,2.35,2.35,0,0,0,2.26-3c-1.24-3.92.94-7.07,1.82-10.52C244.72,34.8,244,35.68,244,36.41Z"/><path class="cls-36" d="M224.58,58.77a62,62,0,0,0-7.81-9.11c-1.76-1.59-1.78-1.57-3.85-.81.8-7.76,2.93-15.22,4.51-22.78a4.32,4.32,0,0,1,.58-1.61c.79-1.12,1.43-2,2.45.07A101.35,101.35,0,0,0,230.85,42c.79,1,.52,1.73,0,2.66C228.2,48.94,225.76,53.25,224.58,58.77Z"/><path class="cls-36" d="M249.68,21.73l3.39,4.55c5.08,6.89,10.09,13.82,14.64,21.08A83.06,83.06,0,0,1,273,58.07c.94,2.14.28,2.87-2.08,2.73a10.88,10.88,0,0,1-8.14-4.25,59.61,59.61,0,0,1-12.84-29.78C249.71,25.26,249.17,23.74,249.68,21.73Z"/><path class="cls-36" d="M236.56,183a133.06,133.06,0,0,1,18.07,17.26,60.3,60.3,0,0,1,6.59,8.09c1.34,2.18.51,4.4.44,6.56-.05,1.36-1.07.47-1.81.11-6.83-3.3-11.23-9.19-15.92-14.78-1-1.14-1.76-2.42-2.74-3.54C237.84,192.83,236.71,188.27,236.56,183Z"/><path class="cls-36" d="M172.45,29.86A106.34,106.34,0,0,1,189.07,69,6.84,6.84,0,0,1,186.45,75c-1.23.72-1.22-.52-1.47-1a106.09,106.09,0,0,1-4.66-11.81c-3.54-10.21-6.8-20.5-8.42-31.22C171.69,30.36,171.5,29.81,172.45,29.86Z"/><path class="cls-36" d="M214.47,50.8a43.73,43.73,0,0,1,9.19,10.73,4.44,4.44,0,0,1,.63,2.37c0,1,0,2.05,1.5,2.07.74,0,.78.8,1,1.3a94.7,94.7,0,0,1,4.92,15.65c.27,1.42,1.18,3.42-.64,4.26s-3.08-.71-4.25-1.91a10.25,10.25,0,0,1-1.39-1.76c-6.11-9.7-9.47-20.41-11.54-31.59C213.66,51.33,213.49,50.76,214.47,50.8Z"/><path class="cls-4" d="M223.86,134.2a72.59,72.59,0,0,0,10.62-31.08c.08-.82.76-2-.65-2.23s-1.3,1-1.37,1.93c-.73,10.31-4.43,19.7-9,28.8-.69,1.36-1.18,3.77-3.26,3-1.89-.69-1.15-2.86-.79-4.43.65-2.86,1-5.71,3.26-8.12,1.48-1.61,1.22-4.33,2.28-6.44,4.29-8.53,8.38-17.17,12.55-25.76.46-.19.64,0,.5.44q-2.16,13-4.31,25.94c-.17,1.06-.18,2.16-.43,3.2-.75,3.05.47,6.92-1.87,9.09s-4.65,4.1-7,6.16C223.92,134.84,223.7,134.72,223.86,134.2Z"/><path class="cls-36" d="M235.65,138.16A71.24,71.24,0,0,1,244.73,151a83.19,83.19,0,0,1,8.32,21,15.61,15.61,0,0,1,.4,3c0,.87.28,2-.72,2.47-1.16.59-2.08-.22-2.91-.89a8.11,8.11,0,0,1-2.13-3c-3.88-8.45-8.09-16.76-11.17-25.56A19.49,19.49,0,0,1,235.65,138.16Z"/><path class="cls-36" d="M228,135.79a336.86,336.86,0,0,1-13.86,34c-.23.49-.37,1.09-1.19,1.41.36-5.39.3-10.65-1.33-15.76-.27-.83.34-1.4.71-2a90,90,0,0,1,15.1-18.73C228.34,134.67,228.17,135.23,228,135.79Z"/><path class="cls-36" d="M158.84,29.68c.4,1.44-.38,2.34-1.32,3.26C152.28,38,146.9,43,141.27,47.62a22.53,22.53,0,0,0-2.64,2.62c-2.62,3-6.24,2.54-8.24-.89-.84-1.45.54-1.8,1.15-2.27,4.3-3.38,8.68-6.68,13.07-9.95,3.93-2.92,7.9-5.78,11.86-8.65.59-.43,1.18-1.32,1.87-1C159.3,27.83,158.51,29,158.84,29.68Z"/><path class="cls-36" d="M141.83,94.61c-3.79,2.91-8,3.39-12.13,4.32-7,1.56-13.94,3.15-21.13,3.35a22.94,22.94,0,0,1-4-.28c-.61-.09-1.37-.35-1.48-1.13s.65-1.17,1.22-1.38c2.33-.86,4.68-1.7,7.06-2.42C121.22,94.07,131.18,92.8,141.83,94.61Z"/><path class="cls-36" d="M274.14,86.39a123.22,123.22,0,0,1,13.94,11.44c3.14,2.84,6.18,5.8,9.31,8.65a9.59,9.59,0,0,1,3.36,6.46c.08,1,.25,2.14-.79,2.69s-1.78-.17-2.5-.72a85.06,85.06,0,0,1-8.45-8.1c-5.78-5.81-10.37-12.53-14.77-19.39C274.07,87.16,273.79,86.91,274.14,86.39Z"/><path class="cls-4" d="M292.38,137.1c.33,7.86-.79,15.57-1.77,23.28-.63,4.94-1.45,9.85-2.28,14.76-.23,1.33-.46,3.15-2.35,2.94s-2.23-1.76-2.2-3.4a92.81,92.81,0,0,1,5.83-30.16C290.52,142,291.46,139.58,292.38,137.1Z"/><path class="cls-4" d="M302.64,139.93c8.22,8.63,15.74,17.77,20.84,28.66.52,1.12,1.63,2.76.26,3.61s-2.25-1-3-1.86C313.08,161.19,306.48,151.39,302.64,139.93Z"/><path class="cls-4" d="M128.49,131.85c-.1,2.29-1.19,4.29-1.64,6.8-1.43-2.43-2.3-.89-3.2.19a174,174,0,0,1-15.93,17.09,3.46,3.46,0,0,1-2.08,1.25,2.32,2.32,0,0,1-2-.66c-.37-.46.15-.92.41-1.31a81.92,81.92,0,0,1,23.88-23.29C128,131.84,128.2,131.88,128.49,131.85Z"/><path class="cls-37" d="M185.64,79a2.4,2.4,0,0,1,.39.16c.89.77.77,2.75,2.36,2.51s1.59-2,2.14-3.11a5.38,5.38,0,0,0,.74-2.35c-.2-3.53,2-5.81,4-8.2,3.24-3.76,6.47-7.53,10-11.63,0,.74.09,1,0,1.18Q199.4,67.7,193.5,77.79a19.69,19.69,0,0,1-6,6.18c-.72.51-1.56,1.18-2.5.61s-.59-1.64-.57-2.52A5.35,5.35,0,0,1,185.64,79Z"/><path class="cls-8" d="M197,100.38c-2.59,5.79-6.16,11-9.68,16.24a25.12,25.12,0,0,0-2.73,4.14,2.41,2.41,0,0,1-2.59,1.55c-1.69-.13-2.46-.64-1.41-2.46a83.83,83.83,0,0,1,15.75-20.13C196.89,99.62,197.18,99.77,197,100.38Z"/><path class="cls-37" d="M149.59,62.85,129.23,73.21a25.67,25.67,0,0,1-5,2.18,2.62,2.62,0,0,1-2.87-.55C129.29,67.25,139.23,64.49,149.59,62.85Z"/><path class="cls-8" d="M232,92.92a91.45,91.45,0,0,1-11.56,19c-.86-1.63-1.56-3-2.32-4.34-.45-.8,0-1.22.5-1.71l12.72-13.58C231.89,92.16,232.19,92.3,232,92.92Z"/><path class="cls-8" d="M205.41,92.58a103.14,103.14,0,0,1,9.36,12.87c.42.65.11,1.08-.34,1.51l-3.85,3.72C207.47,105.28,206.13,99.39,205.41,92.58Z"/><path class="cls-37" d="M194.48,140.77l-3,11.3a27.74,27.74,0,0,1-4.07,9c-.49.69-.8,1.22-1.74.79a1.34,1.34,0,0,1-.84-1.76,37.38,37.38,0,0,1,3.16-9.39c1.84-3.73,3.79-7.38,6-10.91C194.9,139.77,194.7,140.26,194.48,140.77Z"/><path class="cls-37" d="M200.58,137.61a68,68,0,0,1,8.15,15.95c.75,2.28-1.61,3.79-2.33,6.4A74.51,74.51,0,0,1,202.72,149,75.35,75.35,0,0,1,200.58,137.61Z"/><path class="cls-37" d="M206,165.63c1.51,2.93,2.78,5.44,4.09,7.93.81,1.55-.9,4.38-2.68,4.18-6.66-.72-5.68-.2-3.89-5.71C204.14,170,205,168,206,165.63Z"/><path class="cls-37" d="M228.32,59.86a6.29,6.29,0,0,1-.52-6,48.87,48.87,0,0,1,4-7.69c.31-.52.53-1.83,1.48-1,.79.74,2.72,1.11,2.06,2.6C233.5,52,230.84,55.79,228.32,59.86Z"/><path class="cls-38" d="M146.43,104.81c2.55,8.94,4.89,17.92,4.36,27.37a107.13,107.13,0,0,1-4.86-24.89C145.82,106.41,145.17,105.42,146.43,104.81Z"/><path class="cls-9" d="M171.29,154.68a94,94,0,0,1,.55,16.63c-.06,1.2.17,3.26-1.42,3.22-1.43,0-1.33-2.05-1.42-3.3C168.63,165.76,168.71,160.33,171.29,154.68Z"/><path class="cls-39" d="M216.05,108.37c.3.06.53,0,.6.14,1,1.5,2.54,3.06,2.4,4.79a4.66,4.66,0,0,1-3.3,3.7c-1.47.46-1.74-1.23-2.4-2s-1.79-1.6-1.15-2.5A34.69,34.69,0,0,1,216.05,108.37Z"/><path class="cls-40" d="M114.67,186.67c-3.09,7.08-5.59,14.45-10.35,20.69a96.06,96.06,0,0,1,9.73-20.66A.42.42,0,0,1,114.67,186.67Z"/><path class="cls-41" d="M163.45,152.73l-12.36,8.12c-1.1.72-1.28,0-1.27-.87,0-1.3,1.18-1.73,2-2.39a31.49,31.49,0,0,1,11.29-5.54Z"/><path class="cls-40" d="M156.63,177.35a50.87,50.87,0,0,1,9.15-18.45A81.6,81.6,0,0,1,156.63,177.35Z"/><path class="cls-42" d="M232,167.71c-1.17-8.52-.33-17,.06-25.61,1.15.35.91,1.23.89,1.91-.25,8.22-.51,16.44-.1,24.67C231.92,168.91,232.33,168,232,167.71Z"/><path class="cls-43" d="M210.88,169.69c-4-5.58-4.14-7.27-.94-11.57C211.29,161.84,210.88,165.53,210.88,169.69Z"/><path class="cls-44" d="M173.92,136.19c-3.6,1.73-7.09,3.76-11.23,4.09a23.74,23.74,0,0,1,10.67-4.64C173.9,135.46,174,135.72,173.92,136.19Z"/><path class="cls-45" d="M162.51,86.27A65.57,65.57,0,0,1,159.89,73,30.44,30.44,0,0,1,163,84.6C163.05,85.22,163.71,86,162.51,86.27Z"/><path class="cls-46" d="M235,119.37a124.73,124.73,0,0,1-1.88,16.56c-.45-5.79.63-11.46,1.4-17.15C235,118.72,235.21,118.85,235,119.37Z"/><path class="cls-47" d="M237,38.21c1.12,1.77,1.94,3.13.92,4.75-.37.6-.39,2.06-1.49,1.32-.77-.52-2.11-1.34-1.48-2.74A30.57,30.57,0,0,1,237,38.21Z"/><path class="cls-48" d="M232,167.71l.85,1,.15,3.86c0,.9.85,2-.49,2.61C232.39,172.67,231.7,170.22,232,167.71Z"/><path class="cls-49" d="M224.5,111.16l-2.26,4.54c-1.58-2.7,1.37-3.21,1.56-4.87Z"/><path class="cls-50" d="M233.46,178.59l.84,5.72c-1.18-1.58-1.21-3.37-1.29-5.15C233.13,179,233.15,178.66,233.46,178.59Z"/><path class="cls-51" d="M146.43,104.81c-.87.69-.17,1.69-.5,2.48-.79-1.43-.35-3-.48-4.91A3.65,3.65,0,0,1,146.43,104.81Z"/><path class="cls-52" d="M187.11,77.16a4.22,4.22,0,0,1,2.25-2.39C189.39,76.39,188.9,77.3,187.11,77.16Z"/><path class="cls-53" d="M235.9,110.76c0,1.52.19,3-.49,4.49-.15.23-.3.23-.46,0,.17-1.49.34-3,.5-4.48C235.58,110.54,235.73,110.52,235.9,110.76Z"/><path class="cls-54" d="M162.51,86.27c.59-.42.39-1.1.52-1.67.69,1.32.41,2.73.06,4.25C162.9,88,162.7,87.13,162.51,86.27Z"/><path class="cls-55" d="M232.48,175.15c.75-.76.24-1.76.49-2.61a7.56,7.56,0,0,1,.36,3.68c-.3.29,0,.84-.49,1.06A2.63,2.63,0,0,1,232.48,175.15Z"/><path class="cls-56" d="M235,115.27l.46,0c0,1.39.17,2.8-.44,4.12l-.48-.59C234.64,117.61,234.8,116.44,235,115.27Z"/><path class="cls-57" d="M219.2,116.78c.28,1.76-.14,2.45-1.11,2.77-.15,0-.57-.19-.57-.3C217.52,118.19,218.63,118.05,219.2,116.78Z"/><path class="cls-58" d="M301.29,147.28l-.9,1.44c-1-.88-.29-1.72,0-2.63C301.1,146.23,301.08,146.85,301.29,147.28Z"/><path class="cls-59" d="M235.9,110.76a3.4,3.4,0,0,0-.45,0c.59-1.44.05-3.12.93-4.5h0C236.29,107.79,236.78,109.35,235.9,110.76Z"/><path class="cls-60" d="M162.47,70.81h-.62a5.8,5.8,0,0,1-1.38-3.53l0,0C162.24,67.81,162.53,69.21,162.47,70.81Z"/><path class="cls-61" d="M223.86,134.2l.53.51a4.32,4.32,0,0,1-1.95,1.87A4.9,4.9,0,0,1,223.86,134.2Z"/><path class="cls-62" d="M194.48,140.77c-.09-.35,0-.78-.47-1a3.26,3.26,0,0,1,1.37-1.81A5.06,5.06,0,0,1,194.48,140.77Z"/><path class="cls-63" d="M251.34,115.26a3.72,3.72,0,0,0,.62,2c-.16.18-.07,1-.55.36a10.4,10.4,0,0,1-1-2.38c.15-.23.3-.22.43,0A2.36,2.36,0,0,0,251.34,115.26Z"/><path class="cls-64" d="M250.88,115.26l-.43,0c-.32-.84-.63-1.67-.94-2.51.14-.2.29-.39.44-.59A7,7,0,0,1,250.88,115.26Z"/><path class="cls-65" d="M197,100.38l-.66-.66a2.81,2.81,0,0,1,1.43-1.28A2.39,2.39,0,0,1,197,100.38Z"/><path class="cls-66" d="M228,135.79c-.1-.4-.08-.87-.57-1.07.23-.42.69-1.11,1-.8C228.82,134.47,228.47,135.24,228,135.79Z"/><path class="cls-67" d="M232,92.92l-.66-.67A2.13,2.13,0,0,1,232.73,91,2.12,2.12,0,0,1,232,92.92Z"/><path class="cls-8" d="M232.84,177.28l.5-1.06.12,2.37-.45.57Z"/><path class="cls-68" d="M236.38,106.29v-2.45c.57.85.77,1.68,0,2.45Z"/><path class="cls-69" d="M114.67,186.67l-.62,0c.32-.63.65-1.26,1.1-2.13A1.87,1.87,0,0,1,114.67,186.67Z"/><path class="cls-70" d="M225.84,108.81c-.18.34-.35,1-.55,1-.7,0-.34-.47-.22-.76s.31-.3.48-.44Z"/><path class="cls-71" d="M214.47,50.8c-.48.23-.51.69-.61,1.12-.45-.57-.72-1.25-.16-1.8C213.91,49.91,214.29,50.45,214.47,50.8Z"/><path class="cls-72" d="M238,90.32l-.5-.44c.17-.43.35-.85.58-1.4A1.29,1.29,0,0,1,238,90.32Z"/><path class="cls-73" d="M206.86,54.86c-.13.87-.33,1.48-.82,1.38-.75-.16-.11-.55.06-.78A3.7,3.7,0,0,1,206.86,54.86Z"/><path class="cls-74" d="M155.89,64.35H155c-.05-.52.05-1.19.57-1.16S155.89,63.93,155.89,64.35Z"/><path class="cls-75" d="M173.92,136.19l-.56-.55a1.7,1.7,0,0,1,1.62-.34C175,136,174.39,136,173.92,136.19Z"/><path class="cls-6" d="M50.84,111.34c-4.36,9.28-9.08,18.25-15.16,26.44a156.1,156.1,0,0,1-13.4,15.77c-.86.89-2,2.48-3.24,1.72s-.34-2.42-.05-3.69c1.29-5.5,4.38-10,7.92-14.25,7.05-8.41,14.16-16.77,21.93-24.55C49.42,112.21,49.85,111.28,50.84,111.34Z"/><path class="cls-36" d="M86.09,53.43C85.45,65.7,84.77,78,84.18,90.24c-.3,6.31-.43,12.62-.65,18.93a13,13,0,0,1-1.46,5.71c-4.35-22.28-3.58-44.29,3.56-66C87,50.3,86.08,51.91,86.09,53.43Z"/><path class="cls-36" d="M110.36,25.05c1.27,11.31,4.45,22.29,5.18,33.66a15.48,15.48,0,0,1-.39,5.94A4.34,4.34,0,0,1,111.21,68c-1.91,0-2.48-1.78-2.83-3.32-1.58-6.86-1.64-13.82-1.41-20.8A65,65,0,0,1,110.36,25.05Z"/><path class="cls-36" d="M54.59,157.61a99.46,99.46,0,0,1,13.49,22,90.56,90.56,0,0,1,4.61,11.81c.29.91.87,2.07-.17,2.68s-1.71-.4-2.31-1.06A37.54,37.54,0,0,1,66,188.15c-4.34-6.77-8.15-13.86-11.92-21a41,41,0,0,1-.24-7.09A3,3,0,0,1,54.59,157.61Z"/><path class="cls-36" d="M57.74,99.25A115.51,115.51,0,0,1,63.34,114c2.1,6.9,4.64,13.68,5.91,20.81.52,2.86.86,5.76-.23,8.59-.28.73-.44,1.76-1.5,1.72-.89,0-1.14-.94-1.36-1.61-2.82-8.5-5.69-17-7.13-25.87-.93-5.74-.75-11.58-1.83-17.29C57.16,100.11,57.47,99.79,57.74,99.25Z"/><path class="cls-6" d="M54.52,74.75,39.39,88c-2.07,1.82-4.69,1.51-7.1,1.65-1.43.08-.41-1-.07-1.49A85.94,85.94,0,0,1,46.44,72.27a59.15,59.15,0,0,1,7.64-5.93.87.87,0,0,1,1,.89C55.31,69.76,55.86,72.33,54.52,74.75Z"/><path class="cls-4" d="M54.52,74.75c-.21-2.8.56-5.65-.44-8.41A79,79,0,0,1,76.31,54.88,253,253,0,0,1,54.52,74.75Z"/><path class="cls-76" d="M54.59,157.61c0,2.44,0,4.87-.06,7.31,0,.78.27,1.64-.48,2.27-1.95-3.37-3.42-7.17-6-10s-1.38-5.75-1.56-9.36A68.89,68.89,0,0,1,54.59,157.61Z"/><path class="cls-77" d="M86.09,53.43c-.41-1.48.4-3.08-.46-4.51l.51-1.69C86.43,49.36,86.8,51.42,86.09,53.43Z"/><path class="cls-36" d="M443.18,13.44c8.12,7.85,16.27,15.68,24.37,23.55a35.24,35.24,0,0,1,5.73,7.2,13.89,13.89,0,0,1,1.31,3,2.21,2.21,0,0,1-.81,2.65,2.06,2.06,0,0,1-2.54-.13c-3.07-1.88-5.6-4.42-8.26-6.8a75.73,75.73,0,0,1-19.79-28.07,13.46,13.46,0,0,1-.42-1.41C442.94,13.19,443.07,13.22,443.18,13.44Z"/><path class="cls-78" d="M457,222.24a54.38,54.38,0,0,1,2.41-33.56C464.15,197.18,462.88,216,457,222.24Z"/><path class="cls-4" d="M458.63,163.86c-.12,1.5.66,2.72-1.18,2.91-.89.09-1,1-1.3,1.66-3.93,8.67-9.27,16.47-14.72,24.2-.73,1-1.51,2.89-2.86,2.32-1.54-.65-1.41-2.66-1.18-4.22a12.9,12.9,0,0,1,1.63-4.42A80.39,80.39,0,0,1,458.63,163.86Z"/><path class="cls-78" d="M440.64,54.9A186,186,0,0,1,442.15,90a159.31,159.31,0,0,1-2.49,21.76c-.54.3-.65-.19-.87-.47-1.27-6-.74-12-.38-18.08.49-8.28.8-16.56,1-24.84.11-4.48.29-8.95.44-13.42C440.1,54.53,440.37,54.53,440.64,54.9Z"/><path class="cls-4" d="M435.49,19c.06.15.2.33.16.44-3.14,7.94-6.18,15.94-11.12,23a7.77,7.77,0,0,1-4.74,3.41c-.87.19-1.81.62-2.57-.23s-.36-1.7,0-2.57a36.27,36.27,0,0,1,3.16-5.93,93.3,93.3,0,0,1,13.55-17.18C434.32,19.49,434.66,18.79,435.49,19Z"/><path class="cls-4" d="M467.12,122.88a70.7,70.7,0,0,1,9.6,39.12C472,154.88,466.07,131,467.12,122.88Z"/><path class="cls-8" d="M458.32,97.63c3.47-.55,6.78,0,10,.3a139.26,139.26,0,0,1,24.44,4.58,5.67,5.67,0,0,1,1.19.36c1.11.6,3.26.52,3,2s-2.34,1.3-3.63,1.19c-11.56-1-22.7-4-33.81-7.15A1.47,1.47,0,0,1,458.32,97.63Z"/><path class="cls-78" d="M455.27,99.83a139,139,0,0,1-.81,26.37c-.33,3.14,0,6.32-.73,9.43-.28,1.22-3.72,3.12-4.77,2.58-.84-.43-.29-1.2-.23-1.76A235.23,235.23,0,0,1,453,110.2Q454.12,105,455.27,99.83Z"/><path class="cls-4" d="M481,191.94c-7.22-6.22-19.71-25.11-19.84-30C467.92,165.09,480.62,184.32,481,191.94Z"/><path class="cls-9" d="M433.09,51.06c-1.74,6.88-2.74,14-6.87,20-.52.76-1.1,2-2.24,1.51s-.94-1.78-.63-2.7C425.63,63.13,429.23,57.05,433.09,51.06Z"/><path class="cls-79" d="M440.64,54.9h-.8a6,6,0,0,1,.05-2.7A2.64,2.64,0,0,1,440.64,54.9Z"/><path class="cls-80" d="M438.79,111.25l.87.47c0,.43.24,1.23-.28,1.15C438.64,112.76,438.73,111.9,438.79,111.25Z"/><path class="cls-36" d="M373.2,167.55a93.39,93.39,0,0,1,9,22.7c1.36,5.21,2.77,10.42,3.1,15.83.08,1.42.52,3.13-1.46,3.79s-3.22-.44-4.26-1.79c-2.84-3.72-4-8.17-5.18-12.57-1.95-7.21-2.94-14.61-4.08-22C369.94,170.9,371.9,169.7,373.2,167.55Z"/><path class="cls-36" d="M380.53,33.07a31.1,31.1,0,0,1,3.15,1.4,63.08,63.08,0,0,1,11,8.54c4.81,4.34,9.69,8.6,14.49,13a41.4,41.4,0,0,1,3,3.3,3.19,3.19,0,0,1,.05,4.51c-1.25,1.61-2.67.82-4,.09-2.29-1.26-4-3.25-5.9-5-6.84-6.06-13.63-12.18-20.48-18.23-2.18-1.92-1.9-4.65-2.61-7C379.13,33.14,379.48,32.87,380.53,33.07Z"/><path class="cls-36" d="M351.12,109.54a65.86,65.86,0,0,1,30.5-33.05C375,90.72,364.68,101.59,351.12,109.54Z"/><path class="cls-36" d="M385.17,75a215.52,215.52,0,0,1,18.65,29.82,22.48,22.48,0,0,1,1.38,3.46,2.19,2.19,0,0,1-.6,2.5,2.33,2.33,0,0,1-2.78.27,12.84,12.84,0,0,1-4.22-3.81A53.51,53.51,0,0,1,385.9,79.4C385.74,77.91,383.72,76.88,385.17,75Z"/><path class="cls-36" d="M338.55,200.64c1.67-10.73,15-22.94,29.18-32.36a9.14,9.14,0,0,1-1.59,5.12c-6.7,8.92-13.57,17.69-22.72,24.32-1.27.93-2.64,1.73-4,2.57A4.83,4.83,0,0,1,338.55,200.64Z"/><path class="cls-36" d="M381.39,117.77c2.83,5.35,5,10.37,7.19,15.35s4.15,9.78,6.78,14.43c1.89,3.34.46,5.83-3.29,6.51a2.26,2.26,0,0,1-2.62-1.4C384,141.89,380.49,130.67,381.39,117.77Z"/><path class="cls-8" d="M354.13,80.46c2.43-12.36,8.95-22.52,16.92-31.91A69.69,69.69,0,0,1,354.13,80.46Z"/><path class="cls-37" d="M369.8,127.75a158.76,158.76,0,0,1-19.51,24.47c3.88-10.21,10.68-18.18,19-25C369.73,127.09,370,127.22,369.8,127.75Z"/><path class="cls-38" d="M342.27,218.09a221.77,221.77,0,0,1,19.11-30.35c.44-.12.69-.05.46.47-5.5,10.67-11.46,21-19.1,30.37C342.3,218.69,342.05,218.62,342.27,218.09Z"/><path class="cls-81" d="M369.8,127.75l-.55-.54a2.28,2.28,0,0,1,1.71-1.27A3.22,3.22,0,0,1,369.8,127.75Z"/><path class="cls-82" d="M371.55,165.05a.88.88,0,0,1-.52,1.08c-.25.1-.69.09-.52-.43s.3-.74.45-1.11Z"/><path class="cls-83" d="M361.84,188.21l-.46-.47a2,2,0,0,1,1.24-1.4A2,2,0,0,1,361.84,188.21Z"/><path class="cls-36" d="M526,91.79c-8.94.18-16.75-2.43-24.16-6.47-2.64-1.43-2.63-2.63-.07-4.25,3-1.88,6.29-1.69,9.46-1.1a61.76,61.76,0,0,1,23,9.09c.66.44,1.85.72,1.68,1.62-.22,1.21-1.4.39-2.12.48A38,38,0,0,1,526,91.79Z"/><path class="cls-36" d="M533.76,96.61c-.63,1.56-1.06,2.69-1.54,3.79-3.25,7.35-6.49,14.7-10.16,21.86-1,2-2.1,4-4,5.32-1.46,1-3.24,1.87-4.86.76s-1.05-3-.58-4.59a46,46,0,0,1,14.17-22.08A36.12,36.12,0,0,1,533.76,96.61Z"/><path class="cls-4" d="M579,65.85c-3.47-1.56-4.67-4.38-5.37-7.52a61.41,61.41,0,0,1-1.08-13.39c0-6.39-.36-12.8.7-19.74C576.48,38.88,577.87,52.22,579,65.85Z"/><path class="cls-8" d="M535.6,72.19A212.71,212.71,0,0,0,559.53,56C557.12,64.89,545.18,72.61,535.6,72.19Z"/><path class="cls-38" d="M541.36,139.37a155.21,155.21,0,0,1,0-36.43c1.15,3.33.79,6.18,1,9,.52,6.27.95,12.56,1.18,18.85A14.28,14.28,0,0,1,541.36,139.37Z"/><path class="cls-40" d="M572.73,95.71a70,70,0,0,1-5.66-20.31c-.05-.59-.68-1.36.49-1.56,2.28,6.68,4.67,13.32,5.64,20.35C573.22,94.75,573.89,95.51,572.73,95.71Z"/><path class="cls-84" d="M567.56,73.84c-.57.39-.33,1-.49,1.56a4.78,4.78,0,0,1-.38-1.12c-.06-.79,0-1.6,0-2.75A4.23,4.23,0,0,1,567.56,73.84Z"/><path class="cls-85" d="M572.73,95.71c.54-.39.3-1,.47-1.52a4,4,0,0,1,.35,2.81A1.66,1.66,0,0,1,572.73,95.71Z"/><path class="cls-50" d="M517.76,50q2.12,7.85,4.22,15.7c.14.55.23,1.44-.58,1.29-1-.2-2.48-.14-2.73-1.66-.34-2.12-.67-4.25-.85-6.38-.27-3-.4-5.93-.58-8.9Z"/><path class="cls-86" d="M515.31,42.85c.07,3.53-1.32,6.59-3,9.58-.77,1.37-1.6,1.74-3,.92-1.68-1-.69-1.9,0-2.82,1.83-2.56,3.7-5.1,5.55-7.65A.3.3,0,0,1,515.31,42.85Z"/><path class="cls-4" d="M330.36,20.43c-2.1,9.32-5.11,18.4-7.83,27.55a234.49,234.49,0,0,1-9.91,28.2c-.35.78-.43,1.77-1.55,2.34a26.63,26.63,0,0,1,.57-9.9,260.49,260.49,0,0,1,18.26-49.7C331.07,19.11,330.45,19.85,330.36,20.43Z"/><path class="cls-37" d="M330.49,105.08c.5,11.39,1.93,22.76.81,34.41-2.12-.9-2.12-2.64-2.33-4.07a79.58,79.58,0,0,1-.38-18.89A54.67,54.67,0,0,1,330.49,105.08Z"/><path class="cls-87" d="M6.88,210c1.31-6.51,17-31.58,23-36.72C28.9,180.29,12.08,207.11,6.88,210Z"/><path class="cls-88" d="M343.38,53.8h.86a1.81,1.81,0,0,1-.56,1.78A2.13,2.13,0,0,1,343.38,53.8Z"/><path class="cls-3" d="M162.47,70.81c-.61-1.21-1-2.56-2-3.5,0-.88-.45-2,.8-2.29,1.05-.22,1.24,1,1.58,1.64a32.79,32.79,0,0,0,12,13.66c.56.36,1.14.68,1.73,1a6.25,6.25,0,0,0,1,.27,31.66,31.66,0,0,0-14.41-24.43c-.62-.39-1.38-.86-.83-1.77.64-1.07,1.42-.49,2.11,0C174.16,62,179.24,71.22,180,82.93a2.24,2.24,0,0,1-.61,1.81c-6.8-2.26-11.84-6.76-15.9-12.5C163.11,71.77,162.79,71.28,162.47,70.81Z"/></g></g></svg>