<svg xmlns="http://www.w3.org/2000/svg" viewBox="0 0 681.72 457.44"><defs><style>.cls-1{fill:#3c675e;}.cls-2{fill:#3d685e;}.cls-3{fill:#3d685f;}.cls-4{fill:#597e76;}.cls-5{fill:#587d74;}.cls-6{fill:#5d8178;}.cls-7{fill:#436c64;}.cls-8{fill:#406a61;}.cls-9{fill:#5d8078;}.cls-10{fill:#6e8e87;}.cls-11{fill:#668781;}.cls-12{fill:#5f827a;}.cls-13{fill:#436d64;}.cls-14{fill:#63867e;}.cls-15{fill:#698b84;}.cls-16{fill:#5c8078;}.cls-17{fill:#698a83;}.cls-18{fill:#e3eae9;}.cls-19{fill:#e2eae9;}</style></defs><g id="圖層_2" data-name="圖層 2"><g id="圖層_1-2" data-name="圖層 1"><path class="cls-1" d="M246.12,12a9.65,9.65,0,0,0,2.38,8c7.93,9.85,15.69,19.83,21.37,31.23a22.17,22.17,0,0,1,2.78,9c.18,4.57-3,6.53-7.06,4.37a19,19,0,0,1-5.72-5.14c-6.61-8.15-11.9-17-14.21-27.47-.58,4.69-1.49,9.28-.42,14.08,2.27,10.13,7.38,18.8,13.35,27.07a16.6,16.6,0,0,0,6,5.08c2.3,1.21,4.41,3.5,6.7,5.19a189.21,189.21,0,0,1,29.24,26.31,12.74,12.74,0,0,1,3.13,5.87,3.9,3.9,0,0,1-1.27,4,3.75,3.75,0,0,1-4,.53,17.8,17.8,0,0,1-6.06-4.29c-2.5-2.43-4.94-4.94-7.4-7.41-.27,0-.46-.54-.65-.36s0,.6.12.89c2.79,4.91,5.22,10,8,14.94,2,3.52,3.14,7.55,6,10.56s5.6,6.14,8.26,9.34c5.78,6.95,9.54,15.17,14.34,22.74a9,9,0,0,1,.76,9.05c-.8,1.7-1.7,2-3.14.52a101.35,101.35,0,0,1-15.54-20.06c-1.47-2.51-2.79-5.11-4.17-7.66a1.88,1.88,0,0,1-1-1.15c-.74.43.06,1-.14,1.47a1.79,1.79,0,0,0,.08,1c1.23,5.86,1.55,11.85,2.63,17.74,1,5.31,2,10.61,3.19,15.88.14.61,0,1.42,1.07,1.35.65.47.44,1.08.26,1.68a11.6,11.6,0,0,1-1.55,5.45c-.31.59-.62,1.31-1.4,1.26-.95-.07-1-.93-1.18-1.66A240.55,240.55,0,0,1,296,167.86a266.16,266.16,0,0,1-3-30.47,7.17,7.17,0,0,0-1.5-4.24c-.32,4.32-.62,8.65-1,13-.82,10.36-2.4,20.61-4,30.86-.47,3-1.45,5.86-4.28,7.57-2.3,1.38-3,1.08-3.44-1.54-1.76-10.55-.37-20.86,2.45-31.05a154.72,154.72,0,0,1,7.8-21.51,5.28,5.28,0,0,0-.14-5.07,200.45,200.45,0,0,0-13.25-22.55c-.45-.66-.71-1.52-1.6-1.81-1-.53-1.38-1.81-2.53-2.18a8.92,8.92,0,0,1-1.65-3c2.53,11.11,4.12,21.9,7.43,32.32,1.06-3.23.23-6.48.44-9.7a1.3,1.3,0,0,1,.87-.71,36.82,36.82,0,0,1,.89,12.59,6.21,6.21,0,0,1-1.58,3.6,3.82,3.82,0,0,1-3.32,1.43c-1.52-.19-1.2-1.68-1.39-2.6-3.1-14.54-6.17-29.08-9.12-43.65A14.18,14.18,0,0,0,261.12,83c-7.66-9.68-14.7-19.74-18.77-31.78-.26,1.69-.58,3.38-.77,5.09-.89,7.92-1.68,15.86-2.66,23.78-.26,2.11.42,3.91,1,5.81.45,1.51.83,3,1.24,4.56a4.07,4.07,0,0,0,.3,2.57c.05.67.53,1.3.18,2l.49,2.44c1.22,1.17,1.19,2.82,1.64,4.29.75,2.42,1.61,4.81,2.38,7.23.29,1,.65,2.06,1,3.09s.73,1.68,1,2.56c.41.67.2,1.62.95,2.14a.41.41,0,0,1,.43.18q2.33,7.48,4.66,14.95c.22.71.69,1.49-.3,1.92s-1.45-.43-1.85-1.15a126.27,126.27,0,0,1-7.27-15A120.32,120.32,0,0,1,238,95.07c-.72-.69-.6.24-.85.43L233.8,125a12,12,0,0,1-.21,1.48c-1.31,5.3.31,9.56,3.59,13.94a103.44,103.44,0,0,1,15.09,27.42c1.13,3.2,2.15,6.48,1.34,10a5.34,5.34,0,0,1-1.88,3.14c-2,1.57-3.28,1.35-4.63-.82a165.41,165.41,0,0,1-14-28.33c-.18-.47-.38-.92-.82-2-.1,1.15-.17,1.72-.18,2.3a186.35,186.35,0,0,0,.92,25.66,4,4,0,0,0,1.75,2.8,156.77,156.77,0,0,1,23.37,23.13,25.53,25.53,0,0,1,3.46,5.47,9.51,9.51,0,0,1,.94,4.84c-.37,4.2-2,5-5.44,2.68a85.18,85.18,0,0,1-20.74-20.16c-.59,1,0,1.79.16,2.58a22.38,22.38,0,0,0,.53,2.43c2,7.45,3.6,15,7.45,21.87a8.47,8.47,0,0,0,4.9,4.11,76.8,76.8,0,0,1,31.74,20c.17.18.36.35.52.54.52.62,1.34,1.21.81,2.14-.63,1.11-1.5.29-2.19.05a164.37,164.37,0,0,1-26.11-11.74c-1.59-.88-3.17-1.79-4.74-2.67-1.43,2,.49,3,1.09,4.29a122.36,122.36,0,0,1,10.92,40.45c.09.87.47,2-.69,2.38s-1.49-.76-1.92-1.56a102.15,102.15,0,0,1-12-41.56c-.15-2.29.52-4.89-1.59-7-2.51,8.32-5.15,16.41-8.19,24.38-2.73,7.14-5.67,14.19-8.93,21.11-1,2.12-2,2.31-3.69.63a7.18,7.18,0,0,1-1.89-5.74c.25-7.08,2.58-13.69,4.83-20.28a78.26,78.26,0,0,1,14.13-24.77,3,3,0,0,0,.55-3.55c-4-9.4-8.48-18.61-10.75-28.65-.65-2.83-1.2-5.67-1.8-8.51a3.85,3.85,0,0,1-.77-1.47,5.13,5.13,0,0,1-.16-.65,6,6,0,0,1,0-2c-1.53-3.17-.15-6.63-1-9.89a25.37,25.37,0,0,1-.28-4,103.5,103.5,0,0,0-7.3,10.75,151.58,151.58,0,0,0-17.31,40.92c-.65,2.5.65,4.28,1.79,6.35a98.49,98.49,0,0,1,5.39,11.77,123.1,123.1,0,0,1,8.76,41c0,.83.57,2-.71,2.3s-1.36-1-1.66-1.81a340,340,0,0,1-14.2-49c-.19-.89-.42-1.77-.72-3.05a68.9,68.9,0,0,0-2.06,11.56,146.24,146.24,0,0,0-.86,29.36c.14,1.87,1.22,3.19,1.76,4.8,4.74,14.1,9.81,28.07,17.31,41,1.05,1.8,2.17,3.55,3.26,5.31.16.25.38.46,1,1.23a205.67,205.67,0,0,0-8.38-24.1c-2.79-6.76-6-13.3-9.45-19.77-.41-.78-1.59-1.75-.22-2.54s1.62.64,2.06,1.44a219.59,219.59,0,0,1,19.8,49.89c.2.78,1,1.84-.26,2.38-1.14.48-1.58-.63-2.1-1.32-7.29-9.71-12.6-20.51-17.24-31.66a2,2,0,0,1-.72-1.16c-.06.15.07.23.07.35.19.62-.17,1.28.17,1.87,1.06,7.32,2.14,14.63,3.18,21.94,1.41,9.88,2.32,19.8,3.05,30,1.87-1.11,2.38.14,3,1.57,3.71,9,8.09,17.67,12.38,26.39a25.16,25.16,0,0,0,3.9,6.07c.78.85,1.68,2.06,2.89,1.52,1.44-.65.78-2.22.59-3.37a21.64,21.64,0,0,0-1.2-3.79c-3.74-9.83-9.43-18.47-16.09-26.53-.37-.45-.75-.89-1.09-1.36a1.16,1.16,0,0,1,.21-1.75c.65-.55,1.11-.09,1.48.35,7,8.26,14.13,16.44,17.6,27a19.66,19.66,0,0,1,.76,10.81c-.39,1.67-1.08,1.82-2.44,1.1a16.84,16.84,0,0,1-6.67-6.56,247.45,247.45,0,0,1-13.45-27,4.07,4.07,0,0,0-1.37-2.27,46.94,46.94,0,0,0,.52,10.91c1.34,10,2.29,20,1.81,30.08-.28,5.8-.45,11.64-2,17.3-.57,2.09-.94,4.84-3.86,4.79s-3.63-2.67-4.1-5a64.73,64.73,0,0,1,3.19-37.92c.31-.76.54-1.83,1.65-1.41,1.28.48.59,1.5.28,2.3a70.8,70.8,0,0,0-4.46,26.37,56.2,56.2,0,0,0,.45,6.21c.21,1.83,1.27,3.31,3.12,3.37s2-1.84,2.28-3.3c2.15-12.41,1.87-24.86.21-37.26-.45-3.34-.66-6.74-1.34-10.1-1.19.07-1.16,1.13-1.48,1.77-3.05,6.1-6.17,12.17-10.39,17.58a20.48,20.48,0,0,1-5.17,5c-1.63,1-3.37,1.61-5.14.41a5.4,5.4,0,0,1-2.53-5.58,18.09,18.09,0,0,1,2.39-6.25,56.4,56.4,0,0,1,20.19-21,2.73,2.73,0,0,0,1.6-3C208,329.64,206,312.57,203,295.62a3.46,3.46,0,0,0-.29-.68c-1,.51-.42,1.25-.32,1.86,1.26,8.15,2.24,16.31,1.76,24.58a59.45,59.45,0,0,1-1.09,7.65c-.14.72-.22,1.59-1.22,1.59-.79,0-1.06-.67-1.3-1.32a86.34,86.34,0,0,1-5-20.79,83.89,83.89,0,0,1,1.91-27.21c.47-2.14-.25-4.55-.48-6.82-1.76-16.94-.36-33.66,3.11-50.29a173.11,173.11,0,0,1,5.6-19.07c.25-.78,1.26-1.78.33-2.37-.72-.47-1.32.74-1.88,1.29a140.73,140.73,0,0,1-30,22.64c-.65.37-1.31.72-2,1.07s-1.37.85-2,0,0-1.36.49-1.95a107.91,107.91,0,0,1,10.69-10.48,181.88,181.88,0,0,1,15.3-11.6,18.7,18.7,0,0,1,7.19-3.33,3.29,3.29,0,0,0,1.86-1.11,32.85,32.85,0,0,0,6.32-8.51,140.4,140.4,0,0,1,14.25-23.39,5.63,5.63,0,0,0,1.14-3.67,209.24,209.24,0,0,1,.93-27.65c.06-.58.06-1.16.09-1.83-1.08.64-1,1.75-1.36,2.64-4.73,13.78-11,26.91-17.69,39.81a19.52,19.52,0,0,1-5.07,6.42c-1.66,1.31-3.51,2-5.56.92s-2.39-2.81-2.39-4.84c0-5.1,2.24-9.5,4.36-13.9a6.16,6.16,0,0,0,.19-5.36A91,91,0,0,1,195.49,138c-.28-.47-.55-.47-.81,0A144.25,144.25,0,0,1,187,161.66a11.91,11.91,0,0,1-4.61,5.75c-1.54,1-2.37.46-2.68-1.1a16,16,0,0,1,.66-8.6c2.77-7.79,6.12-15.34,11.2-21.88,3.25-4.2,2.65-9,3.76-14.24A114.71,114.71,0,0,0,185,133c-4.72,5.71-9.08,11.69-13.28,17.79a5.15,5.15,0,0,0-.86,3.72c.62,6.11,1.31,12.25.31,18.39a10.06,10.06,0,0,1-.29,1.47c-.48,1.48-.75,3.36-2.73,3.42-2.13.07-2.88-1.76-3.39-3.45-1-3.2-.81-6.52-.74-10.44-2.31,4.37-4.33,8.23-6.38,12.07a13.94,13.94,0,0,1-4.34,5.39c-.78.51-1.65,1.4-2.68.62s-.31-1.66-.08-2.52a70.5,70.5,0,0,1,10.76-22.61c.43-.61.83-1.23,1.23-1.85,0,0,0-.15-.09-.59-3,2-5.95,3.94-8.94,5.76s-5.37,4.62-9.29,4.37c-.07,1.47.69,2.63.94,3.91.14.71.56,1.57-.42,1.94s-1.3-.42-1.69-1.08a117.29,117.29,0,0,1-8.3-17,120.15,120.15,0,0,1-5.43-18.11,5,5,0,0,1-.05-2.71c2-1,2.24.61,2.71,1.78,3.48,8.71,7.93,17,11,26.25a40,40,0,0,1,13.74-8.8,25.69,25.69,0,0,1,6.73-1.8,15.18,15.18,0,0,0,10.92-6.65c1.42-1.93,2.91-3.8,4.38-5.91a5.14,5.14,0,0,0-3,1c-3.82,2.05-7.85,3.63-11.82,5.34a9.32,9.32,0,0,1-5.86.63,2.62,2.62,0,0,1-2.26-2.06,2.52,2.52,0,0,1,1.19-2.57,30.22,30.22,0,0,1,17-6.4c5-.2,9.34-1.83,12.59-5.88a37.54,37.54,0,0,1,7.86-8c.94-.64.9-1.72,1.05-2.7.75-5.18,1.4-10.37,2.3-15.64-3.69,7.32-7.43,14.5-12.43,20.93a17.4,17.4,0,0,1-4.42,4.35c-1.69,1-3.52,1.74-5.36.4s-1.9-3.38-1.38-5.42a13.32,13.32,0,0,1,2.07-4.25c5.93-8.58,12.49-16.61,20.67-23.18a7,7,0,0,0,2.72-4.78c1.43-9.45,3.15-18.86,5-28.19-4.3,8.37-9,16.62-15,24a17,17,0,0,1-5.94,4.85c-3.42,1.58-6.22,0-6.87-3.87.14-2.64,1.59-4.7,3.14-6.66a3,3,0,0,0,.35-3.64,165.93,165.93,0,0,1-15.27-50.71,80.86,80.86,0,0,1-5.75,9.32A8.51,8.51,0,0,0,157.84,38c-.31,6.1-1.8,12-2.81,18A12.57,12.57,0,0,0,157.8,66.8c.64,1.3,1.19,2.64,1.9,3.9a59.74,59.74,0,0,1,4.09,25.16,8.26,8.26,0,0,1-.08,1c-.17,1.05-.61,2-1.7,2.24-1.3.28-1.69-.84-2.06-1.75a83.17,83.17,0,0,1-3.37-11.22,145.29,145.29,0,0,1-4-21.3c0-.15,0-.31,0-.48a1.42,1.42,0,0,0-.07.42c-2.18,8.31-5.2,16.34-8.1,24.4a16.14,16.14,0,0,0-.57,4.57c-.33,4.61,1.94,8.46,3,12.64,2.26,8.55,4.12,17.14,3.9,26.06-.05,2-.45,4-.65,5.95a1.77,1.77,0,0,1-1.26,1.7,1.79,1.79,0,0,1-2-1.11,18.43,18.43,0,0,1-1.71-4.67c-3-11-5.31-22.09-5.29-34a36.26,36.26,0,0,1-2.52,7.8c-2.55,6.86-5.07,13.74-7.37,20.69a6.12,6.12,0,0,1-1.33,2.64,147.17,147.17,0,0,0-6.48,26.81c-.54,3.45-.82,6.93-1.4,10.37-.64,3.85,1,7.17,2.26,10.55a64.41,64.41,0,0,0,13.27,21c.09-2.87-2-9.07-4.35-13.54a55.19,55.19,0,0,0-7.28-10.4c-.54-.62-1.63-1.31-.59-2.27s1.63.16,2.19.79a50.41,50.41,0,0,1,13,27.79c.1.79.62,1.73-.44,2.2s-1.51-.42-2.1-1a66.5,66.5,0,0,1-16.23-24.71,2,2,0,0,0-.65,1.79c0,7,.12,13.95.61,20.92a4.34,4.34,0,0,0,2.4,3.84c1.77.88,2.71,2.36,3.85,3.75a56.37,56.37,0,0,0,20.72,16,16.45,16.45,0,0,0,9.25,1.71,55.84,55.84,0,0,0-8.46-9.75A59,59,0,0,0,131,206.47c-.39-.16-.76-.34-1.14-.52a1.15,1.15,0,0,1-.72-1.61c.39-.87,1.08-.5,1.7-.25a63.08,63.08,0,0,1,11.69,6.1,60.52,60.52,0,0,1,16.17,16.09c1.25,1.8.63,2.55-1.16,2.89a17.2,17.2,0,0,1-9.3-1.06,62.53,62.53,0,0,1-11-5.8c-.4-.25-.77-.71-1.54-.2l7.87,9.86c.52.65,1,1.3,1.52,2a1.15,1.15,0,0,1,.21,1.37,1.21,1.21,0,0,1-1.54.43,9.78,9.78,0,0,1-1.59-.71,48.66,48.66,0,0,1-19.53-17.7c-.84,0-.87.07-.53,1.55,1.62,11.89,4.83,23.39,8.22,34.88a38.55,38.55,0,0,0,7.11,13c3.29,4.19,6.49,8.45,9.83,12.59,2.28,2.84,4.68,5.61,8.83,6.95a68.84,68.84,0,0,0-12-17.05,75.87,75.87,0,0,0-7.55-6.9c-.72-.56-2-1.19-1.06-2.33s1.62.05,2.31.58a71.56,71.56,0,0,1,20.74,25.52c.31.64,1,1.31.39,2.07s-1.5.43-2.31.29a13.08,13.08,0,0,1-7.05-4c-4.16-4.22-7.65-9-11.32-13.63A5.21,5.21,0,0,0,136,269c1.61,3.87,3.16,7.76,4.85,11.59a338.66,338.66,0,0,0,15.25,30.27,14.28,14.28,0,0,1,.85,1.52c.34.77,1.31,1.66.12,2.37s-1.55-.48-2-1.22c-.88-1.48-1.71-3-2.73-4.38a10.73,10.73,0,0,0,1,4.73c5.19,13.79,9.87,27.73,9.81,42.73,0,.87.47,2.1-.71,2.36-1.36.31-1.45-1.12-1.76-2-5.34-14.64-8.19-26.92-11-46.06-.67,2.84-1.36,5.69-2,8.54-1.61,7-3.58,14-5.72,20.89-.05.16-.13.31-.18.47-.22.81-.43,1.82-1.49,1.65s-.84-1.22-.73-2c.56-4.45,1.09-8.91,1.67-13.36,1.1-8.32,2.24-16.63,3.36-24.95,0-.33,0-.66.08-1,.11-.8.39-1.56,1.36-1.41s.74,1,.67,1.61c-.41,3.38-.86,6.76-1.3,10.14s-.86,6.75-1.3,10.13c-.09.94-.19,1.87-.21,2.81,0,.68-.47,1.21-.57,1.86.15-.63.61-1.16.58-1.85a3.24,3.24,0,0,1,.67-2.34q1.61-7,3.2-14.08c.33-1.47.43-3.24,3.36-1.39-5.63-10.41-10.28-20.31-14.55-30.38a1.56,1.56,0,0,1-.69-1.44c-.49-.61-.38-1.47-.9-2.07a5.81,5.81,0,0,1-.31-.61,1.48,1.48,0,0,0,.23.59c.57.58.42,1.47.93,2.06a16.53,16.53,0,0,0,.27,2,109.51,109.51,0,0,1,2,21.3,92.94,92.94,0,0,1-.92,11.17c-.11.7.1,1.71-1,1.71s-1.13-1-1.21-1.84c-.46-4.63-1-9.25-1.36-13.89-.74-9.94-1.42-19.89-1.59-29.87,0-1.81-.95-3.29-1.72-5.12a210,210,0,0,0-8,44c1-1.18,1.24-2.36,1.78-5.26,1.37-7.26,2.83-14.51,4.29-21.75.15-.76.14-1.93,1.29-1.78,1.33.16,1,1.34.85,2.19-1.78,9-3.23,18.16-5.5,27.1a12.1,12.1,0,0,1-1.15,3,2.41,2.41,0,0,1-2.76,1.27c-1.37-.37-1-1.59-.9-2.52a191.31,191.31,0,0,1,7.66-45.34,15.43,15.43,0,0,0-.19-10.05,196.8,196.8,0,0,1-6.59-26.57c-.11-.57-.09-1.17-.66-1.59-1.11,1.11-.16,2.38-.22,3.54a304.14,304.14,0,0,1-4.58,39.59c-.14.75-.17,1.6-1.17,1.63s-1.13-.79-1.33-1.53c-1.88-6.68-1.11-13.36.18-20,1.83-9.37,3.79-18.72,5.72-28.07a14.83,14.83,0,0,0,.08-4.93,192.81,192.81,0,0,1-1.59-37.51c-1.36,1.95-2.37,3.4-3.36,4.86-.17.25-.55.67-.19.85,2.29,1.17.59,2.59.16,3.74A196.09,196.09,0,0,1,105,205.59c-1.08,2.1-2.28,4.13-4.86,4.66-2.06.42-2.82-.44-2.09-2.42A135.41,135.41,0,0,1,117.12,173a3.82,3.82,0,0,0,1-2.13A167.82,167.82,0,0,1,123,141.87a12.08,12.08,0,0,0,.19-1.93c-1.59.62-2.2,1.94-3,3-4.55,5.52-9.19,11-14.79,15.49a13.16,13.16,0,0,1-4,2.55c-2.48.83-3.86-.15-3.9-2.77a8.57,8.57,0,0,1,1.78-5.1c4.35-6.28,10-11.35,15.6-16.42a77.21,77.21,0,0,1,10.87-7.94,3.94,3.94,0,0,0,2-2.09c3.21-9.17,6.51-18.31,9.77-27.46a4.53,4.53,0,0,0,.06-1c-1.26.51-3-.07-2.64,2.3.11.71-.78,1-1.32,1.36a256.11,256.11,0,0,1-27.27,15.58c-.79.39-1.75,1.11-2.37-.08-.51-1,.48-1.45,1.13-1.92q9.41-6.8,19.33-12.82a4.9,4.9,0,0,0,1.9-1.78c-3.51.63-7,1.29-10.53,1.87-4.34.72-8.65,1.69-13.08,1.81A7.94,7.94,0,0,1,97,102.56c-1.75-1.56-1.7-2.12.36-3.2a67.42,67.42,0,0,1,33.33-8,44.37,44.37,0,0,1,7.46.46c1,.19,1.9.26,2.37-1.07,3.19-8.91,6.64-17.73,9.35-26.82,0-.05-.08-.13-.24-.41-3.07,1.55-6.14,3.12-9.23,4.66-5.43,2.7-10.85,5.43-16.31,8.07-2.2,1.07-4.54,1.72-7,.85-.83-.3-1.85-.48-2-1.61s.73-1.43,1.35-2a58.61,58.61,0,0,1,32.74-13.94,2.67,2.67,0,0,0,2.8-2.39,145.6,145.6,0,0,0,3.55-19.85c.06-.62.44-1.48-.22-1.85-.9-.51-1.28.52-1.76,1A195,195,0,0,1,135.1,52.6c-3.34,2.52-6.95,4.14-11.33,3.57-2.14-.27-2.35-1.33-2-3.07a14.42,14.42,0,0,1,5.94-8.65q12.92-9.6,26-19a3.14,3.14,0,0,0,1.53-3.48c-.53-3.52-.88-7.07-2.08-10.46a31,31,0,0,0-2.21-7.1c-.23-.58-.86-1.36-.1-1.75s1.33.33,1.7,1c1.37,2.68,2.08,5.59,3.13,8.38,1.57,2,1.53,4.51,2.06,6.82.42,1.8.88,1.81,2.43,1,4.51-2.46,4.86-6.47,4.48-10.86,0-2.44-1-4.66-1.59-7-.17-.72-.61-1.53.41-1.88s1.42.4,1.67,1.28a54.16,54.16,0,0,1,2.06,9.68,8.22,8.22,0,0,1,.5,3.92c-.64,3.61.63,6.65,2.63,9.52a120.52,120.52,0,0,1,19,42.06c3.75-4.55,7.48-8.76,11.22-13a9.54,9.54,0,0,1,1.31-1.51c4.78-3.49,6.66-8.48,7.41-14.1.39-2.87,1.2-5.66,1.86-8.88-4.15,4.27-8.66,7.51-13,10.92a12.7,12.7,0,0,1-5.55,2.73,3.8,3.8,0,0,1-3.84-1.23,3.58,3.58,0,0,1-.25-4,16.25,16.25,0,0,1,4.77-5.7c5.9-4.75,11.92-9.35,19.12-12,.94-.35.92-1,1.11-1.74.55-2,.32-4.17,1.5-6,.46-2.76.91-5.52,1.39-8.27.16-.9.39-2,1.61-1.68s.48,1.37.39,2.11a51.55,51.55,0,0,0-.78,7.84,1.57,1.57,0,0,1,.24,1.42c-.23,1.66-.76,3.47,2,3.51.37,0,.7.42,1,.72,4.12,4.21,8.67,8,12,12.93.95,1.39,1.6,1.81,2.54,0,1-2,2.2-3.92,3.42-5.79,2.19-3.35,3.74-6.83,3.2-11a2.09,2.09,0,0,1,.57-1.84,71.17,71.17,0,0,0,.55-9.46c0-1,0-2.3,1.21-2.39,1.1-.09.78,1.24,1,2C246.52,5.38,245.68,8.76,246.12,12Z"/><path class="cls-1" d="M51.22,152.87A124.14,124.14,0,0,1,72.91,194a8.1,8.1,0,0,1,.28,1c.1.76.89,1.53,0,2.3s-1.74.12-2.54-.19a20.66,20.66,0,0,1-9-7.27,141,141,0,0,1-8.6-14c-.41-.71-.9-1.38-1.36-2.06-1.68-1.24-2.35-3.17-3.29-4.89-1.58-2.9-3.17-5.78-4.9-8.82a197.67,197.67,0,0,0,4.19,51.11A4.43,4.43,0,0,0,49.53,214c.66.47,1.42.89,1.63,1.8,7.51,5.48,15.3,10.59,22.53,16.47a51.55,51.55,0,0,1,4.16,3.94,8.28,8.28,0,0,1,2.13,3.9c.38,1.61.91,3.58-.33,4.76-1.38,1.33-2.72-.46-3.92-1.11a77.42,77.42,0,0,1-21.92-17.46c-.65-.75-1.38-1.44-2.07-2.15-.61-.08-.81-.79-1.36-.92.42,1.65,1.06,3.26.89,5,1.62,4.93,3.45,9.8,5.15,14.68,2.15,6.12,4.66,12,7.37,17.88a202.83,202.83,0,0,0,18.06,31c.38.53.72,1.1,1.07,1.66.67-1.49,1.26-2.7,2.76-.52.57.81,1.79-.2,2.86.19a61.63,61.63,0,0,1,16.54,8.57,29.16,29.16,0,0,1,6.52,6.12c1.3,1.83,2.41,3.76,1.13,6-1.41,2.45-3.81,3.17-6.45,2.79-4.88-.69-8.84-3.22-12.4-6.49-2.06-1.89-3.53-4.31-5.93-6.87a191.37,191.37,0,0,1,4,18.94,166.3,166.3,0,0,1,1.73,24.11c0,.74.1,1.59-.86,1.84-1.14.31-1.37-.65-1.72-1.38-3.43-7.2-5.21-14.87-6.33-22.71a191.41,191.41,0,0,1-1.55-21.13c0-.92-.49-2.1.8-2.62.7-.28.34-.53.09-.86a214.12,214.12,0,0,1-17.24-26.53c0,4.6-.09,8.61,0,12.6.27,9.39.64,18.78,1,28.16.1,2.74.16,5.49.36,8.22.16,2.27-1,2.34-2.62,1.72a7.64,7.64,0,0,1-4.31-4.91,148.62,148.62,0,0,1-7.11-26.41,145,145,0,0,1-.2-45.92c.4-2.61-1.17-4.92-2.17-7.26-1.11-.69-1.28-1.92-1.6-3-1.58-5.35-3.14-10.69-4.59-16.08-1.74-6.51-2.62-13.15-3.8-19.75-.29-1.64,0-3.24-.29-4.5.49,3.2-1.26,6.52-.94,10.09.14,1.58-1.14,2.89-1.45,4.46-2.38,11.92-5.45,23.68-8.39,35.46-.73,2.92-.73,5.94-1.61,8.82a3.16,3.16,0,0,0,1.08,3.17c2.63,2.14,3.5,5.22,4.77,8.07,3.47,7.74,7.07,15.42,9.46,23.61a52.61,52.61,0,0,1,1.91,17.77c-.17,3.24-2,4.16-4.65,2.34a16.34,16.34,0,0,1-5.91-7.27,117.44,117.44,0,0,1-8.12-28.23,6.25,6.25,0,0,1,0-1.73c0-.19.1-.41-.06-.59a1.6,1.6,0,0,1,0,.69,31.12,31.12,0,0,1-1.81,6.25,39.83,39.83,0,0,0-2.46,15.16c0,2.92.17,5.84,0,8.74A11.12,11.12,0,0,0,26,310.66c1.82,2.27,3.47,4.68,5.3,6.94A7.14,7.14,0,0,1,33,320.36a1,1,0,0,1-.45,1c-1.15.28-1.58-.67-2.18-1.32a105.12,105.12,0,0,1-6.83-8.24,1.48,1.48,0,0,0,.24,1.49c6.61,10.6,13.44,21,22.72,29.6a32.94,32.94,0,0,0,4.85,3.89,4.63,4.63,0,0,0,.43.24c.65.22,1.3,1.12,1.94.4.47-.53-.17-1.23-.47-1.79A13.36,13.36,0,0,0,51.37,343c-2.5-3.22-5.41-6.08-8.09-9.14-.7-.8-1.67-1.41-1.86-2.57a1.19,1.19,0,0,1,.25-.66c2.59.7,4.14,2.85,6,4.53,1.4,1.28,3.3,2.3,3.63,4.5,2.46,3.1,4.83,6.26,5.86,10.18.2.75.73,1.55-.06,2.31s-1.58.14-2.32,0c-1-.23-2-.62-3.06-.94a3.85,3.85,0,0,1-2.78-.88,46.61,46.61,0,0,1-11.56-9.76A118.27,118.27,0,0,1,24,321.19a212.17,212.17,0,0,0,7.37,39.32c.69,2.4,1.62,4.73,2.19,7.16a4.15,4.15,0,0,0,2.67,2.75c4.13,2,8.35,3.72,12.52,5.62.89.4,1.92.63,2.38,1.66,5.58,3,11,6.12,15.41,10.8a51.33,51.33,0,0,1,11.38,19.1c.27.79.69,1.66-.1,2.31s-1.41,0-2.11-.2a91.07,91.07,0,0,1-24-13.5c-1.74,0-2.29-1.74-3.62-2.39,1.06,3.09,2.95,5.89,3.25,9.24,3,8.5,6.09,17,9.1,25.5,1,2.89,1.88,5.83,1.38,9A5.06,5.06,0,0,1,60.71,440c-1.37,1.73-2.25,1.73-3.38-.11-1.91-3.1-3.75-6.24-5.62-9.36-4.45-9-8.75-18.15-11.66-27.84-1-3.47-2-7-2.94-10.49-.41-.65-.82-1.31-.63-1.82.48,1-.41,2.41.17,3.77,1.06,14.74,1.91,29.5,2.41,44.27.19,5.83-.36,11.62-3.06,17-.52,1-.94,2.11-2.49,2.05-1.21-.05-1.71-.36-1.86-1.68A239.27,239.27,0,0,1,33.06,391a17.55,17.55,0,0,0,.55-4.68c-.23-2.09.85-3,2.48-3.16,1.87-.14,1.38,1.75,1.62,2.8,3,13.41,7.19,26.4,13.57,38.62,1.9,1.52,2.43,3.9,3.7,5.82.94,1.43,1.75,3,2.86,4.81a11.63,11.63,0,0,0-.27-5.23c-1.19-4.58-2.64-9.07-4.21-13.53a46.34,46.34,0,0,1-1.58-6c-1.84-6.4-4.87-12.34-7.24-18.53a28.27,28.27,0,0,0-6.09-9.5c-.23-.24-.43-.73-.64-.73-3.58,0-3.24-3.2-4-5.24a237.16,237.16,0,0,1-9.67-34.21c-.66-1-.55-2.19-.88-3.28.11-.78-.52-1.55-.25-2.08a23.14,23.14,0,0,0,.48,3.44c.34,2.51-.41,5,.18,7.54a308.46,308.46,0,0,1-1.45,35.05c-.15,1.42.33,3.53-1.29,3.94s-2.25-1.66-3-2.85a20.41,20.41,0,0,1-3.12-10.87c-.29-9,.46-18.08,1-27.11.6-9.68,1.54-19.35,2.33-29,.09-1-.09-2.31,1.59-2.24,1.09.54.69,1.55.77,2.4a13.47,13.47,0,0,0,0,4.61,14.66,14.66,0,0,1,0-4.72,25.8,25.8,0,0,0-.18-3.93c-.12-2.76-1-5.76-.66-8.16.43-3.24.2-6.47.61-9.67a7.57,7.57,0,0,0,.16-3.41c0-.65-.41-.16-.64,0-3.05,6.81-5.85,13.75-9.52,20.27-1.68,3-3.74,5.73-7.28,6.8-2.69.81-3.24.32-2.87-2.51,1.06-8.06,4.48-15.28,8.29-22.29,6.34-11.7,12.53-23.48,16.48-36.21,2.72-8.79,4.59-17.84,6.79-26.78C33.14,225,34.52,219,35.94,212.9a3.93,3.93,0,0,0,.08-2.64c-1,.81-3.19.79-1.39,3,.37.46-.25,1.07-.55,1.56A176.52,176.52,0,0,1,9.86,246.42c-.51.53-1,1.21-1.89.89s-.73-1.2-.74-1.93a18.27,18.27,0,0,1,3.5-10.47,139.41,139.41,0,0,1,15.42-18.28c3-3.12,6.11-6.12,9.27-9.08A7.35,7.35,0,0,0,38,203c.63-4.78,1.15-9.59,2.18-14.28,1.87-8.49,0-17,.39-25.47a219.49,219.49,0,0,1,5-40c.09-.4.12-.82.18-1.23s.2-.6,0-.78-.33.18-.5.28A141.86,141.86,0,0,1,17.13,158.4c-1.47,1.39-2.37,1.12-3.3-.45a8.36,8.36,0,0,1-.4-7.22,31.94,31.94,0,0,1,4.7-8.47c9.11-12.53,18.67-24.68,30.18-35.14,2.32-2.11,2.72-4.81,3.46-7.49.13-4.91,3-8.82,4.79-13.14A193.73,193.73,0,0,1,67,65c-4.59,4.17-9.15,8.26-13.82,12.22A3.66,3.66,0,0,1,51,78.36C46,82.59,41,86.84,36,91.05a19.77,19.77,0,0,1-5.67,3.55c-3.32,1.24-5.48-.51-4.92-4,.36-2.21,1.68-3.94,3.05-5.63A120.08,120.08,0,0,1,51.75,62.63c2-2.51,4.94-3.6,7.58-5.09a85.8,85.8,0,0,1,14.3-6.44A6,6,0,0,0,77,48.65c5.44-8.79,12.14-16.58,19-24.22a4.41,4.41,0,0,0,.85-1.19A296,296,0,0,1,68.61,33c-4.75,1.28-9.48,2.41-14.46,1.76a6.19,6.19,0,0,1-3-1.17c-.42-.25-.85-.49-1.26-.77-3.77-2.6-3.63-6,.34-8.27.5-.29,1-.56,1.5-.83,1.09-1.53,2.84-1.6,4.43-1.93,17.29-3.59,34.66-6.75,52.08-9.67,1.62-2,2-4.65,3.19-6.89.61-1.18,1.17-2.35,2.86-2.55-.56,3.5-2.66,6.24-3.83,9.35a7.27,7.27,0,0,0-1.59,6.16c2.13,13.29,4.35,26.58,5.3,40,.23,3.3.43,6.66-.6,9.91-.72,2.29-2,4.15-4.6,4.3s-4-1.72-4.85-3.93c-1.14-3-1.31-6.14-1.68-9.28a94.1,94.1,0,0,1,3.66-38.93c.13-.45.52-.89.17-1.52a4.52,4.52,0,0,0-2.9,1.52A239.61,239.61,0,0,0,86.84,39.58a4.45,4.45,0,0,0-1,2.72c-.48,19.45-2.18,38.84-3,58.28-.16,3.73.08,7.48-.55,11.2a16.48,16.48,0,0,1-2.54,6.7c-.38.56-.74,1.17-1.55,1s-.78-.8-.89-1.37a141.53,141.53,0,0,1-2.86-36.44,136.78,136.78,0,0,1,4.81-29.27,3.17,3.17,0,0,0-2.64,1.72A214.23,214.23,0,0,0,56.16,94.28a4,4,0,0,0,.39,3.29A164.8,164.8,0,0,1,68,134.89c.78,4.46,1,8.94-1.09,13.18-.35.72-.53,1.73-1.58,1.7s-1.2-1-1.55-1.76a114.28,114.28,0,0,1-11-40.92c0-.24-.1-.48-.18-.88-1.12.69-1,1.81-1.29,2.77-.11,4.37-1.82,8.4-2.74,12.6-1.55,7.07-3,14.14-3.8,21.34a3.15,3.15,0,0,0,1.2,3.19C48.12,148,50.3,150,51.22,152.87Z"/><path class="cls-2" d="M447.36,12.05q10.84,12.72,21.69,25.44c2.33,2.73,4.61,5.48,5.85,8.91.66,1.84,1.14,3.77-.48,5.36s-3.69,1.16-5.57.3c-5.2-2.39-8.91-6.62-12.84-10.55a78.54,78.54,0,0,1-16.52-24.17,5.8,5.8,0,0,0-.5-.82s-.14,0-.45,0c-.22,6.69-.37,13.38-.69,20.06a52.63,52.63,0,0,0,1,11.14c.16.93.07,2.12,1.81,2,1-.09.88,1.26,1,2,.62,2.92,1.15,5.86,1.69,8.81,1,5.37,4.33,9.36,7.71,13.35a48.17,48.17,0,0,0-2.52-10A129.79,129.79,0,0,0,440.44,44c-.35-.67-.7-1.33-1-2s-.26-1.18.37-1.54c.78-.44,1.26,0,1.59.67.66,1.25,1.31,2.5,1.93,3.77a138.21,138.21,0,0,1,10.9,31.47c.21,1,1.29,2.44-.18,3.14s-1.83-1.07-2.68-1.73c-1.73-1.36-2.63-3.56-5-5.12a212.64,212.64,0,0,0,6.86,21.43c.46,1.26,1.4,1,2.25,1a119,119,0,0,1,40.93,7.79,5,5,0,0,1,2.2,1.06c-5,3.53-7.67,3.8-16.23,2.41a170.83,170.83,0,0,1-27.13-6.45c.83,2,1.45,3.64,2.19,5.22,1.95,4.14,3.46,8.59,6.06,12.27a65.92,65.92,0,0,1,8.55,17.85A76.38,76.38,0,0,1,475.38,165c-.06.86-.05,1.79-1,2.05s-1.33-.75-1.67-1.46a118,118,0,0,1-10.91-36.09c-.22-.23-.09-1.08-.8-.46-1.37,9.37-2.69,18.75-3.22,28.22,0,.81-.46,1.65,1,1.44.43-.07,1,.52,1.43.9a66.78,66.78,0,0,1,21,34.07c.21.83.79,1.92-.22,2.5s-1.6-.56-2.24-1.14a95.63,95.63,0,0,1-20.14-26.45c-.24-.48-.3-1.14-1.22-1.38,0,4.61-.26,9.15.11,13.65.18,2.27,1.54,4.43,2.29,6.67,2.77,8.26,5.59,16.51,8.21,24.82.49,1.56,1.47,2.61,2.66,2.48,2.24-.26,3.16,1.19,4.38,2.41A101.38,101.38,0,0,1,496.75,250l.38.92c.26.63.54,1.27-.05,1.85-.78.74-1.37.05-2-.32-6.53-4-11.51-9.48-15.68-15.79-2.14-3.24-3.93-6.68-6-10.5-.13,2.37.88,4,.92,5.82.22,10.23,3.63,19.87,5.33,29.82.54,3.14.77,6.31-1.23,9.13-1.38,1.95-2.21,1.94-3.43-.14a38.91,38.91,0,0,1-5.14-24.19c.06-.57.05-1.16.08-1.74.34-.79,0-1.64.22-2.44a4.28,4.28,0,0,0,.57-2c.48-.67.6-1.53,1.11-2.19a6.6,6.6,0,0,0-.91,1.89c-.5.64-.2,1.57-.78,2.17a1.66,1.66,0,0,1-.68,1.47c-1.53,3.22-2.83,6.57-5.18,9.32-1.44,1.67-3,3.36-5.5,2.44s-2.88-3-3-5.3c-.28-6.7,1.49-13,4.15-19a81,81,0,0,1,6.46-11.77,4.39,4.39,0,0,0,.39-4.37c-1.93-5.38-3.68-10.83-5.49-16.25a2.54,2.54,0,0,1-.66-1.82c-.16.44.09.78.11,1.14,0,.56-.34,1.12,0,1.67.33,6.07.73,12.14-1.82,17.92a21.65,21.65,0,0,1-3.87,6.06c-.55.59-1,1.51-2,1.21s-.78-1.21-1-1.9c-2.6-10-3.13-20.28.41-30,2.93-8,2.84-16.05,2.74-24.71a143.7,143.7,0,0,1-6.88,12.7q-4.19,6.36-8.5,12.62a9.57,9.57,0,0,1-4.31,3.66c-1.81.74-2.79.25-3.26-1.68a12.54,12.54,0,0,1,1.06-8.49,69.8,69.8,0,0,1,19.67-24.8c.07-.06.13-.14.2-.15,3.35-.24,2.76-2.91,2.89-4.94a279.69,279.69,0,0,1,5-37,4.88,4.88,0,0,0-.18-3.18c-1.75-3.64-3.56-7.25-5.35-10.87l-.75,0c0,3.93.1,7.86,0,11.78a95.29,95.29,0,0,1-2.54,20.74,15.52,15.52,0,0,1-2.14,5c-.78,1.14-1.77,2.1-3.28,1.86a3.8,3.8,0,0,1-3.09-2.59c-.94-2.51-.71-5.12-.38-7.65,1.72-13.09,3.76-26.13,7.44-38.85a3.28,3.28,0,0,0-.12-2.19,247.06,247.06,0,0,1-9-29.76,7.17,7.17,0,0,0-.5-1.14c-1.36.37-.39,1.3-.48,2a201.78,201.78,0,0,1-.93,38.07c-.55,4.45-1.34,8.87-2.09,13.29-.12.74-.1,1.84-1.24,1.88-1,0-1-.92-1.31-1.59-2.32-5.69-2.41-11.67-2.22-17.67.25-7.64.61-15.27.93-22.91q.65-15.68,1.3-31.37c0-.63,0-1.26,0-2.31a5.45,5.45,0,0,0-1.3,3.24,135.31,135.31,0,0,1-7,23.59c-1.21,3-2.92,5.57-5.94,7.11-2,1-2.95.31-3.39-1.64a10,10,0,0,1,.7-6.09c3.26-8,6.85-15.88,11.82-23,1.58-2.27,2.41-5.07,4.73-6.83.7-.53.5-1.36.52-2.09q.31-8.34.61-16.69c0-.88,1-1.95-.53-2.5-3.33,8.89-7.25,17.49-12.86,25.22a19.23,19.23,0,0,1-8.67,6.88c-2.32.89-2.82.49-2.7-1.9.44-8.81,5.11-15.64,10.4-22.15a101.93,101.93,0,0,1,12.08-12.24c.72-.63,1.69-1.15,1.65-2.34.66-2.55,1.33-5.09,2-7.64.14-.56.15-1.21.89-1.3s.62.64.93,1C441.85,6.4,444.61,9.22,447.36,12.05Z"/><path class="cls-2" d="M376,131.44c-1.9,9.87-4.18,19.65-7,29.3-.33,1.12-.78,2.14,1.05,2.36.51.07,1.1.79,1.36,1.34,5.05,10.85,9.7,21.83,11.29,33.85.55,4.21.77,8.44,1.11,12.66.18,2.12-.75,2.58-2.73,2.08a10.88,10.88,0,0,1-7.06-5.89,79.19,79.19,0,0,1-8.62-27.41c-.17-1.3-.36-2.6-.58-4.22-1.11,2.5-1,4.72-1.1,7.1-.2,4.22.49,8.25.85,12.35a69.21,69.21,0,0,1-6.8,36.27c-.35.76-.45,2.06-1.61,1.92s-1.12-1.31-1.4-2.17c-2.53-7.66-1.59-15.28.38-22.84,1.19-4.58,2.66-9.08,4-13.62a2.69,2.69,0,0,0,.19-2c-1,.33-1.13,1.33-1.54,2.07-6.45,11.67-13.51,22.92-23,32.48-.65.66-1.21,2-2.38,1.18s-.23-2,.21-2.83a282.46,282.46,0,0,1,22.8-38c.31-1.26,1.28-2.11,2-3.13a27.42,27.42,0,0,0,2-2.48c-1.5,1.44-2.42,3.76-4.5,5-4.72,5.18-9.59,10.18-15.6,13.88-1.49.91-3,1.71-4.59,2.5-.55.28-1.16.77-1.83.19s-.41-1.2-.3-1.85c1.12-6.24,4.16-11.51,8.16-16.31,6.73-8.08,15.32-14,23.6-20.27a5.55,5.55,0,0,0,2.3-3.08,377.07,377.07,0,0,0,9.17-40.81,9.55,9.55,0,0,0,0-1.52c-1.92.45-2.68,2-3.54,3.36a201.45,201.45,0,0,1-26.61,34.5c-.59.61-1.07,1.83-2.14,1.28s-.5-1.73-.25-2.66c3.39-12.78,11.52-22.26,21.21-30.71,3.46-3,7.88-5.11,9.84-9.68.09-.22.34-.57.46-.55,2.86.58,2.22-1.8,2.39-3.09a223.26,223.26,0,0,0,2.15-29.57V80.81a111.71,111.71,0,0,1-8.06,11.78,84.51,84.51,0,0,1-24.14,20.23c-.71.4-1.43,1.05-2.27.35s-.17-1.55.12-2.26a70.71,70.71,0,0,1,32.17-36.47,3.53,3.53,0,0,0,2.18-3.84,236.67,236.67,0,0,0-3.56-29.67,14.43,14.43,0,0,0-.44-1.43c-1.69,1.56-3.07,2.92-3.55,5.22A78.09,78.09,0,0,1,351.2,83.89c-.6.62-1.13,1.75-2.19,1.29-1.25-.54-.63-1.78-.49-2.67,1.72-10.56,6.33-19.89,12.36-28.58a53.48,53.48,0,0,1,5.87-7.75c3.18-3.14,4-6.91,4.13-11,0-1.09.07-2.17.15-3.25,0-.49,0-1.27.29-1.41,2.89-1.46,1.2-3.66.83-5.49a135,135,0,0,0-3.14-14c-.22-2.22-1.12-4.27-1.68-6.41-.17-.65-1-1.51,0-1.92s1.61.52,1.89,1.42c.79,2.5,1.53,5,2.29,7.52,1.19,5.52,2.34,11,3.59,16.55.18.78.05,1.89,1.36,2.08,5.2.78,9.19,3.87,12.84,7.27,6.93,6.46,14.55,12.18,20.79,19.38a37,37,0,0,1,4.5,6.58c.76,1.36,1.29,2.74.06,4.14a3.93,3.93,0,0,1-4.31,1.17,21,21,0,0,1-8-4.49c-7.79-6.52-14.86-13.83-22.41-20.61-.4-.36-.66-1-1.67-.87A246.38,246.38,0,0,1,381.36,72c2-.79,3.69-1.44,5.37-2.14.74-.3,1.49-.62,1.88.37s-.42,1.35-1.1,1.66c-1.28.58-2.59,1.08-4.06,1.69a4.26,4.26,0,0,1,1.76,1.3c6.8,9.57,13.41,19.24,18,30.13a32.32,32.32,0,0,1,1.54,5.25c.38,1.6.31,3.26-1.18,4.29s-3,.65-4.51-.11a14,14,0,0,1-4.51-3.88c-6-7.64-10.67-16-12.86-25.62-.48,9.59-1.35,19.1-2.42,28.57,1,.4,2-.86,2.64.28s-.41,1.43-1,2c-.81.85.09,1.54.4,2.22,4.61,10,9.42,20,13.35,30.33a17.38,17.38,0,0,1,1.36,7.29,4.15,4.15,0,0,1-2.54,4,4.61,4.61,0,0,1-4.71-.67,15,15,0,0,1-4.18-5.21A71.93,71.93,0,0,1,376.87,131C375.93,129.94,376.37,131.44,376,131.44Z"/><path class="cls-2" d="M574.25,11.51c-3.93,5.62-2.15,11.44-.81,17.37a221.54,221.54,0,0,1,4.74,39c.11,2.56-.67,3-3.15,2.17s-3.48-2.73-4.28-4.88c-1.62-4.33-1.83-8.94-2.4-13.46a122.42,122.42,0,0,1-.51-22.16c.32-1.46.29-1.54-.51-1.45a152.56,152.56,0,0,0-6.2,26.57c1.06-.44,1.23-1.93,2.27-1.42s.6,1.62.46,2.46c-1.1,6.37,1.28,12.07,3.26,17.89,3.14,9.2,6.21,18.43,6.31,28.32,0,.86.5,2-.65,2.41-1.38.47-1.58-.91-2-1.72a82.08,82.08,0,0,1-9.47-38.08c0-2.05-.84-3.83-1.42-6.52-1,3.28-1.75,5.85-2.55,8.41-3.1,9.81-7.76,18.56-16.63,24.45-.47.31-1.06.6-.83,1.35,1.59,5.32,1.32,10.85,1.76,16.29.61,7.7.82,15.44,1.08,23.16.13,3.8-.42,7.49-3.16,10.46-.56.61-1.1,1.43-2,1.12s-.73-1.2-.82-1.93a174.74,174.74,0,0,1-.12-40.05c.3-2.71.61-5.42.94-8.28a4.83,4.83,0,0,0-4,3.35c-4.17,10.51-8.66,20.88-14.66,30.51a29.69,29.69,0,0,1-6,7.3c-1.33,1.12-2.87,1.9-4.59,1.13s-2.4-2.4-2.49-4.29a17,17,0,0,1,1-6.36c4.1-12.1,11-22.13,21.83-29.17.56-.36,1.17-.64,1.72-1s1.56.76,1.42-.54c-.1-1-1.09-.53-1.65-.45A50.39,50.39,0,0,1,508.88,92a51.07,51.07,0,0,1-14.34-6.86c-1.64-1.11-1.61-2-.29-3.35,3.83-3.78,8.55-4.6,13.61-4.06,8.89,1,16.71,4.77,24.23,9.32.87.52,1.61,1.5,2.89,1a.78.78,0,0,1,1,.5c.42,3.24,2,1.38,3.13.66,9.46-6.2,14.2-15.53,17.14-26,0-.11-.11-.27-.25-.61a32.22,32.22,0,0,1-10,8.61,29.81,29.81,0,0,1-16.37,3.46c-.8,0-1.84.12-2.13-.89-.34-1.23.84-1.48,1.58-1.9A199.64,199.64,0,0,0,556.75,53c.94-.76,1.83-1.43,1.43-2.84-.09-.3-.08-.85.09-.95,3.13-2,2.4-5.52,3.21-8.36,1.35-4.7,2.37-9.5,4-14.14.18-.53.53-1,0-1.81a64.42,64.42,0,0,1-9.55,6.23c-5.08,2.54-10.25,4.78-16,5a10.6,10.6,0,0,1-6.43-1.58c-1.58-1-1.82-1.92-.28-3.25A67.74,67.74,0,0,1,566,15.56c2.16-.38,3.87-.86,3.84-3.48,1.54-3.3,3-6.68,5.75-9.18.7-.63,1.46-2.08,2.63-1s0,1.85-.7,2.71A18.93,18.93,0,0,0,574.25,11.51Z"/><path class="cls-2" d="M675.19,40c-5,.13-10,.35-15,.36-4,0-8-.27-12-.38a1.67,1.67,0,0,1-1.75-1c-.65-1.35-1.51-.7-2.51-.07,7.51,4.92,12.78,11.54,17,19.1,1.27,2.29,2.12,4.73,1.2,7.39-.72,2.13-1.84,2.33-3.3.6a131.82,131.82,0,0,1-16.61-25.13,4.16,4.16,0,0,0-3.35-2.46,123.24,123.24,0,0,1-16.18-4c-.28,1.12.48,1.53.89,2.06A90.85,90.85,0,0,1,633.86,53c1.48,3,2.53,6.19,1.75,9.61s-2,3.72-4.46,1.36a18.81,18.81,0,0,1-4.22-6.7c-3.28-7.63-6.28-15.38-9.1-23.2a4.1,4.1,0,0,0-2.34-2.65,37.66,37.66,0,0,1-8.71-5.3c-.7-.58-1.41-1.26-2.36-.33s-.07,1.55.28,2.19c2.89,5.42,6.32,10.56,8.47,16.37,1.71,4.64,2.44,9.34.42,14.07-.43,1-.74,2.45-2.13,2.52s-1.65-1.27-2.21-2.13c-3-4.56-3.76-9.9-5-15.06-1.58-6.79-3.49-13.63-3.62-20.56-.08-4.53-3.92-6.41-4.43-10.24l-.58.19c0,1.9-.09,3.81,0,5.71a66,66,0,0,1-1.44,19.57,44.18,44.18,0,0,1-1.7,4.93c-.2.53-.46,1.11-1.15,1.19s-1.17-.52-1.49-1.11C588,39.86,588.21,36,588.51,32.2a115.91,115.91,0,0,1,3.37-20.1c1.46-2.52.48-5.41,1.23-8,.2-.71-.37-1.94.88-2a2.39,2.39,0,0,1,2.43,1.75c.93,2.73,1.46,5.61,2.82,8.2,1.32,1.24,1.57,3,2.41,4.55.64,1.13,1.09,1.25,1.94.19a13.2,13.2,0,0,1,6.18-4.74A103,103,0,0,1,626,3.67c.68-.26,1.51-1.17,2.21-.17s-.23,1.69-.86,2.29c-2,1.93-4.13,3.8-6.19,5.7-.55,1.33-1.77,2-2.88,2.64A68.3,68.3,0,0,1,608,19.62c-3,1.17-2.93,1.26-.69,3.42,2.49,2.4,5.53,3.93,8.48,5.6,1.32.76,2.23.36,3.21-.76a84.1,84.1,0,0,1,15.07-14,13.72,13.72,0,0,1,3.25-1.78c1.68-.61,3-1.84,4.85-2.3,1.56-.4,2.73-.2,3.56,1.25.86,2.48-.94,3.94-2.32,5.36a70.29,70.29,0,0,1-10.48,8.42c-3.28,2.25-6.67,4.34-10.35,6.55a82.26,82.26,0,0,0,15.53,3.93,2.63,2.63,0,0,0,2.68-1.44,75.61,75.61,0,0,1,14.63-15.21,32,32,0,0,1,8.77-5.18c2-.79,3.95-.67,5.45,1.09s1.41,3.65.41,5.59a16.18,16.18,0,0,1-4.63,5.17c-4.55,3.61-9.09,7.27-14.7,9.9,0,0,.5.44.34.15,0-.07,0-.14.08-.16a91.32,91.32,0,0,1,22-1.77,7.19,7.19,0,0,1,2.53,1c1.6.43,3.2.83,4.79,1.29.56.16,1.13.4,1.22,1.09s-.48,1.16-1.07,1.5C679,39.32,677,39.47,675.19,40Z"/><path class="cls-2" d="M518.88,12c1.65,5,3.93,9.86,5.15,15.06a49,49,0,0,1,.76,14.14c-.12,2.07-1.22,2.1-2.68,1.16a9.92,9.92,0,0,1-3.8-5.11,74.53,74.53,0,0,1-3.48-12.46,5.42,5.42,0,0,0-.91-2.41c.18,3.56.25,6.79.53,10A96,96,0,0,0,515.63,42c.61,3.26,1.59,6.45,2.37,9.68,1,4.36,2.1,8.72,3.09,13.09.81,3.6.21,5.37-1.89,5.87-2.33.56-4.13-.92-5-4.39a63.68,63.68,0,0,1-1.45-11.6c0-.88-.08-1.75-.14-3.23-1.06,1.58-1.76,2.67-2.49,3.73a6.49,6.49,0,0,1-3.49,2.69,2.94,2.94,0,0,1-3.88-2.7,7.34,7.34,0,0,1,1.35-4.71c1.78-2.71,3.67-5.34,5.49-8a14.88,14.88,0,0,0,2.87-10.74,161.94,161.94,0,0,1-.93-16.75c-1.77,3-3.46,6.13-5.33,9.11-2.37,3.8-4.88,7.53-7.35,11.27a8.12,8.12,0,0,1-2.7,2.55c-.69.4-1.42,1.06-2.28.43s-.36-1.49-.09-2.24a123.44,123.44,0,0,1,9.12-20.73,3.49,3.49,0,0,0,.56-1.84c-.81.46-1.63.93-2.45,1.38-4.76,2.56-9.5,5.16-14.3,7.64a17.16,17.16,0,0,1-7.13,2c-1.81.08-2.39-.62-1.27-2.21,2.27-3.2,5.22-5.8,7.78-8.74l1.31-1.49c2.94-2.55,5.63-5.39,8.85-7.62,2.4-1.67,4.87-3.19,8-3,1.51.11,2.77.21,2.6,2.37a15.24,15.24,0,0,0,.76,4c1.82-1.49,3-3.41,4.73-4.81,1.47-1.19,2.12-.77,2.75.62C516.38,6.45,517.62,9.24,518.88,12Z"/><path class="cls-3" d="M325,16A206.17,206.17,0,0,1,291.32,44.5c-.54.38-1.11.73-1.65,1.12s-1.23.76-1.83.29-.31-1.34.07-2A108.82,108.82,0,0,1,315.45,12,83.3,83.3,0,0,1,330,3.62c.68-.29,1.39-.87,2.09-.36s.26,1.37.15,2.08c-.26,1.54-.54,3.09-.82,4.63-2.13,9-4,18-6.46,26.86C320.84,52,316.21,67,309.59,81.28c-.39.85-.51,2.26-1.76,2.13s-1.24-1.61-1.46-2.6a31.28,31.28,0,0,1,.93-15.52,313,313,0,0,1,18.21-48.72C325.72,16,325.51,15.82,325,16Z"/><path class="cls-3" d="M335,12c-1.09,5.39-1.46,10.86-2,16.31-2.06,19.87-2.93,39.81-3.29,59.77-.19,10.46.49,20.92,1,31.36.4,7.42-.09,14.8-.32,22.2-.05,1.64-.93,2-2.3,1.69-2.7-.6-3.66-2.7-4.12-5.08-1-5-.64-10.11-.62-15.18a78.63,78.63,0,0,1,3-22.91c1.5-4.91,1.25-9.82,1.33-14.72q.3-17.72,1.37-35.4c.71-11.78,1.83-23.54,3.27-35.26.11-.9.12-1.82.18-2.73.44-2.6.89-5.19,1.3-7.79.14-.9.14-2.14,1.35-1.93s.76,1.47.68,2.31C335.65,7.14,335.31,9.59,335,12Z"/><path class="cls-3" d="M2.28,213.31C.35,213.12.43,212,1.06,210.52q3-7,6.7-13.64A159.24,159.24,0,0,1,36.81,159c.65-.62,1.33-1.91,2.4-.75.91,1-.16,1.69-.81,2.23-4.11,3.34-6.52,7.74-8.53,12.58-4.79,11.55-11.54,22.06-18,32.7a23.88,23.88,0,0,1-4.33,5.14A10.09,10.09,0,0,1,2.28,213.31Z"/><path class="cls-3" d="M344.52,12c.84,7.5,1.69,15,1.34,22.58A126.82,126.82,0,0,1,342,60.9c-.19.72-.25,1.59-1.22,1.62s-1-1-1.17-1.62a104.31,104.31,0,0,1-2.12-16.51,217.32,217.32,0,0,1,.37-28.87c.09-1.15,0-2.32,0-3.48.27-2.71.53-5.42.83-8.13.08-.71.11-1.66,1.16-1.56s1,1.08.94,1.91c-.14,2.22-.29,4.45-.43,6.67.83,7-.41,14-.24,21s.2,13.74.8,20.58a4,4,0,0,0,0,.84,4.18,4.18,0,0,1,0-.71,146,146,0,0,0,1.76-28.32c-.09-2.75-.42-5.47-.75-8.18a10.25,10.25,0,0,1,.54-5.57C343.89,10.11,344.26,11,344.52,12Z"/><path class="cls-3" d="M229,185.31v.51a33.36,33.36,0,0,1-.43,3.6,219.35,219.35,0,0,1-8,46.25c-.53,1.89-1.58,1.93-3,1.33-2.54-1.08-3.3-3.35-3.65-5.82-.76-5.46.37-10.75,1.68-16a186.25,186.25,0,0,1,10.58-30c.34-.76.41-1.91,1.74-1.73C229.1,183.68,228.53,184.79,229,185.31Z"/><path class="cls-3" d="M172,262.36A19.23,19.23,0,0,1,174.6,254c5.84-11.25,12.45-22,21.2-31.27.69-.72,1.31-2.27,2.49-1.3A3.18,3.18,0,0,1,199,225c-.6,1.46-1.4,2.83-2.14,4.22q-8.12,15.3-16.23,30.61a16.69,16.69,0,0,1-3,4.28c-1,1-2.11,1.93-3.73,1.28A2.91,2.91,0,0,1,172,262.36Z"/><path class="cls-3" d="M96.63,271.29c-12.35-9.45-24.72-18.87-37.31-28-.92-.67-2.82-1.28-1.89-2.69,1.13-1.71,2.18.27,3,.86,13.5,9.86,27,19.78,40.13,30.07.46.36.9.74,1.36,1.1.62.5,1.12,1.08.72,1.91s-1.1.55-1.77.49A53.88,53.88,0,0,1,65.6,258.37a10.26,10.26,0,0,1-1.17-1.3,1.13,1.13,0,0,1,.06-1.59,1.06,1.06,0,0,1,1.56.09c.92.85,1.77,1.77,2.67,2.63A48.75,48.75,0,0,0,95.1,271.79C96.35,272.16,96.45,272.13,96.63,271.29Z"/><path class="cls-4" d="M276.46,110,272.11,98.9c2.05-.58,1.07,1.6,1.92,2.11q1.44,4.23,2.86,8.48A.87.87,0,0,1,276.46,110Z"/><path class="cls-5" d="M246.12,108.77c-.33-1.29-.65-2.58-1-3.87a.84.84,0,0,1,.43-.51,32.19,32.19,0,0,1,1.93,6C245.65,111,246.5,109.38,246.12,108.77Z"/><path class="cls-6" d="M244.51,100.9c-1.81-.49-.88-2.54-2-3.45.3-.58.66-1.1,1-.06S244.19,99.73,244.51,100.9Z"/><path class="cls-1" d="M277.94,116.57c-.37-1.4-1.16-2.75-.43-4.25a9.92,9.92,0,0,1,.88,3.63C278.28,116.19,278.25,116.48,277.94,116.57Z"/><path class="cls-7" d="M241,93a1.71,1.71,0,0,1,.19-2.54,7,7,0,0,1,.94,3,.57.57,0,0,1-.5.15C241.24,93.52,241.5,92.84,241,93Z"/><path class="cls-8" d="M245.57,104.39l-.43.51c-.19-1.19-1.31-2.23-.58-3.57A8.9,8.9,0,0,1,245.57,104.39Z"/><path class="cls-9" d="M247.09,111.82c.16-.24.31-.48.46-.72.89,1.13,1,2.55,1.39,3.85a.9.9,0,0,1-.62.25.85.85,0,0,1-.5-.45C247.72,113.74,247.06,112.87,247.09,111.82Z"/><path class="cls-10" d="M228.62,189.42c0-1.22-.46-2.49.43-3.6a1.5,1.5,0,0,1,.44,1.63C228.71,187.89,229.21,188.89,228.62,189.42Z"/><path class="cls-11" d="M304.56,184.9c0-.51,0-1,0-1.53.23-.3.35-.79.9-.48,0,1.2.31,2.43-.38,3.55C304.87,185.93,305.13,185.28,304.56,184.9Z"/><path class="cls-12" d="M300,157.39c-.43-1.1-1-2.18-.52-3.42C299.82,155.08,300.6,156.13,300,157.39Z"/><path class="cls-13" d="M241.65,93.46h.43c.25.58.52,1.16.74,1.76.11.31.09.73-.38.57-.23-.07-.34-.5-.5-.77C241.89,94.49,241.14,94.09,241.65,93.46Z"/><path class="cls-14" d="M301.44,163.35a3.26,3.26,0,0,1-.47-2.9A4.5,4.5,0,0,1,301.44,163.35Z"/><path class="cls-8" d="M276.46,110l.43-.53c.21.64.41,1.29.62,1.94C276.29,111.6,276.59,110.65,276.46,110Z"/><path class="cls-10" d="M229,185.31l-1-1.83.53-.13C229.3,183.86,229,184.64,229,185.31Z"/><path class="cls-15" d="M304.57,177.87a2,2,0,0,1,.34.06c0,.81.06,1.62.08,2.43a3.25,3.25,0,0,1-.44,0C304.55,179.51,304.56,178.69,304.57,177.87Z"/><path class="cls-7" d="M248.48,114.94h.46c.18.66.35,1.32.53,2h-.36A1.35,1.35,0,0,1,248.48,114.94Z"/><path class="cls-1" d="M277.94,116.57l.45-.62c.06.61.13,1.22.2,1.83l-.47.63Z"/><path class="cls-16" d="M233.53,106v-2.45a1.74,1.74,0,0,1,0,2.45Z"/><path class="cls-17" d="M223,108.49c-.19.34-.35,1-.56,1-.69,0-.33-.48-.22-.76s.32-.3.48-.45Z"/><path class="cls-3" d="M159.61,70.48c-.61-1.21-1-2.55-2-3.5,0-.88-.45-2,.79-2.28,1-.22,1.25.94,1.58,1.64A32.74,32.74,0,0,0,172,80c.55.36,1.14.68,1.73,1a5.58,5.58,0,0,0,1,.26,30.83,30.83,0,0,0-8.15-19.11,30.33,30.33,0,0,0-6.26-5.31c-.62-.39-1.37-.87-.83-1.78.65-1.07,1.43-.48,2.12,0,9.74,6.61,14.83,15.86,15.54,27.57a2.29,2.29,0,0,1-.61,1.81c-6.8-2.26-11.84-6.76-15.9-12.5C160.25,71.45,159.94,71,159.61,70.48Z"/><path class="cls-18" d="M211.28,52.39c1.64,7.83,3.34,15.27,6.69,22.21,2.49,5.16,5.57,9.85,10.6,12.9,1,.62,1,1.12.24,1.9q-5.87,6.13-11.67,12.3c-.72.76-1.13.69-1.65-.19a101.23,101.23,0,0,0-9.89-13.75,2.37,2.37,0,0,1-.54-2.08c1.78-10.63,3.56-21.27,5.75-31.84C210.89,53.46,211.05,53.1,211.28,52.39Z"/><path class="cls-18" d="M203.14,96.71c.67.36.69,1,.79,1.53a27,27,0,0,0,2.1,6.9c1.69,3.47,2.77,6.6.67,10.6-1.73,3.29.59,5.14,4.72,4.46,1.27-.21,2.34-1.33,4-.31,2.3,1.45,2.89,2.73,1.82,5.45-1.57,4-1.52,8.22,1.66,11.69.7.77.34,1.11-.08,1.59a119.9,119.9,0,0,0-8.32,11.11c-.66,0-.77-.42-.91-.76a90.44,90.44,0,0,0-9.32-17,7.3,7.3,0,0,1-1.16-4.68C199.88,117,201.53,106.89,203.14,96.71Z"/><path class="cls-18" d="M243.52,34.56c-.81,12.53-2.4,25-3.79,37.46-.09.83-.22,1.65-.28,2.48-.49,6.11-.56,6.23-6.11,9.9-.39-2.74-.67-5.44-1.16-8.09a45,45,0,0,0-4.11-12.25,2.55,2.55,0,0,1,.22-3.15,79.9,79.9,0,0,0,8.4-13.25,2.51,2.51,0,0,1,2.25-1.61,2.35,2.35,0,0,0,2.26-3C240,39.14,242.14,36,243,32.54,244.28,33,243.6,33.83,243.52,34.56Z"/><path class="cls-18" d="M224.15,56.91a61.87,61.87,0,0,0-7.82-9.1c-1.76-1.59-1.78-1.57-3.84-.81.8-7.76,2.93-15.22,4.5-22.78a4.44,4.44,0,0,1,.58-1.61c.79-1.12,1.44-2,2.45.07a101.4,101.4,0,0,0,10.4,17.51c.79,1,.52,1.73,0,2.66C227.77,47.08,225.33,51.4,224.15,56.91Z"/><path class="cls-19" d="M223.4,133.36A72.59,72.59,0,0,0,234,102.28c.08-.82.75-2-.65-2.23s-1.3,1-1.37,1.93c-.73,10.31-4.43,19.7-9,28.8-.69,1.36-1.18,3.77-3.26,3-1.89-.69-1.15-2.86-.8-4.43.66-2.86,1-5.71,3.27-8.12,1.48-1.6,1.21-4.33,2.28-6.44,4.29-8.53,8.38-17.17,12.55-25.76.45-.18.64-.05.5.44q-2.16,13-4.31,25.94c-.17,1.06-.18,2.16-.43,3.2-.75,3,.47,6.92-1.87,9.09s-4.65,4.1-7,6.16C223.46,134,223.24,133.89,223.4,133.36Z"/></g></g></svg>