<svg xmlns="http://www.w3.org/2000/svg" viewBox="0 0 243.57 24.5"><defs><style>.cls-1{fill:#3d685f;}.cls-2{fill:#3e685f;}.cls-3{fill:#3e6960;}.cls-4{fill:#3f6960;}.cls-5{fill:#406a61;}.cls-6{fill:#4a7269;}.cls-7{fill:#688a82;}</style></defs><g id="圖層_2" data-name="圖層 2"><g id="圖層_1-2" data-name="圖層 1"><path class="cls-1" d="M71.53,19.36a3.56,3.56,0,0,0,1.38-1.94c-2-.18-3.85-1.22-6,.14-1.53,1-3.66-1-3.58-2.92a6.91,6.91,0,0,0,0-3,55.18,55.18,0,0,0-4,4.27c-1,1.3-2.53,2.06-3.63,1.61-2.11-.86-3.83-.08-5.68.41a3.7,3.7,0,0,1-4.51-1.63,2.29,2.29,0,0,0-4,.1c-1.17,1.81-2.81,2.54-4.69,1.78s-1.81-2.64-1.47-4.5a41,41,0,0,1,3.76-11.3,7.36,7.36,0,0,1,.46-.88C40.22.57,41-.35,42.22.13s1,1.71.75,2.62a27.18,27.18,0,0,1-4.13,9,6.53,6.53,0,0,0-1.39,2.61c-.15.88-.2,1.73.79,2.11s1.33-.43,1.7-1.07a6.63,6.63,0,0,0,.58-1.37c.41-1.18,1-1.74,2.16-.75,1.73,1.47,2.17.6,2.37-1.19S45.86,8.82,48,8.65c1.68-.14,2.43.68,1.86,2.25a33.36,33.36,0,0,1-1.93,3.76c-.83,1.61-.13,2.24,1.45,2s3.28-.41,2.72-2.79a2.68,2.68,0,0,1,.2-1.22c.23-.9.11-2.21,1.67-1.87s.87,1.5.54,2.34c-.49,1.25-.89,2.6.57,3.24s2.1-.83,2.76-1.85a3.42,3.42,0,0,0,.56-1.11c.76-3.7,4.09-3,6.53-3.77,1-.31,1.28.59,1.18,1.4a8,8,0,0,1-.6,1.63c-.46,1.3-1.44,3,.26,3.73s3.29-.52,4-2.09a9.26,9.26,0,0,1,3.1-4.1,2.52,2.52,0,0,1,3-.18c.88.66.54,1.65.19,2.53-.51,1.31-1,2.61-1.62,4.07,1.8.32,2.78-1.37,4.91-1.7-2,2.91-5.76,2.91-7,5.8C71.41,20.71,71.36,20.1,71.53,19.36Z"/><path class="cls-1" d="M215.93,14.16c-.45.53-.71.84-1,1.14-.94,1.09-2.12,2.45-3.53,1.73-1.64-.83-.93-2.68-.48-4.05a5.63,5.63,0,0,1,4.61-4.06A3.11,3.11,0,0,0,218,7.11c1.15-2,2.44-4,3.71-5.91C222,.75,222.32,0,223,.49c.44.28.38.91.23,1.38a13.64,13.64,0,0,1-2.12,3.94A18.71,18.71,0,0,0,218,13.34a2.3,2.3,0,0,0,.83,2.68c.91.53,1.76,0,2.57-.44a5.38,5.38,0,0,0,2.06-2.09,7.49,7.49,0,0,1,3.68-3.58,2.58,2.58,0,0,1,2.62.15c.81.67.64,1.66.43,2.56-.13.57-.37,1.1-.54,1.66-.26.85-.81,2,.53,2.18,1.08.12,2.58,0,2.67-1.83a33.18,33.18,0,0,1,.59-4.43c.14-.73.51-1.56,1.46-1.38,1.14.22,1,1.17.79,2-.41,1.4-.89,2.78-1.44,4.46a4.4,4.4,0,0,0,3-2.43,22,22,0,0,0,1-2.26c.58-1.23,1-3.3,2.63-2.62,1.25.51,0,2.21-.42,3.29a19.51,19.51,0,0,0-1.28,4.8c1.67.13,2.71-1.41,4.29-1.28-.21,1.22-1.1,1.55-1.86,2a13.72,13.72,0,0,0-4.94,4.78c-.43.77-.87,1.62-1.86,1s-.63-1.54.05-2.32,2.46-2.12,1.57-2.93a4.25,4.25,0,0,0-4.32-.17,3.09,3.09,0,0,1-3.5.13c-.77-.52-1.37-.19-2.08.09-1.32.52-2.72,1.08-3.73-.55-.54-.88-1-.11-1.44,0C218.38,17.89,217.42,17.49,215.93,14.16Z"/><path class="cls-2" d="M29.14,15.05a5.3,5.3,0,0,1-4.93,2.12c-2-.22-1.65-1.94-1.69-3.33,0-.62.27-1.38-.74-1.56s-1,.55-1.39,1c-1.2,1.28-2.08,3.66-4.61,2-.81-.53-.92.26-1.28.66-1.79,2-3,2.21-5.23.75C8.15,16,3.9,18,3.53,19.47a14,14,0,0,1-1,3.82c-.39.65-.86,1.44-1.71,1.15s-.84-1.2-.71-1.94a13.63,13.63,0,0,1,.78-2.88Q3.95,12.06,7.15,4.54c.26-.63.39-1.72,1.38-1.41s.77,1.33.62,2.15c-.53,2.94-2.37,5.27-3.7,7.84C5,14.05,3.86,14.78,4.19,16c.17.59,1,.5,1.55.37,1.41-.34,2.75-.87,3.11-2.49A6,6,0,0,1,13,9.3c1.86-.7,2.83-.18,3.09,1.78.08.58,0,1.18.13,1.74s.18,1.5,1,1.57,1.28-.55,1.53-1.35c.54-1.74,1.16-3.46,1.72-5.19.24-.72.38-1.6,1.34-1.53,1.21.09.62,1.12.73,1.76.16.94-.77,2.65,1.55,2,.72-.21,1,.44.86,1.12a11.81,11.81,0,0,1-.44,1.43c-.37,1.12-.88,2.4.25,3.22s2-.35,2.88-.8c.37-.18.73-.39,1.09-.58Z"/><path class="cls-2" d="M131.29,7.4c.27-.16.63-.57.93-.53,3,.43,4-1.61,4.88-3.87a5,5,0,0,1,.6-1.08c.59-.81,1.3-2,2.29-1.53,1.17.55-.14,1.53-.22,2.34a3.28,3.28,0,0,1-.44,1.42c-1.47,2.15-.63,2.9,1.74,2.71-.16.25-.21.42-.33.5-1,.69-2.77-.37-3.26,1.21-.73,2.36-1.76,4.7-1.53,7.24.1,1.21.91,1.68,2.16,1.12a20.72,20.72,0,0,1,4.3-1.46c-.45,1.55-2.07,1.79-3.22,2.42-1.93,1.05-4,1.66-5.2-1.08-.39-.9-.87-.38-1.39-.21-3.85,1.25-4.4.91-4.65-2.91,0-.56.17-1.21-.66-1.39s-1.22.13-1.43.94-.72,1.69-1.47,1.36c-1.06-.46-.21-1.41,0-2.11.45-1.51,1-3,1.45-4.49.25-.8.38-1.81,1.46-1.67s.59,1.17.64,1.84c.07,1.06-.56,2.57,1.64,1.88.64-.2.93.54.76,1.21s-.31,1.12-.5,1.67c-.44,1.24-.74,2.83.81,3.06a2.83,2.83,0,0,0,3.14-2.28,36.88,36.88,0,0,0,.55-4.44C134.53,6.63,132.08,8.57,131.29,7.4Z"/><path class="cls-3" d="M165.39,14.82a4.39,4.39,0,0,1-3.48,2.47c-1.9.29-2.64,1.38-2.9,3.14s-.44,4.37-2.44,3.76c-1.73-.52-.47-3,0-4.65a12.43,12.43,0,0,1,.86-2.06c.44-.83.24-1.28-.55-1.8s-1.18-.51-1.79.28c-1.14,1.48-2.69,2.38-4.53,1.44-1.4-.72-1.46-3.34-.47-5.25a6.17,6.17,0,0,1,4.33-3.08c1.73-.43,2.24.9,2.44,2.34.14,1-.36,2.73.81,2.82,1.33.1,1.87-1.47,2.33-2.79.88-2.51,2-4.92,3-7.37.23-.53.54-1.14,1.25-1S165,4,165,4.54a7.28,7.28,0,0,1-1,3.56c-1.07,2-2.23,3.89-3.29,5.87-.35.66-1.33,1.37-.51,2.15.63.61,1.56.22,2.36-.07S164,14.66,165.39,14.82Z"/><path class="cls-3" d="M193.37,14.73c-1.26,3-3.5,3.79-6.22,2.09-.41-.26-.79-.75-1.31-.36-2.38,1.78-4.39.46-6.36-.8-.6-.38-1-.87-1.56,0-1.18,1.72-2.77,2.83-4.8,1.61-1.6-1-1.4-3.76.07-5.86a5.73,5.73,0,0,1,4-2.36c2.25-.28,2.24,1.64,2.27,3.25,0,.67,0,1.53.62,1.79.91.36.82-.79,1.26-1.19.12-.11.15-.31.27-.42.87-.76,1.38-2.7,2.68-2,1.07.56-.42,1.81-.62,2.78-.16.79-.83,1.79,0,2.26s1.5-.53,2-1.15c.76-1,1.34-2.08,2-3.12.39-.59.61-1.53,1.64-1s.23,1.14.09,1.71c-.21.89-.5,1.76-.73,2.64-.17.64-.4,1.33.27,1.83s1.25-.08,1.84-.31c.91-.36,1.57-1.25,2.64-1.31Z"/><path class="cls-4" d="M108,16.72c-1.76-.64-2.81.07-3.42,1.72a16.88,16.88,0,0,1-1.14,2.48c-.29.52-.56,1.35-1.44.94a1.15,1.15,0,0,1-.45-1.54c1.29-2.86,2-5.92,3-8.86.23-.64.78-3,2.17-.48.3.54.92-.37,1.35-.65.78-.51,1.71-1.17,2.49-.74s.35,1.65.41,2.53c.16,2.23-1.86,2.89-3,4.15.15.1.21.19.16.29S108,16.72,108,16.72Z"/><path class="cls-4" d="M108,16.72c0-.15,0-.3,0-.45,2.35.74,4-.05,5.06-2.25a8.72,8.72,0,0,1,3.65-4,2.65,2.65,0,0,1,2.84,0c.87.6.57,1.64.51,2.54-.08,1.26-1.56,2.71-.45,3.65,1.31,1.12,2.67-.61,4.18-.71-.92,1.25-2.17,2.54-3.72,2.14-1.75-.44-3.45.22-4.86-.06C112.76,17.08,110.24,17.82,108,16.72Z"/><path class="cls-5" d="M96.54,15.49c-1.49,1.59-3.05,3.13-5.46,1.65-.93-.58-1.53.24-2.28.43-1,.24-2,.55-2.84-.2a2.46,2.46,0,0,1-.35-2.8A7.3,7.3,0,0,1,90,9.83c2.11-.7,3.18.38,2.9,2.55-.18,1.35-2,2.84-.31,4C93.81,17.18,95.11,15.55,96.54,15.49Z"/><path class="cls-5" d="M193.42,14.77c-.21-2.76,1.69-4.95,2-7.58a1,1,0,0,1,1.29-.88c.79.17.54.87.63,1.41.17,1-1.1,3.05,1.64,2.31.49-.13.83.47.7,1.06-.07.32-.21.63-.3.95-.34,1.25-1.17,2.72.06,3.72s2.18-.54,3.25-.95l.94-.38a4.37,4.37,0,0,1-4.52,2.81c-2.07-.22-1.76-1.81-1.84-3.19,0-.67.4-1.53-.76-1.77s-1.22.61-1.48,1.27a1.61,1.61,0,0,1-1.69,1.18Z"/><path class="cls-6" d="M71.53,19.36l.86,1.35a5.71,5.71,0,0,1-3,3.12c-.63.29-1.27.61-1.74-.15a1.37,1.37,0,0,1,.2-1.82c.78-.71,1.47-1.6,2.67-1.63.3.63-.12,1-.85,1.83.78-.79,1.29-1.14.82-1.8C70.57,19.65,71.07,19.54,71.53,19.36Z"/><path class="cls-7" d="M56.11,5.81c.62,0,1.06.15,1.1.6s-.35.72-.8.71-.82-.28-.79-.73C55.63,6.16,56,6,56.11,5.81Z"/></g></g></svg>