<svg xmlns="http://www.w3.org/2000/svg" viewBox="0 0 560.81 272.43"><defs><style>.cls-1{fill:#544116;}.cls-2{fill:#544117;}.cls-3{fill:#554217;}.cls-4{fill:#564218;}.cls-5{fill:#bbb19f;}.cls-6{fill:#f0e8d8;}.cls-7{fill:#f0ede7;}.cls-8{fill:#f1eee8;}.cls-9{fill:#eae6df;}.cls-10{fill:#ece9e1;}.cls-11{fill:#bcb2a0;}</style></defs><g id="圖層_2" data-name="圖層 2"><g id="圖層_1-2" data-name="圖層 1"><path class="cls-1" d="M205.06,78.84c-.56.37-1.09.77-1.67,1.09A22.83,22.83,0,0,0,192.23,93.2,22,22,0,0,1,180,106.64,4.51,4.51,0,0,0,177.3,110a37.82,37.82,0,0,0-.72,13.86,15.56,15.56,0,0,1,.06,4.72c-.15.94-.62,1.75-1.78,1.73a1.7,1.7,0,0,1-1.79-1.69c-.63-4.51-1.38-9-1.88-13.54a155.54,155.54,0,0,1-1-25.62c.2-3.56.54-7.11.86-11.34-4.25,4-10,5.37-11.93,11.57-2.33,7.5-6.63,13.76-14.16,17.14a4.13,4.13,0,0,0-2.22,3.12,40.3,40.3,0,0,0-.78,14.1,23,23,0,0,1,.15,4.23c-.08,1-.44,2-1.77,2s-1.89-.82-2-2c-.74-6.11-1.62-12.21-2.21-18.33a126,126,0,0,1-.1-26.41,7.79,7.79,0,0,0-.09-1.26c-1.16.9-2.12,1.63-3.07,2.39-8,6.38-15.72,3.9-18.4-5.92-.11-.4-.21-.8-.34-1.34-1.22.51-1.52,1.69-2,2.62a70.4,70.4,0,0,1-4.57,7.71,4.33,4.33,0,0,1-5,1.72c-2.06-.54-2.63-2-2.86-3.88-.59-4.92.93-9.36,2.91-13.7,1.12-2.45,1.15-2.49-1.67-2.36-8.67.41-17.17,2-25.65,3.69-2.09.42-4.84.12-6.06,1.7s-.88,4-1.18,6q-2.73,18.75-5.41,37.52a19.89,19.89,0,0,0,.41,6.37,28.86,28.86,0,0,1-2,17.3c-.58,1.26-1.5,2.34-3.09,1.9s-2-1.88-2-3.36c.18-4.32.44-8.64.68-13a17.64,17.64,0,0,1,.23-2.73c1.22-5.54-1.83-8.7-6.14-11.21a35.39,35.39,0,0,0-18.41-4.61c-6.74,0-13.48,0-20.21.62-1.87.19-2.27,1-2.42,2.6-.87,9.35-1.73,18.71-2.22,28.09-.24,4.49-.6,9-.87,13.45-.1,1.7-.35,3.31-2.52,3.23s-2.62-1.65-2.58-3.33c.17-8.66.33-17.31.69-26,.22-5.31.77-10.61,1.21-15.92.1-1.24.1-2.18-1.5-2.57s-1.95-1.63-1.69-3.15a6.63,6.63,0,0,1,1.81-3.77A9.15,9.15,0,0,0,4.59,96C5.69,81.09,7,66.19,9.23,51.37,11.54,36,14.2,20.7,17,5.42c.31-1.66,1-3.14,2.64-3.09,1.86.06,2,2,2.11,3.48.32,4.78-.89,9.42-1.66,14.08C17.34,36.54,15,53.24,13.26,70c-.79,7.86-2,15.67-2.39,23.9L17.66,90A160,160,0,0,1,60.74,72.56c2.31-.56,3.12-1.58,3.52-3.85,3.9-22.1,8.56-44,15.33-65.46A7.12,7.12,0,0,1,80.68.76c.76-.94,1.77-.8,2.76-.65s.72,1.14.82,1.8a9.24,9.24,0,0,1-.54,3.93C78.79,23.28,75.09,41,71.53,58.75c-.74,3.72-1.15,7.51-1.74,11.46,6-1.15,11.82-2.41,17.67-3.35S99.11,64.6,105,66.07c1.09.28,1.29-.52,1.72-1a14.86,14.86,0,0,1,5.66-4.4,7.73,7.73,0,0,1,9.84,3.44c.45.91.93,1.87,0,2.71s-1.74.51-2.69-.12c-4.22-2.78-5.44-2.56-8.54,1.42a28.91,28.91,0,0,0-6.27,14.66A20.54,20.54,0,0,0,107.9,78c1.81-3.08,3.6-6.17,5.46-9.21.65-1.07,1.44-2.17,3-1.61a3,3,0,0,1,2,3.18,33.33,33.33,0,0,0,.55,7.19c1,4.31,3.31,6.38,6.65,6a5.9,5.9,0,0,0,2.75-1.1c4.75-3.47,9.13-7.15,9.59-13.72a26.92,26.92,0,0,1,2.54-9.6c.62-1.31,1.28-2.9,3.27-2.31s1.7,2.41,1.41,3.73a179.68,179.68,0,0,0-3,18.15,144.89,144.89,0,0,0-.9,18.21c1.29-1.25,1.44-2.76,1.94-4.06,1.44-3.79,2.72-7.64,4.17-11.43a19.06,19.06,0,0,1,3.4-5.78c1.5-1.68,3.24-3,5.63-2.54,2.54.49,3.6,2.51,4.27,4.74.79,2.63.76,2.64,3.07,1.06s4.62-3.28,7-4.77c1.3-.82,1.25-2.07,1.43-3.25a59.81,59.81,0,0,1,2-9.47,19.22,19.22,0,0,1,1.53-3.4,2.14,2.14,0,0,1,2.69-1.2,1.85,1.85,0,0,1,1.32,2.35c-.51,3.34-1.13,6.68-1.69,10a147.15,147.15,0,0,0-2.2,28.09,21.36,21.36,0,0,0,2.32-5.52,90.72,90.72,0,0,1,4.51-11.86,15.6,15.6,0,0,1,3.72-5.26c3.25-2.8,6.78-2,8.36,2,.46,1.15.76,2.36,1.18,3.67,2.71-1.28,4.79-3.56,7.43-4.88a9.47,9.47,0,0,0,5.38-6.5,8.21,8.21,0,0,1,2.15-3.6,2.81,2.81,0,0,1,3.39-.83c1.38.65,1.11,1.94.82,3.06-1.06,4.19-2.75,8.21-3.27,12.54-.14,1.14-.21,2.29-.33,3.7,2-.84,3.1-2.35,4.22-3.72,6.56-8.12,11.67-17.19,16.91-26.16,1-1.65,1.94-3.29,3-4.91a3,3,0,0,1,3.17-1.55c1.44.21,1.77,1.4,2,2.54a33.92,33.92,0,0,1,.74,7.18,211.71,211.71,0,0,1-.91,25.43c-.1.92-.59,2.22.28,2.76s1.61-.59,2.37-1c5.67-3.31,11.3-6.7,17-10a15.12,15.12,0,0,1,2.94-1.3,1.43,1.43,0,0,1,1.76.59,1.47,1.47,0,0,1-.31,1.82,12.79,12.79,0,0,1-3.9,3.07c-6.38,3.74-12.79,7.43-18.92,11.59a4.74,4.74,0,0,0-2.29,3.55c-1.87,12.31-4.36,24.48-9.37,36-2.69,6.16-6.15,11.81-11.78,15.82a18.46,18.46,0,0,1-5.31,2.69c-10.23,3.07-16.54-4.15-15.2-13.39.86-5.91,3.75-11,7.16-15.75a107.94,107.94,0,0,1,25.25-25.35c2.39-1.7,4.06-3.48,4.35-6.74.93-10.26,2.34-20.47,2.14-30.81a9.08,9.08,0,0,0-.27-1.18c-2.41,3.94-4.61,7.5-6.76,11.09A207.89,207.89,0,0,1,218,84a17.12,17.12,0,0,1-4.38,4.4c-3.26,2.06-6.6.66-7.45-3.12a17.07,17.07,0,0,1-.46-5.19C205.92,79.41,206.17,78.73,205.06,78.84Z"/><path class="cls-1" d="M336.81,82c-5,4.51-10.72,7.07-15.91,10.45-1.14.75-1.35,2.06-1.81,3.19-2.51,6.18-5.77,11.79-11.44,15.66a16.38,16.38,0,0,1-10.77,3.1c-4.11-.31-6.34-3.71-4.91-7.59a14.62,14.62,0,0,1,4.93-6.15,67,67,0,0,1,15.62-9.26,5.9,5.9,0,0,0,4-5.14,24.86,24.86,0,0,0-.06-8.69c-.94-3.91-3.19-4.64-6.32-2.16s-5.12,5.88-6.87,9.39c-1.4,2.81-2.52,5.77-3.87,8.62-.64,1.34-1,3.38-3.1,2.9s-2.15-2.41-2.19-4c-.09-3.91-.18-7.83.05-11.73.63-10.87,1.36-21.73,3.25-32.48a58.08,58.08,0,0,1,3.43-13c.68-1.62,1.43-3.94,3.68-3.33,2.51.68,1.46,3,1,4.66-3.35,14-4.93,28.22-6.31,42.5-.1,1,0,2.11,0,4,1.18-1.88,2-3.16,2.79-4.42,2.06-3.15,4.24-6.2,7.7-8,4.46-2.28,8.53-.87,10.81,3.63,1.53,3,1.6,6.23,1.47,9.5,0,.88-.42,1.78.07,2.82A45.57,45.57,0,0,0,335.94,77c1.69-1.71,1-4.6,1.47-6.94a28.21,28.21,0,0,1,1.66-5.72,3,3,0,0,1,3.85-1.88c1.95.55,1.84,2.22,1.54,3.69-1,5.13-2.08,10.24-1.86,15.51a19.55,19.55,0,0,0,1.68,7.21c1.15,2.59,2.67,3.09,5.23,1.82,3.88-1.93,6.72-5.08,9.64-8.18,3.67-3.9,6.52-8,6-13.75a6.84,6.84,0,0,1,.59-2.66c.42-1.24.7-2.65,2.59-2.41s2.2,1.48,2.12,3c-.16,3-.3,5.89-.49,9.49,4.23-4.81,9.33-3.09,14-3.17,2.48,0,3-.71,3-3a284,284,0,0,1,2.1-38.34c.26-2-.19-2.64-2.29-2.09-10,2.61-20,4.92-29.24,9.76-1,.51-2,.85-2.3,2.05a1.32,1.32,0,0,1-1.47,1.06c-1.29,0-2.88.49-3.57-1s.09-2.9,1.41-3.88c4-3,8.69-4.5,13.34-6.06A233,233,0,0,1,387.85,25a3.41,3.41,0,0,0,3-3.08,21.29,21.29,0,0,1,2.34-7.55c.71-1.21,1.58-2.56,3.29-2.1a2.9,2.9,0,0,1,2,3.37c-.28,2.05,1.38,4.83-1.89,6-.16.06-.3.62-.22.87.22.69.79.39,1.26.31,4.59-.77,9.18-1.56,13.77-2.31a95.6,95.6,0,0,1,12.18-1c1.94-.06,3.86.14,5.39,1.53a1.81,1.81,0,0,1,.57,2.44c-.54.84-1.64,1.41-2.35,1-3.57-1.93-7.22-.71-10.73-.27-6.58.82-13.07,2.21-19.62,3.23-1.51.24-1.83.87-2,2.25-.71,7.77-1.56,15.53-2.29,23.3-.22,2.4-.21,4.82-.24,7.23-.19,15.22-.6,30.44-.36,45.66,0,2.74.7,5.44.49,8.2-.11,1.46-.21,3-2,3.23s-2.71-1.1-3.09-2.7a45.87,45.87,0,0,1-.7-8.44q-.54-13.34-.07-26.7c.07-1.8-.3-2.53-2.29-2.37a69.74,69.74,0,0,1-7.23,0A4.39,4.39,0,0,0,373,79.35a21.85,21.85,0,0,0-3.57,11c0,3.52-.84,4.85-2.82,4.61-3-.36-1.9-2.81-2-4.5-.15-2.31,0-4.63,0-6.91-2.93,2.82-5.83,5.62-8.73,8.4a16,16,0,0,1-5.21,3.38c-4.68,1.84-9.18.07-11.53-4.5A22.73,22.73,0,0,1,336.81,82Z"/><path class="cls-1" d="M507.14,84.06a17.76,17.76,0,0,0,4.16-3.9C518,72,523.05,62.84,528.35,53.81l2.28-3.87c.88-1.48,1.89-2.93,3.88-2.49s2,2.29,2.19,3.8a53.85,53.85,0,0,1,.43,6.22,213.59,213.59,0,0,1-.85,25.67c-.08.74-.63,1.8.26,2.27.68.36,1.32-.49,1.94-.85,5.88-3.46,11.71-7,17.62-10.38,1.33-.77,3.17-2.44,4.37-.59s-1.07,2.89-2.34,3.7c-6.79,4.35-13.92,8.14-20.58,12.7a5,5,0,0,0-2.39,3.76c-1.82,12.24-4.32,24.33-9.31,35.74-2.68,6.15-6.13,11.83-11.74,15.85a18.17,18.17,0,0,1-4.83,2.55c-9.9,3.33-17.55-3.32-15.7-13.63,1-5.71,3.76-10.64,7.07-15.26a107.75,107.75,0,0,1,25.23-25.37c2.46-1.76,4.14-3.61,4.44-6.93.92-10.4,2.45-20.76,2-31.89-.82,1.22-1.36,2-1.86,2.77-5.35,8.42-10.06,17.23-16,25.31a23.18,23.18,0,0,1-4.5,5c-3.64,2.79-7.22,1.43-8.16-3.06-.18-.9-.37-1.79-.6-2.89-1.42,1.14-2.73,2.25-4.1,3.29C489.6,91,481.54,88,479.42,78.72c-.09-.39-.2-.78-.39-1.53a11.17,11.17,0,0,0-2.42,3.55,55.93,55.93,0,0,1-4.19,7.07,4.35,4.35,0,0,1-5.3,1.59c-2-.64-2.53-2.18-2.61-4.07-.38-8.79,3.22-16,9.12-22.14,2.43-2.53,5.51-4,9.26-2.77a7.16,7.16,0,0,1,3.79,2.71c.74,1.06,1.8,2.31.61,3.57s-2.42.26-3.44-.59c-1.75-1.46-3.57-2.29-5.53-.44-4.76,4.49-7.52,10-8.55,17.12,2.27-2.63,3.34-5.24,4.77-7.62,1.33-2.21,2.63-4.43,4-6.62.58-1,1.31-1.75,2.63-1.45a2.89,2.89,0,0,1,2.18,2.73c.33,2.47-.2,5,.56,7.44.25.79.39,1.62.7,2.38,1.62,3.95,4.84,5.21,8.42,2.84,4.72-3.13,8.84-6.94,10.91-12.45a14.91,14.91,0,0,1,2.48-4.57,2.83,2.83,0,0,1,3.55-1c1.46.7,1.1,2,.76,3.27-1.29,4.72-3.1,9.31-3.48,14.25C507.2,82.46,507.19,82.94,507.14,84.06Z"/><path class="cls-1" d="M214.22,209.15a3.66,3.66,0,0,0,2.53-.94c5.72-3.37,11.23-7.19,17.21-10a13.45,13.45,0,0,0,7-7.24,9.66,9.66,0,0,1,3.87-4.48c1.13-.66,2.36-1.05,3.37.18a2.4,2.4,0,0,1,0,3.4c-1.46,1.44-1,2.45.14,3.79a12.63,12.63,0,0,1,2.89,8.52,28,28,0,0,1-3.6,14.29c-2.29,3.89-5.68,5.82-8.65,5.08-2.81-.7-4.57-4-4.75-8.55a29.14,29.14,0,0,1,1.23-8.6c.26-1,.84-2,.64-3.26-7.25,4.2-14.47,8.28-21.29,13a3.77,3.77,0,0,0-1.47,3c-1.79,12.18-4.22,24.22-9.17,35.58-3.17,7.25-7.23,13.87-14.57,17.77A14.28,14.28,0,0,1,179.42,272c-5.32-1.24-8.41-6.32-7.86-12.55.46-5.38,2.78-10.07,5.69-14.47A106.34,106.34,0,0,1,204,217.35c2.54-1.84,4.26-3.74,4.55-7.13.91-10.32,2.44-20.58,2.07-31.2-1.13.49-1.43,1.49-1.92,2.27-5.48,8.62-10.31,17.65-16.39,25.9a18.23,18.23,0,0,1-4.69,4.78c-3.14,2-6.62.78-7.36-2.85-1.42-7,.57-13.45,4-19.51.76-1.35,2.15-2.3,3.8-1.56s1.15,2.27.78,3.68c-1.11,4.23-2.81,8.32-3.26,12.73-.09.89-.17,1.79-.28,2.89,1.91-.42,2.76-1.83,3.73-3,5.58-6.55,9.9-13.94,14.27-21.31,1.91-3.21,3.79-6.44,5.7-9.65.84-1.42,1.86-2.77,3.71-2.35s2,2.1,2.13,3.58c.89,8.13.59,16.27.21,24.41C214.84,202.42,214.48,205.77,214.22,209.15Z"/><path class="cls-1" d="M454.43,71.72l-3.57,8.66a44.87,44.87,0,0,1-3.85,7.8c-1.37,2.08-3,3.89-5.78,3.67s-3.75-2.41-4.41-5c-1.19,1.5-2.23,2.88-3.34,4.21a15.34,15.34,0,0,1-3.92,3.44c-3.58,2.11-6.52,1.12-8-2.73-1.21-3.15-1.3-6.49-1.55-9.79-.1-1.41,0-2.82,0-4.45-1.3.45-1.55,1.58-2,2.43a106.93,106.93,0,0,0-9.52,24.81,43.73,43.73,0,0,1-1.57,5,3.26,3.26,0,0,1-3.15,2.06c-1.47.09-2.24-.91-2.76-2.12-1.65-3.81-2-7.9-2.29-11.94a197,197,0,0,1,2.39-45.95,82.54,82.54,0,0,1,3.17-13c.57-1.68,1.37-3.26,3.5-2.64s1.4,2.45,1.21,3.79c-.68,4.86-1.63,9.68-2.29,14.54a212.12,212.12,0,0,0-1.76,46.05c.85-2.45,1.71-4.9,2.54-7.35A100.45,100.45,0,0,1,416,75a7.77,7.77,0,0,1,3.33-3.59c2.48-1.11,4-.45,4.73,2.15.82,3,.64,6.11.63,9.19a24.08,24.08,0,0,0,.85,6.65c.47,1.69,1.3,1.92,2.65.84a16.27,16.27,0,0,0,3.21-3.47,74.22,74.22,0,0,0,8.7-15.63A27.64,27.64,0,0,1,447,60.28c2-1.79,4.16-3.36,7.14-2.55,1.24.33,1-.73,1.22-1.37,2.09-6.52,2.58-13.37,4.19-20a27.42,27.42,0,0,1,2.33-7.07c.73-1.31,1.67-2.37,3.36-1.92s1.58,1.91,1.62,3.25a24,24,0,0,1-1.49,8.06c-6.09,18.74-6.36,38-5.54,57.43.25,5.88-.33,11.81,1.11,17.62.25,1,.27,2.24-1.23,2.56a2.41,2.41,0,0,1-3.12-1.74,43.78,43.78,0,0,1-1.74-12.3C454.48,92.12,454.88,82,454.43,71.72Z"/><path class="cls-1" d="M387.58,210.89a43.84,43.84,0,0,1-5.58,6.32c-4.45,3.7-8.43,2.53-9.89-3.06A48.65,48.65,0,0,1,371,201a6.17,6.17,0,0,0-2,2.72,111,111,0,0,0-9.79,25.77c-.3,1.21-.7,2.39-1.09,3.58a3.4,3.4,0,0,1-3.4,2.44c-1.64.06-2.32-1.11-2.83-2.39-1.47-3.67-1.75-7.59-2.15-11.46-1.15-11.23,0-22.42.73-33.62a129.43,129.43,0,0,1,4.13-23.22,34.63,34.63,0,0,1,1.34-3.73c.53-1.42,1.74-1.34,2.92-1.23,1.35.12,1.22,1.27,1.23,2.09a41.64,41.64,0,0,1-1.08,8.39,240.43,240.43,0,0,0-3.47,53.44c0,.12.14.24.37.64.76-2.19,1.48-4.18,2.14-6.19a100.7,100.7,0,0,1,8.6-19.05,11.06,11.06,0,0,1,2.9-3.71c2.52-1.79,4.89-.87,5.61,2.1.74,3.12.51,6.29.52,9.45a26.14,26.14,0,0,0,.82,5.9c.47,1.94,1.42,1.95,2.77.86a24.45,24.45,0,0,0,6.21-8.06c2.59-5.1,6.62-9.29,8.9-14.58a9.94,9.94,0,0,1,4-4.69c1.12-.68,2.37-1.05,3.4.12a2.54,2.54,0,0,1,0,3.62c-.67.82-1.62,1.52-.51,2.72,4.67,5,3.92,11,2.68,17a19.14,19.14,0,0,1-4.28,8.91c-1.93,2.16-4.26,3.71-7.25,2.8S388.43,218,388,215.2C387.78,214,387.74,212.73,387.58,210.89Z"/><path class="cls-1" d="M112.16,207.73c.51-19.09.47-34.65,2.18-50.13.54-4.91.46-4.95-4.48-3.7-9.16,2.33-18.29,4.77-26.75,9.16-.72.38-1.67.51-1.93,1.43-.59,2-2.2,1.69-3.66,1.59-.84-.06-1.64-.35-1.82-1.38a3.49,3.49,0,0,1,1.71-3.6,39.54,39.54,0,0,1,10.28-5,219.34,219.34,0,0,1,25.13-7.28c2.38-.54,3.62-1.62,3.9-4a18.49,18.49,0,0,1,2.15-6.83c.7-1.24,1.61-2.52,3.31-2.08a2.87,2.87,0,0,1,2,3.36c-.31,2,1.48,4.85-1.89,5.94-.16.05-.31.64-.22.88.25.64.85.36,1.29.29,3.43-.57,6.86-1.11,10.28-1.75a114,114,0,0,1,15.85-1.6,6.88,6.88,0,0,1,5.13,1.52,1.88,1.88,0,0,1,.66,2.43,2,2,0,0,1-2.33,1.09c-3.76-1.79-7.56-.65-11.26-.18-6.35.8-12.64,2.07-19,3.05-1.51.24-2,.86-2.15,2.4-.68,7.78-1.55,15.54-2.27,23.31-.23,2.4-.22,4.82-.26,7.23-.21,15.22-.56,30.44-.34,45.66,0,2.65.7,5.27.49,7.95-.11,1.42-.06,3-1.9,3.31s-3-1.07-3.23-2.74a74.93,74.93,0,0,1-.69-8.2C112.1,221.32,111.93,212.75,112.16,207.73Z"/><path class="cls-1" d="M276,197.61a14.56,14.56,0,0,0-3,4.18,51.08,51.08,0,0,1-7.65,10.43c-1.75,1.75-3.77,2.85-6.26,1.81s-2.85-3.37-3-5.79a36.12,36.12,0,0,1,4.26-19.92,6.75,6.75,0,0,1,2.69-3.19,3.14,3.14,0,0,1,3.74.2c1,.93.87,2.15.25,3.42-2.62,5.3-5,10.7-5.38,16.72-.07,1-.53,2.49.53,2.91.84.33,1.63-1,2.19-1.75,3.21-4.56,6.37-9.14,9.54-13.72.52-.75,1-1.52,1.58-2.23a3.08,3.08,0,0,1,3.53-1.25c1.26.44,1.52,1.77,1.57,2.9.13,2.49.06,5,0,7.48a14.19,14.19,0,0,0,1.34,6c1.28,2.79,3.07,3.44,5.82,2.12s4.72-3.37,6.85-5.36c1.7-1.59,3.39-3.19,5.14-4.72a2.23,2.23,0,0,1,3.17-.19c1,.9.63,2.09-.08,2.94-4.08,4.88-8.49,9.45-14.61,11.72-5.09,1.88-9-.23-10.81-5.34C276.43,204.07,276.59,201,276,197.61Z"/><path class="cls-2" d="M427.09,194.43c-2.66,2.4-3.75,5-5.13,7.45-1.69,3-3.11,6.08-5.3,8.73-1.14,1.37-2.43,2.7-4.44,2.08s-2.44-2.48-2.55-4.21a40.55,40.55,0,0,1,5-22,8,8,0,0,1,1.41-1.73,2,2,0,0,1,2.51-.44,2,2,0,0,1,1,2.11,23.78,23.78,0,0,1-1.39,5.81c-1.19,3.7-2.51,7.37-2.4,11.52,1.83-2.81,3.68-5.6,5.47-8.43a21.21,21.21,0,0,1,4.53-5.61c2.47-2,4.76-1.06,5.11,2,.52,4.63.83,9.28,1.45,13.89.3,2.26.63,5,3.25,5.73s4.14-1.73,5.55-3.49c2.18-2.72,4.09-5.65,6.15-8.47a8.39,8.39,0,0,1,1.81-2c1.28-.91,2.47-.22,2.49,1.36a6,6,0,0,1-.93,3.07,45.49,45.49,0,0,1-9.09,11.5c-4.66,4.2-9.64,3.06-12.28-2.61a28.18,28.18,0,0,1-2.24-10.89C427,198.21,427.09,196.64,427.09,194.43Z"/><path class="cls-2" d="M124.81,212.2a49.17,49.17,0,0,1,8.35-23.82,6.31,6.31,0,0,1,2.23-2c1.17-.61,2.39-1,3.36.29a2.44,2.44,0,0,1-.1,3.4c-1.32,1.3-1.1,2.26,0,3.57,4,4.68,3.39,10.17,2.3,15.61a19.82,19.82,0,0,1-4.52,9.56c-1.93,2.16-4.25,3.69-7.25,2.77s-3.86-3.66-4.38-6.42A16.57,16.57,0,0,1,124.81,212.2Z"/><path class="cls-3" d="M311.21,208.45a26.92,26.92,0,0,1-1.79,6.8,60.11,60.11,0,0,1-4.9,10.85,19.32,19.32,0,0,1-1.32,1.8c-.63.78-1.5,1.28-2.4.77-1.14-.63-.47-1.68-.08-2.4a56,56,0,0,0,5-12.18c.47-1.73,1.54-3.42-.19-5.23-.77-.81.11-1.9.87-2.56a2.68,2.68,0,0,1,2.95-.67A2.87,2.87,0,0,1,311.21,208.45Z"/><path class="cls-4" d="M342.6,47c0-2.55.72-4.48,2.9-5.37,1.29-.52,2.4.13,3.19,1.31,1.44,2.13,1.65,5,.32,6.55A3.54,3.54,0,0,1,342.6,47Z"/><path class="cls-5" d="M205.06,78.84c.2-.38.67-.85.9-.59.5.54.13,1.21-.21,1.79C205.57,79.61,205.57,79.08,205.06,78.84Z"/><path class="cls-6" d="M26.82,105.46a122.59,122.59,0,0,0-15.45.59c-1.21.08-1.55-.11-1.57-1.39,0-3.36.78-5.86,4-7.86,14.28-8.9,29.35-15.92,45.67-20.14.64-.17,1.31-.22,2-.36,1.23-.28,1.4.29,1.26,1.35C61.6,85.3,60.53,93,59.53,100.6c-.5,3.87-1.38,7.7-1.36,11.63,0,.53.26,1.26-.42,1.55s-1.09-.26-1.52-.64c-6.13-5.37-13.59-7.1-21.42-7.65C32.16,105.31,29.48,105.46,26.82,105.46Z"/><path class="cls-6" d="M233.23,96.53c-2,11.89-4.68,23.1-9.16,33.77A28.32,28.32,0,0,1,215.4,142c-3,2.31-6.31,3.8-10.13,2.08-3.43-1.53-4.54-5.46-3.25-10.68,1.54-6.23,5.34-11.18,9.13-16.11,5.77-7.48,13.09-13.42,20.14-19.61A14.86,14.86,0,0,1,233.23,96.53Z"/><path class="cls-7" d="M182.2,90.54a38.42,38.42,0,0,1,5.87-11.65c.54-.68,1.12-1.73,2.14-1.38s.67,1.54.81,2.4a6.47,6.47,0,0,1-3.18,7C186,88,184.82,90.14,182.2,90.54Z"/><path class="cls-8" d="M148,91.05a26.61,26.61,0,0,1,5.73-12.53c.46-.56,1-1.31,1.83-1.06s.6,1.23.71,1.93a7.12,7.12,0,0,1-3.46,7.82A52.88,52.88,0,0,0,148,91.05Z"/><path class="cls-9" d="M179,102.64c1-5.53,5.35-7.23,8.5-10A26,26,0,0,1,179,102.64Z"/><path class="cls-10" d="M152.32,94.06a28.83,28.83,0,0,1-7.8,8.51c.69-5,4.41-6.69,7.12-9.19C152.2,93.28,152.42,93.5,152.32,94.06Z"/><path class="cls-11" d="M152.32,94.06l-.68-.68a2.17,2.17,0,0,1,1.45-1.14A1.71,1.71,0,0,1,152.32,94.06Z"/><path class="cls-6" d="M312.8,97c-3.46,5.61-6.4,11.74-13.83,13.4-.94.21-2.08.59-2.79-.37-.82-1.13.11-2.08.73-2.89a26.52,26.52,0,0,1,8.18-6.82c2.37-1.34,4.77-2.64,7.15-4Z"/><path class="cls-6" d="M529,96.7c-2.18,11.85-4.72,23.42-9.52,34.35a27.89,27.89,0,0,1-8.19,10.84c-2.59,2.05-5.46,3.48-8.94,2.61a6,6,0,0,1-4.9-5.55c-.52-4.32.81-8.21,2.85-11.89a81.33,81.33,0,0,1,15.49-19.4c3.25-3.09,6.69-6,10-9A7.51,7.51,0,0,1,529,96.7Z"/><path class="cls-6" d="M207.13,220.17a169,169,0,0,1-8.55,32.38,30.71,30.71,0,0,1-9.06,12.95c-3,2.47-6.42,4-10.35,2.27-3.48-1.53-4.59-5.65-3.19-10.92,1.56-5.94,5.11-10.78,8.77-15.51,5.88-7.64,13.23-13.79,20.51-20A16.56,16.56,0,0,1,207.13,220.17Z"/><path class="cls-8" d="M245.16,196.68c1.72,4.64,1,9.22-.55,13.77A10.43,10.43,0,0,1,242,215c-.34.32-.87.73-1.24.67-.7-.11-.63-.86-.67-1.43a22.79,22.79,0,0,1,1.38-9.29c1-2.79,1.94-5.57,2.91-8.36Z"/><path class="cls-6" d="M442.07,86.87c-1.52-9.37,4.93-23.7,11.18-24.81C450.18,70.79,447.23,79.31,442.07,86.87Z"/><path class="cls-6" d="M398.66,196.57c1.67,4.61,1.09,9.19-.47,13.74a11.34,11.34,0,0,1-2.5,4.54c-.41.4-.85,1-1.45.78s-.62-.92-.65-1.51a20.27,20.27,0,0,1,1-7.62c1.09-3.36,2.25-6.71,3.38-10.06Z"/><path class="cls-8" d="M135,196.19c1.76,2.18,1.63,4.3,1.56,6.32-.16,4.45-1,8.73-3.93,12.31-.35.43-.79,1-1.43.79s-.53-1-.57-1.51a23.69,23.69,0,0,1,1.5-9.76C133,201.75,134,199.19,135,196.19Z"/></g></g></svg>