<svg xmlns="http://www.w3.org/2000/svg" viewBox="0 0 51.65 46.87"><defs><style>.cls-1{fill:#fefefd;}.cls-2{fill:#373737;}.cls-3{fill:#5a5a59;}.cls-4{fill:#242424;}.cls-5{fill:#343333;}.cls-6{fill:#292929;}.cls-7{fill:#383737;}.cls-8{fill:#4c4c4c;}.cls-9{fill:#646362;}.cls-10{fill:#636261;}.cls-11{fill:#605f5e;}.cls-12{fill:#cdcdcb;}.cls-13{fill:#373636;}.cls-14{fill:#dadad9;}.cls-15{fill:#1b1b1b;}.cls-16{fill:#1e1e1e;}.cls-17{fill:#363535;}.cls-18{fill:#161616;}.cls-19{fill:#272726;}.cls-20{fill:#fefefe;}.cls-21{fill:#353535;}.cls-22{fill:#3d3d3d;}.cls-23{fill:#545353;}.cls-24{fill:#3c3b3b;}.cls-25{fill:#bdbcba;}.cls-26{fill:#252524;}.cls-27{fill:#f9f9f9;}</style></defs><g id="圖層_2" data-name="圖層 2"><g id="圖層_1-2" data-name="圖層 1"><path class="cls-1" d="M5.05,44.93c-.5.51-.54.6-.61.62A3.37,3.37,0,0,1,1,44.19a.52.52,0,0,1,.31-.79C2.8,43.25,3.49,44.66,5.05,44.93Z"/><path class="cls-1" d="M47.29,3c-.72-1.64-.18-2.39.77-2.93.13-.08.58.07.6.18C49,1.39,47.93,1.84,47.29,3Z"/><path class="cls-1" d="M.44,39.64c-.2-.24-.42-.38-.44-.55s.09-.53.23-.58c.36-.14.58.13.57.47S.61,39.35.44,39.64Z"/><path class="cls-2" d="M8.21,6.68C9.1,5.55,10.38,5.6,11.63,5.6c6.65,0,13.31-.23,19.94.09,5,.24,9.9-.27,14.85,0,1.68.08,4.86,3.26,4.89,5q.13,6.06.22,12.13c.06,4.07.1,8.13.09,12.19,0,.91.36,2.12-1.13,2.37l-.28-.29a13.64,13.64,0,0,1-.07-2c.19-6.58-.45-13.18.51-19.74,0-.33-.52,0-.19-.07.1,0,.18,0,.15.17-.18.65.37,1.53-.59,1.95a1.23,1.23,0,0,1-.73-1.17c.06-2.19-.57-4.29-.8-6.43.24-.55.54-.84,1.12-.22-3.16-2.92-4.4-3.26-10.06-2.81-.33,0,.11.44,0,.14,0,0,0-.07.21-.1,2.14-.5,4.24.31,6.39.23,1.13,0,1.05.82,0,1.3-6.38.26-12.75.14-19.12.17q-6.71,0-13.42,0c-1.06,0-2.18.17-3.09-.63.14-1.65,1.46-1,2.25-1,6.71-.07,13.43,0,20.14,0-6.8,0-13.6.07-20.4-.07C11.07,6.67,9.62,7.88,8.21,6.68Z"/><path class="cls-3" d="M4.84,35.74c-.82-2.27-.17-4.61-.27-6.91C4.32,23,4.47,17.08,4.5,11.2c0-1.64.33-3.18,2.37-3.48C7.27,9,6,9.53,5.76,10.53,5,12,5.55,13.5,5.73,15a3.23,3.23,0,0,1,.13.69,13.49,13.49,0,0,1,0,2.84c0,1.12-.33,2.19-.27,3.32a9.43,9.43,0,0,1,.14-1.76,17.53,17.53,0,0,0,.13-4.4,29.28,29.28,0,0,1-.36-3.2c0-1,0-2.16,1.61-1.53.86,3.18.37,6.4.31,9.6a9.84,9.84,0,0,0-.14,4.61,23.73,23.73,0,0,1,0,7.57,1.46,1.46,0,0,1-.46.61c-.08.75-1.14-1.23-1,.34a2.71,2.71,0,0,1-.47,2.13A.5.5,0,0,1,4.84,35.74Z"/><path class="cls-4" d="M6.89,10.76c-.84.41-1.28,1-.8,1.92a5.62,5.62,0,0,1,.27,3.06.61.61,0,0,1-1,0,1.76,1.76,0,0,1-.07-.45,13.36,13.36,0,0,1,0-5.08C5.29,9,6.6,8.7,6.87,7.72l1.34-1c8.7-.87,17.39-.28,26.08-.4,0,.33,0,.66,0,1H26.39c-4.47,0-8.95,0-13.43,0-.86,0-1.85-.37-2.54.53l-.23.24a12.61,12.61,0,0,0-2,1C7.61,9.53,7.47,10.32,6.89,10.76Z"/><path class="cls-5" d="M50.49,37.34a2.68,2.68,0,0,1-2.78,2.29c-2.36.13-4.67.88-7.1.28a9.64,9.64,0,0,0-4.39.18c-1.52.35-2.35,1.07-2.32,2.65a.47.47,0,0,1-.67,0c-.29-2.46.16-3.13,2.63-3.5-2.46-.13-2.73,1.43-3,3-.13.81.35,1.94-1.09,2a2,2,0,0,1-.49-1.07c0-3.52,1-5.11,3.56-5.84,3.62.12,7.23-.59,10.86-.21a10.52,10.52,0,0,1,1.48.1c1,1.17,2-.13,3.07-.07Z"/><path class="cls-6" d="M26.33,41.75l-.48-.49c-.61-1.18-1.53-1.4-2.85-1.38-2.93,0-5.94.64-8.77-.67a1,1,0,0,1,.23-1.2c3.16-.92,6.37-.34,9.56-.38a5.33,5.33,0,0,1,2.74,1.49,3.53,3.53,0,0,1,.46.55A12.1,12.1,0,0,0,29.13,42a9.33,9.33,0,0,1,1.08,1.69,4.51,4.51,0,0,1,.56,1.63,1.35,1.35,0,0,1-.33,1c-.94.32-1.08-.74-1.7-1l-.95-1.44C27.19,43.23,26.93,42.37,26.33,41.75Z"/><path class="cls-7" d="M14.41,38.35v.82c-.35.58-1.17,0-1.51.62h0c-2,.47-3.85-.21-5.66-1l-1-.93c-.28-.57-.74-1.07-.63-1.77.5-.9-.2-2.12.76-2.9a1.79,1.79,0,0,0,.46,0c.88,1.36.6,3.44,2.59,4.09C11.06,38,13,36.89,14.41,38.35Z"/><path class="cls-8" d="M12.9,39.79c.31-.69,1-.53,1.51-.62a29.1,29.1,0,0,0,9,.31,1.87,1.87,0,0,1,2.41,1.78,5.1,5.1,0,0,0-3.62-1A48.65,48.65,0,0,1,12.9,39.79Z"/><path class="cls-8" d="M7.26,38.79l5.66,1A5.31,5.31,0,0,1,7.26,38.79Z"/><path class="cls-9" d="M33.44,42.83a1,1,0,0,1,.46-.09A4.67,4.67,0,0,1,32,46.87l-.28-.24A6.14,6.14,0,0,1,33.44,42.83Z"/><path class="cls-10" d="M5.85,36.28c.18.52.68.94.45,1.58a2.13,2.13,0,0,1-1.46-2.12h.53A.54.54,0,0,1,5.85,36.28Z"/><path class="cls-11" d="M26.33,41.75a2.46,2.46,0,0,1,1.46,2.11C26.73,43.55,26.59,42.61,26.33,41.75Z"/><path class="cls-12" d="M47.83,37.66a85.11,85.11,0,0,1-13.07.13,2.14,2.14,0,0,1,1.35-1c2.64-.49,5.31-.15,8-.26s3.29-.57,3.64-3.12c.6-4.37.15-8.78.1-13.17,0-2.17.42-4.3.28-6.46C47.91,10.81,46.89,10,44,9.43c-4-.74-7.95.12-11.93.07-6.4-.08-12.8-.05-19.21,0-2.13,0-4,.47-4.62,2.9a18.4,18.4,0,0,0-.19,4.06c0,.4,0,.8,0,1.2A16.92,16.92,0,0,1,7.89,20a1.75,1.75,0,0,1-.35.71.59.59,0,0,1-.72,0c0-3.33,0-6.65.07-10a2.26,2.26,0,0,1,1-2c.82-.38,1.71-.6,2.54-1h0c8.2,0,16.4.14,24.58,0A101.26,101.26,0,0,1,46.82,8c1.07-.22,1.7.15,1.73,1.3,1.67,2.45,1.19,5.23,1.25,7.92,1,1.87.49,3.93.4,5.82-.2,4.47.82,9-.79,13.42A2.08,2.08,0,0,1,47.83,37.66Z"/><path class="cls-13" d="M48.55,9.32C48,8.88,47.4,8.45,46.82,8c-1.82-1.51-4-.64-6-.89a10.47,10.47,0,0,1-2.68-.64c2.95-.83,5.62.51,8.3-.17.73-.19,4.2,3,4.28,3.81a.78.78,0,0,1-.24.64c-.36.29-.54,0-.72-.3C49.43,10,49.27,9.37,48.55,9.32Z"/><path class="cls-14" d="M6.82,20.73h.54c1.29,2.38.79,5,.93,7.54.09,1.65.12,3.31.31,5,.28,2.37,1.12,3.18,3.57,3.26a66.25,66.25,0,0,0,9.24-.07c3.71-.41,6.56.53,8.3,4a2,2,0,0,0,.92,1.11,5.63,5.63,0,0,1,2.25-4.51,2.25,2.25,0,0,1,3,.19l-1.11.54c-2.59.9-2.75,3.14-3,5.36-.44.89-.87,1.8-2,.65l-1-1.56c-.41-1-1.51-1.53-1.87-2.58h0a4.71,4.71,0,0,0-1.88-1.54c-4.51-.34-9-.05-13.53-.16a6,6,0,0,1-2.67-.22c-1.82-1-2.07-2.68-2-4.52a81.08,81.08,0,0,0-.36-9.6A4.48,4.48,0,0,1,6.82,20.73Z"/><path class="cls-15" d="M5.85,36.28l-.48-.54V31.6c1.24.23,1,1,1.06,1.59C6.13,34.2,6.83,35.39,5.85,36.28Z"/><path class="cls-16" d="M5.59,25.2c1,1.8.55,3.43,0,5.21C5.16,28.59,4.81,26.93,5.59,25.2Z"/><path class="cls-17" d="M5.41,15.74h1c-.31,1.48.57,3.1-.49,4.5-.51-.56,0-1.37-.45-1.94A5.54,5.54,0,0,0,5.41,15.74Z"/><path class="cls-17" d="M5.34,10.21v5.08A7.82,7.82,0,0,1,5.34,10.21Z"/><path class="cls-18" d="M5.42,18.3c.73.51.37,1.28.45,1.94s-.1,1.25-.16,1.88H5.42Z"/><path class="cls-2" d="M10.42,7.8a3.61,3.61,0,0,1-2.54,1A2.56,2.56,0,0,1,10.42,7.8Z"/><path class="cls-19" d="M30.5,46.64a.81.81,0,0,1-.15-.37c0-.36,0-.72,0-1.08a1.6,1.6,0,0,1,1.53-.95c.91-1,.32-2.34.89-3.49.82-1.64,1.75-2.49,3.94-1.72-2.06.64-3.92,1.28-3.29,3.8-.51,1.28-.7,2.7-1.69,3.75Z"/><path class="cls-11" d="M31.9,44.24l-1.53.95c-.18-.47-.36-.93-.55-1.39a1.55,1.55,0,0,0,2-.65C31.83,43.51,31.87,43.88,31.9,44.24Z"/><path class="cls-10" d="M8.87,37.75c4.88,0,9.76-.07,14.64-.06.79,0,1.68-.17,2.33.56a.91.91,0,0,1-1,.07l-10.4,0C12.58,38,10.62,38.86,8.87,37.75Z"/><path class="cls-8" d="M26.94,39.66c.85.7,1.85,1.29,1.87,2.58C28,41.53,26.91,41,26.94,39.66Z"/><path class="cls-8" d="M24.81,38.32l1-.07A1.47,1.47,0,0,1,27,39.67Z"/><path class="cls-20" d="M35.87,37.25c-4.23-.84-3.94,3-5.35,5.21a6.76,6.76,0,0,1-2.21-2.92c-1.12-2.27-3.2-2.76-5.23-2.55-3.83.4-7.64.11-11.45.2C9.16,37.25,8,36,7.9,33.53q-.29-6.39-.53-12.79l0-.47a3.17,3.17,0,0,0,0-2.56v-.92a10.26,10.26,0,0,0,0-4.58c.55-2.73,2.49-3.46,5-3.46,6.91,0,13.81,0,20.71,0,3.71,0,7.37-.66,11.12-.09,3.06.46,4.58,1.31,4.6,4.36,0,4.88-.34,9.76-.3,14.63,0,2.21.38,4.39-.09,6.63-.4,2-1.33,2.94-3.32,2.93C42,37.22,39,37.24,35.87,37.25Z"/><path class="cls-14" d="M7.42,12.21a5,5,0,0,1,0,4.58Z"/><path class="cls-14" d="M7.42,17.71a1.82,1.82,0,0,1,0,2.56C7.4,19.41,7.41,18.56,7.42,17.71Z"/><path class="cls-21" d="M35,18.71c1.11,3.66-.72,6.56-2.69,9.26a35.91,35.91,0,0,1-4.33,4.3c-1.18.56-2.18-.18-3.25-.47-2.3-1.07-3.81-3-5.42-4.88-.39-1.09-1-2.1-1.45-3.15v0a6.72,6.72,0,0,1-.21-4.18c.83-.55.83-.55,1.47.8.45,4.29,3.05,7.05,6.53,9.2a2.07,2.07,0,0,0,1.89,0c.87-.31,1.47-1.05,2.31-1.41,3-1.78,3.72-4.79,4.35-7.85.11-.55-.15-1.14.16-1.68A.51.51,0,0,1,35,18.71Z"/><path class="cls-22" d="M35,18.71l-.54,0c-2-1.94-4.16-2.34-6.65-.85a3.09,3.09,0,0,1-3.28-.09,1.17,1.17,0,0,0-1.72.21c-1.72.32-3.2,1-3.9,2.75L18,19.27c-.31-1.59,1-2.2,1.86-3.12a4.38,4.38,0,0,1,4.45,0c1.61,1.13,2.79.68,4.28,0C31.61,14.77,34.19,15.88,35,18.71Z"/><path class="cls-23" d="M19.83,16.15C19.38,17.3,18.12,18,18,19.27l-.15,4.52A5.3,5.3,0,0,1,19.83,16.15Z"/><path class="cls-23" d="M17.82,23.77a4.12,4.12,0,0,1,1.45,3.15A4,4,0,0,1,17.82,23.77Z"/><path class="cls-24" d="M24.69,31.8l3.25.47C26.65,33.54,25.69,32.58,24.69,31.8Z"/><path class="cls-25" d="M18.87,20.75c0-2.8,1.79-3.19,4-3.05a1.25,1.25,0,0,1,.94.23c1.65,1.66,3.08,1.9,4.85-.07a3.1,3.1,0,0,1,3.93-.18C34,18.56,34,20,33.73,21.41a14.43,14.43,0,0,1-2.38,5.39c-1.09,1.27-2.59,2.12-3.7,3.38A2.51,2.51,0,0,1,25,29.92c-2.88-1.81-4.57-4.6-6.34-7.34C18.18,21.85,18.86,21.36,18.87,20.75Z"/><path class="cls-26" d="M30.85,26.71c.73-1.82,1.81-3.46,2.29-5.42.34-1.36.44-2.55-.88-3.2s-3.07-.71-3.82.61c-1.54,2.69-2.76,2.18-4.25.11a7.46,7.46,0,0,0-1.31-1.11c-.08-.38-.37-.92-.22-1.12a.84.84,0,0,1,1.31.09c1.53,1.72,3.06,1,4.72.2,2.6-1.27,4.42-.63,5.73,1.86.9,3.56-1.36,8.52-4.55,10C29.58,27.76,30.66,27.45,30.85,26.71Z"/><path class="cls-24" d="M30.85,26.71c.17.91-.71,1.33-1,2-.86.29-1.21,1.37-2.22,1.44C28.71,29,29.78,27.87,30.85,26.71Z"/><path class="cls-27" d="M19.85,20.88a2.26,2.26,0,0,1,1.2-2.39c1.09-.61,1.68.38,2.38.84.53.34.83,1,1.33,1.43,1.24,1.08,2.5,1.42,3.47-.31.61-1.1,1.37-1.91,2.73-1.69,1.11.18,1.8.66,1.47,2a14,14,0,0,1-4.92,8.09c-.38.31-.65.64-1.28.46C23.64,28.56,19.86,23.69,19.85,20.88Z"/></g></g></svg>