<svg xmlns="http://www.w3.org/2000/svg" viewBox="0 0 125.55 49.66"><defs><style>.cls-1{fill:#d8d7d6;}.cls-2{fill:#bbbab8;}.cls-3{fill:#fefefd;}.cls-4{fill:#adacab;}.cls-5{fill:#979694;}.cls-6{fill:#2c2c2c;}.cls-7{fill:#3a3a39;}.cls-8{fill:#292828;}.cls-9{fill:#3f3e3e;}.cls-10{fill:#383838;}.cls-11{fill:#2e2d2d;}.cls-12{fill:#3b3b3a;}.cls-13{fill:#4a4a49;}.cls-14{fill:#2a2929;}.cls-15{fill:#3d3d3c;}.cls-16{fill:#323232;}.cls-17{fill:#282827;}.cls-18{fill:#272726;}.cls-19{fill:#141313;}.cls-20{fill:#404040;}.cls-21{fill:#141413;}.cls-22{fill:#3a3a3a;}.cls-23{fill:#434242;}.cls-24{fill:#333332;}.cls-25{fill:#262625;}.cls-26{fill:#10100f;}.cls-27{fill:#f5f4f4;}.cls-28{fill:#f2f2f1;}.cls-29{fill:#20201f;}.cls-30{fill:#bebdbb;}.cls-31{fill:#2b2b2b;}.cls-32{fill:#161515;}.cls-33{fill:#f8f8f8;}.cls-34{fill:#f6f6f6;}.cls-35{fill:#090808;}.cls-36{fill:#1b1b1b;}.cls-37{fill:#787776;}.cls-38{fill:#2f2e2e;}.cls-39{fill:#181817;}.cls-40{fill:#3b3b3b;}.cls-41{fill:#111010;}.cls-42{fill:#b5b4b3;}.cls-43{fill:#efeeed;}.cls-44{fill:#bdbcbb;}.cls-45{fill:#424141;}.cls-46{fill:#f8f7f7;}.cls-47{fill:#40403f;}.cls-48{fill:#201f1f;}.cls-49{fill:#51504f;}.cls-50{fill:#e0dfdf;}.cls-51{fill:#ecebea;}.cls-52{fill:#464646;}.cls-53{fill:#302f2f;}.cls-54{fill:#1b1a1a;}.cls-55{fill:#2f2f2f;}.cls-56{fill:#313131;}.cls-57{fill:#171716;}.cls-58{fill:#303030;}.cls-59{fill:#bab9b8;}.cls-60{fill:#3c3c3c;}.cls-61{fill:#4e4e4d;}.cls-62{fill:#7b7a78;}.cls-63{fill:#100f0f;}.cls-64{fill:#c4c4c2;}.cls-65{fill:#4a4949;}.cls-66{fill:#353534;}.cls-67{fill:#272727;}.cls-68{fill:#e2e2e0;}.cls-69{fill:#cac9c8;}.cls-70{fill:#a5a4a3;}.cls-71{fill:#383737;}.cls-72{fill:#dedddc;}.cls-73{fill:#1e1d1d;}.cls-74{fill:#242323;}.cls-75{fill:#f9f8f8;}.cls-76{fill:#414140;}.cls-77{fill:#a5a5a3;}.cls-78{fill:#e3e3e1;}.cls-79{fill:#484747;}.cls-80{fill:#0c0c0b;}.cls-81{fill:#242424;}.cls-82{fill:#fbfbfb;}.cls-83{fill:#fdfdfd;}.cls-84{fill:#f9f9f9;}.cls-85{fill:#151414;}.cls-86{fill:#c2c1c0;}.cls-87{fill:#f7f7f7;}.cls-88{fill:#1c1c1b;}.cls-89{fill:#464545;}.cls-90{fill:#cacac8;}.cls-91{fill:#121111;}.cls-92{fill:#181818;}.cls-93{fill:#fafafa;}.cls-94{fill:#fcfcfc;}.cls-95{fill:#fbfbfc;}.cls-96{fill:#f7f7f6;}.cls-97{fill:#1a1919;}.cls-98{fill:#bebdbd;}.cls-99{fill:#f4f4f4;}.cls-100{fill:#faf9f9;}.cls-101{fill:#f7f6f6;}.cls-102{fill:#fcfcfd;}</style></defs><g id="圖層_2" data-name="圖層 2"><g id="圖層_1-2" data-name="圖層 1"><path class="cls-1" d="M121,20.64c.47,3.75,0,7.7,2.49,11a2.54,2.54,0,0,1,.42,2.6c-1.46,2.68-.75,5.25.09,7.85-1.4,0-1.44-1.31-2-2.09a5.36,5.36,0,0,1-.16-4.35,5.65,5.65,0,0,0-.67-5.23,7.35,7.35,0,0,1-1.29-5.2c.34-2.78-1.06-5.16-1.69-7.71-.32-1-.13-2.15-1-3a15.25,15.25,0,0,1-2.11-2.82c-.34-.65-.82-1.22-1.1-1.91a10,10,0,0,1-.28-4.68c.34-1.55-.28-2.15-1.85-2.52-2.5-.59-4.93.17-7.44-.09C99,2,93.54,2.82,88.1,2.35a11,11,0,0,0-3.48.2c-2.83.5-5.6-.4-8.41-.31a4.55,4.55,0,0,0-2.42.34,2.14,2.14,0,0,1-2.22.06c-3.29-1.45-6.49-.88-9.68.38-2.41-.79-4.88-.14-7.3-.28-6.11-.35-12.22.12-18.31-.36a3.37,3.37,0,0,0-1.47.2,5,5,0,0,1-.84.18c-4.65.38-9.24-.82-13.89-.42a14.38,14.38,0,0,0-3.21.23c-3.37-.18-6.75.56-10.13.08C5.62,2.49,4.56,2.56,4.1,3.87a1.75,1.75,0,0,0-.25.69,40.26,40.26,0,0,1-1.2,11.77c-.14.77-.36,1.52-.49,2.29a1.79,1.79,0,0,1-.58,1H1.07c-1.16-1.83-.64-3.66,0-5.5l0-1c1.24-2,.42-4.38,1-6.52a4,4,0,0,0,0-.49A28.12,28.12,0,0,1,2.6,3C3,1.48,4.08.33,5.68.69,10.46,1.74,15.2.46,20,.63c6.71.23,13.46.81,20.11.25,4.4-.37,8.7.19,13.07-.06C61.85.33,70.62.48,79.36.72c5.25.14,10.51,0,15.76.16a94,94,0,0,0,11.37-.2c.52.77,1,.12,1.51,0,2.27-1.32,4.53-.31,6.7.22,1.55.39,1.68,2.08,1.38,3.35-.82,3.52.31,6.31,2.77,8.74,1.18,1.17.6,2.83,1.14,4.18h0a15.16,15.16,0,0,0,1,3C121,20.31,121,20.47,121,20.64Z"/><path class="cls-2" d="M100.5,49.12,89,49.59h-1.5c-6.53-.36-13.07-.19-19.59-.17-4.89,0-9.82-.14-14.74,0s-10,.15-15,0a62.11,62.11,0,0,0-10.11.13c-2.14.27-4.27-.11-6.41-.07a44.34,44.34,0,0,0-5.4.06c-2,.27-4.19.49-5.81-1.31a1.3,1.3,0,0,1,.71-.46,3,3,0,0,1,1.3,0c5.79.2,11.58.13,17.37.18h.88c4.12,0,8.24.18,12.34-.26a6.26,6.26,0,0,1,2.2.19c.28,0,.56,0,.84,0,3.7-.34,7.41.37,11.1-.2,1.11.28,2.23-.15,3.34.07,5.56.2,11.11.14,16.66.15,7.38,0,14.76.14,22.13-.34a2.06,2.06,0,0,1,1.14.72A.71.71,0,0,1,100.5,49.12Z"/><path class="cls-3" d="M1.06,14.14c.17,1.83-.57,3.67,0,5.5A4.08,4.08,0,0,1,1.06,14.14Z"/><path class="cls-3" d="M121,20.15a3.38,3.38,0,0,1-1-3A4.62,4.62,0,0,1,121,20.15Z"/><path class="cls-4" d="M11.18,48.05l-.72.12C8.89,45,9.11,41.4,7.59,38.25a1,1,0,0,1-.06-.73c1.37-3.32-1.11-4.88-3-6.71-1.09-1-2.09-2-1.57-3.86.32-1.14-.47-2.23-.85-3.32-.68-1.27.17-2.73-.5-4h0c0-.33,0-.66,0-1,.6-.21,1,.12,1.29.56.54,1.16.15,2.46.56,3.64.08.23.14.46.2.69.16.58.34,1.15.46,1.74.24,1.13-.1,2.33.4,3.43a13.65,13.65,0,0,0,3.1,3.2,3,3,0,0,1,1.49,3.37A7,7,0,0,0,9.91,40a3.79,3.79,0,0,1,.21.73c.29,1.59.49,3.2.91,4.77C11.28,46.33,11.78,47.16,11.18,48.05Z"/><path class="cls-1" d="M1.58,19.63c.92,1.24.33,2.67.5,4C1.08,22.4,1.75,21,1.58,19.63Z"/><path class="cls-5" d="M100.46,49l0-.53c1.78-1.29,3.91-.21,5.79-.85a5.11,5.11,0,0,1,1.23-.21c1.89,0,3.77-.07,5.65.09a3.76,3.76,0,0,1,.74.16,3.66,3.66,0,0,0,2.74,0,4.13,4.13,0,0,1,.7-.14c2-.29,4.07.4,6-.41.29-.66-.28-1.12-.41-1.69A21.28,21.28,0,0,1,122,41.2a1.42,1.42,0,0,1,.49-1l1.5,2c.57,1.27.61,2.67,1.26,4,.85,1.7-.38,2.91-2.35,2.66-1-.12-2-.11-3-.15-.93.61-2.08-.16-3,.46a3.57,3.57,0,0,1-.46,0,3.36,3.36,0,0,1-2.55,0,2.42,2.42,0,0,1-.47,0,18.26,18.26,0,0,0-6.51,0,3.59,3.59,0,0,1-.47,0,16,16,0,0,1-5.57,0A2.38,2.38,0,0,1,100.46,49Z"/><path class="cls-6" d="M16.39,2.07a2.34,2.34,0,0,1,2.08-.57l16,.59c-.07,1.42-1.13.56-1.95.89,4.38-.71,2.65,2.67,3.16,4.14-.95-1.3,1.59-3.86-1.25-5,.58-.78,1.51-.48,2.08-.33,2.63.71,5.28.13,7.84-.05,3.08-.2,6,.75,9.09.32,1.46-.21,3,.2,4.43-.42s2.58.83,3.94.92c.57-.14.87.22.58.62a2.44,2.44,0,0,1-2.59,1.08C56.91,3.47,53.93,4,51,3.83c-2-.12-2.88.78-2.78,2.79a11.75,11.75,0,0,1-.2,3.69,3.79,3.79,0,0,1-2.74,2.35,3,3,0,0,1-.79,0,8.69,8.69,0,0,0-4.85-.06,4.37,4.37,0,0,1-1.14.06,5.18,5.18,0,0,1-2.69-1S34.41,11,34.38,11c-.78-1.39-.32-2.92-.46-4.38s-.84-2.23-2.35-2.25c-1.9,0-3.8,0-5.7,0s-2.75.9-2.49,2.8A6,6,0,0,1,23,10.29a1.66,1.66,0,0,1-.5.61,2.57,2.57,0,0,1-1.91.37,1.45,1.45,0,0,1-.47-.62c-.53-2.36.21-4.86-.73-7.18a.66.66,0,0,1,.41-.54c.16,0,.35-.08.47,0a2,2,0,0,0,2.41,0,9,9,0,0,1,2.88-.24,11.49,11.49,0,0,0-3.15.23,5.08,5.08,0,0,1-.78,0C20,2.17,17.94,3.6,16.39,2.07Z"/><path class="cls-7" d="M115.5,11.62c.68.83,1.35,1.67,2,2.51a3.54,3.54,0,0,0-.07,2.25,16,16,0,0,0,.13,3.46c.06,2.37.41,4.87-1.76,6.68-2.85.59-5.72.22-8.58.25a3.61,3.61,0,0,0-4.42.41,47.9,47.9,0,0,1-9-.08c-.77-.54-2.15-.65-1.54-2.17,2.47-1,5.06-.4,7.6-.51,3.18-.13,3.39-.26,3.42-3.39,0-1.41,0-2.82,0-4.22.06-2-.94-2.84-2.85-2.92-2.89-.12-5.78.15-8.68,0a.76.76,0,0,1-.45-.67c.29-1.29,1.37-1.15,2.29-1.23a20.87,20.87,0,0,0,2.63-.18,3.49,3.49,0,0,1,.79,0c2,.45,4.44-.52,6.12.55,2.23,1.43,3.72-.68,5.68-.44a21.39,21.39,0,0,0,6.14.1A2,2,0,0,1,115.5,11.62Z"/><path class="cls-8" d="M20.18,3.09l-.8.15c-2.09,1.39-4.52.46-6.76,1s-2.3.62-2.13,4.27C10.56,10,11.23,11,12.93,11a27.36,27.36,0,0,0,4.7-.3,3.8,3.8,0,0,1,2.88.42l.11.12c.32.84-.47,1.44-.45,2.22a43.78,43.78,0,0,1-6.57.35,8.52,8.52,0,0,0-3.8.71A1.23,1.23,0,0,1,8.48,14c-.05-.72.57-.94,1-1.31s.25-.88,0-1.31c-.55-.92-.69.1-1,.23-1.12.51-2.24,1.21-3-.48A1.82,1.82,0,0,1,6,10.69c1.84-.52,1.78-2,1.54-3.39-.2-1.1.58-2.9-1.61-2.95-.91.16-.68.9-.73,1.49,0,.24,0,.47,0,.71-.1,1.53.2,3.05,0,4.57-.32.48-.68.86-1.3.44-.88-2.62-.55-5.3-.4-8A1.78,1.78,0,0,1,5.65,1.75c3.58.94,7.19-.39,10.74.32,1.87.41,3.86-.46,5.67.55C21.58,3.34,20.82,3,20.18,3.09Z"/><path class="cls-9" d="M47.52,10.66c0-1.65,0-3.31,0-5s.74-2.63,2.37-2.52c3.35.22,6.76-.7,10.07.56.85.33,1.4-.62,2.17-.81A.79.79,0,0,0,62,2.69c0-.06-.13-.1-.19-.15A11.66,11.66,0,0,1,72,2.17c-1.66,1-3.49.2-5,.49,1.07,0,2.39-.06,3.71,0,2.5.12,3.34,1,3.48,3.53a17.32,17.32,0,0,0,.21,3.22,2.15,2.15,0,0,1,0,.8c-.3.61-.56,1.32-1.47.79-.85-1.25-.63-2.73-.75-4.1C72,5,71.07,4.27,69.24,4.33c-1.57.06-3.16,0-4.73,0-2.3.12-2.91,1.13-2.8,4,.08,2.13,1.26,2.27,3,2.23,2.71-.07,5.46-.63,8.12.4-.29,1.35-.65,1.91-1.85,1.61-3.5-.89-7.06.69-10.54-.43-1-.33-1.85.56-2.79.82a3.08,3.08,0,0,1-1.21.06,16.44,16.44,0,0,0-4.86-.4c-1.13.12-2.71.35-3-1.54a13.66,13.66,0,0,1,5.82-.37c3.28.26,3.81-.08,3.95-3.24s.14-3.15-3.07-3.16c-1.33,0-2.66,0-4,0-2.24.08-2.8.71-2.54,2.92.16,1.29.8,2.59-.16,3.82C48,11.51,47.63,11.48,47.52,10.66Z"/><path class="cls-10" d="M74.07,10.26l0-.65a45.8,45.8,0,0,1,.07-5.37,2.66,2.66,0,0,0-.77-2.17c1.91-1.31,4-.24,6-.35a24.93,24.93,0,0,1,5.13.35c1.27.6,2.69.28,4,.71A4.67,4.67,0,0,1,90.91,5.3,7.56,7.56,0,0,1,91,8.9c-1.23,3.29-1.67,3.51-5.14,3.71-1.44.08-3-.52-4.33.35a2.87,2.87,0,0,1-1.2.06,17.83,17.83,0,0,0-3.65-.23C75.05,12.71,74,12,74.07,10.26Z"/><path class="cls-11" d="M88.5,3.16c-1.31-.47-3.15,1-4-1.09,3-1.07,6,.06,9-.18.64,0,1.4.32,2,.09,3.17-1.32,6.37-.09,9.53-.06,2.45,0,4.89-.41,7.39,0,2.08.3,2.69,1.07,2.18,2.86a11.13,11.13,0,0,0,0,5.38.94.94,0,0,1-.8.2C112.2,9,113,7.25,113,5.65c.49-2.55.49-2.55-2.28-2a11.45,11.45,0,0,1-3.83,0,5.42,5.42,0,0,0-4.41,0c-2.78.28-5.57.08-8.34.14-1.29-.25-2.33.42-3.39,1C90,4.28,90,2.7,88.5,3.16Z"/><path class="cls-12" d="M122.48,40.12l0,1c-2-.66-1.46-2.08-1.25-3.38-.45.44-.17,1.5-.9,2s-1.74,1.49-2-.46c1.57-2.15,2.37-4.41.94-7a36.16,36.16,0,0,0-.15,4.17c0,1,.18,2-.8,2.73-1.46-.82-.87-2.3-1.07-3.5a15.7,15.7,0,0,1-.41-3.62,3.39,3.39,0,0,1,.46-2,2.26,2.26,0,0,1,2.23-.41,3.17,3.17,0,0,1,1.1.82,2.33,2.33,0,0,0-.75-.78,2.46,2.46,0,0,1-1.18-2.55c.76-2.89-.55-5.51-.81-8.26a2.15,2.15,0,0,1,.64-1.86c1.34,3.11,2.47,6.26,1.87,9.75-.26,1.57,1,2.61,1.59,3.79a5.52,5.52,0,0,1,.52,5.16A5.61,5.61,0,0,0,122.48,40.12Z"/><path class="cls-6" d="M73.33,2.07c1.61,0,2.38.18,1.36,2.14-.82,1.58.41,3.68-.66,5.4-.79-.64-.48-1.54-.49-2.33-.07-4.07-.12-4.1-4.29-4.16a22,22,0,0,1-5.38-.2l0-.75H72C72.46,2.75,72.88,2.26,73.33,2.07Z"/><path class="cls-8" d="M2.44,19.22l-.87-.59a2,2,0,0,1,.49-2C2.7,15.12,1.75,13,3.77,12a1.81,1.81,0,0,1,1.37.58,1,1,0,0,1,0,.74A10.53,10.53,0,0,0,3.87,18C3.87,18.94,3.68,19.71,2.44,19.22Z"/><path class="cls-13" d="M4,12.11c-1.86,1-.88,3.2-1.95,4.53A5.91,5.91,0,0,1,3,12.12c.87-1.1.09-2.26.23-3.37.22-1.72-.4-3.49.33-5.17.66,2.66-.25,5.44.61,8.09A.28.28,0,0,1,4,12.11Z"/><path class="cls-14" d="M118.52,17.07c0,.71-.06,1.42-.1,2.12-1.85-.63-.44-2.57-1.43-3.55-.81-.86-.48-1.3.54-1.51C118.91,14.75,118.25,16.07,118.52,17.07Z"/><path class="cls-14" d="M114,10.15l.58,0a1.66,1.66,0,0,1,.94,1.5l-.13.54A1.66,1.66,0,0,1,114,10.15Z"/><path class="cls-15" d="M99.94,48.21c-9.41.61-18.84.58-28.26.34-3.93-.1-7.91.71-11.82-.32.6-1,1.68-.37,2.47-.54a2.39,2.39,0,0,1-2.43-1.8c-.51-1.33,0-2.63.1-3.93.48-1.88,2.57-1.18,3.57-2.23,2.76-.89,5.51-.24,8.27.05a1.78,1.78,0,0,1,.89,1.38.84.84,0,0,1-.34.7c-2.66.88-5.42.23-8.12.45-.9.07-1.87,0-2.33,1-.63,1.43.29,2.72,2.11,2.72,2.87,0,5.76.69,8.6-.23a.72.72,0,0,1,.53.52,1.4,1.4,0,0,1-.89,1.16,3.68,3.68,0,0,1-2.29.25,4.82,4.82,0,0,0,2.41-.17,10.91,10.91,0,0,1,2.85-.18c2.23,0,4.46,0,6.69,0,1.34,0,2.69,0,4,0,2.35,0,4.71-.09,7.06,0a3.68,3.68,0,0,1,1.94.64c-.25-.4-1-.72-.22-1.3,2.6-.67,5.19-1.69,7.8,0-1.08.92-1.08.92-3.76.66-.33,0,.09.34.07,0,0-.06.07-.06.23-.05.41,0,.81,0,1,.51Z"/><path class="cls-11" d="M11.18,48.05l-.63-2.42c-.39-1.66-.2-3.44-1-5a.36.36,0,0,1,0-.36,1.55,1.55,0,0,1-.08-1.08c.46-.38.92-.15,1.38,0,1.12.52,2.37.17,3.52.52a2,2,0,0,1,1.37,1.12.72.72,0,0,1-.32.58c-.9.7-2.56-.34-3.06,1.31.13,1.95.91,3.25,3.08,3.37.87.05,1.59.47,1.46,1.57-1.49,1.42-3.22.54-4.87.5Z"/><path class="cls-6" d="M57.51,48.19c-3.8.85-7.62.2-11.42.14.49-.87,1.44-1.42,1.68-2.46a2.25,2.25,0,0,1,.72-.11c3.42,0,6.82,1.22,10.23,0a1.42,1.42,0,0,1,.73.19C59.85,47.62,58.35,47.61,57.51,48.19Z"/><path class="cls-16" d="M12,48.15c1.5-.53,3.47,1,4.6-1.08a1.88,1.88,0,0,1,1.06-.53,5.88,5.88,0,0,1,2.7.2c1.26,1.11,2.46.24,3.67-.14a18.55,18.55,0,0,1,6,.11c.86.53.7,1.08,0,1.63A45,45,0,0,1,20,48.42c-1.86-.18-3.59.32-5.39.22C13.68,48.59,12.75,48.81,12,48.15Z"/><path class="cls-6" d="M45.59,48.31a120.12,120.12,0,0,1-14.94,0c.64-1.24,1.83-.81,2.83-.89a12.88,12.88,0,0,0,2.7-.27c.49-.16,1-.34,1.45-.49,2.62-.37,5.25-1.28,7.82.2A1,1,0,0,1,45.59,48.31Z"/><path class="cls-17" d="M36.56,47.58c-1.84,1.27-4-.06-5.91.78l-.58,0c.17-.4.33-.8.49-1.2l.23-.26c1-.61,2.22-.12,3.23-.68.58-.47.47-1.5,1.36-1.73a1.09,1.09,0,0,1,.79.56A10.5,10.5,0,0,1,36.56,47.58Z"/><path class="cls-18" d="M57.51,48.19c0-1.39,1.85-.92,2-2.12a.46.46,0,0,1,0-.6.65.65,0,0,1,.89.19c.1,1.29,1.37,1.42,2.3,2.29l-2.88.28C59.08,48.3,58.28,48.81,57.51,48.19Z"/><path class="cls-19" d="M45.59,48.31c0-.42-.07-.83-.11-1.25,0-.11.05-.22.08-.33.65-.74.55-2.33,2.19-2a1.12,1.12,0,0,1-.16,1.3c1.52,2.1-1,1.52-1.5,2.27Z"/><path class="cls-20" d="M106.58,48.2c-2,.74-4.06.14-6.07.4l-.57-.39L100,48a11.78,11.78,0,0,1,5.89-.38A1.43,1.43,0,0,1,106.58,48.2Z"/><path class="cls-21" d="M3.59,25.12c-.28-.45-.66-.88-.5-1.48.42-.47-.16-1.41.77-1.64a1,1,0,0,1,.58.32c.72,1.77,2.11,3.35,1.57,5.49a4.44,4.44,0,0,0,.22.61c.31.47.63,1.12,1.27.9s.44-1,.3-1.47c-.24-.91-.91-1.77-.15-2.73a2,2,0,0,1,.83-.64,1.63,1.63,0,0,1,1.3.38,8.23,8.23,0,0,1,.8.66c.45.4.83.91.38,1.46-.94,1.15-.79,2.61-1.2,3.9a3.67,3.67,0,0,1-.52,1.7c-.66.49-1.11-.23-1.67-.3a24.66,24.66,0,0,1-3.73-3.91C3.68,27.29,4.09,26.17,3.59,25.12Z"/><path class="cls-22" d="M7.65,32.06,9,32.61a1.23,1.23,0,0,1,1.48,1.5c-.22,1.69.12,3.51-.94,5,0,.37-.05.74-.08,1.11a4.4,4.4,0,0,1-1.11-4.08,3.39,3.39,0,0,0-1.25-4.07A.34.34,0,0,1,7.65,32.06Z"/><path class="cls-23" d="M2.44,19.22c.87-.1.84-.55.85-1.36,0-1.74,0-3.64,1.7-4.85.08.11.15.22.23.32-.61,2.87-.37,5.79-.48,8.69a.49.49,0,0,1-.7.14h0c-.32-.25-.7-.46-.6-1-.25.68.18,1.51-.48,2.09C2.29,22,2.78,20.55,2.44,19.22Z"/><path class="cls-24" d="M7.65,32.06l-.52,0a13.09,13.09,0,0,1-3-3c-.26-.21-.24-.39.08-.53Z"/><path class="cls-22" d="M9.54,40.62c1.25,1.49,1,3.27,1,5A14.12,14.12,0,0,1,9.54,40.62Z"/><path class="cls-23" d="M4.17,28.54l-.08.53c-1.08-1.2-.23-2.64-.5-3.95C4.61,26.12,3.87,27.42,4.17,28.54Z"/><path class="cls-24" d="M3,23.29l.18-2.17c.68.08.67.66.9,1.05l-1,1.47A.34.34,0,0,1,3,23.29Z"/><path class="cls-25" d="M117.44,32.19c.39,2.28,0,4.69,1.14,6.85v0c0,1.49.79,1,1.32.39a17.55,17.55,0,0,0,1.4-2.66c.34,1.72-.15,3.33,1.16,4.37a16,16,0,0,1,1.07,4.48c-.25.42-.54.77-1.12.56-.48-.52-.49-1.26-.85-1.84a7.9,7.9,0,0,1-.65-1.53c-.3-1.07-1-1.14-1.93-.86a2.11,2.11,0,0,0-.66.6c-.33.54-.29,1.26-.83,1.71a.9.9,0,0,1-.66-.1A3.27,3.27,0,0,1,116,43c-.31-1.29-1.39-1.14-2.33-1.28-.74-.1-1.62-.27-1.69-1.12-.08-1,.92-.93,1.58-1.05s1.32-.1,1.71-.76c.23-.43.49-.85.75-1.27.43-1,.15-2.13.3-3.18C116.47,33.5,116.09,32.38,117.44,32.19Z"/><path class="cls-20" d="M116,39c-.62,1.89-2.48.61-3.62,1.42,1.08,1.49,4.46-.78,4.27,2.61.16,1.16.83,2.29.21,3.5a2.52,2.52,0,0,1-2.73,1.07c-2.19.15-4.45-.51-6.58.48l-.92.08-.15-.16a3.18,3.18,0,0,1-1.58-3.31c0-.61,0-1.23.06-1.84-.13-1.35,1.56-1.87,1.46-3.22a1.1,1.1,0,0,1,.61-.38c2.48.45,4.87-.4,7.32-.42C114.87,38.86,115.43,38.67,116,39Z"/><path class="cls-10" d="M122,44.11c.76.53.44,1.35.56,2,.37.89,1.34.56,2,1,0,.77-.39,1-1.07,1H117c-.16-.89.52-.91,1-.89,1.21.05-.2-.58.21-.7a1,1,0,0,1,.29-.58C120,46,121.43,45.84,122,44.11Z"/><path class="cls-21" d="M118.48,46.63c-.08.33,1.29.69,0,1-.52.11-1.12,0-1.48.52l-.22.05h-.22a3.64,3.64,0,0,1-2.58,0h0c-.26-.36-.29-.69.16-.94a3.33,3.33,0,0,0,2.36-.61c.64-.71-.13-1.74.54-2.45l.38,0C118.43,44.7,118.05,45.84,118.48,46.63Z"/><path class="cls-10" d="M114.13,47.2c-.06.32-.11.63-.16.94l-6.47,0C109.47,46.13,111.92,47.51,114.13,47.2Z"/><path class="cls-26" d="M124.51,47.12a1.91,1.91,0,0,1-2.07.29c-.63-.39,0-.84.12-1.25l1-.56C124,46,124.68,46.29,124.51,47.12Z"/><path class="cls-27" d="M22.68,10.59a17,17,0,0,0,.12-2.46c-.43-5.16.48-4.36,4.38-4.38h2.23c5.66-.09,6,.33,5.14,6.08-.06.4-.06.82-.08,1.23-.11.11-.21.23-.31.35-3.3.83-6.63.38-10,.26A1.74,1.74,0,0,1,22.68,10.59Z"/><path class="cls-28" d="M41.8,3.76c4.48-.07,6,2.11,4.62,6.45-.35,1.07-1.11,1.29-2.16,1.12a19.72,19.72,0,0,0-3-.24c-1.54,0-3.79,1-4.41-.39-.72-1.65-.21-3.89-.07-5.86.06-.91,1-1,1.75-1.07C39.63,3.72,40.72,3.76,41.8,3.76Z"/><path class="cls-29" d="M20.43,13.24c-.83-.76,0-1.36.19-2L22,10.66a7.67,7.67,0,0,0,3.78.76,42,42,0,0,1,6.63.19,1.88,1.88,0,0,0,2-.56h0c.47.63.52-2.28,1.32-.13.38,1,1.76.91,2.72,1.23-1.7,2.68-2.48,2.93-4.68,1.46-3.76-.32-7.53-.94-11.23.42-.83.53-1.44.17-2-.46C20.54,13.47,20.49,13.35,20.43,13.24Z"/><path class="cls-30" d="M20.51,11.1c-2.62.17-5.19.83-7.85.63A2.67,2.67,0,0,1,9.94,9.37c-.36-1.62.69-3.19,0-4.87-.2-.47.89-.85,1.57-.88,2.63-.14,5.25-.26,7.88-.38,1.82,1,1.27,2.68,1.31,4.17C20.73,8.64,20.58,9.87,20.51,11.1Z"/><path class="cls-8" d="M34.55,13.14c.6.4.92,2.1,2,.33.37-.61,1.29-.88,2-1.31h1.06c1.63-.06,3.27.13,4.91,0l.62,0c.7.59,2.47.4,1.58,2.16a1.72,1.72,0,0,1-.78.05,15.83,15.83,0,0,0-5.39-.56c-2.72.08-3.13.51-3.27,3.18-.12,2.29.39,4.62-.4,6.87-.8.72-.92.12-1-.53a34.15,34.15,0,0,1,0-4.42,31.47,31.47,0,0,0,0,4.5c.09,1,.18,2-1.22,2.27a1.55,1.55,0,0,1-.46-.62,71.87,71.87,0,0,1,0-11.27A1.81,1.81,0,0,1,34.55,13.14Z"/><path class="cls-29" d="M47,14.15c-.28-1-1.64-1-1.94-2,1.09-.07,1.52-1.17,2.42-1.54a.93.93,0,0,0,1.09.41h0a3.27,3.27,0,0,0,3.38,1,6.79,6.79,0,0,1,4.47.55c-2.09,1.44-4.5.34-6.71.82a13.43,13.43,0,0,0-1.37.54,2.48,2.48,0,0,1-1,.31Z"/><path class="cls-29" d="M34.47,2.1l2.88.56C35.46,4.36,36.26,6.6,36,8.72a2.27,2.27,0,0,1-.59-2.09c.5-3.15-1.14-3.92-4.3-3.4,1.38-1,2.7,0,3.44-1.14Z"/><path class="cls-31" d="M34.47,11.05c0,1.53-1.23,1.22-2,1-2.51-.69-5-.34-7.57-.41a3.59,3.59,0,0,1-2.9-1l.64-.07C26.59,11.39,30.54,11,34.47,11.05Z"/><path class="cls-32" d="M22.56,2.65a2,2,0,0,1,0,.48c-1,.71,0,2.06-1.15,3.1-.05-1.36-.12-2.49-1.18-3.14.48-.73,1.25-.35,1.88-.47A4.19,4.19,0,0,0,22.56,2.65Z"/><path class="cls-29" d="M44.48,12.18a5.74,5.74,0,0,1-4.91,0C41.21,11.25,42.84,11.64,44.48,12.18Z"/><path class="cls-33" d="M91.56,13.74c3.62-.86,7.28-.36,10.92-.29A1.52,1.52,0,0,1,104,15.12c.05,2.83,0,5.66,0,8.49,0,1.14-.61,1.61-1.75,1.58-3.4-.07-6.8-.09-10.2-.13l-.42-.14a2.17,2.17,0,0,1-.77-1.74,47.09,47.09,0,0,0-.42-6.6A2.79,2.79,0,0,1,91.56,13.74Z"/><path class="cls-34" d="M111.75,25.17c-6.53.12-5.25.84-5.84-4.77a6.34,6.34,0,0,1,0-1.74c.29-1.72-1-4.38.91-5a10.19,10.19,0,0,1,7.77.23,2.46,2.46,0,0,1,1.51,2.35c.05,2,.14,4,.19,6,0,2.22-.82,3.45-3.27,3A6.8,6.8,0,0,0,111.75,25.17Z"/><path class="cls-9" d="M106.5,39.6v.54c-2.09-1-2.21,1.18-3.21,2-3.45.54-6.94-.06-10.39.36-2,.95-.45,2.53-.67,3.8a.81.81,0,0,1-.42.58,1.3,1.3,0,0,1-.78,0c-1.6-1.06-1.1-2.67-1.11-4.16a2.23,2.23,0,0,1,1.49-1.9,10.91,10.91,0,0,1,2-.09c1.51.46,3-.23,5,.18-1.84-.46-3.25.27-4.63-.18a11.56,11.56,0,0,1-2.35-.15,1,1,0,0,1-.55-1.38,1.67,1.67,0,0,1,.75-.38c3,0,5.94.26,8.91.21,1.87,0,2.75-.78,2.73-2.67s-.06-3.81,0-5.71-.79-2.68-2.66-2.71c-3,0-5.94.14-8.92,0a.7.7,0,0,1-.42-.68c.45-1.22,1.28-.93,2.13-.54l10,.06a22.22,22.22,0,0,0,2.58.19.84.84,0,0,1,.73.72C106.41,31.57,106.82,35.59,106.5,39.6Z"/><path class="cls-35" d="M117,15.64c0-.08,0-.18.05-.23a1.74,1.74,0,0,1,.29-.25c.37,1.34.73,2.69,1.09,4,.28,2.57,2,4.95.78,7.76a2.52,2.52,0,0,0,1.19,2.73c.29.54,0,.56-.42.49l-2.48,0c-1.73-.87-1.23-2.59-1.52-4A9.62,9.62,0,0,0,117,20,15.24,15.24,0,0,1,117,15.64Z"/><path class="cls-36" d="M114,10.15l1.39,2c.1.7.28,1.44-.91.95-2.41-1-4.94-.24-7.4-.44a2,2,0,0,0-1.71.88,5.2,5.2,0,0,1-.66.57c-1.87-2.81-4.79-.81-7.1-1.58a2.56,2.56,0,0,1-.6-.41c.72-1.36,2-1.29,3.23-1.19a10,10,0,0,0,4.1-.54,6,6,0,0,1,1.51.25c1.45.52,3,.28,4.46.33s2.26-.49,1.88-2.15c-.32-1.38-.3-2.74,1-3.74l.36.06C113.69,6.81,113,8.57,114,10.15Z"/><path class="cls-37" d="M104.48,10.61a4.13,4.13,0,0,1-3.9,1c-1.29-.38-2.43.15-3.59.57l-.24,0-.24,0C95,12.53,93.44,12,91.9,12s-1.63-1.51-1.45-2.81c0-1.35,0-2.7,0-4.06-.15-.12-.2-.22-.13-.3a.26.26,0,0,1,.19-.11A2.41,2.41,0,0,1,93.48,3.2c2.44.47,4.9.06,7.35.22.88.05,1.8-.27,2.63.24-.28,1.4-1.45,1.09-2.33,1.12-2.31.07-4.63.12-6.94,0-1.49-.1-2.23.48-2.11,2,.1,1.33-.76,3,1.64,3.46,2.58.5,5.1-.16,7.65,0,1.49.1,1.7-1.27,1.91-2.45s-.56-2.46.26-3.62c.68-.16,1,.23,1.35.75C105.2,6.83,105.68,8.78,104.48,10.61Z"/><path class="cls-18" d="M93.43,26.58c-.66.09-1.4-.13-2,.47-.07,2-.31,4-.33,6,0,.84.12,1.89-1.12,2.13-1.41-2-.27-4.36-.87-6.47-.23-1.55-1.75-1.35-2.68-1.95a1,1,0,0,1-.18-1c.76-.81,2.23,0,2.82-1.23a5.85,5.85,0,0,0-.1-3.72,4.88,4.88,0,0,1,.1-2.37c.31-.54.41-1.46,1.23-1.27.64.15.85.93.88,1.59,0,1.4,0,2.79,0,4.19,0,.78-.24,1.69.8,2.09v0Z"/><path class="cls-36" d="M90.45,9.19c.41,1.54.66,3,3,2.25.84-.29,2,.44,3,.7-1.5,1.29-3.53-.22-5.05,1-.64.64.06,3-2.13,1.68a2.65,2.65,0,0,0-1.91-1.36c-1.92-.5-4.06.59-5.83-.85,1.18-2.05,3.32-.67,4.43-.51C88.78,12.46,89.49,10.91,90.45,9.19Z"/><path class="cls-38" d="M116,26.13c1.39,1,.77,2.76,1.52,4,0,.69,0,1.37,0,2.06-.88,1.06-.27,2.32-.45,3.47-.14.83.34,1.79-.56,2.44-1.27-2.26-.49-4.72-.6-7.08-.16-3.14-.08-3.08-3.28-3.22-2-.09-4.16.63-6.06-.67h-1c-.25-.89.62-.69,1-1Z"/><path class="cls-38" d="M89.61,14.59c1.58.71,1-1.3,1.85-1.48,0,.21.07.42.1.63-.85,3.83-.14,7.59.5,11.35-1.47-.13-1-1.28-1-2.1-.19-1.79.39-3.66-.53-5.4-.71,0-.39.85-.84,1.07A2.88,2.88,0,0,1,89.61,14.59Z"/><path class="cls-39" d="M106.48,26.14l-1,1c-.93.84-1.42-.13-2-.49C104.23,25.1,105.14,24.29,106.48,26.14Z"/><path class="cls-4" d="M9.66,14.19c.52-.39.94-1,1.66-1,3,.16,6.08-.63,9.11,0l0,0c1,1.12.88,2.59,1.23,3.91.37,2.31-.46,4.58-.23,6.9.13,1.24-.74,1.78-1.84,1.9a21.43,21.43,0,0,1-9.55-.65c-1-1.3-.6-2.91-1-4.35A6.3,6.3,0,0,0,9,17.77C8.92,16.52,8.58,15.23,9.66,14.19Z"/><path class="cls-40" d="M9.66,14.19v3.9a6.37,6.37,0,0,0-.57,2.46,9.89,9.89,0,0,1,.31,1.71c-.22.83-.12,1.75-.78,2.43l-.49.5a.45.45,0,0,1-.68-.08,37.3,37.3,0,0,1,.06-6.93c.2-2.21-.27-3.92-2.37-4.93A1,1,0,0,0,5,13a1,1,0,0,0,.09-.34c1.45-.72,2.78-1,3.51.94C8.79,14.1,9.22,14.14,9.66,14.19Z"/><path class="cls-41" d="M8.59,13.61c-1-1.09-2.25-1-3.51-.94A1.16,1.16,0,0,1,4,12.11a3.54,3.54,0,0,0,.11-.44l.93-.51c.2-.17.35-.13.45.1,1.68,1,2.79.18,3.71-1.2C10.07,11.45,11.88,13,8.59,13.61Z"/><path class="cls-42" d="M5.59,3.67q2.7-.56,2.64,2.19c0,1.23,0,2.46-.1,3.68s-.83,1.7-2,1.56A2.17,2.17,0,0,1,4.8,8.74,5.16,5.16,0,0,0,4.6,6.1a.58.58,0,0,0,0-.41C5,5.06,4.61,4,5.59,3.67Z"/><path class="cls-13" d="M4.6,6.1c.8,1.58-.35,3.75,1.52,5l-.62.16a1.64,1.64,0,0,0-.45-.1C4.18,9.54,4.49,7.81,4.6,6.1Z"/><path class="cls-43" d="M73,11.08c-3.37.33-6.79-.53-10.14.39a.67.67,0,0,1-.48-.08c-2.28-1.21-1.23-3.37-1.3-5.11C61,5,61.37,3.54,63.28,3.6c2.49.08,5,.17,7.47.18,1.49,0,2.08.66,2.06,2.12,0,1.73.09,3.46.15,5.2Z"/><path class="cls-36" d="M74.07,10.26a2.87,2.87,0,0,0,3.36,2c1-.09,2.11-.44,3,.38-.89,1-2.1.71-3.19.69a20,20,0,0,0-3.54.7,3.69,3.69,0,0,1-1.6-.38,48.29,48.29,0,0,0-9.91-.15c-.87.21-1.09,1-1.48,1.66-1.42.78-1.52-.53-2-1.25l-.39-.43a3.16,3.16,0,0,1-.78-.81c1.31-1,2.54-2.32,4.33-.63.52.49,1.4.09,2.14-.05a12.71,12.71,0,0,1,6.13,0A2.25,2.25,0,0,0,73,11.08l0,0C73.55,11.12,73.76,10.62,74.07,10.26Z"/><path class="cls-44" d="M48.61,11.07c-1.13-9.14-.81-7.29,6-7.41,4.57-.08,4.58-.06,4.58,4.34,0,3.17-.42,3.87-3.49,3.51-2.36-.28-4.76.41-7.07-.44Z"/><path class="cls-45" d="M57.57,12.63c.39,0,.76.13.92.55A13.68,13.68,0,0,1,49,13.09c2.43-1,5-.12,7.45-.49Z"/><path class="cls-46" d="M79.45,3.8c2.81,0,5.2,0,7.59,0,1.46,0,2,.66,2,2.14,0,6.63.36,5.14-5.67,5.22q-3.09,0-6.18.22c-.81,0-1.64,0-1.86-.81a10.49,10.49,0,0,1,.37-6.29C76.34,2.78,78.49,4.39,79.45,3.8Z"/><path class="cls-47" d="M73.51,13.7c2.11-1.64,4.61-.86,6.94-1.1h1.14c2.16.26,4.37-.29,6.51.39a1.08,1.08,0,0,1-.56.57c-3,.58-6.11.23-9.17.26-2,0-2.77.7-2.75,2.79,0,2.63.19,5.31-.6,7.9a1.75,1.75,0,0,1-.49.71c-1,0-1.23-.74-1.52-1.45C73,20.4,72.17,17,73.51,13.7Z"/><path class="cls-48" d="M104.48,10.61c0-2,0-4,0-5.95A5.34,5.34,0,0,0,103,3.09c1.14-1.2,2.29-.51,3.44,0-.46,1.78.24,3.7-.66,5.42-.42.32-.38.62,0,.91a1.56,1.56,0,0,1-.32,1.73A1.06,1.06,0,0,1,104.48,10.61Z"/><path class="cls-49" d="M105.45,8.55c.84-1.73-.91-4,1-5.47l4.58,0c.76-.35,1.24,0,1.6.63a.63.63,0,0,1-.32.63,3.31,3.31,0,0,1-1.71,0c-3-.22-3-.21-3.77,2.69C106.67,7.71,106.75,8.84,105.45,8.55Z"/><path class="cls-50" d="M118.58,39c-.13-2.22-.24-4.44-.4-6.66,0-.6-.14-1.26.52-1.49s1,.5,1.28.93c1.6,2.12.83,6-1.41,7.2Z"/><path class="cls-25" d="M120,30.17l.42-.49c.86.4,1,1.17,1.14,2.26A2,2,0,0,1,120,30.17Z"/><path class="cls-51" d="M73,46a8.65,8.65,0,0,1-6.5.69,5.9,5.9,0,0,0-2.44,0c-1.84.27-3.09-.39-3.15-2.5s.8-2.85,2.86-2.73c2.9.17,5.81.14,8.71.19C74,43,74.05,44.45,73,46Z"/><path class="cls-52" d="M72.15,40.25c-2.9,0-5.8-.6-8.71-.07-1.81.7-3,.12-3.53-1.74q-.18-5.05,0-10.12a2.49,2.49,0,0,1,1.66-2.09c1.88-.21,3.82-.9,5.53.55-.55,1.34-1.78,1-2.77,1-1.9.09-2.64,1.05-2.62,2.87a51.12,51.12,0,0,1,.2,6.2c-.16,1.39,1.06,1.78,2.22,1.72a35.65,35.65,0,0,1,5.47.2c1.93.2,2.69-.73,2.6-2.4-.13-2.31-.4-4.62-.42-6.94,0-1.88-2-1.38-2.85-2.37.43-1.35,1.56-1,2.54-1A3.13,3.13,0,0,1,74,28.41a63.32,63.32,0,0,1,.12,9.34C74.11,39,73.9,40.28,72.15,40.25Z"/><path class="cls-2" d="M92.08,46.57c0-.15,0-.3-.07-.46,2.26-1.21,4.73-.29,7.07-.71,1.2-.21,3.26.56,3.29-1.2,0-2.07-2.13-1.16-3.38-1.35-2.33-.36-4.82.67-7-.76,1.64-1.3,3.53-.32,5.29-.52a49.9,49.9,0,0,1,6.69.12l.32.28c.55,1.8.87,3.59-.51,5.21a.94.94,0,0,1-1.18-.1,7,7,0,0,0-5.18-.31,13.28,13.28,0,0,1-2.87.31A2.32,2.32,0,0,1,92.08,46.57Z"/><path class="cls-48" d="M72.15,40.25c1.37-.53,1.41-1.75,1.41-2.91,0-3.07,0-6.14-.06-9.21,1.09-.13,1,.82,1.34,1.42a3,3,0,0,1,0,1.07A4.29,4.29,0,0,0,75,33.34c.4,2.31,0,4.72,1,6.95.45,1-.42,1.23-1.14,1.47-.89.21-1.79.44-2.32-.65A.66.66,0,0,1,72.15,40.25Z"/><path class="cls-17" d="M90.43,42.52c.33,1.38-.57,3.09,1.07,4.13.58.4,1.24.11,1.84.24,1.06.22.94.64.15,1.12l-7.42,0c-.19-.61.3-.76.67-1,.67-.33,1.47-.41,1.92-1.11.5-1.31-.1-2.78.6-4.06C90.19,41.08,90.15,42.12,90.43,42.52Z"/><path class="cls-53" d="M102.56,47.08l.83,0c1.48-.54.6-1.87.92-2.8.58-.57.83-.11,1.09.34-.2,1.31.51,2.35,1,3.44H100c-.49-.67-1.41-.15-2.31-1Z"/><path class="cls-54" d="M60.45,38.76c.59,1.33,1.85,1.25,3,1.42,0,1-.78.81-1.36.85-.74.06-1.44.13-1.61,1-.2.42-.44.78-1,.7a6.75,6.75,0,0,1-2-1.63c-.1-.67.43-1,.81-1.35s.8-1.07,1.41-1.39C60,38.34,60.32,38.33,60.45,38.76Z"/><path class="cls-55" d="M82,48.06l-7,0a5.83,5.83,0,0,1-1-2.8A1.48,1.48,0,0,1,74.58,44a6.86,6.86,0,0,0,5.88,2.6C81.16,46.9,82,47,82,48.06Z"/><path class="cls-55" d="M74.58,44l-.11,1.74c-.38.46-.57,1.23-1.45.9L73,46a11.43,11.43,0,0,0-.52-4.31c0-.21.05-.41.08-.62a1.71,1.71,0,0,0,2,.06,2.17,2.17,0,0,1,0,2.81Z"/><path class="cls-56" d="M82,48.06l-1.62-1c2.13-1.43,4.32-.5,6.5-.18a.52.52,0,0,1,.15.75c-.37,0-.74,0-.94.44Z"/><path class="cls-57" d="M73,46.62l1.45-.9c-.14.84,1.35,1.33.5,2.32H72.09c-.37-.28-.39-.55,0-.81Z"/><path class="cls-56" d="M93.49,48c.28-.53.26-.89-.47-.89-.55,0-1.13.06-1.52-.47l.58-.08a2.92,2.92,0,0,1,2.43.51c.18.26.56.66.5.75C94.61,48.4,94,48,93.49,48Z"/><path class="cls-58" d="M59.59,42.58l.88-.51c.3,1.2-.67,2.39,0,3.59l-.85,0A2.06,2.06,0,0,1,59.59,42.58Z"/><path class="cls-6" d="M64.06,47.93a1.58,1.58,0,0,1,2.31-.41C65.68,48.46,64.79,47.92,64.06,47.93Z"/><path class="cls-6" d="M72.11,47.22c0,.27,0,.54,0,.81H69.65l-.07-.19Z"/><path class="cls-15" d="M10.1,25.06a70,70,0,0,0,9.61.29c.82,0,1.53-.21,1.26-1.31-.56-2.31.31-4.6.05-6.9,1.25.06.93.71.52,1.53,1.21-1.48-.69-3.19.51-4.53a1.46,1.46,0,0,1,1.52-1.35c3.66,0,7.35-.64,11,.35l-.07.63c-2.38.44-4.78,0-7.17.07-3.22.13-3.36.21-3.57,3.34-.1,1.65-.26,3.3-.31,5s.66,2.24,2.19,2.27c2.49,0,5-.08,7.47.07a2.38,2.38,0,0,1,1.38.51l.07.64a1.65,1.65,0,0,1-1.3.73,88.09,88.09,0,0,0-9.75,0c-1.62-.23-2.57.15-1.9,2.05a55.16,55.16,0,0,1,0,6.68.31.31,0,0,0,.24-.36,22.37,22.37,0,0,0-.16-5.11c.23-1.33-.32-3.12,1.93-3.24a87,87,0,0,1,9.69,0c.51,0,.83.19.78.77-2.08,1.25-4.37.58-6.57.65-3.62.13-3.75.17-3.75,3.85a43.43,43.43,0,0,1-.26,5c-.15,1.3.44,2.18,1.8,2.11,2.09-.1,4.15.26,6.23.15,1.65-.08,2.41-.84,2.34-2.51-.09-2-.06-4,0-6a3.71,3.71,0,0,1,.69-2.82c1.93.81.88,2.54,1.2,3.85,0,.73,0,1.47,0,2.2a14.6,14.6,0,0,0,.16,3.17c.53,2.07-.33,3.29-2.31,3.86-3.33.52-6.67.16-10,.06a3.79,3.79,0,0,0-3.69.09c-1.89.72-3.61-.18-5.38-.59-1.31-.31-2.76.39-4-.55a.47.47,0,0,1,.11-.7c2.14-.58,4.29,0,6.44,0,2,0,2.94-.61,2.81-2.73s0-4.16-.05-6.24c0-1.42-.66-2.16-2.12-2.16a23.17,23.17,0,0,1-2.5,0c-2.2-.23-4,.19-4.54,2.7-.07.31-.4.52-.69.69-.53.14-.71-.28-1-.58.9-1.2,0-3.14,1.66-4L10,25.7A.4.4,0,0,1,10.1,25.06Z"/><path class="cls-59" d="M17.46,47.07h-.89c-4.49-1.37-4.86-1.73-5-4.92,1.14-1.23,2.77-.34,4-1l0,0c1.9-.41,3.75-.59,5.24,1a3.8,3.8,0,0,1,.34,1.66c.09,2.51-.23,2.84-2.83,3A2,2,0,0,0,17.46,47.07Z"/><path class="cls-60" d="M20.48,42.19c-1.45-1.14-3.27-.45-4.84-1l-1.13-1c1.91-.38,3.81.64,5.71,0,.25.56.74,1.05.5,1.75Z"/><path class="cls-60" d="M10.58,39.09c0,.19,0,.38-.05.57l-1-.51A13.51,13.51,0,0,1,10,34.59a1.49,1.49,0,0,0-.93-2v-2l.57.57a3,3,0,0,1,1.54,2.86A17.5,17.5,0,0,1,10.58,39.09Z"/><path class="cls-60" d="M15.62,41.19c-1.17,1.07-2.77.33-4,1C12.57,40.36,14.24,41.37,15.62,41.19Z"/><path class="cls-44" d="M58.93,46.05c-3.58,1.74-7.15.66-10.73,0-.73-1.62-1.22-3.22.42-4.63,2.6-.85,5.27-.55,7.88-.3S59.7,42.81,58.93,46.05Z"/><path class="cls-61" d="M58.93,46.05c.38-4-.2-4.68-4.06-4.47-2.06.11-4.14-.34-6.18.17-.08-.14-.15-.28-.22-.42,3-1.55,6.07-1.15,9.15-.28a3.32,3.32,0,0,1,2,1.53v3.05a3.73,3.73,0,0,0-.08.44Z"/><path class="cls-61" d="M48.69,41.75C48,43.1,48.16,44.56,48.2,46l-.61.06c0-.45-.07-.91-.1-1.37-.72-1.38-1-2.6,1-3.11A1.54,1.54,0,0,0,48.69,41.75Z"/><path class="cls-62" d="M30.56,47.14l-7.08.07a1.27,1.27,0,0,1-1.26-.74,3.34,3.34,0,0,1-.28-1.16,10.48,10.48,0,0,1,.3-4,1.26,1.26,0,0,1,.62-.54c3.64-.35,7.28.16,10.92,0a1.58,1.58,0,0,1,1,1.24,1,1,0,0,1-.26.73,22.86,22.86,0,0,1-5.9-.15,11,11,0,0,0-2-.22c-1.23.06-2.75,0-2.8,1.69,0,1.89,1.47,1.9,2.85,1.86a6.36,6.36,0,0,1,3.62.53.61.61,0,0,1,.19.68Z"/><path class="cls-60" d="M17.46,47.07c3.44-1.19,3.44-1.19,3-4.88l.25-.21c2.46,1.39,1,3.25.59,5a.55.55,0,0,1-.72.18Z"/><path class="cls-63" d="M20.6,47.14a1.93,1.93,0,0,1,.42,0,1.39,1.39,0,0,1,1.58-.58l.88.69C22.5,47.77,21.51,49,20.6,47.14Z"/><path class="cls-64" d="M45.48,47.06c-2.65-.61-5.29-.22-7.93.06-1.69,0-1-1.46-1.42-2.29-.16-2.76.59-3.7,3.2-3.91a37.2,37.2,0,0,1,4.48,0c3,.16,3.95,1.68,2.7,4.48a6,6,0,0,1-1,1.68Z"/><path class="cls-65" d="M36.49,45.1c.07.82,0,1.72,1.06,2a.91.91,0,0,1-1,.46,2.31,2.31,0,0,1-.56-2.5l.25-.15Z"/><path class="cls-32" d="M34.62,42.07c-.23-.28-.46-.55-.68-.83,0-.37-.82-.56-.24-1.06,1.47-.69,2.33-1.56,1.57-3.41a10,10,0,0,1-.2-3.11c1.37-1.39,1.44.11,1.53.81.24,2-.1,4.1,1,6a.72.72,0,0,1-.17.91c-1.35.93-1,2.49-1.4,3.74l0,0-.49-.49C34.68,43.93,34.9,42.91,34.62,42.07Z"/><path class="cls-65" d="M34.62,42.07a3,3,0,0,1,.89,2.52c-.66.51-.15,1.58-1,2l-.27-.27A2.9,2.9,0,0,1,34,45.24c0-.89-.17-1.82.53-2.56Z"/><path class="cls-65" d="M30.53,47.09v-.51l.31-.27a3.87,3.87,0,0,1,3.58.17l.14.14C33.3,47.55,31.87,46.9,30.53,47.09Z"/><path class="cls-66" d="M36,45.1c.07-1.29-.28-2.67.92-3.7.16-.13.35-.54.29-.61-1.81-2-1-4.55-1.25-6.87-.06-.66-.55-.4-.92-.26,0-.7,0-1.39,0-2.08.75-.76.29-1.73.46-2.59.13-.64-.11-1.66,1.17-1.28a2.24,2.24,0,0,1,.42,1.05c.16,2.49.08,5,.07,7.47,0,1.81.79,2.53,2.56,2.52a37.11,37.11,0,0,1,4.72-.19,1,1,0,0,0,1.2-1,39.8,39.8,0,0,0-.13-8.93c-.07-.42-.45-.67-.8-.91-1.41-.9-3.14,0-4.56-.84a.68.68,0,0,1-.31-.68,8,8,0,0,1,5.66-.78,5.94,5.94,0,0,1,2.47,3c.61,2,.19,4.1.17,6.15,0,4.82,0,4.82,4.68,4.82,1.15,0,2.31,0,3.46,0,.81,0,1.68,0,2.24.75l-1,.84c-3,.35-6.13-.55-9.12.53-1.31.72-.84,2-1,3.11-1,.55-.66,2.18-2,2.37,2.15-5.1,1.85-5.57-3.66-5.61-.49,0-1,0-1.48,0-2.54-.11-4.09.81-3.83,3.64Z"/><path class="cls-24" d="M7.51,25.11l.62.08c-.6.68-.37,1.22.1,1.95.64,1,.91,2.57-.27,3s-2.25-.58-2.34-2.08c.42-.17.8.12,1.35.09a1.32,1.32,0,0,0-1.35-.08c.16-2.16-1.14-3.93-1.58-5.93l.53,0C5.9,22.78,6.15,24.5,7.51,25.11Z"/><path class="cls-24" d="M10.1,25.06,10,25.7c-.17-.17-.34-.35-.5-.53a6.15,6.15,0,0,1-.46-3.06l-.36-1.54a.63.63,0,0,1,.93.08A12.87,12.87,0,0,1,10.1,25.06Z"/><path class="cls-67" d="M9.05,22.11c.91.91.36,2,.46,3.06l-.89-.48C8.67,23.81,8.31,22.87,9.05,22.11Z"/><path class="cls-68" d="M7.51,25.11c-2.54.55-1.93-2-2.94-3-.58-3-1.21-6,.57-8.89C7.27,13,8.31,14,8.14,16,7.89,19.06,8.72,22.16,7.51,25.11Z"/><path class="cls-69" d="M106.49,27.13c2.49,0,5,0,7.46-.08,1.85-.05,2.7.47,2.51,2.6-.24,2.8,0,5.63,0,8.45L116,39c-3.12.65-6.24,1.32-9.45.56-1.11-1.88-.61-4-.68-6A17.41,17.41,0,0,1,106.49,27.13Z"/><path class="cls-70" d="M122,44.11c-.06,2.58-.48,2.81-3.48,1.94a4,4,0,0,1-.49-3.93l.46-.5a2,2,0,0,1,3,1.06A1.81,1.81,0,0,0,122,44.11Z"/><path class="cls-71" d="M118,42.12c-.26,1.36.3,2.62.49,3.93l0,.58a3.44,3.44,0,0,1-1.06-2.47C117.55,43.46,117.23,42.62,118,42.12Z"/><path class="cls-71" d="M121.45,42.68a3.08,3.08,0,0,0-3-1.06C119.92,40.73,121.06,40.68,121.45,42.68Z"/><path class="cls-71" d="M117,44.14c-.19.82.29,1.78-.54,2.45,0-1.17.07-2.35.11-3.52C116.74,43.43,116.88,43.78,117,44.14Z"/><path class="cls-72" d="M111.32,46.44a13.76,13.76,0,0,0-2.41.17c-1.69.39-2.89.4-3-1.88-.08-2,.34-3.25,2.62-3.19,1.74,0,3.48.09,5.21,0,1.94-.08,2.34,1,2.39,2.63.06,1.88-.78,2.55-2.53,2.4C113,46.52,112.29,46.5,111.32,46.44Z"/><path class="cls-73" d="M103.93,41.69c-1.15-1-.32-1.49.35-2.25,1.41-1.61,1.36.88,2.22.7.49.3,1.17.59.07,1a1.75,1.75,0,0,0-1.16,1.42.65.65,0,0,1-.87.24c-.39-.27-.13-.9-.62-1.12Z"/><path class="cls-56" d="M104.61,42.54h.8c0,.68,0,1.36,0,2.05l-.8-.48A1,1,0,0,1,104.61,42.54Z"/><path class="cls-74" d="M22.05,14.14c0,1.52,1.09,3.07-.13,4.57-.66-.33-.14-1.32-.9-1.57l-.57-3.94Z"/><path class="cls-75" d="M15,4.2h.81C20,4.22,21,5.47,20,9.55c-.12.52-.26,1.08-.85,1-2.16-.18-4.24.89-6.43.37-1.52-.37-2.39-1.12-1.92-2.81a2.25,2.25,0,0,0,.08-.24c.08-1.12-.28-2.69.32-3.27C12.22,3.66,13.92,4.38,15,4.2Z"/><path class="cls-33" d="M34.47,25c-3.31.09-6.62.17-9.93.27-1.39,0-1.89-.55-1.81-2,.16-2.73.18-5.46.23-8.18,0-1,.34-1.76,1.36-1.73,3.39.08,6.8-.54,10.16.38A77.81,77.81,0,0,1,34.47,25Z"/><path class="cls-46" d="M36.57,24.14a45.14,45.14,0,0,0,0-8c-.16-1.89.48-3.08,2.65-2.9,2.43.19,5-.78,7.25.93a2.85,2.85,0,0,1,.79,2.7c-.18,2.66.6,5.4-.67,8a1.45,1.45,0,0,1-.72.52c-2.67,0-5.32.48-8,.31C37.1,25.42,36.39,25.14,36.57,24.14Z"/><path class="cls-74" d="M36.57,24.14l1,1c.65.81,2.16-.6,2.51,1l-.06.43c-1,1.07-2.39.57-3.53,1-.72,1-.3,2.2-.39,3.3,0,.67-.11,1.18-1,.71-.46-1.25.71-2.8-.7-3.88a.53.53,0,0,1-.44-.42l-.37-.68c-.2-.08-.27-.17-.23-.29s.1-.18.15-.18l1-.5c1.87-2.22.47-4.83.83-7.23.07-.48-.58-1,.31-1.58C36.72,19.21,35.28,21.87,36.57,24.14Z"/><path class="cls-76" d="M46,25.07c.91-3.59.2-7.25.44-10.87l.62,0h0c1.35,2.78.73,5.72.67,8.62C47.48,23.8,47.78,25.22,46,25.07Z"/><path class="cls-77" d="M49,13.09l9.48.09h0A6,6,0,0,1,60,17.91c-.39,2.27.57,4.67-.7,6.85-1.65,1.41-2,1.45-2.72.31,2-2.84,1.67-6.18,1.06-9.13s-3.75-1.13-5.73-1.55c-1-.22-2.38-.09-2.29,1.49.1,1.83,0,3.64,0,5.47s1,2.57,2.82,2.63c1.42.05,3.19-.76,4.15,1.13-2.57,1.36-5.22,1-7.87.33a1.51,1.51,0,0,1-.58-.67c-.5-3.71-1-7.42,0-11.13Z"/><path class="cls-8" d="M48.07,13.64a69.43,69.43,0,0,0,.52,11.44c-2.13.21-.42-1.94-1.46-2.4,0-2.84-.06-5.69-.1-8.53Z"/><path class="cls-75" d="M91.53,27.67c3.66-1.06,7.39-.19,11.09-.35,1,0,1.48.88,1.47,1.94,0,2.66,0,5.31-.07,8,0,1.57-.61,2.39-2.41,2.38-3.36,0-6.73.24-10-.51A4.18,4.18,0,0,1,90.79,35C91.5,32.6,90.46,30,91.53,27.67Z"/><path class="cls-78" d="M92,42.09c3.14,0,6.29.08,9.43,0,1.43,0,2.15.45,2.12,2s-.71,2-2.16,2c-3.11-.06-6.22,0-9.33,0C91.2,44.78,90.45,43.45,92,42.09Z"/><path class="cls-79" d="M91.53,27.67c0,3.81-.66,7.62,0,11.43l-.67.07c-.8-.11-.8-.73-.86-1.31,0-.32.24-.06,0-.26s0-.27,0,0c0,.5,0,1,0,1.5a1.87,1.87,0,0,1-.53,1c-3.22,1.06-6.59.38-9.78.85,2.41,0,4.88-.44,7.37-.31.82.05,1.69-.13,2.33.59l.21.38c-.24,1.68.54,3.47-.56,5.06a.42.42,0,0,1-.67-.22c-.1-4.13-.1-4.1-4.33-4.14-3.15,0-6.3.18-9.45-.11v-1c.35-.23,1.4,0,1-.59-1.57-2.3-.86-4.87-1.14-7.31a.57.57,0,0,1,.06-.72c1.81.74,1.37,2.52,1.51,3.84.21,2,1.07,2.72,3,2.58a54.11,54.11,0,0,1,6-.1c2.38.09,3.54-.86,3.82-3.12a2.36,2.36,0,0,1,.47-.62.56.56,0,0,1,.72,0c1.22-2.19-.14-4.75,1-7,.19-.36.32-.74.48-1.11C91.5,27.25,91.51,27.46,91.53,27.67Z"/><path class="cls-80" d="M89.53,39.64l.11-1c.28-.28-.2-1.18.75-.92.07.5,0,1.07.5,1.41l.53,1c.39.27.38.56,0,.85a1.73,1.73,0,0,0-1,1.46l-.86-.93h0A1.39,1.39,0,0,1,89.53,39.64Z"/><path class="cls-56" d="M93.94,40.22c1.61.71,3.52-.95,5.26.79H93.49C93.38,40.59,93.62,40.38,93.94,40.22Z"/><path class="cls-17" d="M93.94,40.22l-.45.79-2,.05,0-.85Z"/><path class="cls-56" d="M100.31,40.87c.54-.92,1.18-.82,2.06-.4C101.76,41.32,101.1,41.17,100.31,40.87Z"/><path class="cls-11" d="M112.49,3.65a1.54,1.54,0,0,1,1,1.5,3.91,3.91,0,0,0-.69,3.72c.62,2.08-.2,3-2.39,2.69a.69.69,0,0,1,.15-.67,1.86,1.86,0,0,0,1-2.24,5.66,5.66,0,0,1,.93-4.45Z"/><path class="cls-49" d="M110.51,11.18a1.24,1.24,0,0,1-.09.38c-1.64-.15-3.34.58-4.9-.42,0-.63,0-1.27-.07-1.9C107,10.27,108.91,10.3,110.51,11.18Z"/><path class="cls-34" d="M103.5,4.15a20.19,20.19,0,0,1,.35,2.44c.1,4.1-.13,4.11-4.14,4.26-2.23.09-4.41.09-6.63,0-1.1-.05-1.48-.35-1.68-1.27A14.55,14.55,0,0,1,91.49,5a1.08,1.08,0,0,1,1.36-1.07c3.54.54,7.1.07,10.65.27Z"/><path class="cls-65" d="M74.44,30.51v-.93c-.24-.78-.52-1.72.1-2.28,1-.86-.17-1.38-.11-2.06l.16-.75c3.73-.21,7.47-.18,11.2-.21,2.15,0,2.56-.77,2.51-2.58a62.75,62.75,0,0,0-.38-8.45c0-.09.11-.18.17-.27a1.41,1.41,0,0,1,1.51,1.61l0,4.07v2.51a11.39,11.39,0,0,1-.06,3.95,2.34,2.34,0,0,1-3.07.6c-.46.4-1.08.2-1.64.43a1.82,1.82,0,0,1,1.64.47c1.29,0,2.76-.34,3.11,1.56a44.37,44.37,0,0,1,0,6.82l-.28.21c-1.54-.82-1-2.31-1-3.54-.12-3.66-.08-3.66-3.78-3.81-1.08,0-2.17,0-3.25,0-2.68-.2-5.22-.24-5.83,3.27a.87.87,0,0,1-1,.61A1.12,1.12,0,0,1,74.44,30.51Z"/><path class="cls-17" d="M89.67,35l-.06-6.82c.86,2.27.18,4.63.4,6.94A.52.52,0,0,1,89.67,35Z"/><path class="cls-81" d="M86.51,26.62H83.25c1.09-1.15,2.07-1.42,3.26-.9Z"/><path class="cls-38" d="M89.58,25.12c0-1.32,0-2.64,0-3.95A4.36,4.36,0,0,1,89.58,25.12Z"/><path class="cls-33" d="M15.4,24.56c-4.77.14-4.81.09-4.75-4.85.08-6,.09-5.85,4.93-6,5.71-.2,4,.05,4.71,5.31a4.47,4.47,0,0,1-.18,1.23c-.21,1.43.66,3.45-.35,4.18S16.89,24.56,15.4,24.56Z"/><path class="cls-67" d="M9.62,20.65l-.93-.08c.05-.93-.66-2.16,1-2.48A2.33,2.33,0,0,1,9.62,20.65Z"/><path class="cls-82" d="M7.5,7c0,.54,0,.79,0,1-.08.78.17,1.94-1,1.88s-.82-1.21-.9-2a2.09,2.09,0,0,1,0-.5c.22-1-.63-2.85.89-2.92C8.26,4.44,7.05,6.37,7.5,7Z"/><path class="cls-52" d="M73.51,13.7V24.12c-.14,1.34-1,1.8-2.22,2-3.23.22-6.47.19-9.71.24A1.92,1.92,0,0,1,60,25c0-3.34-.34-6.7.41-10,.08-.77-.22-1.72,1-1.93a.52.52,0,0,1,.72.1c-.67,3.09.23,6.24-.36,9.34-.25,1.32.54,1.94,1.89,2,2.07,0,4.13-.15,6.2-.1,1.52,0,2-1,2-2.29-.1-3,.47-5.92.09-8.88a.44.44,0,0,1,.69-.09Z"/><path class="cls-45" d="M60.44,15c.55,3.4,0,6.81.07,10.21a2.71,2.71,0,0,1-1.57,0,.36.36,0,0,1,.09-.53c.09-3.83,1-7.7-.54-11.46C60,12.85,59.05,15.18,60.44,15Z"/><path class="cls-47" d="M72.59,13.09l-.74.15a14.93,14.93,0,0,1-9.68,0l-.76-.17A31.12,31.12,0,0,1,72.59,13.09Z"/><path class="cls-83" d="M53.67,10.62h-.75c-3.75.06-4.85-1.4-3.89-5.07.35-1.32,1.41-1.31,2.38-1.28,1.64,0,3.25.27,4.93.16,2.82-.19,2,2.06,2.14,3.67s-.34,2.77-2.31,2.59c-.83-.07-1.67,0-2.5,0Z"/><path class="cls-84" d="M87.93,13.25A2.82,2.82,0,0,1,89,15.85c0,2.57,0,5.13.07,7.69,0,1.23-.52,1.72-1.62,1.57-3.45-.45-6.89.33-10.34.07a3.78,3.78,0,0,1-2.55-.69,48.35,48.35,0,0,0,.28-9.77c-.13-1.52,1.14-1.39,2.1-1.4C80.63,13.27,84.28,13.27,87.93,13.25Z"/><path class="cls-85" d="M71.56,25.66a4.19,4.19,0,0,0,2-1.54l.93,1.12c.72.71,1.62,1.3.4,2.44-.39.36-.28,1.25-.4,1.9-.32-.48-.64-1-1-1.45-.57-.6-.84-1.56-1.89-1.58C71.22,26.28,71.23,26,71.56,25.66Z"/><path class="cls-86" d="M110.51,11.18a6.34,6.34,0,0,0-1.93-.09c-1.72.44-2.51-.52-3.13-1.85-.31-.23-.32-.46,0-.69a3.06,3.06,0,0,0,.85-3.15c-.37-1.4.31-1.91,1.52-1.8,1.55.14,3.16-.05,4.64.6-.07,1.87-.65,3.7-.16,5.63C112.67,11.25,111.33,11,110.51,11.18Z"/><path class="cls-87" d="M69,27.2c3.65.1,3.76.11,3.62,3.9-.09,2.38.8,4.72.09,7.14-.32,1.08-.8,1.51-1.91,1.4A34,34,0,0,0,64,39.39c-2.43.25-3.3-.71-2.76-3.08.46-2-.42-3.75-.32-5.65.15-3.13.3-3.38,3.42-3.43.9,0,1.81-.11,2.71-.17A1.38,1.38,0,0,1,69,27.2Z"/><path class="cls-45" d="M60.45,38.76l-.82,0a2.37,2.37,0,0,1-.77-2.24c.09-2.7-.38-5.42.32-8.1A.94.94,0,0,1,60.43,28C60.44,31.58,60.44,35.17,60.45,38.76Z"/><path class="cls-66" d="M69,27.2a3.06,3.06,0,0,1-2-.14c-1.76-.92-3.64-.24-5.45-.41a.35.35,0,0,1-.11-.36c0-.12.07-.18.11-.18l10-.45c0,.3,0,.6,0,.9C70.75,26.8,69.7,26.25,69,27.2Z"/><path class="cls-88" d="M61.57,26.11v.54c-.38.45-1.13.58-1.14,1.34l-.85.06a3.35,3.35,0,0,1-2.18-1.46c0-1.06.89-1.18,1.65-1.4a1.07,1.07,0,0,1,1.46,0Z"/><path class="cls-9" d="M104.61,42.54c0,.53,0,1.06,0,1.58-.54.93.84,2.64-1.21,2.94,1-1.71.77-3.55.53-5.39C104.43,41.75,104.51,42.15,104.61,42.54Z"/><path class="cls-89" d="M74.44,30.51l.15,1.24a.8.8,0,0,1,0,.69l-.2.83A2.27,2.27,0,0,1,74.44,30.51Z"/><path class="cls-53" d="M88.44,46.57l.57.08-2,1v-.55C87.2,46.07,87.77,46.19,88.44,46.57Z"/><path class="cls-61" d="M57.64,26.57a2.64,2.64,0,0,1,1.94,1.48c0,3.56,0,7.12.05,10.69a2,2,0,0,1-1,1.47c-2.64,0-5.28-.13-7.92,0-2.22.09-3.13-.79-3.15-3,0-3,.43-6,0-9.06-.28-2.28,1.58-1.8,2.78-2.17C52.72,26.4,55.29,25.21,57.64,26.57Z"/><path class="cls-90" d="M88.44,46.57,87,47.06l-6.64,0c-2.47,0-5,.19-5.78-3.06,0-.6,0-1.2,0-1.8,3-1.45,6.24,0,9.32-.66a6.76,6.76,0,0,1,1.49,0C89.33,41.58,90.11,42.85,88.44,46.57Z"/><path class="cls-84" d="M34,27.28l.44.42c.36,3.3-.32,6.63.31,9.93.25,1.34-.79,1.81-1.78,2-2.87.44-5.75-.29-8.65,0a1.76,1.76,0,0,1-1.7-2.3c.57-2.65.26-5.3.31-8,0-1.59.8-2.21,2.34-2.18C28.15,27.27,31.06,27.26,34,27.28Z"/><path class="cls-33" d="M10.58,39.09c-.16-.79-.75-1.55-.4-2.36a6,6,0,0,0-.58-5.54c.16-.19.45-.37.45-.56.06-3.54,2.36-3.55,5-3.46,5.48.18,5.49.09,5.47,5.64,0,1.16,0,2.33,0,3.49.05,3.46.05,3.43-3.32,3.47A36.15,36.15,0,0,1,10.58,39.09Z"/><path class="cls-60" d="M33.7,40.18l.24,1.06-11.32-.06c-.36-.46-.09-.75.28-1Z"/><path class="cls-91" d="M22.9,40.17c-.09.34-.19.67-.28,1h0a8.19,8.19,0,0,0-.13,4.47c0,.3.07.59.11.88-.37.63-1.14.17-1.58.58-.12-1.7,1.45-3.5-.3-5.12.09-.65-1.45-.85-.5-1.75C21.11,39.87,22,38.35,22.9,40.17Z"/><path class="cls-92" d="M22.1,35.6l-.09.84c-1.14.06-.64-.83-.68-1.31-.16-2.36.23-4.75-.22-7.11.29-.74-1.25-1.13-.41-1.91a1.58,1.58,0,0,1,2.25.08c.36.12.37.25,0,.4-1,.81-.65,2-.89,3.05A17.29,17.29,0,0,1,22.1,35.6Z"/><path class="cls-22" d="M23,26.59a.55.55,0,0,0,0-.4,44.49,44.49,0,0,1,10.57-.06,3.85,3.85,0,0,0,.08.47Z"/><path class="cls-60" d="M21.11,28c.89,1.73.21,3.59.42,5.37.12,1-.46,2.17.48,3-.88,0-.94,0-.94-.58C21.06,33.25,21.1,30.63,21.11,28Z"/><path class="cls-60" d="M22.1,35.6l0-6A8.23,8.23,0,0,1,22.1,35.6Z"/><path class="cls-74" d="M22,21.21v2.58A1.67,1.67,0,0,1,22,21.21Z"/><path class="cls-93" d="M16.89,42.07a20.07,20.07,0,0,1,2.24.38c.89.27.92,1,.91,1.82a1.34,1.34,0,0,1-1,1.41c-1.64.64-3.25.2-4.85.09-1.05-.07-1.42-1.08-1.53-2-.17-1.31.89-1.07,1.66-1.2S16.05,42.24,16.89,42.07Z"/><path class="cls-94" d="M55.14,46.15a16.66,16.66,0,0,0-4.46-.51c-1.33.14-1.73-.53-1.69-1.76s.72-1.86,1.89-1.67a12.94,12.94,0,0,0,4.12,0c1.44-.22,3.32-.19,3.38,1.85S56.5,45.94,55.14,46.15Z"/><path class="cls-28" d="M34.49,42.68c0,1,0,1.92,0,2.89-1,1.64-2.77.22-4,1h0a24.52,24.52,0,0,0-4.69.06C23.91,47,23.22,45.82,23,44c-.21-2,1-2.31,2.42-2.22C28.47,42,31.56,41.6,34.49,42.68Z"/><path class="cls-60" d="M22.49,45.64c-.62-1.51-1-3,.13-4.47C22.58,42.66,22.53,44.15,22.49,45.64Z"/><path class="cls-95" d="M42.48,42.18c1.3.26,3.49-.66,3.38,1.69-.1,2.19-2,2.12-3.73,1.9a20.37,20.37,0,0,0-3.17.31c-.7,0-1.76.1-1.53-1,.19-.88-.46-2.36,1.35-2.44C40,42.55,41.2,41.94,42.48,42.18Z"/><path class="cls-62" d="M30.53,46.58c1.13-1.09,2.83,0,4-1,0,.3-.07.6-.1.91Z"/><path class="cls-96" d="M45,27.07c1.11.19,1.45.91,1.44,2,0,2.91,0,5.82,0,8.74,0,1-.2,2.15-1.45,1.71-2.17-.76-4.27,0-6.38.05-1.61,0-1.9-.56-1.92-1.8,0-3-.07-6-.11-8.95a1.92,1.92,0,0,1,2.31-1.91C41,27,43,26.67,45,27.07Z"/><path class="cls-97" d="M50,26.6c-1.05.1-2.2.06-2.45,1.5-.47-.92-1.7-1.25-1.89-2.4-.08-.33.28-.4.37-.63h0c1.35-.33.93-1.51,1.15-2.39.78,0,1,.49.77,1.15s0,1.09.69,1.25l0,0C48.89,25.7,50.44,25.28,50,26.6Z"/><path class="cls-76" d="M46,25.07c-.12.21-.24.42-.37.63l-5.57.43c-.59-.95-1.93,0-2.51-1Z"/><path class="cls-76" d="M45,27.07c-2,.05-4,.18-6,.12a2.19,2.19,0,0,0-2.45,1.59l-.15-1.21c.78-1.71,2.36-.64,3.53-1C41.65,26.88,43.42,26.15,45,27.07Z"/><path class="cls-98" d="M5.62,28.09C6.24,26.94,7,26.7,7.88,27.8a.93.93,0,0,1-.14,1.34c-1.24.81-1.33-.87-2.12-1.06Z"/><path class="cls-83" d="M115.46,33.07c-.22,1.79.83,4.19-.58,5.06-2,1.21-4.6,1.09-7,.92a1.16,1.16,0,0,1-1.23-1.27c.08-3-.39-5.94.35-8.88.15-.6.24-1.37,1-1.09,1.7.67,3.28-.14,4.91-.19,2.14-.06,2.88.76,2.63,2.8A21.41,21.41,0,0,0,115.46,33.07Z"/><path class="cls-99" d="M121.29,44.81c.13.68-.16,1.11-.9,1.08-1.3,0-1.51-1.11-1.72-2.07-.16-.7,0-1.51.85-1.44C120.88,42.49,120.94,43.78,121.29,44.81Z"/><path class="cls-94" d="M56.52,25.14c-1.08-.95-2.37-.43-3.56-.44-3.75,0-4.26-.36-4.16-4a28,28,0,0,0-.07-5.18c-.19-1.17.47-1.82,1.76-1.81,2.07,0,4.14,0,6.21-.07,1.29,0,1.78.62,1.78,1.83,0,2.48,0,5,0,7.45,0,1.41-1,1.74-2,2.21Z"/><path class="cls-45" d="M50,26.6c-.44-.53-.89-1.05-1.34-1.57a29,29,0,0,0,7.9.11h0c1,.78,1.7-.2,2.51-.5,0,.18,0,.37,0,.55-.39.55-1.27.59-1.41,1.38Z"/><path class="cls-100" d="M74.63,32.44c0-.23,0-.46,0-.69a4.52,4.52,0,0,1,.33-.66c.83-1.12-.18-3.12,1.41-3.69a12.33,12.33,0,0,1,4-.17c2.24,0,4.48.2,6.7.05,1.68-.11,2,.69,2,2,.1,2-.38,4,.37,5.89a10.16,10.16,0,0,0-.28,1.71c0,2-.45,2.73-2.92,2.5-2.8-.25-5.72.28-8.61.29-1.62,0-2.18-.6-2.18-2.18A13.62,13.62,0,0,0,74.63,32.44Z"/><path class="cls-17" d="M89.53,39.64c0,.64,0,1.29,0,1.94-2.39-1-4.91-.35-7.37-.52-1-.07-2.07,0-3.11-.11C82.52,40.05,86.11,40.6,89.53,39.64Z"/><path class="cls-17" d="M90.39,37.76l-.75.92c0-.39-.06-.79,0-1.19s.08-1,.51-.92C90.69,36.69,90.38,37.33,90.39,37.76Z"/><path class="cls-101" d="M62.17,13.22l9.68,0a3.64,3.64,0,0,1,1,3.37,38.32,38.32,0,0,0-.16,6c0,1.67-.74,2.5-2.36,2.53-2.48.06-5,.06-7.44.09-1,0-1.91-.05-1.95-1.34-.09-3.11.53-6.2.22-9.32C61.12,13.85,61.68,13.54,62.17,13.22Z"/><path class="cls-94" d="M108.78,10.32c-1.24.43-2.63.2-2.13-1.4s-.87-4,1.55-4.53c.74-.16,3.73-.54,3,1.47C110.66,7.25,113.57,11.08,108.78,10.32Z"/><path class="cls-75" d="M48.45,33.44c.08-6.19.08-6.19,6.35-6.19,4.18,0,4.12,0,4,4.11-.08,2.06.08,4.14.18,6.21.07,1.49-.6,2.15-2.08,2.11-2.24-.07-4.49-.12-6.74-.11-1.15,0-1.68-.51-1.68-1.64C48.45,36.43,48.45,34.94,48.45,33.44Z"/><path class="cls-102" d="M82.28,46.08c-1.33,0-2.65,0-4,0a2.22,2.22,0,0,1-2.44-1.63c-.51-1.67-.2-2.48,1.66-2,2.94.68,5.85-.41,8.8,0,1.06.13,2-.18,2.12,1.24s-.21,2.35-1.71,2.44-3,0-4.46,0Z"/></g></g></svg>