<svg xmlns="http://www.w3.org/2000/svg" viewBox="0 0 94.35 113.03"><defs><style>.cls-1{fill:#584c41;}</style></defs><g id="圖層_2" data-name="圖層 2"><g id="圖層_1-2" data-name="圖層 1"><path class="cls-1" d="M4.74,14.75a11.77,11.77,0,0,1,4.43-2.14A7.86,7.86,0,0,0,14.28,8.2a4.57,4.57,0,0,1,4.57-2.77c3.55.45,4.89-2.14,6.81-4A10.83,10.83,0,0,0,26.7,0C29.59,2.07,31.9,4.32,33,8.07c.82,2.72,3.17,5.16,5.28,7.27,1.94,1.92,2.55,4.48,4.08,6.59s3.28,3.6,4.23,6.07A14.81,14.81,0,0,0,50,32.52c3.06,3,3.66,7.52,6.87,10.53A15.32,15.32,0,0,1,60,47.59a30.38,30.38,0,0,0,5.69,8,3.48,3.48,0,0,1,.84,1.76c.12.65.17,1.51.59,1.85,3.24,2.58,3.44,7.48,7.39,9.52a3.31,3.31,0,0,1,1.23,1.84,19.73,19.73,0,0,0,6.39,9.63c1.12.88,1.18,2.64,1.76,3.91,1.15,2.55,3.61,3.9,4.68,6.66a20.84,20.84,0,0,0,5.33,7.5c1,.86.27,1.45-.34,1.69-1.05.43-2.15,1.25-3.31.9-4.36-1.36-6.72,2-9.56,4-1.81,1.27-3.43,2.46-5.77,2-1.29-.23-2.55-.24-2.76,1.56a1,1,0,0,1-1,.91,11.65,11.65,0,0,0-7.6,3.66l-1.81-1.71a18.25,18.25,0,0,0-3.64-5.42c-.53-1.24-1.85-1.94-2.19-3.29a9.26,9.26,0,0,0-2.55-3.77c-.38-.53-1.14-.81-1.09-1.62a3,3,0,0,0-1.41-2.12l-.81-1.2a27.37,27.37,0,0,0-4.48-6.67c-1.33-1.91-2.94-3.62-3.89-5.78a3,3,0,0,0-1.4-2.12l-.8-1.2A3,3,0,0,0,38.05,76h0a6.91,6.91,0,0,1-2.23-3.31c-1-1.16-1.34-2.71-2.09-4a13.54,13.54,0,0,1-3.07-4.56l-.56-.83c-1.13-.58-1.21-2.09-2.35-2.66l-.83-1.21c0-1.12-1.25-1.66-1.28-2.77l-3.17-3.87a4,4,0,0,0-1.68-2.51h0c-1.15-1-1-3-2.51-3.74a9.9,9.9,0,0,1-1.55-3.16c-.75-.68-2-.91-2.07-2.21l-1.11-1.66a10.34,10.34,0,0,0-2.79-4.17,47.62,47.62,0,0,0-5-7.44,2.89,2.89,0,0,0-1.41-2.1l-.82-1.22a7,7,0,0,0-2.25-3.35C.88,20.34-.22,19.74,0,18.52c.32-.91,1.5-.93,1.85-1.8Z"/></g></g></svg>